<svg id="Layer_1" data-name="Layer 1" xmlns="http://www.w3.org/2000/svg" viewBox="0 0 294.47 140.63"><defs><style>.cls-1{fill:#fff;}.cls-2{font-size:47.51px;font-family:ChoppersPersonalUse, Choppers Personal Use;}.cls-3{fill:#5b5b5b;}.cls-10,.cls-100,.cls-101,.cls-102,.cls-103,.cls-104,.cls-105,.cls-106,.cls-107,.cls-108,.cls-109,.cls-11,.cls-110,.cls-111,.cls-112,.cls-113,.cls-114,.cls-115,.cls-116,.cls-117,.cls-118,.cls-119,.cls-12,.cls-120,.cls-121,.cls-122,.cls-123,.cls-124,.cls-125,.cls-126,.cls-127,.cls-13,.cls-14,.cls-15,.cls-16,.cls-17,.cls-18,.cls-19,.cls-20,.cls-21,.cls-22,.cls-23,.cls-24,.cls-25,.cls-26,.cls-27,.cls-28,.cls-29,.cls-3,.cls-30,.cls-31,.cls-32,.cls-33,.cls-34,.cls-35,.cls-36,.cls-37,.cls-38,.cls-39,.cls-4,.cls-40,.cls-41,.cls-42,.cls-43,.cls-44,.cls-45,.cls-46,.cls-47,.cls-48,.cls-49,.cls-5,.cls-50,.cls-51,.cls-52,.cls-53,.cls-54,.cls-55,.cls-56,.cls-57,.cls-58,.cls-59,.cls-6,.cls-60,.cls-61,.cls-62,.cls-63,.cls-64,.cls-65,.cls-66,.cls-67,.cls-68,.cls-69,.cls-7,.cls-70,.cls-71,.cls-72,.cls-73,.cls-74,.cls-75,.cls-76,.cls-77,.cls-78,.cls-79,.cls-8,.cls-80,.cls-81,.cls-82,.cls-83,.cls-84,.cls-85,.cls-86,.cls-87,.cls-88,.cls-89,.cls-9,.cls-90,.cls-91,.cls-92,.cls-93,.cls-94,.cls-95,.cls-96,.cls-97,.cls-98,.cls-99{fill-rule:evenodd;}.cls-4{fill:#9b9c9c;}.cls-5{fill:#b78878;}.cls-6{fill:#d6d5d6;}.cls-7{fill:#e8e7e7;}.cls-8{fill:#a67c73;}.cls-9{fill:#686866;}.cls-10{fill:#818181;}.cls-11{fill:#c8927d;}.cls-12{fill:#b1b1b0;}.cls-13{fill:#685449;}.cls-14{fill:#563c33;}.cls-15{fill:#989797;}.cls-16{fill:#d9d9d9;}.cls-17{fill:#a7a8a8;}.cls-18{fill:#6c6c6c;}.cls-19{fill:#796459;}.cls-20{fill:#b57b68;}.cls-21{fill:#bbbbbc;}.cls-22{fill:#f9f9f9;}.cls-23{fill:#adadad;}.cls-24{fill:#7c7b7c;}.cls-25{fill:#987667;}.cls-26{fill:#966c63;}.cls-27{fill:#dedee0;}.cls-28{fill:#877a76;}.cls-29{fill:#bdbebd;}.cls-30{fill:#787676;}.cls-31{fill:#e4e2e2;}.cls-32{fill:#a98676;}.cls-33{fill:#ecebec;}.cls-34{fill:#888887;}.cls-35{fill:#e7aa97;}.cls-36{fill:#a6a6a6;}.cls-37{fill:#cdcdcd;}.cls-38{fill:#d9a28d;}.cls-39{fill:#876b64;}.cls-40{fill:#aa826c;}.cls-41{fill:#4b4b4b;}.cls-42{fill:#e9e9e9;}.cls-43{fill:#a3a3a4;}.cls-44{fill:#d1d0d0;}.cls-45{fill:#f4f4f4;}.cls-46{fill:#ddd;}.cls-47{fill:#c7c8c8;}.cls-48{fill:#d8d8d7;}.cls-49{fill:#d8a696;}.cls-50{fill:#929292;}.cls-51{fill:#abacac;}.cls-52{fill:#d3d3d3;}.cls-53{fill:#72716e;}.cls-54{fill:#594339;}.cls-55{fill:#b4b4b4;}.cls-56{fill:#747474;}.cls-57{fill:#aaa9a9;}.cls-58{fill:#987b74;}.cls-59{fill:#a2a2a2;}.cls-60{fill:#a77967;}.cls-61{fill:#b99587;}.cls-62{fill:#8e8e8e;}.cls-63{fill:#c5c5c5;}.cls-64{fill:#494646;}.cls-65{fill:#d69a88;}.cls-66{fill:#d2d2d2;}.cls-67{fill:#b8b8b7;}.cls-68{fill:#886758;}.cls-69{fill:#636363;}.cls-70{fill:#9e9e9e;}.cls-71{fill:#cccccb;}.cls-72{fill:#5f5f61;}.cls-73{fill:#7e7e7e;}.cls-74{fill:#c0c2c0;}.cls-75{fill:#c89787;}.cls-76{fill:#959595;}.cls-77{fill:#c3c4c3;}.cls-78{fill:#584a45;}.cls-79{fill:#775848;}.cls-80{fill:#858283;}.cls-81{fill:#e1e1e1;}.cls-82{fill:#4a332a;}.cls-83{fill:#766866;}.cls-84{fill:#674c44;}.cls-85{fill:#eee;}.cls-86{fill:#c58b79;}.cls-87{fill:#949393;}.cls-88{fill:#b78c84;}.cls-89{fill:#f6f6f6;}.cls-90{fill:#855a49;}.cls-91{fill:#0c0d0c;}.cls-92{fill:#7a7a7a;}.cls-93{fill:#b59b94;}.cls-94{fill:#b9b9b9;}.cls-95{fill:#9a725c;}.cls-96{fill:#545454;}.cls-97{fill:#434343;}.cls-98{fill:#919190;}.cls-99{fill:#685955;}.cls-100{fill:#595956;}.cls-101{fill:#9f9fa0;}.cls-102{fill:#40403d;}.cls-103{fill:#6e6154;}.cls-104{fill:#775c54;}.cls-105{fill:#f1f1f1;}.cls-106{fill:#c9958b;}.cls-107{fill:#bfbfc0;}.cls-108{fill:#473b36;}.cls-109{fill:#bcc2c4;}.cls-110{fill:#895c51;}.cls-111{fill:#373638;}.cls-112{fill:#2e3031;}.cls-113{fill:#8b8b8b;}.cls-114{fill:#231b15;}.cls-115{fill:#e4dbd8;}.cls-116{fill:#291c17;}.cls-117{fill:#c6bbb8;}.cls-118{fill:#3b3b3c;}.cls-119{fill:#343434;}.cls-120{fill:#252829;}.cls-121{fill:#b5aba8;}.cls-122{fill:#1c1c1c;}.cls-123{fill:#674839;}.cls-124{fill:#c9a796;}.cls-125{fill:#33231c;}.cls-126{fill:#e6e2dd;}.cls-127{fill:#c9c9c9;}.cls-128{font-size:19.16px;font-family:RageItalic, Rage Italic;}</style></defs><path class="cls-1" d="M944.71,478.86" transform="translate(-636.73 -577.15)"/><text class="cls-2" transform="translate(59.63 101.11)">iseWedding</text><path d="M708,647.36" transform="translate(-636.73 -577.15)"/><path d="M663.62,687.08a12.58,12.58,0,0,1-2.14,1.75,3.81,3.81,0,0,1-2,.67,68.85,68.85,0,0,1-6.93-.35,2.69,2.69,0,0,1-.73-.85,1.65,1.65,0,0,1-.16-1,1.49,1.49,0,0,1,.65-1l.38-.58h-.05a27.48,27.48,0,0,0,1.74-2.77,18,18,0,0,0,1.5-3.41,27.42,27.42,0,0,0,1-4.29q.45-2.65.82-5.83c.25-2.12.49-4.32.71-6.62s.42-4.52.61-6.7c.19-2.33.37-4.5.56-6.5s.38-3.65.57-4.93c.15-.93.39-2,.7-3.32s.69-2.66,1.13-4.11.93-3,1.47-4.49,1.15-3,1.81-4.41l-.23.29c-.91.94-1.83,1.85-2.77,2.75a19.58,19.58,0,0,1-3,2.36,16.49,16.49,0,0,1-3.52,1.66,13.17,13.17,0,0,1-4.25.64,25.38,25.38,0,0,1-3.73-.32,17.44,17.44,0,0,1-4.62-1.49l-.48-.29a1.86,1.86,0,0,1-.44-.38.86.86,0,0,1-.19-.46.6.6,0,0,1,.26-.5l4.41-3.73a1.88,1.88,0,0,1,1.2-.67,2.06,2.06,0,0,1,.68.14,16.6,16.6,0,0,0,2.75.76,13.9,13.9,0,0,0,2.55.23,13.44,13.44,0,0,0,3.81-.52,17.75,17.75,0,0,0,3.4-1.4,25.61,25.61,0,0,0,3.12-2c1-.74,2-1.48,3-2.22s1.81-1.38,2.7-2a22,22,0,0,1,2.65-1.69l.52.82a30.85,30.85,0,0,0-2.91,7.46,79.35,79.35,0,0,0-1.72,8.83q-.63,4.63-.94,9.51t-.53,9.47c0,.86-.06,1.58-.08,2.16s0,1.14-.07,1.66-.06,1.06-.09,1.61-.09,1.18-.19,1.92l1.13-2.51q1.46-3.49,3.1-7.26t3.47-7.46q1.83-3.7,3.83-7.2A74.69,74.69,0,0,1,682.2,632a48.17,48.17,0,0,1,4.51-5.42,22.64,22.64,0,0,1,4.81-3.85h0a1.8,1.8,0,0,1,1.4-.38,1.59,1.59,0,0,1,1,.67,2.18,2.18,0,0,1,.35,1.22,2,2,0,0,1-.47,1.29,60.46,60.46,0,0,0-4.39,11.92q-1.62,6.33-2.75,12.51c-.28,1.36-.5,2.56-.65,3.61s-.32,2.06-.5,3-.37,2-.61,3-.57,2.27-1,3.67l2.07-3.85q2.63-4.14,5.35-8.6t5.54-8.75q2.82-4.27,5.75-8.13a56.16,56.16,0,0,1,6-6.76,28.56,28.56,0,0,1,6.36-4.61,14.37,14.37,0,0,1,6.69-1.69,12.58,12.58,0,0,1,6.79,1.66,8,8,0,0,1,3.54,4.64,4.8,4.8,0,0,1-.28,3.9,2.78,2.78,0,0,1-2.72,1.4,2.17,2.17,0,0,1-1.44-.7,4.59,4.59,0,0,1-1-1.45,4.1,4.1,0,0,1-.35-1.67,2,2,0,0,1,.47-1.37,1.3,1.3,0,0,0,.28-.67c0-.25-.14-.53-.52-.84a5.71,5.71,0,0,0-1.67-1,7.54,7.54,0,0,0-2.51-.58,11.78,11.78,0,0,0-5.91,1.69,28.59,28.59,0,0,0-5.85,4.54,57.71,57.71,0,0,0-5.68,6.65q-2.79,3.79-5.44,8t-5.16,8.57q-2.52,4.35-4.77,8.37l-8,26.1c-1.63,1.71-13.81,1.07-13.81,1.07a4,4,0,0,1-.7-.88,2.12,2.12,0,0,1-.19-1.07,2.86,2.86,0,0,1,.56-1,27.59,27.59,0,0,0,2.23-3.56,48.72,48.72,0,0,0,1.93-4.9q.91-2.75,1.75-6t1.74-6.88q1-3.9,2.11-8.13t2.47-8.51q1.34-4.29,2.89-8.52a78.37,78.37,0,0,1,3.47-8.07,47.87,47.87,0,0,0-4.2,6.35c-1.3,2.34-2.55,4.78-3.73,7.32s-2.34,5.17-3.43,7.87-2.16,5.36-3.19,8c-.82,2-1.62,4-2.42,6" transform="translate(-636.73 -577.15)"/><path class="cls-3" d="M692.16,632.17c1-1.63-.78-1.2,1.83-.85-1.87,3.2-.49.6-1.83.85Zm10.69,19v-.3c-.12-2.77.43-2.76.72-2.94l-.71,3.24Zm.85-3.89a13.57,13.57,0,0,0-.48-1.8l1-.52-.51,2.32ZM688,643.06l.59.13.53-2.43c.14,0,.28-.16.29-.06l1,.66.46-6.27.8-.58.19-1.45c2.35.62,2.27.42,3.67,2.31-1.86.42-.17-.06-1.36,1.28l3.5,2.21-1-2.07,3.56-.07c1.17.22,2.49.55,3.66.84l-.11,2,1,.36-1.25.36,1.53.7.23-1a6.83,6.83,0,0,1-.45-2.82c-4.83-1.81-5.61.14-9.76-3.84l4.26-.05c-2.85-2.91,3.33,2.36-1.64-1.19l-.71-.61c1.47-1,1-1,2.86-1.11l2.22.59c1.4-1.9-.52,2.16-.06-.66.15-.91-.26-.1.57-1l-.23-.65c-.92,1.08-.21.54-1.65.59l-2.21,1.07c-.29,1.33.11,1.07-1.23.78-1.27-1.4-.28-.8-1.67-.66a17,17,0,0,1-2.86.09l0-1.23,0-5c.28,0,.46-.17.46-.09s.49.44.42-.65l.39-.79-1.48-.16L691.24,626l.94,2.06-2.2-.74-.87,1.1-2.82,2.78,0,.57c1.81-1,.28-.56,1.77-.48.36.44.65.33.64,1.23,0,1.34.34.47-.61,1.24l-2.24,2.25-.81.82c.09.74-.93.92.74.36l.12.27c1.73-2.08.77-2.15,3.71-2.92.39,2,.45,1.34-.64,2.94a2.22,2.22,0,0,1,0,.57c0,.27,0,.87,0,1s-.12,1.06-.12,1.28a26,26,0,0,0-.8,2.66Zm.33-13.47c1-.28.1-1.15,1.93.46l-1.23.21c-.1,0-.27-.23-.36-.28S688.47,629.71,688.35,629.59Z" transform="translate(-636.73 -577.15)"/><path class="cls-4" d="M680.15,623.87c1.14,1.22,1.21.35.3,1.76-.76-1.11-1.33,1.17-.3-1.76Zm-3.76,17,.78.17c1-4.36,1.81-7.82,2.41-9.81,3.27.19,1.64-.34,3.16,2l-1.37,1.93,2.55-.91c1.21-.4,3.7-1.42,4.19-.38.95-.77.59.1.61-1.24,0-.9-.28-.79-.64-1.23-.69,1.33-.87,1.43-2.39,1.26,1.06.32,0,.16.62-.78l0-.57-2,.16a55.64,55.64,0,0,1,2.46-7.15c1.2-2.54,2.59-3.58,3.74-5.48-1.37-2,.34-.47-.77-2.63-.89-1.74-.81,1-.9-2.08l-2.5-.71.48.31c-1.54.57-1.1.68-2.53,1.29s-.59-.37-1.71,1l-2.62,1.52c1.22-1.83,5-2.24,7.64-1.46l-.93,1.1c-.08.09-.28.45-.31.36s-.2.24-.3.37c2.55-.71.76-1,3.58-1.25l-1,3c-.73,1.76-1.12,3.39-2.7,3.8l.12-.07-2.48,8a11,11,0,0,1-1.86-7.07,13.07,13.07,0,0,1,4-6.22c-1.37,0-1.08-.33-2.57,1.06a11.07,11.07,0,0,0-1.63,2.09l-5.3-1.22c-.94.84-.59.22-.83,1.62l.84-.74L676,622l1.38-1.06,3.58,1a16.59,16.59,0,0,0-1.91.75,9.11,9.11,0,0,1-3.21,0l.28,1c-2.34-.16-2.37-.06-3.91,1.51l-.12.62,3-1,.83.42h3.81l.28,2.64.54.38c.25,1.7-.12,1.39.55,2.06l-1.67-.41-1.14-.33c.76,1.9,0,3.09-1.12,5a9,9,0,0,1-2.82,3l1.87.49,1-.76-.77,3.56Zm3.76-17c1.19-1.74.33-.34,0-.8C679.33,624,679.48,623.33,680.15,623.87Z" transform="translate(-636.73 -577.15)"/><path class="cls-5" d="M655.37,650.08c1-1.9.13-1,1.88-1.28-1,2.1.29,1-1.88,1.28Zm1.38,2.8.34-1.55,1.53-.52,2.35-5.55h-1.05l.42-3.37c.32-1.18,0-.26.49-.82.74,1.6.34,1.62-.23,3.46,1.19-2.21-.47-2.46,1.77-2.8l0-.66-4.08-.89c1.3,2.95.47,5.12-1.58,7.06l1.59-7.16-1-.22-.7-.67,1-1.2c.48-3.14-.28-1.72-.48-4.67l-2-.67c-.16,1.34-.27,3.07-.46,4.39-.41,2.88-.8,1.6-1.55,3.71l.23,1.64c1.17-1.9.51-2.34,2.51-1.48l-.89,4.8-2.27-1.58c.54,2.43.23.36.95,1.91.15.33.23.2.26.56.08.94.5,0-.42.81l1.85,2.66a4.12,4.12,0,0,1,.8,2.67Z" transform="translate(-636.73 -577.15)"/><path class="cls-6" d="M694.08,597.22l-1.14.28c.32-.51.92-2.36,1.14-.28Zm6.33-4.92a3.47,3.47,0,0,1-.27.38l-3.69.64-3.11,1.51.45-2.07c-1.36-.72-.39.45-1.15-.79-1.49-2.32-.44-.65-1-.71-.13.37-1.81-.44.91,2.76-.58.29,0,.13-.86.3-2,.37,1.22-.4-.52,0l0,1.57-1.13-.38-1.76-.82c0,.13.12.21.09.4l-.07,1c-1.41-.4-.47.2-1.41-.88l-1.27-.37.72,2.3c5.57-.18,2.78,1,5.62-.43.79,2,.95,2.39.58,4.65l-1.62-.28,1.82,1.11c.77-1.58.63-1.13,2.58-2.24l.29-2c-.64-.71-.29-.17-.34-1.14l1.46-.15c.54-.64,0-.44,1.16-.94.09,0,.24,0,.25,0,.11.84,1.56-.82,3.55-1-1.55,3.09-1.48-.09-2.14,2.5l1,2.15c.19-1.71.6-1.39,2.62-1.59l.17-1.3,1.48,1.1.14-2.5,1,.07c0-1.66.21-.49-.5-2.06-.56-1.24-.62-.27-.46-1.7-2.83,1.4.83-1-1.95,4.13-1.11-1-.25-2-2.67-1.67Z" transform="translate(-636.73 -577.15)"/><path class="cls-7" d="M693.67,618.48a7.18,7.18,0,0,1,.4,4.2l-.39.79c1.61,1,1.41.67,2.12,2.46h.37c6.22,3.23,5.24.66,10.41,2.26l.26-1.39-1-.33a5.58,5.58,0,0,1-1.51-1.78c-.47-.66-.92-1.16-1.56-2l-1.8-1,.26,3.41c-.63.34,1.12,1.06-.43-.55l-.41-.46c-.13-.14-.29-.35-.46-.51l.47,3c-1.15-1.57-1.1-2.61-1.26-4.54l-1,1.22,1.14-2.23c.07,0,.26.17.37.19a2.46,2.46,0,0,0,.29.07l1.31-.08c-2.63-1.39-1.85-1.54-5.18-2.91l-1.49-.46-.88-.15Z" transform="translate(-636.73 -577.15)"/><path class="cls-8" d="M679.21,596.8l1.19.63,3.21,2.46-.79,6.15c-1.32-.92-4.22-3.66-4.44-5.25-1.55-.88-1.67-.61-1.86-2.22,0,0,0-1,0-1.18-.08-1.33-.14-1.59-.2-3.15l2.93,2.56Zm-8.6-5.5-.17,2.55c.12.26.37.73.51,1.12a6,6,0,0,1,.25,1c1.3,1,.94.7.68,2.58l.23.2.35-.31-.19-2c3.42.9,2.86,2.5,4.89,5.54,1.4,1.15.39.72,1.94,1.91l2.81,3.61c.88.94.05.31,1.26,1.07l-.27-1.26c1-1.76-.29,0,1.52-.73-1.44-1.85-.41-4,.07-6.24.91-2.15.09-.81,1.24-1.07l1,.28-8.41-5-.43-1.34-2.43-.11-1.19.59c1.67.54,2.19.24,2.53,2.19,0,0,0,1.58,0,1.61-.34,1.15-.23.46-.76,1l-3.08-6.36c1,.81,1,.61,2.11.53-1.25-.5-1.16,0-.95-1l-.48,0A8.51,8.51,0,0,0,670.61,591.3Z" transform="translate(-636.73 -577.15)"/><path class="cls-9" d="M660.86,639.15c1,.42.33.06.51.35l1.21.54c2.08.6,3.28,1,4.7-.41a8.14,8.14,0,0,0-4.91-.14c3.27-.67,7.69-3.47,10.27-5.68.61-.51,1.18-.91,1.78-1.33,1.7-1.2.9-1.16,2.35-.47-.12.81.19.31-.33,1-1.93,2.62-1.5-.71-2.21,2.94-2.21,2.44-1-.36-3,2,2.15-.55.42-.16.85.25-.79,2.61-1.3,1.72.2,2.8,2.25-1.31,2.36-1,3.85-3l-1.87-.49a9,9,0,0,0,2.82-3c1.14-1.9,1.88-3.09,1.12-5l-.52-.2c-2.1.64-1.49,1.1-3.87,2.93C667.18,637.45,662.33,637.62,660.86,639.15Z" transform="translate(-636.73 -577.15)"/><path class="cls-10" d="M691.59,608.65c.81-.33.29.51,1.9-1.23.88,1.32,1.43-1.23.4,2l1.16.13c-1,1.35-.71.65-.27,2.4-1.09.36,1.78,2-2.54-.53.92,2.63.67,3.14-1.33,3.86.88-3.11-.59-.13-.37-3.56l.72-3.2c-.72-1-1.09,1-.47-1.27,2.1.5.62-.21.8,1.38Zm.86-2.7-.23,1.18c-2.21-.85-2.31-.51-3.08,1.44a9.8,9.8,0,0,0-.55,3.46l-1.79,1.63-.48-.31,2.5.71c-.63-2.47-.16-.55.16-1,.36,1.93-.08,1.33,1.93,2.26,1.57,1.5,1.76.67,1.78.42.48,1,.49,1.15,1,2.07l.88.15-.3-1.84c1.22.49,2.3,1.73,3-1a2,2,0,0,0,0-.44c-4-.87.31,1.6-3.85-.16,1.32.08,2,1.45,2.25-3.21.23-4.38-1.5-.46-1-4.29l-1,.28-.61-3.15c-1-1.8-.29-.93-.81-.22Z" transform="translate(-636.73 -577.15)"/><path class="cls-11" d="M718.51,616l2.31,2.65c.91-1.22-.34-.91,1.56-.83,1.45,1.79,2.48,1,5,1.62l.74.47a3.33,3.33,0,0,0,1.22-2.45c-1.63-.45-2.83-1.24-4.46-1.68-2.16-.58-2.4,0-4.52-.69l6.81.23c-2-1.42-.38-1.22-3.15-2.25l1-.37c-1.83-.27-2.43-.32-4,.7s-1.6,1.16-1.31,2.58Z" transform="translate(-636.73 -577.15)"/><path class="cls-10" d="M659,613.59c1.19.31.87.47,1,.56l.91.66c2.31,1.76,1.63-.63,1,2.29-.3-.79-.7-.57-1.14-1.06l-.38,0,.43,1.17c1.58.26,1.38.6,2.44-.25l-.52,2-3,.83,0,.18c1.65.55.6,0,.77.93l.62.22c1-1.13,1.49-1.33,3.35-1.52l-.42,2.6.18-.49c1.69.42,1.43-1.18,1.23.77l.78-6.18L664.74,618c-.44-1.14-1.55.94,0-2.72l1.56-.23,1.3-.77.24-.88-3.82-.08-.58-1.34-3.34-.74c1.36,1.25.55.75,2.52,1.24-2.17.23-1.69.85-3-.21C657.94,612.64,659.35,611.25,659,613.59Z" transform="translate(-636.73 -577.15)"/><path class="cls-5" d="M652.1,619.06l-.37.21,2.58,1.65c2.5,1,.41.29.91-.57l.13-1.65.3-.2c-1-2-1.22-4.87-1.47-7.29,1.92,2.11.26-.37,1.9,4.75,1.61-.1.26-.63,1,0l-.34,2.28,0,1.41.39-.53.72-4.18.61-2.55c-2.93-.28.13-.28-5.24-3.1-.08,1.59.08,4-.15,5.28C652.76,616.5,651.53,617.55,652.1,619.06Z" transform="translate(-636.73 -577.15)"/><path class="cls-12" d="M696.1,584.74c-.39,1.19.31.49-.57,1-.7-.62-1.18.73-.23-1.2l-3,.2-.34-.06c3.19,2,2.39,1.9,4.92,2.26,1.75.24,1.07,3.09.84,4.32-2.58-2-1.33-3.27-5.61-3l-.15.69c2.11.38,1-.73,1.77,1.21-1.09.53,1.75,1.49-1.79.09.05.15.15.23.14.45a.87.87,0,0,0,.14.41c0,.1.36.77.45.92.76,1.24-.21.07,1.15.79,1-1.94.61-1.15.53-3.39,1.55,1.35,2.16,1.84,2.13,4l3.69-.64a3.47,3.47,0,0,0,.27-.38l2.58-2.19c-1.91-.07-2.37.77-3.75,2.13a4.72,4.72,0,0,1,.84-4.88l-2.3-.45c.11-.08,1.33-.95,1.38-1,.7-1.16.24-.06,0-1.56l-1.46.45-.61-1Z" transform="translate(-636.73 -577.15)"/><path class="cls-13" d="M652,609.42l.08,4.33c-1.6,1.81-.95.69-1.16,2.92a3.47,3.47,0,0,1-.32,1.59c0,1.16-.06,1.61.82,2.34,1.06,1.2,1-1.12.83,1.64-1.43.24-.91.76-2.27-.36l1,1.46.5.59.59.3-.56-1.26c.85-1.2-.16-.07,1.62-.54h-.33c-.65-1.9-.8-1.86-.64-3.37-.57-1.51.66-2.56,1-4.53.23-1.31.07-3.69.15-5.28,5.37,2.82,2.31,2.82,5.24,3.1l-.61,2.55,1.09-1.31c.38-2.34-1-1,.69-1.28,1.32,1.06.84.44,3,.21-2-.49-1.16,0-2.52-1.24l-1.89-.28-1.09-.53.5-1.34-.21-.23-.89-.19c-3,.53-1.78-1.38-4.08-2.27C651.82,608.51,652.88,606.41,652,609.42Z" transform="translate(-636.73 -577.15)"/><path class="cls-6" d="M698.07,617.83c-1.84.23-.86-.17-2,.57,3.33,1.37,2.55,1.52,5.18,2.91l-1.31.08a2.46,2.46,0,0,1-.29-.07c-.11,0-.3-.18-.37-.19l-1.14,2.23,1-1.22c.16,1.93.11,3,1.26,4.54l-.47-3c.17.16.33.37.46.51l.41.46c1.55,1.61-.2.89.43.55l-.26-3.41,1.8,1c1.05.91.57-.48,1.07,1.14,1.65-.56,1.15,2,1.37-1.43-.75-1.59-.09-.56-1.38-2.07l.33-.58c-1-.66-.72-.34-1.06-1.28l-.33,0-3.88-2.41C697.92,616.9,698.18,614.24,698.07,617.83Z" transform="translate(-636.73 -577.15)"/><path class="cls-14" d="M715.69,607.11l-1,1c-.48.47-1.15,1.15-1.6,1.66a17.56,17.56,0,0,0-2.74,2.56c-1,1.24-1,1.64-2.49,2.21l-2-1.22c-.55,1.53-.52.92-.19,1.88l.86-.05.76,1.62-1.15,1-2,2-.33.58c1.78.42,1.42.43,2.77-.59,2.09-1.57-.17-1.29,2.48-1.17l.33-1.4-1.75-.22a1.46,1.46,0,0,1-.2-.15c1.14-1.37-.81-1.19,2.92-.56.12-1.22,0-1.41.87-1.92,2.08-1.38,1.85-2.7,3.52-4.07a20.41,20.41,0,0,0,2-3.33Z" transform="translate(-636.73 -577.15)"/><path class="cls-15" d="M674.78,627.69l-2.8,5a18.37,18.37,0,0,0-6.47,2.68c-2.64,1.64-3.4,2-6.54,2.34-1.42,2.56-.6.68,0,1.43l1.84,0c1.47-1.53,6.32-1.7,13-6.86,2.38-1.83,1.77-2.29,3.87-2.93l-.49-.6-.36-1.16-.86-.19C674.85,627.38,675.23,627.19,674.78,627.69Z" transform="translate(-636.73 -577.15)"/><path class="cls-16" d="M693,604.14l.61,3.15c1-1.61-.27-.11,1.46-1.57l1.43-1.75s.06.08.05.2l1.15,2.13-.37.86-.3.55.78,1.19,1.19-1v-.37c1.5-3.34.92-3.06.67-6.42l-.23-.71c-1.58,1.05-.51,1.16-2.05,3.28-1.95-4,2.58-2.42.26-4.44l-.24.32c-.71,1.22.15.25-1,1.14,0,0-1.18.73-1.22.75C693.54,602.42,693.43,602,693,604.14Z" transform="translate(-636.73 -577.15)"/><path class="cls-17" d="M669.13,599.9c2,.19,1.39-.25,2.54,1.41-.83-.22-.7,0-1.59-.49s-.64-.52-1-.92Zm-6-5.45,2.4.61c2.1-2.93,1.79-.37,2.12-.06-2.42-.22-1.17-.38-2.73.46.89.66.72,0,.88.79,1.5,1,3.53,2.08,4.18,3.62l-3.7-.8a9.21,9.21,0,0,0,6.7,3.27c-.71-1.89-.13-1.76-1.11-3.26-1.38.31-2-1-2.82-1.89l-.5-.56c-1.26-1.54-.48.16-1.09-1.85a24.22,24.22,0,0,0,2.32,1.9c1.08.77.93.9,2.11,1.84.26-1.88.62-1.61-.68-2.58l-2.2-1.08a19.33,19.33,0,0,0-6.77-3Z" transform="translate(-636.73 -577.15)"/><path class="cls-18" d="M694.56,617.94l1.49.46c1.16-.74.18-.34,2-.57-.74-1.12-.83,1.15-.55-1.55l2.35-.58-1.73-.79c1.85-1.09.87-2,1.93-4l-1.1-.53-.6-.15c-1.44-.81-1.62-.51-1.32-2.47l.3-.55-2.67-.15c-.48,3.83,1.25-.09,1,4.29-.25,4.66-.93,3.29-2.25,3.21,4.16,1.76-.13-.71,3.85.16a2,2,0,0,1,0,.44c-.69,2.72-1.77,1.48-3,1Z" transform="translate(-636.73 -577.15)"/><path class="cls-19" d="M655.23,632.07l-.55.77-1,2.7c-.5,1.83-1.22,4.37-1.57,6.21-.56,2.86-1.25,4.5,1.39,5.67.92-.83.5.13.42-.81,0-.36-.11-.23-.26-.56-.72-1.55-.41.52-.95-1.91l.65-1.74-.23-1.64c.75-2.11,1.14-.83,1.55-3.71.19-1.32.3-3,.46-4.39l2,.67a7.85,7.85,0,0,0,2.61,2l.29-.77c2-2.58.09-1.87,2.29-3.22-.68-1.63-1.07-.26.53-1.19s.23,1,1.53-1.17c-3.09,1.39-4,.88-5.69,4.23C656.21,631.77,657.82,631.88,655.23,632.07Z" transform="translate(-636.73 -577.15)"/><path class="cls-6" d="M690.49,618.77c-1.15,1.9-2.54,2.94-3.74,5.48a55.64,55.64,0,0,0-2.46,7.15l2-.16,2.82-2.78c-1.45-1-.79-.07-1.11-1.88,0,0,0-1.93,0-2l.63-2.3a11.09,11.09,0,0,1,1,1.52s.43,1,.54,1.17c2.07-1.92,1.07-2.52.14-5.49,2.12,2.13.39,1.07,2,2.68a10.44,10.44,0,0,0-.52-2c-.44-1.82-2.2.8.11-1.91C691,618.5,691.47,618.2,690.49,618.77Z" transform="translate(-636.73 -577.15)"/><path class="cls-20" d="M641.25,622.44c-1.54.76-.24-.13-1.63,1.21a5.92,5.92,0,0,1-1.28,1.07l4.25.94c4.6.22,6.93,2,11.28,2.61,0-2.28,0-.92-.6-1.73-1,.1-.17.46-1.24-.37s-.66-.58-.93-1.23c-1.64-.54-3.82-2.2-5.2-2,1.61,1.85,1,0,2.18,2.36C645.84,625,642.53,623.71,641.25,622.44Z" transform="translate(-636.73 -577.15)"/><path class="cls-21" d="M676.19,589.82l1.84-.73c-.16,3-1,1.39,0,4.46-3-2.31-.57,0-1.63-2.5a4.65,4.65,0,0,0-1.69-1.92l2.76-5.89c.47-1.55.49-1.17,1.69-1.7l-1.36,4.61c-.68,3.44-1.34.9-1.57,3.67Zm-2.11,1.77c-.21,1-.3.5.95,1l.43.48,2.43.11.43,1.34c1.21-6.84.41-3.16.37-6.88a12.49,12.49,0,0,1,0-2.74c.68-2.2,1.51-1,.82-4.13-2.85-1-3.08,2.19-4,4.26-1,2.26-3.13,3.11-.67,5.84C675,592.91,675.05,591.12,674.08,591.59Z" transform="translate(-636.73 -577.15)"/><path class="cls-22" d="M689.33,581.94l.82.53c1.33,1,1,.73.41,2.58l-.51,1.61,1.85,1.5.18,0c4.28-.26,3,1,5.61,3,.23-1.23.91-4.08-.84-4.32-2.53-.36-1.73-.23-4.92-2.26-.1-2.21-.79-1.39,0-2.89l1.68-2.77C691,579,690.73,579.9,689.33,581.94Z" transform="translate(-636.73 -577.15)"/><path class="cls-23" d="M704.85,637.06l2.79.35-1,4.07c1.26,0,.74,1.16,1.51-1.68a7.78,7.78,0,0,0,.07-3.25,14.68,14.68,0,0,1-8.13-2.65c1.35-1.08.43-.77,2.56-.55,0-.91,1.28-.39-1.27-1.21a11.71,11.71,0,0,0-2.66-.35c.94-1.15.11-1.15,1.16-1.53-1.81.14-1.39.13-2.86,1.11l.71.61c5,3.55-1.21-1.72,1.64,1.19l-4.26.05C699.24,637.2,700,635.25,704.85,637.06Z" transform="translate(-636.73 -577.15)"/><path class="cls-24" d="M671.74,628.82l-.94-.12c-.18.83-.37.6.42.77,1.16.53.73.23,1.22,1l-1.86.57-9.07,4.11a14.59,14.59,0,0,1-2.54,2.57c3.14-.3,3.9-.7,6.54-2.34a18.37,18.37,0,0,1,6.47-2.68l2.8-5-1,.09C673.22,628.7,672.92,629.19,671.74,628.82Z" transform="translate(-636.73 -577.15)"/><path class="cls-5" d="M727.09,611.54l.35,1.2c2.44-.15,1.56-.46,3.31.6,1.29-1.66.57-.67,1.52-1.26a8.69,8.69,0,0,0-.65-7.94l-.87-.11c-1.55,3.86-2.19,3.36-2,8Z" transform="translate(-636.73 -577.15)"/><path class="cls-25" d="M650.5,635.41l1.49-.54-1.15,2.42a21.67,21.67,0,0,1-3.56,2.88c-.85,1.22-.54.91-1.81,1.27-.35.1-.71.14-1.16.24a11,11,0,0,1-1.29.26c-1.49.48-3.56,1.31-3.84-.18-1,.36-.85-1-.91,1,2.21.9.74.06.87,1.19,3.89-.2,4.92.8,8.29-2.11l3.11-2.59c1.41-1.07,1.37-2.32,3.16-3.67l-.9-2.43a.75.75,0,0,0-.13-.46Z" transform="translate(-636.73 -577.15)"/><path class="cls-26" d="M717.42,614.52c.31,1.11-.1.67.5,1.59l.59-.14,1.22,0c-.29-1.42-.33-1.5,1.31-2.58s2.14-1,4-.7c2-.43,3.2,0,4.8,1.63l-2.66,1-6.81-.23c2.12.64,2.36.11,4.52.69,1.63.44,2.83,1.23,4.46,1.68l-.49-1.44,1.79-.81.13-1.84c-1.75-1.06-.87-.75-3.31-.6l-.35-1.2a9.91,9.91,0,0,0-5.48,0C718,612.47,719.49,613.48,717.42,614.52Z" transform="translate(-636.73 -577.15)"/><path class="cls-27" d="M679.94,617.47a4.26,4.26,0,0,1-2,1.58c-1,.5-.68,0-1.76.89l5.3,1.22a11.07,11.07,0,0,1,1.63-2.09c1.49-1.39,1.2-1,2.57-1.06l.38-.17c.1-.13.28-.46.3-.37s.23-.27.31-.36l.93-1.1C685,615.23,681.16,615.64,679.94,617.47Z" transform="translate(-636.73 -577.15)"/><path class="cls-28" d="M712.19,605.54c-2.93,2.59-.34,1.32-1.62,3-3.27-.52-.86-.11-1.48-1.34l-1,.32-3.25.5,1.87.11,1.83.61-1.32,2c-.46,2.9-.38.82.39,1.88,3.1-1.9,2.42-4.77,5.83-4.56l-.28,1.75c.45-.51,1.12-1.19,1.6-1.66-.93-.23-.65.15-.76-.66-1.72.08-.78.46-.78-1.11a1.83,1.83,0,0,0,1.81-1.05c1.88,1.54.16.64,2.81,1.66l.32-1.58-1.64-.09-.14-.81-2-.91C713.19,604.7,713.09,604.31,712.19,605.54Z" transform="translate(-636.73 -577.15)"/><path class="cls-29" d="M709.26,640.88s-.2-.06-.25-.09c-1.27-.81-.74-1.09-.49-2.59,1.48.62,1.56.43,1.83,1.37.43,1.52-.31,1,.84,2.61l-1.93-1.3Zm-1.06-4.33a7.78,7.78,0,0,1-.07,3.25c-.77,2.84-.25,1.7-1.51,1.68-1,1.53-.32.34.09,2.84h-1.35l.29.93.74.34.25-.93,1.28.56c-.91-2.38.73-1.15,0-3.75l2.15.78c.57,1.72-.07,1.33.72,2.51l.22-1.33,1.87.49.42-1.4c-2.91-1.36.77.44-2.38-4.31-.35-.53-.68-1.17-1-1.67l1.16-1-1.6-.47C708,636.31,708.52,635.48,708.2,636.55Z" transform="translate(-636.73 -577.15)"/><path class="cls-30" d="M732.6,613.36l.59,1.39-1.36.15.34,1-.9,1.54c1.37.66.09.07,1.1.58l1.57,1.41c-.56,0-1.61,0-1.73,0l-1.34.69-1.08,3c2.17-1,.31-1.5,3.1-.52v-2c2.59.24.68.72,2.12-.3l1.08-1.43-1.55-.27c1.05-3.38.84-1.32-1-2.74,1.82-.74,1.51-.21,3.08-1.1l-2.26-.67-.19-.32-.81-1.58Z" transform="translate(-636.73 -577.15)"/><path class="cls-31" d="M699.57,615.08l3-.41,3.28-1.33,1.32-2.62.47-1.59c-4.09,1.13-6.06,1-7.3,3.49Z" transform="translate(-636.73 -577.15)"/><path class="cls-32" d="M673,602.34a28.81,28.81,0,0,1,1.8,5.7l1.11,2,1.62,1.71,4.25.84c-.88-3,.78-.23-3.88-2.7.15-.08.4-.34.46-.2l1-.22c2-.24.2.55,1.84-.18L677,608.1l-.87-1.25,3.72-.07c-1-.24-4.46-.6-4.6-1.69-.17-2.42.45-.87-1.21-2.81Z" transform="translate(-636.73 -577.15)"/><path class="cls-14" d="M655.65,618.5l-.3.2c.76,1.37.72,4.46.3,5.94l-.42,1.19c0-.06-.1.17-.2.37l-2.22-.9.26-2.87c-1.78.47-.77-.66-1.62.54l.56,1.26,1,1c.62,1,.29.38.26,1.31.6.81.63-.55.6,1.73l.42-.14c1.13,0,.92-.25.68.85-.15-2.24-.55-1,1.33-1.28l2.07,1.45c2-1.23,1.84-2.61,3.46-3.4l.67-.37c.08-1.14.38-.15-.28-1.17l-1.63,1.3c-1.16,1.25-.17,1.13-1.87,1.54s-1.81,0-2.32-1.08c.69-2.71-.55-4.57,1.08-5.25-.69-.48-.5-.64-.71-1.11l0-1.41c-.52-.67-.54.64-.58-.67,0-.21-.27-.21-.35-.35Z" transform="translate(-636.73 -577.15)"/><path class="cls-33" d="M684.42,606.57l2.78,4c.36,0,2.22.28,1.31-1.77-.41-.89-1.28-.72-2.44-1.17,2.24.45,1.79.67,3.3-.09l-.83-2.9c-1.44,0-3.15.27-3.86-1.53l-.45-1.79,1.17.43-.91-1.38C684,602.57,683,604.72,684.42,606.57Z" transform="translate(-636.73 -577.15)"/><path class="cls-34" d="M690.87,635.09c.93,1.51.31,2.51,1.5,6.52a1.47,1.47,0,0,0,.18-.3l.17-.29c0-.07.1-.24.14-.32l.51-1.19c2,2.19,1.68,2.48,1.94,5.58l-3.53-1.8c.14,1.55.12,1.33,1.43,1.84l5.14.83L697,644.21c.56-2.63-.38,0,1.27-.76-3.39-2.49-2.61-2.17-4.51-5.79l-2.07-3.15Z" transform="translate(-636.73 -577.15)"/><path class="cls-35" d="M644.55,636.57c-1.77,2.19-3.82.58-5.37,5.19.28,1.49,2.35.66,3.84.18l-.1-1c2.15-.6,2.5-1.13,3.16-3.36l1.09-.51.38-1.63Z" transform="translate(-636.73 -577.15)"/><path class="cls-36" d="M667.16,612.31c1.43.3,1.22-.13.77,1.22,2.11-.92,1-.93,3.72-1.67-1.69,2.58.38-.38-1.34,1.32-1.17,1.16.27-1.25-.16.52-.11.44,1,.57-2,1.72-.77-.85-1.39.87-.49-1.1l-1.3.77-.2,1.17,1.67-.78c.23.74,1.37-.91-.37,1.49s-.67,2-2.08,5.47c.15.34-.16.57.37,1.1l1.43-.9a7,7,0,0,1,1.15-5.12A8,8,0,0,1,671,614.7c1.3-.93,0-.67,2.13-.55l.08-.9c.15-1.85.12-.42-.66-1.22a2.94,2.94,0,0,1-.78-1.24c-1.09.09-.23-.12-1.22.17s-.31.13-1,.45A13.52,13.52,0,0,1,667.16,612.31Z" transform="translate(-636.73 -577.15)"/><path class="cls-37" d="M705.43,629.79l-2.14-.53-.7,0c-.83.88-.42.07-.57,1-.46,2.82,1.46-1.24.06.66l-2.22-.59c-1.05.38-.22.38-1.16,1.53a11.71,11.71,0,0,1,2.66.35c2.55.82,1.28.3,1.27,1.21,2.5-.14,3.45-.55,6,1-.83-2.09-1.56-2.17-3.5-3l2.2-.42-1-2.17C706.2,630.89,706.44,629.48,705.43,629.79Z" transform="translate(-636.73 -577.15)"/><path class="cls-38" d="M642.59,625.66l-2.64.54c-1.83.17,0,0-1,.64l3.59.65c2.08-.37,3.21.11,4.89-.32l.63,1.31,2.85.42-.87.52c.21,1.14-1.06.65,1.11,1.07l2.59-.87.53-1.49-.42.14C649.52,627.61,647.19,625.88,642.59,625.66Z" transform="translate(-636.73 -577.15)"/><path class="cls-39" d="M717.55,625.39l1.12-.62L719,627l1.14.19-.24-1.07c-1.55-.6-.4-.05-.52-.78,5.29-3.88,4.24-1.51,6.4-4.22l1,.26.61-1.93c-2.5-.58-3.53.17-5-1.62-1.9-.08-.65-.39-1.56.83l3.93,1.65C721.22,623,720.89,620.5,717.55,625.39Z" transform="translate(-636.73 -577.15)"/><path class="cls-40" d="M645.6,632.71l-2,2.8.9,1.06,3-1.15-.38,1.63c-.11.31-.76,1.72-.76,1.74-.3,1.77-.81.37.45.93,1.33-1.07.81-.46,1.72-1.75l-.88-1.4s3.07-3.38.53-6Z" transform="translate(-636.73 -577.15)"/><path class="cls-41" d="M667.63,606.37c-2.46-.66-6.06.94-6.75-.9l-2.53.54c.7.94.27-.54.19.61a6.47,6.47,0,0,1-.23.76,11.86,11.86,0,0,1-.85,1.52l.21.23,2.73-.66c2.81-1.75,7.81-2.16,10.46-.18l.8.71c1.09-1.36-1.12-1.87,1.46-.91-.76,3-.17.38.14,1.85l.24-1.07.14-1.88Z" transform="translate(-636.73 -577.15)"/><path class="cls-37" d="M678.49,613.57l-.28,1.15-1.75.51c1,2.11.1,1.29-.58,3.91l-.19.76.47,0c1.08-.91.76-.39,1.76-.89a4.26,4.26,0,0,0,2-1.58l2.62-1.52-3.79-.73,3-2.63-4.25-.84,0,.23C678.58,613,678.1,612.52,678.49,613.57Z" transform="translate(-636.73 -577.15)"/><path class="cls-42" d="M683.3,611.41l-.44.25c-.32.27-.64.57-1.11.93l-3,2.63,3.79.73c1.12-1.37.19-.35,1.71-1s1-.72,2.53-1.29l1.79-1.63Z" transform="translate(-636.73 -577.15)"/><path class="cls-42" d="M689.11,628.46l.87-1.1,1.26-1.32,1.35-3.52a5.45,5.45,0,0,0,.43-4.21l-1.1-.08c-2.31,2.71-.55.09-.11,1.91a10.44,10.44,0,0,1,.52,2c-1.65-1.61.08-.55-2-2.68.93,3,1.93,3.57-.14,5.49-.11-.2-.54-1.17-.54-1.17a11.09,11.09,0,0,0-1-1.52l-.63,2.3c0,.09,0,2,0,2C688.32,628.39,687.66,627.49,689.11,628.46Z" transform="translate(-636.73 -577.15)"/><path class="cls-43" d="M667.28,639.63l.3-.86,1.59-.17,1.13,0,1-.71c2-2.34.74.46,3-2v-1.49c-.64-.73,1.45-.5-1.58-.66-2.58,2.21-7,5-10.27,5.68A8.14,8.14,0,0,1,667.28,639.63Z" transform="translate(-636.73 -577.15)"/><path class="cls-44" d="M658.26,611l1.89.28,3.34.74,3.67.29a13.52,13.52,0,0,0,2.35-.9c.7-.32.15-.2,1-.45s.13-.08,1.22-.17c-.71-.89.76-.91-3.66-.79C665.62,610.08,659.69,609.62,658.26,611Z" transform="translate(-636.73 -577.15)"/><path class="cls-12" d="M717.29,633.63,715.83,632c.24-.07-.48-1.74,1.32.1.85.87.17.13.14,1.49Zm-2.17-2.71-.73.6c-.4,1.44-.79.77.05,2.39l-1.36-.25c.38,1.67,1.68,1.47,3.47,2.34-.23-1.12.75-.17-.52-1.4l1.31.17,2.22-.79c-.85-1.12-.07-.2-.3-1.8-.3-2-.4-1.58-1.61-2.55l-.74,1.31Z" transform="translate(-636.73 -577.15)"/><path class="cls-39" d="M718.13,605.39l-.32,1.58c-2.65-1-.93-.12-2.81-1.66a1.83,1.83,0,0,1-1.81,1.05c0,1.57-.94,1.19.78,1.11,1.34-1,1.22-1.35,1.72-.36l1.07-.13a20.41,20.41,0,0,1-2,3.33c1.14,1,1.24-.61-.08,1.88-.73,1.39-.69.63-1.41,2.35l.9.16c1.93-2.08,4.29-6.73,5.54-9.28l-.48-1Z" transform="translate(-636.73 -577.15)"/><path class="cls-45" d="M702.63,633.35c-2.13-.22-1.21-.53-2.56.55a14.68,14.68,0,0,0,8.13,2.65c.32-1.07-.25-.24,1.35-1.46-.7-1.14-.3-.51-.94-.77C706.08,632.8,705.13,633.21,702.63,633.35Z" transform="translate(-636.73 -577.15)"/><path class="cls-38" d="M641.65,622.38l-.4.06c1.28,1.27,4.59,2.58,6.83,2.9-1.21-2.39-.57-.51-2.18-2.36,1.38-.24,3.56,1.42,5.2,2l.32-1-.5-.59c-2-.87-2.56-2.2-4.83-2C644.88,621.46,644.39,622.29,641.65,622.38Z" transform="translate(-636.73 -577.15)"/><path class="cls-46" d="M681.66,624.23a11,11,0,0,0,1.86,7.07l2.48-8c-1.91-.3-2.16-.38-3.58,1.21Z" transform="translate(-636.73 -577.15)"/><path class="cls-47" d="M683.85,585.65l3.66,1,1.5-.88-.82,2.17.55-.09c1-.18-.36-.34,1.54-.07.11,0,1.44.37,1.62.42l-1.85-1.5.51-1.61c-.48-.18-1.3-.54-1.51-.61l-1.8-.4c-.82-.83-.29.15-.44-1.33l0-.12c-.5.39-.42.76-.92,1.18l-1.57-1-1.81,2.64Z" transform="translate(-636.73 -577.15)"/><path class="cls-48" d="M660.4,608.47c-2.31,1.7-.59.32-.23,1,2,0,9.92.11,10.69-1.17C668.21,606.31,663.21,606.72,660.4,608.47Z" transform="translate(-636.73 -577.15)"/><path class="cls-49" d="M678.38,600.79c.22,1.59,3.12,4.33,4.44,5.25l.79-6.15-3.21-2.46.25,2.08c.7-.92.37-.74,1.2-.72.47,2.12,1.56,3.25-.23,4.92-.22-1.41.28-1.45-.39-3.62-.08.15-.31.9-.36,1-.66,1.1-.11.64-1.17,1.24.28-1.76.34-4-.49-5.52-.5.89-.08.39-.31,1.81C678.82,599.17,678.43,600.62,678.38,600.79Z" transform="translate(-636.73 -577.15)"/><path class="cls-50" d="M658.39,601.89c.9-1,.38-.33,1.8.4a9.94,9.94,0,0,0,3,1.13,9,9,0,0,0,2,.91c2.33,1,2.15.48,2.49,2l6,.62c-.29-1.75.11-.53-.78-2a8.87,8.87,0,0,0-2.21.5c-3.69-1.39,1.22,0-1.17-.66a43.37,43.37,0,0,1-9.57-3.38c-1.37-.87-1.51-.25-1.08-2.52C656.69,599.88,657.22,600.62,658.39,601.89Z" transform="translate(-636.73 -577.15)"/><path class="cls-51" d="M690.41,641.36l1.37,1.93,3.53,1.8c-.26-3.1,0-3.39-1.94-5.58l-.51,1.19c0,.08-.11.25-.14.32l-.17.29a1.47,1.47,0,0,1-.18.3c-1.19-4-.57-5-1.5-6.52Z" transform="translate(-636.73 -577.15)"/><path class="cls-52" d="M705,591.67c2.55,1.58,2.47,2.18,5.23,1.64.38,1.71.07.3.76,1.58a13.39,13.39,0,0,0,.83,1.66l.85.62,1.3-3.25c-1.51-.74-2.82-.91-4-1.48-1.93-1-.78-1.54-3.32-2.33Z" transform="translate(-636.73 -577.15)"/><path class="cls-32" d="M667.17,622.64v.85l.84.39c1.35-.27.22-.11.58.32l.32,1.43c1.32-1.76.42-.77,1.74-1.48l.2-.25.66-1-2.28,1.52c.73-3,1.39-5.07,4.68-4.79.8.83.29-.18.21,1.39a13.34,13.34,0,0,0,1.57-1.12l.19-.76c-1.18-.25-1.53.11-.62-.55l-1.76-.76.66,1.15-2.76-.2.54-1.14v-.47l-.59.49Z" transform="translate(-636.73 -577.15)"/><path class="cls-51" d="M718.2,598.62c.12-.14.43-.45.45-.32s.35-.28.41-.33a1.81,1.81,0,0,0,.37-.34l-1.25,5.21c2.55-2,2.61-6.43,4.93-9-1.28-1-2,.84-.47-1.76C720.12,593.22,718.86,596,718.2,598.62Z" transform="translate(-636.73 -577.15)"/><path class="cls-53" d="M687.74,639.66c-1.4,2-2.09,1.51-4,2.56a12.58,12.58,0,0,0-3.5,3l-.61.75-.87-1-.38,2.71c2.24-.45,2.76-2.5,5-3.79,2.91-1.65,2.68.33,5.42-3.44,0-.22.11-1.21.12-1.28s0-.76,0-1a2.22,2.22,0,0,0,0-.57Z" transform="translate(-636.73 -577.15)"/><path class="cls-30" d="M650.56,618.26a3.47,3.47,0,0,0,.32-1.59c.21-2.23-.44-1.11,1.16-2.92l-1,.2-.05-4.22c.51-.76-.36-.24.93-.31.92-3-.14-.91.53-3-1.91-1-1.06-.93-3.22-2.15,0,3.43.59,1.73.94,7.06C650.35,613.54,650,616.49,650.56,618.26Z" transform="translate(-636.73 -577.15)"/><path class="cls-25" d="M641.48,621.3l.79,0-.62,1.13c2.74-.09,3.23-.92,4.44-1,2.27-.21,2.8,1.12,4.83,2l-1-1.46c1.36,1.12.84.6,2.27.36.19-2.76.23-.44-.83-1.64-.84,1.31.06.94-2.06.25-1-.31-2-.8-2.93-1C644.16,619.32,642.82,619.64,641.48,621.3Z" transform="translate(-636.73 -577.15)"/><path class="cls-54" d="M663.23,628.27l-2.87.85c-1,1-1.06.87-2.54.52l-2,.66-.63,1.77c2.59-.19,1-.3,3.52,1.16,1.72-3.35,2.6-2.84,5.69-4.23l1.3-1-.67-.21Z" transform="translate(-636.73 -577.15)"/><path class="cls-12" d="M681.37,635.09c-2.45.91-3.26,5.16-2.82,7.91,3.11.69.75.39,1.91-.17-1.23-2.11-.45-.11-.09-2.35.3-1.84-.71.65.25-1.75.59-1.48,1.72-1.8,2.71-3.23l.59-1.32Z" transform="translate(-636.73 -577.15)"/><path class="cls-55" d="M684.49,600.33l.91,1.38,3.14,2.89.83,2.9c-1.51.76-1.06.54-3.3.09,1.16.45,2,.28,2.44,1.17.91,2-1,1.72-1.31,1.77-.16.89,1.1.53-1.29.66a13.66,13.66,0,0,1-2.33-.27l-.28.49,5.29.62a9.8,9.8,0,0,1,.55-3.46c.77-2,.87-2.29,3.08-1.44l.23-1.18c-.87.43.93,2.84-4-2.72-.58-.66-1.12-1.21-1.69-1.82-1-1.09-.75-.23-1-2.15C684.58,599.52,685.4,598.18,684.49,600.33Z" transform="translate(-636.73 -577.15)"/><path class="cls-16" d="M692.45,606l-.24-2c-1-.9-1.27-1.74-2.36-2.48-1.59-1.08-1.54-.4-3.12-1.9l-1-.28c.28,1.92,0,1.06,1,2.15.57.61,1.11,1.16,1.69,1.82C693.38,608.79,691.58,606.38,692.45,606Z" transform="translate(-636.73 -577.15)"/><path class="cls-56" d="M676.19,589.82c.23-2.77.89-.23,1.57-3.67l1.36-4.61c-1.2.53-1.22.15-1.69,1.7l-2.76,5.89a4.65,4.65,0,0,1,1.69,1.92c1.06,2.54-1.41.19,1.63,2.5-1-3.07-.12-1.41,0-4.46Z" transform="translate(-636.73 -577.15)"/><path class="cls-57" d="M728.31,621.58l-.56,1.07,1.58-.36-.53,2.15c3-.23,1.72-.94,4.75-.33.66-2.69.91-1,2.34-2.79l-.87-1c-1.44,1,.47.54-2.12.3v2c-2.79-1-.93-.53-3.1.52l1.08-3-.75-1.14C729.17,620.94,730,620.48,728.31,621.58Z" transform="translate(-636.73 -577.15)"/><path class="cls-21" d="M686.29,581.08c2.12,0,1.61-.33,3,.86,1.4-2,1.62-2.91,4.28-3l-1.68,2.77.73.23,1,.1c1.11-1.73,2.12-2.77.73-4.24-1.76-.35-3-.45-4.32.88C687.74,581.18,689.1,579.84,686.29,581.08Z" transform="translate(-636.73 -577.15)"/><path class="cls-6" d="M672.86,605c-1.14-1.39-1.59-1.53-3.41-2.21l1.3,1.35c-2-.39-3.37-1.45-5.69-2.11-1.59-.45-4-1-5.15-.57a43.37,43.37,0,0,0,9.57,3.38c2.39.65-2.52-.73,1.17.66A8.87,8.87,0,0,1,672.86,605Z" transform="translate(-636.73 -577.15)"/><path class="cls-50" d="M654.62,604.83c1.1-.25.75-.74,2.25.44,1.89,1.49,1.27-.27.43,2.29l-2.68-2.73Zm2,3.88.89.19a11.86,11.86,0,0,0,.85-1.52,6.47,6.47,0,0,0,.23-.76c.08-1.15.51.33-.19-.61l.19-1.28c-2-.05-2.41-.11-3.87-1.62l1.39-.63.21-.55c-2,.2-2.17-.11-3.75.85.33,1.36,0,.44.61,1.55.09.14.92,1.29,1.07,1.48A21.15,21.15,0,0,1,656.57,608.71Z" transform="translate(-636.73 -577.15)"/><path class="cls-23" d="M698.26,628.34s1.39.27,1.5.31c1.12.32.34-.39,1,.5,1.44,0,.73.49,1.65-.59l.23.65.7,0c1-1.22-.43-.71,1.37-.71l.77,1.24c1-.31.77,1.1.84-1l.31-.55c-5.17-1.6-4.19,1-10.41-2.26-.5,2.21-1.55,2.09-.39,4.23,1.42-1.8,1-.79,1-3.19l2.27,1.11C697.7,627.53,698.92,628,698.26,628.34Z" transform="translate(-636.73 -577.15)"/><path class="cls-44" d="M680.22,645.21a12.58,12.58,0,0,1,3.5-3c1.93-1.05,2.62-.54,4-2.56-1.75-.66-.64.59-1.26-.92l.72-1.11-1.28-.13-.12-.27-5.31,6.63Z" transform="translate(-636.73 -577.15)"/><path class="cls-14" d="M651.17,630.49c-.18.84.06.63-.86.43l1.13,1,.26.26c-1.57,1.29-2.94,2.22-1.78,3.87l.58-.61,2.17-2.76a.75.75,0,0,1,.13.46l.9,2.43,1-2.7-1-3.15.13-.07Z" transform="translate(-636.73 -577.15)"/><path class="cls-58" d="M636.73,625.46c.3,1.44,2.53,3.12,4,3.71,1.07.43,2.1.51,3.35,1,1.62.57,1.27,1.14,2.49.17l-.07-.67-1.94-.08-.08-1.29c-1.39.59-1.11.69-2.91.44l1-1.2-3.59-.65c1-.59-.85-.47,1-.64l-2.15-1.1c-1.15.11-.6-.7-1,.28Z" transform="translate(-636.73 -577.15)"/><path class="cls-59" d="M707.58,602.92c-2.69,1.8-2.46-.47-5-.13l-.21,1.81,1.09-.59c2.09,0,.17-.21.69,1l4.89-1c0,.54-.26.52.88,1.42l1.32-.65-.07-2.94Z" transform="translate(-636.73 -577.15)"/><path class="cls-60" d="M693.5,652.78c2,.61.77.31,2.45,1.25l.51-1-1-4.71-2.84-.95-1.61-.56-.37.91c.92.63,2.55,1.5,4,2.29Z" transform="translate(-636.73 -577.15)"/><path class="cls-15" d="M660.4,608.47l-2.73.66-.5,1.34,1.09.53c1.43-1.38,7.36-.92,9.82-1,4.42-.12,2.95-.1,3.66.79,1-.19.91,1.51.67-1.21l-.75-.58-.8-.71c-.77,1.28-8.72,1.16-10.69,1.17C659.81,608.79,658.09,610.17,660.4,608.47Z" transform="translate(-636.73 -577.15)"/><path class="cls-50" d="M680.46,642.83c-1.16.56,1.2.86-1.91.17-.27,2.08-.76,2.74-.19,4.63l.38-2.71.87,1,.61-.75.27-1.35,5.31-6.63c-1.67.56-.65.38-.74-.36C682.9,637.68,681.32,640.67,680.46,642.83Z" transform="translate(-636.73 -577.15)"/><path class="cls-61" d="M732.27,612.08l-.2,1,.53.23.77-1.14.81,1.58.19.32.25-2.57c.59-3.66-.29-5.64-3-7.41A8.69,8.69,0,0,1,732.27,612.08Z" transform="translate(-636.73 -577.15)"/><path class="cls-62" d="M665.74,628l-1.3,1c-1.3,2.16.22.16-1.53,1.17s-1.21-.44-.53,1.19a4.69,4.69,0,0,0,3.38-.16,5.15,5.15,0,0,0,1.42-.47c1.34-.74.94-.74,1.52-1.43l-1.08-.34,1-1.28-1.29.37c-.49-.49-.89.73-.2-.83Z" transform="translate(-636.73 -577.15)"/><path class="cls-52" d="M685.88,623.41c1.58-.41,2-2,2.7-3.8l-2.1.77c-.2-.8-1.06.47,1-1.77-2.89.12-2.49.35-2.14,2.58-2,.15-1.78.81-2.73,2.74Z" transform="translate(-636.73 -577.15)"/><path class="cls-63" d="M704.16,605.06l.06,2-.17.75.76.19,3.25-.5c0-2.12.6-.07-1.07-1.85l2.68.58.26-.74c-1.14-.9-.84-.88-.88-1.42Z" transform="translate(-636.73 -577.15)"/><path class="cls-64" d="M717.34,634.77c1.87.49.58-.44,1.54.85-.73,2.23,0,.83-1.33,1.44l-.77,4c.79-1-.15-1.41,3-4l3.7-.22c-.38-1.78-2.1-2.15-3.88-2.87Z" transform="translate(-636.73 -577.15)"/><path class="cls-65" d="M689.88,651.7l.83-.56,2,1.49.78.15,1.15-2.82c-1.42-.79-3-1.66-4-2.29,0,2.24,0,1.75-1.72,3.14Z" transform="translate(-636.73 -577.15)"/><path class="cls-66" d="M659.57,603.45c.49,1.37,0,.81,1.31,2,.69,1.84,4.29.24,6.75.9-.34-1.56-.16-1-2.49-2a9,9,0,0,1-2-.91l-2.16,1C659.72,603.86,661,605.37,659.57,603.45Z" transform="translate(-636.73 -577.15)"/><path class="cls-5" d="M703.83,620.39c1.29,1.51.63.48,1.38,2.07l.52,2.77,1.43-.52c-1.25-1.41-.47.54-1.06-2,1.24-1-.32-.55,1.68-.23l.41-.13.47-.76.42-3c-2.65-.12-.39-.4-2.48,1.17C705.25,620.82,705.61,620.81,703.83,620.39Z" transform="translate(-636.73 -577.15)"/><path class="cls-42" d="M686,617.84l-.38.17a13.07,13.07,0,0,0-4,6.22l.76.32c1.42-1.59,1.67-1.51,3.58-1.21l-.12.07-3.23.52c1-1.93.69-2.59,2.73-2.74-.35-2.23-.75-2.46,2.14-2.58-2.1,2.24-1.24,1-1,1.77l2.1-.77,1-3C686.8,616.81,688.59,617.13,686,617.84Z" transform="translate(-636.73 -577.15)"/><path class="cls-67" d="M659.91,601.41c1.14-.42,3.56.12,5.15.57,2.32.66,3.71,1.72,5.69,2.11l-1.3-1.35-10.7-4,.08.11C658.4,601.16,658.54,600.54,659.91,601.41Z" transform="translate(-636.73 -577.15)"/><path class="cls-6" d="M667.17,622.64l4.18-5c-.55-.32-2,.09-.3-1.85,0,0,.23-.07.3-.22s.22-.13.31-.17l-.69-.72a8,8,0,0,0-2.65,2.82A7,7,0,0,0,667.17,622.64Z" transform="translate(-636.73 -577.15)"/><path class="cls-31" d="M683.33,635.5c-1,1.43-2.12,1.75-2.71,3.23-1,2.4,0-.09-.25,1.75-.36,2.24-1.14.24.09,2.35.86-2.16,2.44-5.15,4.6-6l.81-.82c-.46-.56-.22-.72-1.41-.9C684.42,635.14,683.48,635.45,683.33,635.5Z" transform="translate(-636.73 -577.15)"/><path class="cls-11" d="M639.17,638.34c-1.7,1-1.38,4-1.55,5.83,1.75,1.1.13.2,1-.06-.79-.55-1,1.07-.33-1.39.06-2-.1-.6.91-1,1.55-4.61,3.6-3,5.37-5.19l-.9-1.06c-1.32.26-.12-.23-1.49.73a4.75,4.75,0,0,0-1.13.94C639.07,639.26,639.78,640.3,639.17,638.34Z" transform="translate(-636.73 -577.15)"/><path class="cls-68" d="M657.48,620.72l2.1.44c-.16,1.62-1.59,4.38-3.18,4.81.51,1,.72,1.47,2.32,1.08s.71-.29,1.87-1.54c-1.62-1.28-1.31-1.54-.53-3.36l.35-1.29c-.17-.91.88-.38-.77-.93l-2.87-.32C657,620.08,656.79,620.24,657.48,620.72Z" transform="translate(-636.73 -577.15)"/><path class="cls-12" d="M699,610.33l1.1.53c-1.06,2-.08,3-1.93,4l1.73.79-.3-.62.79-2.46c1.24-2.52,3.21-2.36,7.3-3.49l-.47,1.59,1.32-2-1.83-.61c-2.4,1.84-1.25.31-3.84,1.19C701.2,609.88,700.51,609.92,699,610.33Z" transform="translate(-636.73 -577.15)"/><path class="cls-5" d="M707.58,612.6l.44.13-.12,1.83c1.47-.57,1.48-1,2.49-2.21a17.56,17.56,0,0,1,2.74-2.56l.28-1.75C710,607.83,710.68,610.7,707.58,612.6Z" transform="translate(-636.73 -577.15)"/><path class="cls-8" d="M689,649.6l-1.32,3c1,1,1,.65,1.84,1.56.61.67.36.74,1.32,1.6l.73-.36,1.9-2.66-.78-.15a5,5,0,0,1-2.1,1.23l-.74-2.16-.92-.89c1.67-1.39,1.68-.9,1.72-3.14Z" transform="translate(-636.73 -577.15)"/><path class="cls-69" d="M706,595.27l2.39-.21c1.36-.63,1.14.67,1.69,1.63s-.6,0,.7.72c1.71-.53,0,.2,1.05-.86a13.39,13.39,0,0,1-.83-1.66c-.69-1.28-.38.13-.76-1.58-2.76.54-2.68-.06-5.23-1.64l0-.16c-.16,1.43-.1.46.46,1.7C706.2,594.78,706,593.61,706,595.27Z" transform="translate(-636.73 -577.15)"/><path class="cls-65" d="M672.46,598.41l1.37.43.2,3.44c2,.24,1.23.51,3.13-.31-2-3-1.47-4.64-4.89-5.54Z" transform="translate(-636.73 -577.15)"/><path class="cls-70" d="M716.78,641l.2,1.14c.26-.13.42-.39.43-.32l1-1.75,1.44-1.34.79.86c1.6.57,1,.73,1.4-1.13l-1.82-.7,4.07.38-.83-1.33-3.7.22C716.63,639.63,717.57,640.05,716.78,641Z" transform="translate(-636.73 -577.15)"/><path class="cls-53" d="M656.27,601.93l-.21.55c1.55.5,2,.71,2.48,2.25l-.19,1.28,2.53-.54c-1.34-1.21-.82-.65-1.31-2l-1.18-1.56c-1.17-1.27-1.7-2,.44-3l-.08-.11-2.27-1.6c-.3,2.61.18,2.22.59,4.39Z" transform="translate(-636.73 -577.15)"/><path class="cls-68" d="M646.58,630.29l1.65.33c2.54,2.57-.52,6-.53,6l.88,1.4.72-1.12.62-.83c-1.16-1.65.21-2.58,1.78-3.87l-.26-.26-1.13-1c.92.2.68.41.86-.43-2.17-.42-.9.07-1.11-1.07C648.08,630.67,649.14,629.37,646.58,630.29Z" transform="translate(-636.73 -577.15)"/><path class="cls-55" d="M693.74,637.66c1.9,3.62,1.12,3.3,4.51,5.79l.79,1.31.39-1.72a9.91,9.91,0,0,1-2-1.95l-2.57-3c1.6.51,1.26,1.17,2.58.79h.21l-3.5-2.21-.44-.08Z" transform="translate(-636.73 -577.15)"/><path class="cls-43" d="M690.94,601.15l-4.21-1.61c1.58,1.5,1.53.82,3.12,1.9,1.09.74,1.34,1.58,2.36,2.48.52-.71-.19-1.58.81.22.41-2.12.52-1.72,2.2-2.7,0,0,1.19-.72,1.22-.75,1.13-.89.27.08,1-1.14-2.23-1-.51.63-1.79-1.51l-.29,2c-2,1.11-1.81.66-2.58,2.24Z" transform="translate(-636.73 -577.15)"/><path class="cls-35" d="M675.24,605.09c.14,1.09,3.65,1.45,4.6,1.69l-3.72.07.87,1.25c1.77-.55,2.91.27,4.92-.61l-2.81-3.61c-.1.2.31,1-1.49,1.46A4.52,4.52,0,0,1,675.24,605.09Z" transform="translate(-636.73 -577.15)"/><path class="cls-71" d="M685.45,590.26c.79-1.1-.22-.42,1.23-.17l.15-1.32c-3.2-1.51-1.14-.63-3.1-2.26-2.14-.92-2.1-1.12-1.33-3.37l-2.23.35c1,3.17,2,1.68,2,4.67C684.49,588.7,684.18,588.33,685.45,590.26Z" transform="translate(-636.73 -577.15)"/><path class="cls-39" d="M702.59,614.67l-.67,1.18,1.37.41c.51.89.29.09-.08.82-.22,1,.07.73-1.07.48.88.58.32.47.63.92l.33,0c.9-.3,1.1-.51,1.74-.74,1.31-.47.64-.59,1.31,0l1.15-1-.76-1.62c-1.08,1.07,1.14,1.05-2,1l-.59-1.45,1.72.47c-.33-1-.36-.35.19-1.88Z" transform="translate(-636.73 -577.15)"/><path class="cls-72" d="M703.18,597.9l-1.77,1.6-.12,1.18c1.28,1.29.51.81,1.42,1.06a22.67,22.67,0,0,0,3.43.63l0-.39c-1.51-2.3-1.17-.19-2.31-2.24-.51-1.11-.27-1,.8-1.36l.23-.68-1.48-1.1Z" transform="translate(-636.73 -577.15)"/><path class="cls-23" d="M692.76,629.2c1,1.72-.4.43,1.66,1.25l.22-4.28c.69-.6-.56-1,1.16-.24-.71-1.79-.51-1.43-2.12-2.46.07,1.09-.43.82-.42.65s-.18.06-.46.09Z" transform="translate(-636.73 -577.15)"/><path class="cls-46" d="M697.33,582.81l-.28.94.61,1,1.46-.45c.28,1.5.74.4,0,1.56,0,.09-1.27,1-1.38,1l2.3.45a12.93,12.93,0,0,1,1-2.66,4.46,4.46,0,0,0,.53-1.34c.16-1.46.29-.34-.3-1.61l-.43,2c-1.11.71.82,1-1.33.47l-.44-2.33c0-.29-.14-.35-.23-.52-.24,1.6.15.1-.15.18l-.47,0c0-.1-.21,0-.36,0Z" transform="translate(-636.73 -577.15)"/><path class="cls-73" d="M694.43,577.83c1.39,1.47.38,2.51-.73,4.24l.6.13,1.92-3.38,1.69.35,1.07-.35,1.17,1.62.84-1.83C698.68,577.17,696.93,576.59,694.43,577.83Z" transform="translate(-636.73 -577.15)"/><path class="cls-74" d="M672,625.79l-1.4-.3c-1,1.47-1.7,1-3.5,1.73-.69,1.56-.29.34.2.83l1.29-.37,2.56-.77,1.46.46,1.17-.3c1,1,.65-.35-.05.71l1-.09c.45-.5.07-.31,1.24-.28l-1.41-1.55.44-1.07Z" transform="translate(-636.73 -577.15)"/><path class="cls-28" d="M683.17,608.56l1.05.75c-1.69.15-.49-.64-.64,1.61a13.66,13.66,0,0,0,2.33.27c2.39-.13,1.13.23,1.29-.66l-2.78-4c-1.81.75-.55-1-1.52.73Z" transform="translate(-636.73 -577.15)"/><path class="cls-17" d="M686.68,590.09c-1.45-.25-.44-.93-1.23.17l-.73.13c0,2.18.18,1.66-.7,3.73a4.88,4.88,0,0,1,3-1.16l-1.72,1.94h.36l1.27.37.3-1,1.09.48a3.56,3.56,0,0,0-2.85-2.19c.2-2.2-.15-.56.87-1l1,.26,1.14.46a4.92,4.92,0,0,0-.2-2.61Z" transform="translate(-636.73 -577.15)"/><path class="cls-75" d="M678.38,600.79c0-.17.44-1.62.52-2.18.23-1.42-.19-.92.31-1.81l-2.93-2.56c.06,1.56.12,1.82.2,3.15,0,.14,0,1.14,0,1.18C676.71,600.18,676.83,599.91,678.38,600.79Z" transform="translate(-636.73 -577.15)"/><path class="cls-76" d="M710.77,597.41c1,1.18,1.16-.87.74,1.07l-1.49,0c-1.35.52-.91.55-2.18,1.59-1.61.87-2.21.49-4-.3,1.14,2,.8-.06,2.31,2.24,2.47-.45,1.36-.46,3.35-1.92,1.34-1,2.25-1,3.79-1.5-.16-1.4.56-.13-.58-1.39l-.85-.62C710.74,597.61,712.48,596.88,710.77,597.41Z" transform="translate(-636.73 -577.15)"/><path class="cls-77" d="M704.6,598.38c-1.07.33-1.31.25-.8,1.36,1.83.79,2.43,1.17,4,.3l-1.81-.37,3-3.55a19.8,19.8,0,0,0,.95,2.33l1.49,0c.42-1.94.24.11-.74-1.07-1.3-.69-.11.32-.7-.72s-.33-2.26-1.69-1.63c0,.85-2.45,3.92-3.87,4.55Z" transform="translate(-636.73 -577.15)"/><path class="cls-3" d="M677.52,613.2l-1,1.06,0-.93-2.2.55-.2,2.21-1.57.23c2.05.21,1.73,0,3.6-.49l-.89,2.76c-.91.66-.56.3.62.55.68-2.62,1.57-1.8.58-3.91l1.75-.51.28-1.15Z" transform="translate(-636.73 -577.15)"/><path class="cls-78" d="M659.8,635.35l-2,2.41c.56,1.18.4-.79.11,1l-.55,1.09,1,.22v.1l4.08.89.16-1-1.21-.54c-.18-.29.54.07-.51-.35l-1.84,0c-.65-.75-1.47,1.13,0-1.43a14.59,14.59,0,0,0,2.54-2.57l-1.42-.6Z" transform="translate(-636.73 -577.15)"/><path class="cls-19" d="M674.12,621l-2.61,1.88-.66,1,1.56-.07-.25,1.34c1.54-1.57,1.57-1.67,3.91-1.51l-.28-1L676,622l.22-1.18-.84.74c.24-1.4-.11-.78.83-1.62l-.47,0A13.34,13.34,0,0,1,674.12,621Z" transform="translate(-636.73 -577.15)"/><path class="cls-79" d="M636.75,625.38c.45-1-.1-.17,1-.28l2.15,1.1,2.64-.54-4.25-.94a5.92,5.92,0,0,0,1.28-1.07c1.39-1.34.09-.45,1.63-1.21l.4-.06.62-1.13-.79,0c-2.58.26-2.72,1.32-4.46,2.81Z" transform="translate(-636.73 -577.15)"/><path class="cls-77" d="M713.39,616.41c-1.34,0-.41-.82-1.46.55,1.06,1.19,4,2.58,5.58,3.52l.91-.23-2.77-2.08c1,.35.4.43.73-.8-1.43-1.06-.43,0-.76-1.73Z" transform="translate(-636.73 -577.15)"/><path class="cls-80" d="M692.76,629.2l0,1.23a17,17,0,0,0,2.86-.09c1.39-.14.4-.74,1.67.66,1.34.29.94.55,1.23-.78l-1.07-.59.83-1.29c.66-.34-.56-.81.75-.25L696.74,627c0,2.4.46,1.39-1,3.19-1.16-2.14-.11-2,.39-4.23h-.37c-1.72-.72-.47-.36-1.16.24l-.22,4.28C692.36,629.63,693.73,630.92,692.76,629.2Z" transform="translate(-636.73 -577.15)"/><path class="cls-12" d="M704.11,655.34c2,.35.36.22,1.06-.54.92-1,1.28-2.85,2-4.23l-1.35-3.7-1.29,1c1,1.81.46.56.77,2,.5,2.22,0,2-.13,2.39Z" transform="translate(-636.73 -577.15)"/><path class="cls-69" d="M688.82,614.06c.09,3.08,0,.34.9,2.08,1.11,2.16-.6.64.77,2.63,1-.57.53-.27,1.43-.54l1.1.08.65.17v-.69c-.5-.92-.51-1.06-1-2.07,0,.25-.21,1.08-1.78-.42-2-.93-1.57-.33-1.93-2.26C688.66,613.51,688.19,611.59,688.82,614.06Z" transform="translate(-636.73 -577.15)"/><path class="cls-35" d="M671.51,622.9l2.61-1.88c.08-1.57.59-.56-.21-1.39-3.29-.28-3.95,1.83-4.68,4.79Z" transform="translate(-636.73 -577.15)"/><path class="cls-81" d="M694.3,582.2l-.56,1.53,2.34-1.07c1.44-1,2.68-1.48,1.83-3.49l-1.69-.35Z" transform="translate(-636.73 -577.15)"/><path class="cls-38" d="M674,602.28c1.66,1.94,1,.39,1.21,2.81a4.52,4.52,0,0,0,2.37.25c1.8-.48,1.39-1.26,1.49-1.46-1.55-1.19-.54-.76-1.94-1.91C675.26,602.79,676.07,602.52,674,602.28Z" transform="translate(-636.73 -577.15)"/><path class="cls-69" d="M698.25,643.45c-1.65.78-.71-1.87-1.27.76l1.37,1.75-5.14-.83c.35,1.22,2.13,1.24,3.67,1.72.42-1,1.1-.47,2.56-.23,1.07.35,0,.16.64-.8-.14-1.84.24-1.29-.65-2.78l-.39,1.72Z" transform="translate(-636.73 -577.15)"/><path class="cls-29" d="M696.08,582.66l1.25.15.55-1.29c.15,0,.36-.09.36,0l.47,0c.3-.08-.09,1.42.15-.18.09.17.24.23.23.52l.44,2.33c2.15.49.22.24,1.33-.47-2.21-.32-.68,0-1-.69,1.17-2.17.28-1,1.24-1,.15-2.07.49-1.43-.08-3.36l-.84,1.83L699,578.82l-1.07.35C698.76,581.18,697.52,581.7,696.08,582.66Z" transform="translate(-636.73 -577.15)"/><path class="cls-16" d="M700.39,607.89l-.83.89a16,16,0,0,0-1.19,1.4l.6.15c1.54-.41,2.23-.45,3.87-1,2.59-.88,1.44.65,3.84-1.19l-1.87-.11-.76-.19Z" transform="translate(-636.73 -577.15)"/><path class="cls-6" d="M702.38,604.6l.21-1.81c2.53-.34,2.3,1.93,5,.13l-1.52-.1.08-.45a22.67,22.67,0,0,1-3.43-.63c-.91-.25-.14.23-1.42-1.06-1.15.18-1.39-.9-.87,1.39s1,.66,1.36.53l-.74,1.88Z" transform="translate(-636.73 -577.15)"/><path class="cls-9" d="M690.54,611.74c-.22,3.43,1.25.45.37,3.56,2-.72,2.25-1.23,1.33-3.86,4.32,2.54,1.45.89,2.54.53-.44-1.75-.69-1.05.27-2.4l-1.16-.13a15.71,15.71,0,0,0-2.6,3Z" transform="translate(-636.73 -577.15)"/><path class="cls-8" d="M654.31,620.92c.92,1.28.63,1.68-.47,2.9l-1.1-1.39h.33l-.26,2.87,2.22.9c.1-.2.2-.43.2-.37l.42-1.19c.42-1.48.46-4.57-.3-5.94l-.13,1.65C654.72,621.21,656.81,621.91,654.31,620.92Z" transform="translate(-636.73 -577.15)"/><path class="cls-56" d="M671.94,617.17v.47l1.56.19,1.76.76.89-2.76c-1.87.53-1.55.7-3.6.49l1.57-.23.2-2.21-1.14-.63-.08.9Z" transform="translate(-636.73 -577.15)"/><path class="cls-81" d="M709.08,618.63l1.27.79c2.18.62,1.5.46,1.68,2.13l-.7,2.72c3.07-.86.26-3.22,2.36-3.16-1-2.17-1.31-.89-2.33-3.54l-2-.34Z" transform="translate(-636.73 -577.15)"/><path class="cls-82" d="M730.75,613.34l-.13,1.84-1.79.81.49,1.44c.86,1.37.06.15,1.44,1l.51-.95.9-1.54-.34-1,.24-1.77.2-1C731.32,612.67,732,611.68,730.75,613.34Z" transform="translate(-636.73 -577.15)"/><path class="cls-11" d="M657.48,620.72c-1.63.68-.39,2.54-1.08,5.25,1.59-.43,3-3.19,3.18-4.81Z" transform="translate(-636.73 -577.15)"/><path class="cls-18" d="M718.2,598.62l-1.43,3.12c.38.71,1-.53-.34,1.74-.86.14-.38.86-.71-.7l-4,2.34.47.42c.9-1.23,1-.84,2.14-2l2,.91,1.83-1.65,1.25-5.21a1.81,1.81,0,0,1-.37.34c-.06,0-.39.45-.41.33S718.32,598.48,718.2,598.62Z" transform="translate(-636.73 -577.15)"/><path class="cls-11" d="M664.33,623.35c-.82,1.55-.41,1.32-1.83,2l-.67.37c.48.72,1.61-.71.06,1.85,0,0-1.45,1.44-1.53,1.52l2.87-.85c-1-.88-1.16-.42.2-1.9a7.72,7.72,0,0,1,1.9-1.36c2,1.61.63.12.75,1.35l1-.88.89-1.6-.84-.39-.71,1.71Z" transform="translate(-636.73 -577.15)"/><path class="cls-83" d="M710.23,622.54l.32.7c-.72-.56-.89-.86-1.7-.62,0,0-.9,1.17-.91,1.2l.25-1.44-.41.13-.62,2.2-1.43.52.11,1.25,1,.33c.26-1.18-.32-.58.47-1l.87-1.33,1.18,0,1.52-.29.45.17.7-2.72c-1.22-.41-.12-.77-.91,0l.57.06C711.3,623.37,711.84,623.17,710.23,622.54Z" transform="translate(-636.73 -577.15)"/><path class="cls-35" d="M653.38,642.4l-.65,1.74,2.27,1.58.89-4.8C653.89,640.06,654.55,640.5,653.38,642.4Z" transform="translate(-636.73 -577.15)"/><path class="cls-75" d="M675.46,593.07l-.43-.48c-1.08.08-1.1.28-2.11-.53l3.08,6.36c.53-.5.42.19.76-1,0,0,0-1.56,0-1.61-.34-2-.86-1.65-2.53-2.19Z" transform="translate(-636.73 -577.15)"/><path class="cls-84" d="M661,645.26l-2.35,5.55c3.07-1.41,4.64-6.51,3.82-9.42l-.67,3.54C661.1,645.41,662.19,645.84,661,645.26Z" transform="translate(-636.73 -577.15)"/><path class="cls-85" d="M706,595.27l-1-.07-.14,2.5-.23.68-.09,1.23c1.42-.63,3.86-3.7,3.87-4.55Z" transform="translate(-636.73 -577.15)"/><path class="cls-86" d="M680.4,597.43l-1.19-.63c.83,1.52.77,3.76.49,5.52,1.06-.6.51-.14,1.17-1.24,0-.09.28-.84.36-1,.67,2.17.17,2.21.39,3.62,1.79-1.67.7-2.8.23-4.92-.83,0-.5-.2-1.2.72Z" transform="translate(-636.73 -577.15)"/><path class="cls-69" d="M729.32,617.43a3.33,3.33,0,0,1-1.22,2.45c.6.86.63-.24.21,1.7,1.68-1.1.86-.64,1.81-2.56l.75,1.14,1.34-.69c.12,0,1.17,0,1.73,0L732.37,618c-1-.51.27.08-1.1-.58l-.51.95C729.38,617.58,730.18,618.8,729.32,617.43Z" transform="translate(-636.73 -577.15)"/><path class="cls-87" d="M691.59,608.65l-.33-.11-.72,3.2.75.73a15.71,15.71,0,0,1,2.6-3c1-3.25.48-.7-.4-2C691.88,609.16,692.4,608.32,691.59,608.65Z" transform="translate(-636.73 -577.15)"/><path class="cls-25" d="M660.9,623.15l.33,2c-.89-.88-.52,0-.85-1.13-.51-1.82.21-.56.52-.82Zm.7-.55c-.32,1,0,1-.7.55,0-1.16,1.3-.77-.84-1-.78,1.82-1.09,2.08.53,3.36l1.63-1.3c.66,1,.36,0,.28,1.17,1.42-.71,1-.48,1.83-2l-.19-1.68-.18.49-1.47,1.5Z" transform="translate(-636.73 -577.15)"/><path class="cls-22" d="M693.79,592.76l-.45,2.07,3.11-1.51c0-2.11-.58-2.6-2.13-4C694.4,591.61,694.78,590.82,693.79,592.76Z" transform="translate(-636.73 -577.15)"/><polygon class="cls-3" points="55.54 7.54 58.57 7.34 59.37 7.59 60.32 6.6 60.6 5.66 59.35 5.51 57.01 6.58 57.57 5.05 56.98 4.92 55.93 4.82 55.54 7.54"/><path class="cls-49" d="M681.75,612.59c.47-.36.79-.66,1.11-.93l.62-2.17-2.35-.2c-1.64.73.14-.06-1.84.18l-1,.22c-.06-.14-.31.12-.46.2C682.53,612.36,680.87,609.64,681.75,612.59Z" transform="translate(-636.73 -577.15)"/><path class="cls-18" d="M683.85,585.65l-.12.86c2,1.63-.1.75,3.1,2.26l-.15,1.32,1.58-.47.17-.31-1.19.2c.12-.1.75-1,1-1.2l-.7-.22v-1.48Z" transform="translate(-636.73 -577.15)"/><path class="cls-43" d="M691.67,634.51l2.07,3.15v-1.09l.44.08c1.19-1.34-.5-.86,1.36-1.28-1.4-1.89-1.32-1.69-3.67-2.31Z" transform="translate(-636.73 -577.15)"/><path class="cls-45" d="M661,621.08l.57,1.52.89,1.06,1.47-1.5.42-2.6C662.52,619.75,662,620,661,621.08Z" transform="translate(-636.73 -577.15)"/><path class="cls-88" d="M719.85,626.08l.24,1.07c2.42-.11,5.12-1.19,6.34-3l.82-1.55-.23,0-1.79,1.48c-.65.38-.79.34-1.55.79C721.7,626,722.4,626,719.85,626.08Z" transform="translate(-636.73 -577.15)"/><path class="cls-89" d="M676,627.41l.86.19c2.2-1,1.68.31,3-1.73l-4-.66-.83-.42-.44,1.07Z" transform="translate(-636.73 -577.15)"/><path class="cls-65" d="M727.15,615.29l2.66-1c-1.6-1.65-2.8-2.06-4.8-1.63l-1,.37C726.77,614.07,725.16,613.87,727.15,615.29Z" transform="translate(-636.73 -577.15)"/><path class="cls-34" d="M711.36,617.57c1,2.65,1.34,1.37,2.33,3.54,1.73-.77.29.25,1.59-1.19l2.23.56c-1.62-.94-4.52-2.33-5.58-3.52Z" transform="translate(-636.73 -577.15)"/><path class="cls-90" d="M655.65,618.5l.17-1.32c.08.14.35.14.35.35,0,1.31.06,0,.58.67l.34-2.28c-.75-.59.6-.06-1,0-1.64-5.12,0-2.64-1.9-4.75C654.43,613.63,654.67,616.48,655.65,618.5Z" transform="translate(-636.73 -577.15)"/><path class="cls-91" d="M704.85,637.06c0,2.33.47,2.17.72,4.1.84-.32.49-.41,1,.32l1-4.07Z" transform="translate(-636.73 -577.15)"/><path class="cls-72" d="M654.29,628.13l-.53,1.49-.13.07,2.23.61,2-.66.55-.49-2.07-1.45c-1.88.33-1.48-1-1.33,1.28C655.21,627.88,655.42,628.17,654.29,628.13Z" transform="translate(-636.73 -577.15)"/><path class="cls-12" d="M699.68,601.1c.25,3.36.83,3.08-.67,6.42.91-.22.46-.27,1.55.08,0-.11-.12-.26-.14-.33a2.89,2.89,0,0,1-.11-.35c0-.09-.07-.26-.08-.36l.43-1.7,1.28.33.44-.59-1.34-.12.74-1.88c-.37.13-.85,1.7-1.36-.53s-.28-1.21.87-1.39l.12-1.18h-.85Z" transform="translate(-636.73 -577.15)"/><path class="cls-70" d="M699.57,615.08l.3.62-2.35.58c-.28,2.7-.19.43.55,1.55.11-3.59-.15-.93.82-1.76l3.88,2.41c-.31-.45.25-.34-.63-.92,1.14.25.85.53,1.07-.48l-2.3-.84,1-.39.67-1.18Z" transform="translate(-636.73 -577.15)"/><path class="cls-59" d="M710.82,644.75l-.18,1c1.87.69,1.53.06,1.82,2.19l1.27.39.32-1.87c.14-2.06.72-1.45-1.14-2.56l-.75,1.61Z" transform="translate(-636.73 -577.15)"/><path class="cls-11" d="M719.85,626.08c1.61-1.61,4.64-2.6,6.61-3.77l.29-1-1-.26c-2.16,2.71-1.11.34-6.4,4.22C719.45,626,718.3,625.48,719.85,626.08Z" transform="translate(-636.73 -577.15)"/><path class="cls-86" d="M642.56,627.49l1.93.76.08,1.29,1.94.08,1.57-1.14-.63-1.31C645.77,627.6,644.64,627.12,642.56,627.49Z" transform="translate(-636.73 -577.15)"/><path class="cls-87" d="M682.4,583.14c-.77,2.25-.81,2.45,1.33,3.37l.12-.86-1.31-.28,1.81-2.64,1.57,1c.5-.42.42-.79.92-1.18l-1.26,0,.88-1.35c-1.86.45-.58-.09-2.31,1.07A3.38,3.38,0,0,1,682.4,583.14Z" transform="translate(-636.73 -577.15)"/><path class="cls-19" d="M668.91,625.63l-1.79-.15-1,.88-1,1.44.67.21,1.4-.79c1.8-.75,2.47-.26,3.5-1.73v-1.34C669.33,624.86,670.23,623.87,668.91,625.63Z" transform="translate(-636.73 -577.15)"/><path class="cls-19" d="M639.17,638.34c.61,2-.1.92,1.86-1.16a4.75,4.75,0,0,1,1.13-.94c1.37-1,.17-.47,1.49-.73l2-2.8a4.78,4.78,0,0,0-1.69.92c-.59.41-1.16.89-1.72,1.34A9.83,9.83,0,0,0,639.17,638.34Z" transform="translate(-636.73 -577.15)"/><path class="cls-86" d="M643,641.94a11,11,0,0,0,1.29-.26c.45-.1.81-.14,1.16-.24,1.27-.36,1-.05,1.81-1.27l-.8.55.38-1c-1.26-.56-.75.84-.45-.93,0,0,.65-1.43.76-1.74l-1.09.51c-.66,2.23-1,2.76-3.16,3.36Z" transform="translate(-636.73 -577.15)"/><path class="cls-79" d="M693.5,652.78l-1.9,2.66,1.67,0c.16-2.46,0-.82.6-1.53,2,.07.66-.13,1.84.59l-.67,1.2s.68,1,1.68-.85,0-1.53-.26-1.9l-.51,1C694.27,653.09,695.46,653.39,693.5,652.78Z" transform="translate(-636.73 -577.15)"/><path class="cls-92" d="M707.31,625.76l1.56.29,1.41,2.59,2.07.63c-.83-1.8,0-.46-1.24-2.08l-2.26-2.4.51-.4-1.18,0Z" transform="translate(-636.73 -577.15)"/><path class="cls-93" d="M677,608.1l4.14,1.19,2.35.2-.62,2.17.44-.25.28-.49c.15-2.25-1.05-1.46.64-1.61l-1.05-.75c-1.21-.76-.38-.13-1.26-1.07C679.9,608.37,678.76,607.55,677,608.1Z" transform="translate(-636.73 -577.15)"/><path class="cls-6" d="M660.8,617.17l-1.61,1.27c-1,1.89-.58.49.49,1.31l3-.83.52-2C662.18,617.77,662.38,617.43,660.8,617.17Z" transform="translate(-636.73 -577.15)"/><path class="cls-56" d="M696.75,596.75l2.06-.18c-1,.92-1.78,1.33-1,.93l-.43,2,.24-.32c.74-.55-.81-1,1.26-.18l.53,1.34.23.71.88-1.61-1-2.15-1.66-1.53C696.73,596.31,697.29,596.11,696.75,596.75Z" transform="translate(-636.73 -577.15)"/><path class="cls-94" d="M663.12,594.45c1.45,2.16,1,3.36,3.15,4.62-.11-2.22,0-.35-.87-2.57l.39-.25c-.16-.82,0-.13-.88-.79,1.56-.84.31-.68,2.73-.46-.33-.31,0-2.87-2.12.06Z" transform="translate(-636.73 -577.15)"/><path class="cls-32" d="M711.25,614.38l-.13,1.06,2.16-.9c.72-1.72.68-1,1.41-2.35,1.32-2.49,1.22-.9.08-1.88C713.1,611.68,713.33,613,711.25,614.38Z" transform="translate(-636.73 -577.15)"/><path class="cls-38" d="M661,645.26c1.22.58.13.15.8-.33l.67-3.54-.07.35c-2.24.34-.58.59-1.77,2.8.57-1.84,1-1.86.23-3.46-.51.56-.17-.36-.49.82l-.42,3.37Z" transform="translate(-636.73 -577.15)"/><path class="cls-49" d="M658.37,629.15l-.55.49c1.48.35,1.53.43,2.54-.52.08-.08,1.52-1.49,1.53-1.52,1.55-2.56.42-1.13-.06-1.85C660.21,626.54,660.38,627.92,658.37,629.15Z" transform="translate(-636.73 -577.15)"/><path class="cls-27" d="M710.28,628.64c.81.86-.9-.2.93.81l1,.37.58,2.91c.06-1.8-.36-1.9.87-2.59l1.4-1.32-.62.06c-2-1.07-1.17-1.26-3.38-1.69,1.23,1.62.41.28,1.24,2.08Z" transform="translate(-636.73 -577.15)"/><path class="cls-95" d="M719.85,626.08c2.55-.07,1.85,0,3.83-1.23.76-.45.9-.41,1.55-.79l1.79-1.48-.56-.27C724.49,623.48,721.46,624.47,719.85,626.08Z" transform="translate(-636.73 -577.15)"/><path class="cls-35" d="M663.23,628.27l1.84-.47,1-1.44c-.12-1.23,1.23.26-.75-1.35a7.72,7.72,0,0,0-1.9,1.36C662.07,627.85,662.25,627.39,663.23,628.27Z" transform="translate(-636.73 -577.15)"/><path class="cls-45" d="M707.84,600c1.27-1,.83-1.07,2.18-1.59a19.8,19.8,0,0,1-.95-2.33l-3,3.55Z" transform="translate(-636.73 -577.15)"/><path class="cls-16" d="M666.27,599.07l3.7.8c-.65-1.54-2.68-2.61-4.18-3.62l-.39.25C666.27,598.72,666.16,596.85,666.27,599.07Z" transform="translate(-636.73 -577.15)"/><path class="cls-96" d="M686.84,582.59l0,.12,2.72.77c1.1-.6.23.37.62-1l-.82-.53c-1.43-1.19-.92-.9-3-.86l.17.12-.88,1.35Z" transform="translate(-636.73 -577.15)"/><path class="cls-18" d="M708.61,634.32c.64.26.24-.37.94.77l1.6.47.33-.64a12.81,12.81,0,0,1-4.17-4l-2.2.42C707.05,632.15,707.78,632.23,708.61,634.32Z" transform="translate(-636.73 -577.15)"/><path class="cls-71" d="M683.92,634.18l-.59,1.32c.15,0,1.09-.36,1.13-.35,1.19.18.95.34,1.41.9l2.24-2.25C687.62,632.76,685.13,633.78,683.92,634.18Z" transform="translate(-636.73 -577.15)"/><path class="cls-34" d="M674.32,613.88l2.2-.55,1-.13,1,.37c-.39-1.05.09-.61-1-1.59l-2.88-.52c-.8-.7-.7.48-.74-1C674.14,613.32,674.87,610.83,674.32,613.88Z" transform="translate(-636.73 -577.15)"/><path class="cls-63" d="M711.11,627.19c2.21.43,1.38.62,3.38,1.69a5,5,0,0,0-.72-1.12,12.1,12.1,0,0,0-1.1-1c-2.47-1.9-1.86-.27-1.79-2.61l-1.52.29-.51.4Z" transform="translate(-636.73 -577.15)"/><path class="cls-65" d="M652.74,622.43l1.1,1.39c1.1-1.22,1.39-1.62.47-2.9l-2.58-1.65.37-.21C651.94,620.57,652.09,620.53,652.74,622.43Z" transform="translate(-636.73 -577.15)"/><path class="cls-43" d="M736.1,618.9a10.71,10.71,0,0,1,.43-2.51c0-.17.23-.61.25-.74.18-1.21.59.31-.15-.86-1.57.89-1.26.36-3.08,1.1,1.84,1.42,2.05-.64,1,2.74Z" transform="translate(-636.73 -577.15)"/><path class="cls-38" d="M658.34,640.19v-.1l-1.59,7.16C658.81,645.31,659.64,643.14,658.34,640.19Z" transform="translate(-636.73 -577.15)"/><path class="cls-52" d="M667.93,613.53l0-.09-.24.88c-.9,2-.28.25.49,1.1,3.05-1.15,1.9-1.28,2-1.72.43-1.77-1,.64.16-.52,1.72-1.7-.35,1.26,1.34-1.32C669,612.6,670,612.61,667.93,613.53Z" transform="translate(-636.73 -577.15)"/><path class="cls-52" d="M657.16,619.08c2.67-1,.76-1.5,3.21-3.08l.38,0-2.87-1.14Z" transform="translate(-636.73 -577.15)"/><path class="cls-97" d="M689.74,592.35l-2.25.61c1.41,1.29.46.8,2.62.92l-.05,1.65,1.13.38,0-1.57-.67-2.39Z" transform="translate(-636.73 -577.15)"/><path class="cls-37" d="M688.54,604.6l-3.14-2.89-1.17-.43.45,1.79C685.39,604.87,687.1,604.58,688.54,604.6Z" transform="translate(-636.73 -577.15)"/><path class="cls-92" d="M688.3,594.71l1.76.82.05-1.65c-2.16-.12-1.21.37-2.62-.92l2.25-.61-1.28-.12-1.14-.46-.86.56-.14-.82c-1,.45-.67-1.19-.87,1A3.56,3.56,0,0,1,688.3,594.71Z" transform="translate(-636.73 -577.15)"/><path class="cls-10" d="M700.56,607.6l-.17.29,3.66-.07.17-.75-3.77-1.26,1.49-.62-1.28-.33-.43,1.7c0,.1.06.27.08.36a2.89,2.89,0,0,0,.11.35C700.44,607.34,700.52,607.49,700.56,607.6Z" transform="translate(-636.73 -577.15)"/><path class="cls-97" d="M702.38,604.6l-.44.59-1.49.62,3.77,1.26-.06-2c-.52-1.26,1.4-1-.69-1Z" transform="translate(-636.73 -577.15)"/><path class="cls-98" d="M672.64,633.81c3,.16.94-.07,1.58.66V636c.71-3.65.28-.32,2.21-2.94.52-.7.21-.2.33-1-1.45-.69-.65-.73-2.35.47C673.82,632.9,673.25,633.3,672.64,633.81Z" transform="translate(-636.73 -577.15)"/><path class="cls-96" d="M709.93,605.5l-.26.74-.58,1c.62,1.23-1.79.82,1.48,1.34,1.28-1.67-1.31-.4,1.62-3l-.47-.42-.47-.27Z" transform="translate(-636.73 -577.15)"/><path class="cls-99" d="M710.38,616.3l.55.73-1.52.2,2,.34.57-.61c1.05-1.37.12-.52,1.46-.55l-.11-1.87-2.16.9.13-1.06C710.37,614.89,710.5,615.08,710.38,616.3Z" transform="translate(-636.73 -577.15)"/><path class="cls-17" d="M668.63,627.68l-1,1.28,1.08.34c1.22.14.22.53,2.1-.6l.94.12.29-.93c-2.34.65-.83.49-.84-1Z" transform="translate(-636.73 -577.15)"/><path class="cls-12" d="M685.92,637.5l1.28.13c.4-1.33-.21-.91,1-1.25,1,.57.44-.13.8,1.14,1.09-1.6,1-1,.64-2.94C686.69,635.35,687.65,635.42,685.92,637.5Z" transform="translate(-636.73 -577.15)"/><path class="cls-100" d="M671.74,610.79a2.94,2.94,0,0,0,.78,1.24c.78.8.81-.63.66,1.22l1.14.63c.55-3-.18-.56-.49-3.37l-.3-.73-1.12-.2C672.65,612.3,672.7,610.6,671.74,610.79Z" transform="translate(-636.73 -577.15)"/><path class="cls-101" d="M657.88,614.9l2.87,1.14c.44.49.84.27,1.14,1.06.61-2.92,1.29-.53-1-2.29l-.91-.66c-.12-.09.2-.25-1-.56Z" transform="translate(-636.73 -577.15)"/><path class="cls-81" d="M659.57,603.45c1.39,1.92.15.41,1.44,1l2.16-1a9.94,9.94,0,0,1-3-1.13c-1.42-.73-.9-1.43-1.8-.4Z" transform="translate(-636.73 -577.15)"/><path class="cls-76" d="M686.81,582.71c.15,1.48-.38.5.44,1.33l1.8.4c.21.07,1,.43,1.51.61.59-1.85.92-1.57-.41-2.58-.39,1.38.48.41-.62,1Z" transform="translate(-636.73 -577.15)"/><path class="cls-41" d="M695.63,598c1.28,2.14-.44.54,1.79,1.51l.43-2c-.82.4,0,0,1-.93l-2.06.18-1.46.15C695.34,597.87,695,597.33,695.63,598Z" transform="translate(-636.73 -577.15)"/><path class="cls-31" d="M676,622l-.16.61a9.11,9.11,0,0,0,3.21,0,16.59,16.59,0,0,1,1.91-.75l-3.58-1Z" transform="translate(-636.73 -577.15)"/><path class="cls-19" d="M671.86,599.08c1,1.5.4,1.37,1.11,3.26l1.06-.06-.2-3.44-1.37-.43-.35.31Z" transform="translate(-636.73 -577.15)"/><path class="cls-94" d="M699.45,600.39l-.53-1.34c-2.07-.8-.52-.37-1.26.18,2.32,2-2.21.46-.26,4.44C698.94,601.55,697.87,601.44,699.45,600.39Z" transform="translate(-636.73 -577.15)"/><path class="cls-76" d="M709.15,621.32l1.08,1.22c1.61.63,1.07.83,1.46-.95l-.57-.06c.79-.75-.31-.39.91,0-.18-1.67.5-1.51-1.68-2.13l.17,1.48Z" transform="translate(-636.73 -577.15)"/><path class="cls-53" d="M708.52,638.2c-.25,1.5-.78,1.78.49,2.59,0,0,.2.06.25.09l1.93,1.3c-1.15-1.65-.41-1.09-.84-2.61C710.08,638.63,710,638.82,708.52,638.2Z" transform="translate(-636.73 -577.15)"/><path class="cls-33" d="M671,614.7l.69.72c-.09,0-.25,0-.31.17s-.26.17-.3.22c-1.72,1.94-.25,1.53.3,1.85l.59-.49,1.16-3C671,614,672.27,613.77,671,614.7Z" transform="translate(-636.73 -577.15)"/><path class="cls-41" d="M705.36,644.31h1.35c-.41-2.5-1.12-1.31-.09-2.84-.56-.73-.21-.64-1-.32L704.08,643Z" transform="translate(-636.73 -577.15)"/><path class="cls-102" d="M663.49,612l.58,1.34,3.82.08,0,.09c.45-1.35.66-.92-.77-1.22Z" transform="translate(-636.73 -577.15)"/><path class="cls-52" d="M688.43,589.31l-.17.31a4.92,4.92,0,0,1,.2,2.61l1.28.12.8-.4c-2.64.07-.5.13-1.27-.77,1.17-1.35-.06-.52,1.42-.7l.19-.56c-.53-.86-.13-.59-1.33-.92Z" transform="translate(-636.73 -577.15)"/><path class="cls-47" d="M658.54,604.73c-.49-1.54-.93-1.75-2.48-2.25l-1.39.63C656.13,604.62,656.54,604.68,658.54,604.73Z" transform="translate(-636.73 -577.15)"/><path class="cls-103" d="M664.33,623.35l2.13,1.85.71-1.71v-.85l-1.43.9c-.53-.53-.22-.76-.37-1.1.2-2,.46-.35-1.23-.77Z" transform="translate(-636.73 -577.15)"/><path class="cls-6" d="M666.15,616.26l-.78,6.18c1.41-3.46.33-3,2.08-5.47s.6-.75.37-1.49Z" transform="translate(-636.73 -577.15)"/><path class="cls-74" d="M676.88,627.6l.36,1.16,2.73-.9-.28-2.64h-3.81l4,.66C678.56,627.91,679.08,626.59,676.88,627.6Z" transform="translate(-636.73 -577.15)"/><path class="cls-15" d="M714.18,614.7l-.9-.16.11,1.87,2.23-.77,2.3.47c-.6-.92-.19-.48-.5-1.59C716.11,614.94,715.11,615.25,714.18,614.7Z" transform="translate(-636.73 -577.15)"/><path class="cls-37" d="M671.86,599.08l.25-.36-.23-.2c-1.18-.94-1-1.07-2.11-1.84a24.22,24.22,0,0,1-2.32-1.9c.61,2-.17.31,1.09,1.85l.5.56C669.82,598.11,670.48,599.39,671.86,599.08Z" transform="translate(-636.73 -577.15)"/><path class="cls-81" d="M687.2,637.63l-.72,1.11c.62,1.51-.49.26,1.26.92l1.25-2.14c-.36-1.27.18-.57-.8-1.14C687,636.72,687.6,636.3,687.2,637.63Z" transform="translate(-636.73 -577.15)"/><path class="cls-17" d="M657.16,619.08l-.39.53,2.87.32,0-.18c-1.07-.82-1.5.58-.49-1.31l1.61-1.27-.43-1.17C657.92,617.58,659.83,618.09,657.16,619.08Z" transform="translate(-636.73 -577.15)"/><path class="cls-87" d="M716.78,641l.77-4c-.54-1.72,0-.68-1-1.06C716,638.05,715.68,639.31,716.78,641Z" transform="translate(-636.73 -577.15)"/><path class="cls-47" d="M734.37,614.12l2.26.67c-.59-2.61-.91.24-.31-2.83l-1.7-.41Z" transform="translate(-636.73 -577.15)"/><path class="cls-21" d="M670.61,591.3c.44-3.24,0-1.7,1.42-2.18l-1.6-3.46C670.08,587,669.86,590.18,670.61,591.3Z" transform="translate(-636.73 -577.15)"/><path class="cls-60" d="M657.67,638l.14-.24,2-2.41a7.85,7.85,0,0,1-2.61-2C657.39,636.28,658.15,634.86,657.67,638Z" transform="translate(-636.73 -577.15)"/><path class="cls-59" d="M695.09,605.72c-1.73,1.46-.51,0-1.46,1.57l1-.28,2.67.15.37-.86C696,605.37,697,605.49,695.09,605.72Z" transform="translate(-636.73 -577.15)"/><path class="cls-89" d="M673.83,610.51c0,1.43-.06.25.74,1l2.88.52,0-.23L675.88,610C674.05,609.79,675.61,609.4,673.83,610.51Z" transform="translate(-636.73 -577.15)"/><path class="cls-104" d="M670.61,591.3a8.51,8.51,0,0,1,3,.27L672,589.12C670.63,589.6,671.05,588.06,670.61,591.3Z" transform="translate(-636.73 -577.15)"/><polygon class="cls-105" points="40.51 51.61 41 52.21 41.52 52.4 42.66 52.74 43.74 52.46 43.78 51.09 43.24 50.7 40.51 51.61"/><path class="cls-84" d="M648.08,628.48l-1.57,1.14.07.67c2.56-.92,1.5.38,3.48-.87l.87-.52Z" transform="translate(-636.73 -577.15)"/><path class="cls-106" d="M648.58,638c-.91,1.29-.39.68-1.72,1.75l-.38,1,.8-.55a21.67,21.67,0,0,0,3.56-2.88l-1.54-.44Z" transform="translate(-636.73 -577.15)"/><path class="cls-6" d="M654.62,604.83l2.68,2.73c.84-2.56,1.46-.8-.43-2.29C655.37,604.09,655.72,604.58,654.62,604.83Z" transform="translate(-636.73 -577.15)"/><path class="cls-107" d="M706.84,626.81l3.44,1.83-1.41-2.59-1.56-.29C706.52,626.23,707.1,625.63,706.84,626.81Z" transform="translate(-636.73 -577.15)"/><path class="cls-6" d="M685.28,594.9,687,593a4.88,4.88,0,0,0-3,1.16c.88-2.07.75-1.55.7-3.73l-1.13,3.81Z" transform="translate(-636.73 -577.15)"/><path class="cls-108" d="M726.75,621.34l-.29,1,.56.27.23,0,.5,0,.56-1.07c.42-1.94.39-.84-.21-1.7l-.74-.47Z" transform="translate(-636.73 -577.15)"/><path class="cls-109" d="M652,613.75l-.08-4.33c-1.29.07-.42-.45-.93.31l.05,4.22Z" transform="translate(-636.73 -577.15)"/><path class="cls-110" d="M692.72,652.63l-2-1.49-.83.56.74,2.16A5,5,0,0,0,692.72,652.63Z" transform="translate(-636.73 -577.15)"/><path class="cls-57" d="M692.59,622.52l1.48.16a7.18,7.18,0,0,0-.4-4.2l-.65-.17A5.45,5.45,0,0,1,692.59,622.52Z" transform="translate(-636.73 -577.15)"/><path class="cls-73" d="M689.55,589c1.2.33.8.06,1.33.92l1,.27c-.38-1.08-.44-.68,0-1.3l.15-.69-.18,0c-.18,0-1.51-.41-1.62-.42-1.9-.27-.55-.11-1.54.07C690.26,588.08,690.08,587.63,689.55,589Z" transform="translate(-636.73 -577.15)"/><path class="cls-96" d="M666.15,616.26l.2-1.17-1.56.23c-1.6,3.66-.49,1.58,0,2.72Z" transform="translate(-636.73 -577.15)"/><path class="cls-111" d="M670.3,638.65c1.66-.25.48-.15.83.37,0,.07-.59,1.1-.6,1.15-.33,1.55-.29.49.19,1.44l1.61-.62c-1.5-1.08-1-.19-.2-2.8-.43-.41,1.3-.8-.85-.25Z" transform="translate(-636.73 -577.15)"/><path class="cls-112" d="M716.55,636c1,.38.46-.66,1,1.06,1.37-.61.6.79,1.33-1.44-1-1.29.33-.36-1.54-.85L716,634.6C717.3,635.83,716.32,634.88,716.55,636Z" transform="translate(-636.73 -577.15)"/><path class="cls-96" d="M713.71,630.14c-.69,1.87-.64.72.68,1.38l.73-.6.89-1-.36-.44-.54-.64Z" transform="translate(-636.73 -577.15)"/><path class="cls-29" d="M690.54,592l.67,2.39c1.74-.42-1.44.35.52,0,.91-.17.28,0,.86-.3-2.72-3.2-1-2.39-.91-2.76.52.06-.53-1.61,1,.71-.09-.15-.41-.82-.45-.92a.87.87,0,0,1-.14-.41c0-.22-.09-.3-.14-.45l-1-.27-.19.56.75.8Z" transform="translate(-636.73 -577.15)"/><path class="cls-113" d="M712.84,632.73l.24.93,1.36.25c-.84-1.62-.45-.95-.05-2.39-1.32-.66-1.37.49-.68-1.38C712.48,630.83,712.9,630.93,712.84,632.73Z" transform="translate(-636.73 -577.15)"/><path class="cls-69" d="M697.45,641.09a9.91,9.91,0,0,0,2,1.95c.11-1.7-.35-2-1.61-3.44C696.86,640.51,697.18,639.32,697.45,641.09Z" transform="translate(-636.73 -577.15)"/><path class="cls-108" d="M689,649.6l1.65-1.93.37-.91,1.61.56c-.55-1.08-.24-.74-1.34-1.27C689.32,646.92,689.6,647.45,689,649.6Z" transform="translate(-636.73 -577.15)"/><path class="cls-57" d="M706.39,645.58l-.48,1,2,.46c.85-2.27.26-.86,0-1.8l-1.28-.56Z" transform="translate(-636.73 -577.15)"/><path class="cls-71" d="M698.26,628.34l-.83,1.29,1.07.59,2.21-1.07c-.61-.89.17-.18-1-.5C699.65,628.61,698.26,628.34,698.26,628.34Z" transform="translate(-636.73 -577.15)"/><path class="cls-88" d="M651.1,624.94c.27.65,0,.46.93,1.23s.22.47,1.24.37c0-.93.36-.31-.26-1.31l-1-1-.59-.3Z" transform="translate(-636.73 -577.15)"/><path class="cls-57" d="M705.87,613.34l2,1.22.12-1.83-.44-.13c-.77-1.06-.85,1-.39-1.88Z" transform="translate(-636.73 -577.15)"/><polygon class="cls-114" points="17.95 55.69 18.5 54.92 19.13 53.15 16.9 52.53 17.95 55.69"/><polygon class="cls-83" points="71.93 44.46 72.42 44.17 73.79 43.75 73.62 42.27 72.35 41.48 71.93 44.46"/><path class="cls-32" d="M703.1,618.53c.34.94,0,.62,1.06,1.28l2-2c-.67-.62,0-.5-1.31,0C704.2,618,704,618.23,703.1,618.53Z" transform="translate(-636.73 -577.15)"/><path class="cls-44" d="M727.75,622.65l-.5,0-.82,1.55,1-.29a1.54,1.54,0,0,0,.45-.09l.93.66.53-2.15Z" transform="translate(-636.73 -577.15)"/><path class="cls-115" d="M716.35,604.49l.14.81,1.64.09,1.11-.94h-1.61c1.46-1.91.26-.38.55-1.6Z" transform="translate(-636.73 -577.15)"/><path class="cls-113" d="M715.12,630.92l1.79,0,.74-1.31c-.72-1.46-1.44-.58-2-.17l.36.44Z" transform="translate(-636.73 -577.15)"/><path class="cls-4" d="M697.91,595.81l1.66,1.53c.66-2.59.59.59,2.14-2.5-2,.19-3.44,1.85-3.55,1C698.15,595.77,698,595.81,697.91,595.81Z" transform="translate(-636.73 -577.15)"/><path class="cls-116" d="M709.41,617.23l1.52-.2-.55-.73c-3.73-.63-1.78-.81-2.92.56a1.46,1.46,0,0,0,.2.15Z" transform="translate(-636.73 -577.15)"/><path class="cls-117" d="M702.77,622.75c.64.79,1.09,1.29,1.56,2a5.58,5.58,0,0,0,1.51,1.78l-.11-1.25-.52-2.77c-.22,3.38.28.87-1.37,1.43C703.34,622.27,703.82,623.66,702.77,622.75Z" transform="translate(-636.73 -577.15)"/><path class="cls-47" d="M712.46,648c1.6,1.68,2,1.48,2.9-.52l-1.31-1-.32,1.87Z" transform="translate(-636.73 -577.15)"/><path class="cls-99" d="M717.35,625.43c-.84,2.65-.45.86.27,1.57l1.33,0-.28-2.19-1.12.62Z" transform="translate(-636.73 -577.15)"/><path class="cls-87" d="M698.37,610.18a16,16,0,0,1,1.19-1.4c-1.07-.07-.83.19-.54-.89l-1.19,1-.78-1.19C696.75,609.67,696.93,609.37,698.37,610.18Z" transform="translate(-636.73 -577.15)"/><polygon class="cls-5" points="13.19 58.86 12.57 59.7 14.11 60.14 15.26 57.72 13.77 58.26 13.19 58.86"/><polygon class="cls-108" points="34.13 46.75 33.92 47 33.91 48.34 35.31 48.64 35.43 48.02 35.69 46.68 34.13 46.75"/><path class="cls-8" d="M693.27,655.47c.51,1.79,1.72.29,1.77.26l-1.42-.71c.66-.69.87-.48,2.09-.49-1.18-.72.12-.52-1.84-.59C693.3,654.65,693.43,653,693.27,655.47Z" transform="translate(-636.73 -577.15)"/><path class="cls-72" d="M691.91,590.19c3.54,1.4.7.44,1.79-.09-.75-1.94.34-.83-1.77-1.21C691.47,589.51,691.53,589.11,691.91,590.19Z" transform="translate(-636.73 -577.15)"/><path class="cls-113" d="M697.45,641.09c-.27-1.77-.59-.58.37-1.49.39-.8.51-.55-.36-.74-1.32.38-1-.28-2.58-.79Z" transform="translate(-636.73 -577.15)"/><path class="cls-21" d="M673.5,608.87l-.24,1.07.27-.16.3.73c1.78-1.11.22-.72,2-.47l-1.11-2-.16,1Z" transform="translate(-636.73 -577.15)"/><polygon class="cls-56" points="74.09 67.6 75.43 68.37 76.18 66.76 74.32 66.27 74.09 67.6"/><path class="cls-49" d="M707.16,624.71l.62-2.2c-2-.32-.44-.78-1.68.23C706.69,625.25,705.91,623.3,707.16,624.71Z" transform="translate(-636.73 -577.15)"/><path class="cls-118" d="M688.43,589.31l1.12-.31c.53-1.37.71-.92-.81-1.19l-.55.09v.41c-.21.23-.84,1.1-1,1.2Z" transform="translate(-636.73 -577.15)"/><path class="cls-85" d="M672.65,627.37l-.62.52-.29.93c1.18.37,1.48-.12,2-1,.7-1.06,1.05.32.05-.71Z" transform="translate(-636.73 -577.15)"/><polygon class="cls-115" points="36.77 40.68 35.21 40.49 34.67 41.63 37.43 41.83 36.77 40.68"/><path class="cls-89" d="M690.54,592l.9-.67-.75-.8c-1.48.18-.25-.65-1.42.7C690,592.08,687.9,592,690.54,592Z" transform="translate(-636.73 -577.15)"/><path class="cls-106" d="M706.54,615.17l-.86.05-1.72-.47.59,1.45C707.68,616.22,705.46,616.24,706.54,615.17Z" transform="translate(-636.73 -577.15)"/><path class="cls-105" d="M700.56,599.49h.85l1.77-1.6C701.16,598.1,700.75,597.78,700.56,599.49Z" transform="translate(-636.73 -577.15)"/><path class="cls-41" d="M708.66,621.62l-.47.76-.25,1.44s.91-1.2.91-1.2c.81-.24,1,.06,1.7.62l-.32-.7-1.08-1.22Z" transform="translate(-636.73 -577.15)"/><path class="cls-23" d="M723,591.67l.47.66c1.38-.75.87-.27,1.67-1.8C723.31,590.7,724,590.39,723,591.67Z" transform="translate(-636.73 -577.15)"/><path class="cls-79" d="M644.49,628.25l-1.93-.76-1,1.2C643.38,628.94,643.1,628.84,644.49,628.25Z" transform="translate(-636.73 -577.15)"/><path class="cls-101" d="M708.06,607.51l1-.32.58-1-2.68-.58C708.66,607.44,708.07,605.39,708.06,607.51Z" transform="translate(-636.73 -577.15)"/><path class="cls-107" d="M695.09,605.72c1.86-.23.9-.35,2.63.58l-1.15-2.13c0-.12-.06-.17-.05-.2Z" transform="translate(-636.73 -577.15)"/><path class="cls-80" d="M691.93,584.63l.34.06.39-2.72-.73-.23C691.14,583.24,691.83,582.42,691.93,584.63Z" transform="translate(-636.73 -577.15)"/><path class="cls-119" d="M699.44,646.62c-1.46-.24-2.14-.79-2.56.23l1.49.8Z" transform="translate(-636.73 -577.15)"/><path class="cls-26" d="M667.12,625.48l1.79.15-.32-1.43c-.36-.43.77-.59-.58-.32Z" transform="translate(-636.73 -577.15)"/><path class="cls-105" d="M688.3,594.71l-1.09-.48-.3,1c.94,1.08,0,.48,1.41.88l.07-1C688.42,594.92,688.34,594.84,688.3,594.71Z" transform="translate(-636.73 -577.15)"/><polygon class="cls-76" points="53.25 50.21 55.45 50.95 54.51 48.88 53.25 50.21"/><polygon class="cls-105" points="50.79 9.46 50.77 10.94 51.47 11.16 51.46 10.75 52.29 8.58 50.79 9.46"/><path class="cls-3" d="M722.64,592.06c-1.55,2.6-.81.74.47,1.76l.36-1.49-.47-.66Z" transform="translate(-636.73 -577.15)"/><path class="cls-31" d="M715.83,632l1.46,1.59c0-1.36.71-.62-.14-1.49C715.35,630.3,716.07,632,715.83,632Z" transform="translate(-636.73 -577.15)"/><path class="cls-62" d="M700.86,583.7l.43-2-.22.22c-1,0-.07-1.13-1.24,1C700.18,583.73,698.65,583.38,700.86,583.7Z" transform="translate(-636.73 -577.15)"/><path class="cls-120" d="M672.41,609.58l1.12.2-.27.16c-.31-1.47-.9,1.18-.14-1.85-2.58-1-.37-.45-1.46.91Z" transform="translate(-636.73 -577.15)"/><path class="cls-54" d="M660.06,622.15c2.14.23.86-.16.84,1,.72.48.38.43.7-.55l-.57-1.52-.62-.22Z" transform="translate(-636.73 -577.15)"/><path class="cls-121" d="M719,627l-1.33,0c-.72-.71-1.11,1.08-.27-1.57-1.27,1.36-.53-.32-.94,1.91a3.71,3.71,0,0,0,1.6.15C719.53,627.18,718.06,627.76,719,627Z" transform="translate(-636.73 -577.15)"/><path class="cls-122" d="M694,631.32c-2.61-.35-.86-.78-1.83.85C693.5,631.92,692.12,634.52,694,631.32Z" transform="translate(-636.73 -577.15)"/><path class="cls-66" d="M686.31,631.81c-.59.94.44,1.1-.62.78,1.52.17,1.7.07,2.39-1.26C686.59,631.25,688.12,630.85,686.31,631.81Z" transform="translate(-636.73 -577.15)"/><path class="cls-42" d="M671.67,601.31c-1.15-1.66-.58-1.22-2.54-1.41.31.4,0,.35,1,.92S670.84,601.09,671.67,601.31Z" transform="translate(-636.73 -577.15)"/><path class="cls-96" d="M667.28,639.63l.81.31c1.59-.65.2-.13,1.08-1.34l-1.59.17Z" transform="translate(-636.73 -577.15)"/><path class="cls-72" d="M699,607.52v.37c-.29,1.08-.53.82.54.89l.83-.89.17-.29C699.47,607.25,699.92,607.3,699,607.52Z" transform="translate(-636.73 -577.15)"/><path class="cls-123" d="M655.37,650.08c2.17-.28.91.82,1.88-1.28C655.5,649.05,656.4,648.18,655.37,650.08Z" transform="translate(-636.73 -577.15)"/><path class="cls-105" d="M703.21,617.08c.37-.73.59.07.08-.82l-1.37-.41-1,.39Z" transform="translate(-636.73 -577.15)"/><path class="cls-88" d="M714,607.47c.11.81-.17.43.76.66l1-1C715.19,606.12,715.31,606.5,714,607.47Z" transform="translate(-636.73 -577.15)"/><polygon class="cls-100" points="95.1 37.75 96.46 37.6 95.87 36.21 95.34 35.98 95.1 37.75"/><path class="cls-42" d="M703.29,629.26l2.14.53-.77-1.24C702.86,628.55,704.28,628,703.29,629.26Z" transform="translate(-636.73 -577.15)"/><path class="cls-124" d="M695,655.73l.67-1.2c-1.22,0-1.43-.2-2.09.49Z" transform="translate(-636.73 -577.15)"/><path class="cls-118" d="M715.72,602.78c.33,1.56-.15.84.71.7,1.29-2.27.72-1,.34-1.74Z" transform="translate(-636.73 -577.15)"/><path class="cls-96" d="M680.15,623.87c-1,2.93-.46.65.3,1.76C681.36,624.22,681.29,625.09,680.15,623.87Z" transform="translate(-636.73 -577.15)"/><path class="cls-108" d="M638.6,644.11l.54-.2c-.13-1.13,1.34-.29-.87-1.19C637.63,645.18,637.81,643.56,638.6,644.11Z" transform="translate(-636.73 -577.15)"/><path class="cls-125" d="M657.37,639.87l.55-1.09c.29-1.81.45.16-.11-1l-.14.24-1,1.2Z" transform="translate(-636.73 -577.15)"/><path class="cls-111" d="M670.58,631.07l1.86-.57c-.49-.8-.06-.5-1.22-1a2.19,2.19,0,0,1,0,.63c0,.06-.1.26-.13.32S670.69,630.94,670.58,631.07Z" transform="translate(-636.73 -577.15)"/><path class="cls-18" d="M672,627.89l.62-.52-1.46-.46C671.2,628.38,669.69,628.54,672,627.89Z" transform="translate(-636.73 -577.15)"/><path class="cls-21" d="M688.35,629.59c.12.12.24.33.34.39s.26.23.36.28l1.23-.21C688.45,628.44,689.37,629.31,688.35,629.59Z" transform="translate(-636.73 -577.15)"/><path class="cls-124" d="M660.9,623.15c-.31.26-1-1-.52.82.33,1.16,0,.25.85,1.13Z" transform="translate(-636.73 -577.15)"/><path class="cls-41" d="M691.26,608.54l.33.11c-.18-1.59,1.3-.88-.8-1.38C690.17,609.58,690.54,607.54,691.26,608.54Z" transform="translate(-636.73 -577.15)"/><polygon class="cls-41" points="69.07 69.72 69.18 69.4 69.66 68.43 68.92 68.09 68.4 69.79 69.07 69.72"/><path class="cls-29" d="M719.72,605.42c.83-.5.35,1.17.83-1.18l-1.31.21Z" transform="translate(-636.73 -577.15)"/><path class="cls-66" d="M696.1,584.74l-.8-.25c-.95,1.93-.47.58.23,1.2C696.41,585.23,695.71,585.93,696.1,584.74Z" transform="translate(-636.73 -577.15)"/><path class="cls-126" d="M669,594.86l2.2,1.08a6,6,0,0,0-.25-1c-.14-.39-.39-.86-.51-1.12l-.1,1.55Z" transform="translate(-636.73 -577.15)"/><path class="cls-37" d="M720.62,639.63l1.84,1-.44-2.1C721.62,640.36,722.22,640.2,720.62,639.63Z" transform="translate(-636.73 -577.15)"/><path class="cls-105" d="M694.08,597.22c-.22-2.08-.82-.23-1.14.28Z" transform="translate(-636.73 -577.15)"/><path class="cls-127" d="M679.39,629.89l1.67.41c-.67-.67-.3-.36-.55-2.06l0,1.38Z" transform="translate(-636.73 -577.15)"/><polygon class="cls-29" points="40.8 36.05 39.79 36.17 39.76 37.11 40.8 36.05"/><polygon class="cls-101" points="66.81 63.08 68.06 62.72 67.04 62.36 66.81 63.08"/><path class="cls-44" d="M680.15,623.87c1.19-1.74.33-.34,0-.8C679.33,624,679.48,623.33,680.15,623.87Z" transform="translate(-636.73 -577.15)"/><polygon class="cls-41" points="50.59 14.62 49.59 14.36 49.73 15.18 50.59 14.62"/><text class="cls-128" transform="translate(147.7 132.77)">Wedding Planning</text></svg>