<svg id="Layer_1" data-name="Layer 1" xmlns="http://www.w3.org/2000/svg" viewBox="0 0 181.4 53.2"><path d="M12.6,103c.2-.8,1.5-1,1.8-1.5,15-8.1,9-20.6,6.7-19.5,0-1.2-1.4-1.5-2.3-1.5-19.3,0-1.4-1.3-2.6-2.7-2.7-3.2,3.9-9,7.8-2.7,6.6,10.6,2.8,23.1-5.2,28.5q0,.6.9.6a3.6,3.6,0,0,0,2-1,32.4,32.4,0,0,0,3.1-2.8l5-5.4c2.3-2.4,4.2-4.6,5.8-6.5l3.9-4.8,1.6-2.2a19.4,19.4,0,0,1,3.2-3.2c2.1-1.5,13.2-7,13.9-5.2,1.5,3.8,8.7,18.2-19.8,27.5a3.6,3.6,0,0,0-2,5.4c3.2,4.8,12.9,10.1,19.6-3.1l-.5-1.5a2.2,2.2,0,0,1-.1-.9,11.5,11.5,0,0,1,1.7-2.8c1.2-1.7,1.9-2.5,2.3-2.5s.7.3,1,.9a3.9,3.9,0,0,1,.4,1.8,15.6,15.6,0,0,1-.8,4c-7.2,23.7-35.4,15.5-43.2,9.2l-2.5-1.7C10.8,106.6,12.2,105.1,12.6,103Z" transform="translate(-9.8 -72.3)" style="fill:#e4007f;fill-rule:evenodd"/><text transform="translate(53.5 42.3)" style="font-size:32.35224151611328px;fill:#e4007f;font-family:BrushScriptMT, Brush Script MT;letter-spacing:0.012194865997260211em">W<tspan x="23" y="0" style="letter-spacing:0.000015092655937203232em">ise</tspan><tspan x="49.9" y="0" style="letter-spacing:0.012209958653197414em">W</tspan><tspan x="72.9" y="0" style="letter-spacing:-0.000015092655937203232em">eding</tspan></text></svg>