<?xml version="1.0" encoding="utf-8"?>
<!-- Generator: Adobe Illustrator 24.1.1, SVG Export Plug-In . SVG Version: 6.00 Build 0)  -->
<svg version="1.1" id="Layer_1" xmlns="http://www.w3.org/2000/svg" xmlns:xlink="http://www.w3.org/1999/xlink" x="0px" y="0px"
	 viewBox="0 0 259.2 172.8" style="enable-background:new 0 0 259.2 172.8;" xml:space="preserve">
<style type="text/css">
	.st0{fill-rule:evenodd;clip-rule:evenodd;fill:#E4007F;}
	.st1{fill:#E4007F;}
	.st2{font-family:'BrushScriptMT';}
	.st3{font-size:35.3102px;}
</style>
<g>
	<path class="st0" d="M24.16,105.02c0.15-0.61,1.11-0.77,1.34-1.13c11.34-6.11,6.81-15.62,5.07-14.77c0-0.9-1.05-1.12-1.77-1.12
		c-14.59,0-1.05-0.98-1.95-2.04c-2.01-2.38,2.95-6.8,5.9-2.07c4.99,8,2.12,17.5-3.91,21.55c0,0.32,0.21,0.49,0.64,0.49
		c0.36,0,0.85-0.25,1.5-0.75c0.65-0.5,1.43-1.22,2.34-2.17c0.91-0.94,2.18-2.29,3.8-4.05c1.73-1.86,3.19-3.49,4.37-4.92
		c1.19-1.42,2.16-2.63,2.93-3.64c0.76-1.01,1.17-1.55,1.22-1.63c0.8-0.97,1.62-1.77,2.47-2.4c1.54-1.14,9.95-5.35,10.47-3.98
		c1.13,2.92,6.59,13.77-14.94,20.83c-2.18,0.71-2.26,2.9-1.51,4.03c2.42,3.67,9.72,7.63,14.81-2.31l-0.37-1.12
		c-0.06-0.18-0.09-0.41-0.09-0.69c0-0.22,0.43-0.94,1.3-2.16c0.87-1.21,1.44-1.83,1.72-1.83c0.31,0,0.57,0.23,0.78,0.68
		c0.21,0.44,0.32,0.9,0.32,1.36c0,0.5-0.22,1.5-0.67,3c-5.38,17.92-26.69,11.72-32.65,6.97c-0.57-0.45-1.06-0.67-1.83-1.29
		C22.8,107.74,23.79,106.57,24.16,105.02z"/>
	<text transform="matrix(1 0 0 1 63.0072 111.1523)"><tspan x="0" y="0" class="st1 st2 st3">W</tspan><tspan x="24.66" y="0" class="st1 st2 st3">iseWedding</tspan></text>
</g>
</svg>
