<svg id="Layer_1" data-name="Layer 1" xmlns="http://www.w3.org/2000/svg" viewBox="0 0 150 16.7"><defs><style>.cls-1{fill:#ff8e82;}</style></defs><path class="cls-1" d="M598.7,492.5a2.4,2.4,0,0,0-.2-.8l-.4-.6-.5-.5h-1q-.1,0-.3-.3c-.2,1-.5,2-.7,2.9a27.4,27.4,0,0,0-.5,2.8h0a.1.1,0,0,1-.1.1h-.3l-.3-.2-.3-.4-.2-.3v-.2a18,18,0,0,1,.2-2.2c.2-.7.3-1.5.5-2.3l.6-2.4.6-2.2-1,1.1a12.5,12.5,0,0,0-.9,1.2l-.6,1.4a6.9,6.9,0,0,0-.5,1.3,5.3,5.3,0,0,0-.3,1.2v1c.1.1,0,.1,0,.1h-.3l-.4-.2-.4-.3-.3-.5a.8.8,0,0,1-.2-.4V491a11.6,11.6,0,0,1,.4-1.8,8.9,8.9,0,0,1,.8-1.7l1-1.5a4.9,4.9,0,0,1,1.3-1.2,5.1,5.1,0,0,1,1.6-.9l1.8-.4h0a2.7,2.7,0,0,1,1.2.3l.9.5a1.8,1.8,0,0,1,.6.9,3.6,3.6,0,0,1,.4.9v.6a5,5,0,0,1-.2,1.2,4.1,4.1,0,0,1-.5.9,2.3,2.3,0,0,1-.7.7l-.8.5.6.5.6.6.4.6.3.7a5.4,5.4,0,0,1-.1,2.2,4.8,4.8,0,0,1-1.2,1.7,6.8,6.8,0,0,1-1.9,1.1,10.3,10.3,0,0,1-2.6.3l-1.4-.2a3.1,3.1,0,0,1-1.3-.6,3.9,3.9,0,0,1-1-.8,5.4,5.4,0,0,1-.5-1.1,2.2,2.2,0,0,1,.1-.8,3.6,3.6,0,0,1,.4-.9h1.1l.6.2.3.2-.6.7a1.4,1.4,0,0,0-.2.6l.3.5a1.2,1.2,0,0,0,.5.5l.8.3h.8a4.7,4.7,0,0,0,1.7-.3,2.7,2.7,0,0,0,1.4-.8,3.8,3.8,0,0,0,.9-1.3A3.2,3.2,0,0,0,598.7,492.5Zm-.8-7.9h-.7l-.7.3.4.3.3.3.3.4a.8.8,0,0,1,.1.4c-.4,1.1-.8,2.2-1.1,3.2h.1l.6-.3a2.4,2.4,0,0,0,.8-.6,4.6,4.6,0,0,0,1.2-2.1v-.4a.6.6,0,0,0-.1-.4.9.9,0,0,0-.1-.5c-.1-.1-.1-.3-.2-.4l-.4-.2Z" transform="translate(-590.5 -483.5)"/><path class="cls-1" d="M605.6,491.4a5.4,5.4,0,0,1-1.1,1.8,4,4,0,0,1-1.8,1l.3.7a.5.5,0,0,0,.4.3h.6l.6-.4.6-.6.6-1a1.4,1.4,0,0,1,.2-.6c.1-.2.1-.4.2-.5s.1-.2.3-.2h.3l.2.2v.4l-.2.4a6.1,6.1,0,0,1-.5,1.2,5.7,5.7,0,0,1-.8,1.3l-.7.5-.6.3h-.9a2.5,2.5,0,0,1-1.6-.5,2.6,2.6,0,0,1-.7-1.5,4.3,4.3,0,0,1,0-1.6,7,7,0,0,1,.6-1.7,2.1,2.1,0,0,1,.4-.6,2.3,2.3,0,0,1,.7-.7,2,2,0,0,1,.8-.4,1.5,1.5,0,0,1,.9-.2,1.2,1.2,0,0,1,.9.3,1.3,1.3,0,0,1,.4.9.4.4,0,0,1,0,.5,1.1,1.1,0,0,1-.1.5Zm-.9-1-.8.4a1.8,1.8,0,0,0-.5.7,2.5,2.5,0,0,0-.4.9l-.3.8a3,3,0,0,0,1.3-.9,3.9,3.9,0,0,0,.8-1.4h0v-.4C604.8,490.4,604.8,490.4,604.7,490.4Z" transform="translate(-590.5 -483.5)"/><path class="cls-1" d="M611.1,494a2.2,2.2,0,0,1-.5.8l-.6.8-.8.6-.9.2-.5-.2a.5.5,0,0,1-.4-.3.8.8,0,0,1-.2-.4,1.4,1.4,0,0,1-.2-.6v-.7a1.9,1.9,0,0,1,.2-.7,1.4,1.4,0,0,1,.2-.6l.3-.6.2-.3h0l.2-.4.2-.3.4-.2h-1.1a5.9,5.9,0,0,0-.4.8l-.3.8h-.4l-.3-.2c0-.1-.1-.2,0-.2h0l.5-1.4-.2-.5a1.5,1.5,0,0,1,.1-.7c.1-.2.1-.4.2-.6s.1-.3.2-.4a1.1,1.1,0,0,1,.1-.5.5.5,0,0,0,.4.2l.3.3q.3.1.3.3a.8.8,0,0,1,.2.4v.5l-.4.6h.1l.3-.2.4-.3.5-.4.3-.3.2-.2h.2l.3.2c.1.1.2.1.2.2h.2a.6.6,0,0,1,.1.4,2,2,0,0,1-.1.7l-.3.7-.4.8-.3.4a.8.8,0,0,1-.2.4c-.1.1-.1.3-.2.4l-.2.5c-.1.1-.1.2-.1.4a.6.6,0,0,0-.1.4h.5l.4-.3.3-.4c.2-.2.3-.3.3-.5h0l.4-.8c.1-.2.1-.5.2-.6s.1-.1.2-.1l.3.2.2.2a.3.3,0,0,1,.1.2h0l-.3.6-.3.8Z" transform="translate(-590.5 -483.5)"/><path class="cls-1" d="M620.2,493.8l-.3.7-.6.9-.6.7a1.3,1.3,0,0,1-.8.3h-.5l-.5-.3-.3-.5a1.4,1.4,0,0,1-.2-.7,2,2,0,0,1-.1-.7,2.2,2.2,0,0,0,.1-.8,3.1,3.1,0,0,1,.2-.8,4.4,4.4,0,0,1,.2-1c0-.2.1-.3.1-.5v-.3a.1.1,0,0,1-.1.1l-.3.4-.7.8a4.1,4.1,0,0,0-.5.9.9.9,0,0,0-.1.5.6.6,0,0,0-.1.4h0a4.1,4.1,0,0,0-.1,1.1V496c0,.1,0,.2-.1.2h-.6l-.3-.2-.3-.2c-.1-.1-.1-.1-.1-.2a6.7,6.7,0,0,1,0-2,6.8,6.8,0,0,1,.3-1.9,4.3,4.3,0,0,1,.1-.5c0-.2,0-.3.1-.3l-.5.4-.7.8-.6,1a6.8,6.8,0,0,0-.2,1.5,7.5,7.5,0,0,0,0,1.5.2.2,0,0,1-.2.2h-.5l-.5-.3c-.1-.1-.2-.2-.2-.3a4.1,4.1,0,0,1-.1-1.1,3.8,3.8,0,0,1,.1-1c0-.3.1-.6.1-1s.1-.6.2-.9.1-.8.2-1.2a3.4,3.4,0,0,0,.1-1c.1-.1.2-.1.4,0l.5.2.4.3c.2.2.3.3.3.5l.8-.7a2.1,2.1,0,0,1,1-.4h.3l.3.3.3.3a.8.8,0,0,1,.2.4l.8-.7a2.1,2.1,0,0,1,1-.4l.4.2.4.3.3.5a.9.9,0,0,1,.1.5h0a10.4,10.4,0,0,1-.3,1.2,2.4,2.4,0,0,1-.2.9c0,.2-.1.5-.1.6a10998156481740.6,10998156481740.6,0,0,0-.2,1.2v.6a.1.1,0,0,1,.1-.1l.7-.6a6.3,6.3,0,0,0,.7-1.2.8.8,0,0,1,.2-.4c0-.2.1-.3.1-.5v-.2l.3-.2h.3c.1,0,.1.1.2.2v.4a1.4,1.4,0,0,0-.2.6l-.3.5Z" transform="translate(-590.5 -483.5)"/><path class="cls-1" d="M620.7,489.2h.4a.9.9,0,0,1,.5.3l.5.5a1.3,1.3,0,0,1,.1.6h-.1v.2a.4.4,0,0,0-.1.3.4.4,0,0,0-.1.3l-.3.7c-.1.2-.1.5-.2.8l-.3.7a6.4,6.4,0,0,1-.2.7v.4c-.1.2,0,.2,0,.2h.1l.6-.4.5-.6.5-.7.3-.8.2-.3h.4c.1.1.2.2.2.3s.1.1.1.2h0a10.9,10.9,0,0,1-.8,1.5,9.7,9.7,0,0,1-1.1,1.5l-.2.2-.3.2h-.8a.9.9,0,0,1-.8-.4,1.2,1.2,0,0,1-.3-.9.4.4,0,0,1-.1-.3v-.5h0l.3-1.3c.1-.6.3-1.1.4-1.6l.3-1.1c.1-.3.1-.6.2-.9Zm.6-3.6h.2l.4.3q.1,0,.3.3l.3.3.3.3v.2c0,.2-.1.4-.1.6s-.1.4-.2.6a1.7,1.7,0,0,1-.2.5,2,2,0,0,1-.1.7l-.3-.2-.4-.3a.8.8,0,0,1-.4-.4c0-.1-.1-.2-.1-.3v-1.1c0-.2.1-.4.1-.7a1.3,1.3,0,0,0-.1-.6Z" transform="translate(-590.5 -483.5)"/><path class="cls-1" d="M632.4,493.8l-.3.7-.6.9-.6.7a1.3,1.3,0,0,1-.8.3h-.5l-.5-.3-.4-.5a1.5,1.5,0,0,1-.1-.7,2,2,0,0,1-.1-.7c0-.3.1-.5.1-.8a3.1,3.1,0,0,1,.2-.8,4.4,4.4,0,0,1,.2-1c0-.2.1-.3.1-.5v-.3H629l-.3.4-.7.8-.6.9a.9.9,0,0,1-.1.5v.4h0a4.1,4.1,0,0,0-.1,1.1,4,4,0,0,0,0,1.1c0,.1,0,.2-.1.2h-.6l-.3-.2-.3-.2c-.1-.1-.1-.1-.1-.2a6.7,6.7,0,0,1,0-2,6.8,6.8,0,0,1,.3-1.9.7.7,0,0,1,.1-.5c0-.2,0-.3.1-.3l-.5.4-.7.8-.6,1a6.8,6.8,0,0,0-.2,1.5,3.8,3.8,0,0,0,0,1.5.2.2,0,0,1-.2.2h-.5l-.5-.3c-.1-.1-.2-.2-.2-.3a4.1,4.1,0,0,1-.1-1.1,3.8,3.8,0,0,1,.1-1c0-.3.1-.6.1-1s.1-.6.2-.9.1-.8.2-1.2.1-.7.1-1,.2-.1.4,0l.5.2.4.3c.2.2.3.3.3.5l.8-.7a1.8,1.8,0,0,1,1-.4h.3l.3.3.3.3a.8.8,0,0,1,.2.4l.8-.7a1.8,1.8,0,0,1,1-.4l.4.2.4.3.3.5a.9.9,0,0,1,.1.5h0l-.3,1.2c-.1.3-.1.7-.2.9s-.1.5-.1.6a2749539120485.8,2749539120485.8,0,0,0-.2,1.2v.6a.1.1,0,0,1,.1-.1l.7-.6.7-1.2a.8.8,0,0,1,.2-.4c0-.2.1-.3.1-.5v-.2l.3-.2h.3l.2.2v.4a1.4,1.4,0,0,0-.2.6l-.3.5Z" transform="translate(-590.5 -483.5)"/><path class="cls-1" d="M632.6,489.3q0-.2.3,0l.4.2c.2,0,.3.2.5.3l.3.4,1-.7a1.7,1.7,0,0,1,1.2-.2l.7.2.4.4a.9.9,0,0,1,.3.6,1.4,1.4,0,0,1,.2.6c0,.2.1.4.1.6a1.1,1.1,0,0,1-.1.5,3.3,3.3,0,0,1-.4,1.4,3.3,3.3,0,0,1-.7,1.3,4.7,4.7,0,0,1-1,1,2.1,2.1,0,0,1-1.2.4l-.9-.2-.7-.6h0a4.5,4.5,0,0,0-.3,1.1l-.3,1.1c-.1.3-.1.7-.2,1.1v1.1h-.6l-.5-.2q-.3-.1-.3-.3v-1.2a4.9,4.9,0,0,1,.1-1.2l.3-1.2.3-1.2a3.6,3.6,0,0,0,.2-1l.3-.9h0c0-.2.1-.5.1-.7s.1-.5.1-.8a4.3,4.3,0,0,0,.2-1.1C632.5,489.9,632.5,489.6,632.6,489.3Zm.9,4.5h0v.2c0,.2.1.3.2.5a.5.5,0,0,0,.4.2h.6l.5-.6a1.8,1.8,0,0,0,.5-.7,3.6,3.6,0,0,0,.4-.9,2.9,2.9,0,0,0,.2-.9,1.7,1.7,0,0,0,.1-.7c-.1-.2-.2-.4-.4-.4h-.5l-.6.3-.5.4-.5.6a2.9,2.9,0,0,1-.2.9c-.1.3-.1.7-.2,1Z" transform="translate(-590.5 -483.5)"/><path class="cls-1" d="M639,489.2h.4c.2,0,.4.2.6.3l.4.5a1.3,1.3,0,0,1,.1.6h0a.3.3,0,0,1-.1.2.4.4,0,0,1-.1.3c0,.1-.1.2-.1.3a6.4,6.4,0,0,0-.2.7l-.3.8a1.9,1.9,0,0,0-.2.7,2.5,2.5,0,0,0-.2.7.8.8,0,0,0-.1.4v.2h.1l.7-.4.5-.6.4-.7c.1-.3.3-.5.4-.8v-.3h.4l.3.3v.2h0a10.9,10.9,0,0,1-.8,1.5,9.7,9.7,0,0,1-1,1.5l-.3.2-.3.2h-.8a.7.7,0,0,1-.7-.4,1.3,1.3,0,0,1-.4-.9v-.8h0a6.9,6.9,0,0,1,.2-1.3,12.4,12.4,0,0,0,.4-1.6l.3-1.1a2.9,2.9,0,0,0,.2-.9Zm.6-3.6h.3l.3.3.4.3.3.3.2.3a.3.3,0,0,1,.1.2,1.3,1.3,0,0,1-.1.6,1.4,1.4,0,0,1-.2.6,4.3,4.3,0,0,0-.1.5,1.5,1.5,0,0,0-.1.7l-.4-.2-.4-.3-.3-.4c-.1-.1-.2-.2-.2-.3v-1.1a1.5,1.5,0,0,0,.1-.7v-.8Z" transform="translate(-590.5 -483.5)"/><path class="cls-1" d="M643.9,489.8c-.1.1-.1.3-.2.6l-.3.9-.3,1c-.1.4-.1.7-.2,1a6.4,6.4,0,0,1-.2.9v.7h.1l.6-.4a2.1,2.1,0,0,0,.4-.6,2.5,2.5,0,0,0,.4-.7l.3-.8h0c0-.1,0-.1.1-.2s0-.1.1-.2h.4l.2.2c.1.1.1.1.1.2l-.2.5-.6,1.4a3.6,3.6,0,0,1-.8,1.2l-.2.3-.3.2h-.8a1.3,1.3,0,0,1-.9-.4,3.6,3.6,0,0,1-.4-1.1v-.5a9.7,9.7,0,0,1,.2-2.4l.6-2.2.3-1,.3-.9c.1-.4.1-.7.2-1s.1-.6.2-.9a1.7,1.7,0,0,1,.1-.7c.1-.1.2-.1.4,0a.9.9,0,0,1,.6.3l.5.5a1.7,1.7,0,0,1,.2.5c-.1.1-.1.3-.2.5a2.4,2.4,0,0,1-.2.8c-.1.3-.1.6-.2.9l-.3.8Z" transform="translate(-590.5 -483.5)"/><path class="cls-1" d="M649.6,491.3h-.1a.1.1,0,0,0-.1.1h-.5l.4.3.4.3c.1.1.2.2.2.3a.8.8,0,0,1,.1.4v.2c-.1.1-.1.1-.1.2a4.3,4.3,0,0,0-.1.5c0,.2-.1.3-.1.5v.5a.3.3,0,0,0,0,.4h0l.6-.4.4-.6a2,2,0,0,0,.4-.8l.3-.7a.8.8,0,0,0,.1-.4h.5l.3.2v.2l-.2.5h0l-.6,1.4a3.6,3.6,0,0,1-.8,1.2l-.2.3-.3.2h-.8a1.8,1.8,0,0,1-1-.4,1.9,1.9,0,0,1-.5-.9l-.8.9a1.4,1.4,0,0,1-.9.3l-.8-.2-.6-.5-.3-.6a2.5,2.5,0,0,1-.2-.7v-.4a3.8,3.8,0,0,1,.1-1,1.9,1.9,0,0,1,.3-1,3.1,3.1,0,0,1,.5-1,2.2,2.2,0,0,1,.7-.9,1.6,1.6,0,0,1,.8-.6,1.9,1.9,0,0,1,1-.3h.7l.5.3.4.5c.1.2.1.4.2.6S649.6,491.1,649.6,491.3Zm-1.4,0h.3l.4.2c-.1-.1-.1-.1-.1-.2h-.1v-.3c-.1-.1-.1-.2-.2-.2a.3.3,0,0,0-.1-.2h-.3a1.1,1.1,0,0,0-.8.3,1.5,1.5,0,0,0-.6.9,3.1,3.1,0,0,0-.5,1,5.2,5.2,0,0,0-.2,1.1v.7l.2.5h.5l.4-.2a2.1,2.1,0,0,1,.4-.6l.4-.6a1.6,1.6,0,0,1,.3-.6,2.2,2.2,0,0,1,.1-.8v-.7Z" transform="translate(-590.5 -483.5)"/><path class="cls-1" d="M658,493.8l-.4.7a4.1,4.1,0,0,1-.5.9,2.3,2.3,0,0,1-.7.7,1.1,1.1,0,0,1-.8.3h-.5l-.4-.3a1,1,0,0,1-.4-.5,1.4,1.4,0,0,1-.2-.7v-.7a2.2,2.2,0,0,1,.1-.8c0-.2.1-.5.1-.8a3,3,0,0,0,.2-1,.9.9,0,0,0,.1-.5v-.3l-.4.5-.6.8a2.2,2.2,0,0,0-.5.8,5,5,0,0,0-.3,1.6,9.2,9.2,0,0,0-.1,1.6c0,.1,0,.2-.2.2h-.4l-.5-.3q-.3-.2-.3-.3a3.8,3.8,0,0,1,0-1.5,7.7,7.7,0,0,1,.2-1.5l.3-1.5a10.3,10.3,0,0,0,.4-1.4l.3-.8a2.9,2.9,0,0,1,.2-.9c.1-.4.1-.7.2-1s.1-.6.2-.9.1-.5.1-.7.2-.1.4,0a.9.9,0,0,1,.6.3l.5.5a1.7,1.7,0,0,1,.2.5c-.1.1-.1.3-.2.5a2.4,2.4,0,0,1-.2.8,2.9,2.9,0,0,1-.2.9l-.3.8v.3l.7-.5.7-.2.4.2.4.3.3.5a.8.8,0,0,1,.1.4c-.1.5-.1.8-.2,1.2a3.7,3.7,0,0,0-.2.9c-.1.2-.1.4-.2.6s-.1.4-.1.6v.6c-.1.1,0,.4,0,.6h0a1.9,1.9,0,0,0,.7-.6,3.5,3.5,0,0,0,.7-1.2.5.5,0,0,0,.2-.4l.2-.3v-.4h.4l.3.2c0,.1.1.2,0,.2h0l-.4,1.1Z" transform="translate(-590.5 -483.5)"/><path class="cls-1" d="M666.6,483.6a2.6,2.6,0,0,1,1.5.2,3.3,3.3,0,0,1,1.3.7,4.3,4.3,0,0,1,1.1,1.2,4.4,4.4,0,0,1,.6,1.6,8.1,8.1,0,0,1,0,2.2,10.5,10.5,0,0,1-.6,2.4,6.5,6.5,0,0,1-1.1,2.2,5.8,5.8,0,0,1-1.5,1.9,6.2,6.2,0,0,1-1.8,1.4,7.6,7.6,0,0,1-2,.6h-1a3.1,3.1,0,0,1-1-.5l-1-.7a4.4,4.4,0,0,1-.8-1.1q-.1-.5,0-.6l.4-.4.6-.2.5.2a4.6,4.6,0,0,0,.9,1.6l.7.4h.7l1.3-.6a4.9,4.9,0,0,0,1.3-1.2,6.1,6.1,0,0,0,1.2-1.6,17.4,17.4,0,0,0,1-1.9,19.4,19.4,0,0,0,.5-2,6.7,6.7,0,0,0,0-2,3.5,3.5,0,0,0-.3-1.1l-.6-.9-.8-.6-.9-.2-.9.2-.8.5.4.2.5.4.3.5a.6.6,0,0,1,.1.4l-.8,2.4a20.2,20.2,0,0,0-.7,2.3l-.6,2.4c-.1.8-.3,1.5-.4,2.3h0c0,.1-.1.2-.2.1l-.5-.4-.4-.4c-.1-.2-.2-.3-.2-.4a8.9,8.9,0,0,1,.3-2.2c.1-.8.3-1.7.4-2.5l.7-2.5a14.2,14.2,0,0,1,.7-2.2,11.4,11.4,0,0,0-1.5,1.6,19.8,19.8,0,0,0-1.1,2c-.3.7-.5,1.3-.7,1.9a10.4,10.4,0,0,0-.1,1.6.5.5,0,0,1-.5.3l-.6-.3a2.2,2.2,0,0,1-.5-.8,1.4,1.4,0,0,1,0-.9,11.6,11.6,0,0,1,.4-1.8,12.2,12.2,0,0,1,.7-1.7l1.1-1.5a7.4,7.4,0,0,1,1.3-1.2,4.8,4.8,0,0,1,1.6-.8A3.4,3.4,0,0,1,666.6,483.6Z" transform="translate(-590.5 -483.5)"/><path class="cls-1" d="M676.2,491.3h-.7l.4.3.3.3.3.3c0,.2.1.3,0,.4v.4a.7.7,0,0,0-.1.5,2332275398107.9,2332275398107.9,0,0,0-.2,1v.4h.1a1,1,0,0,0,.5-.4l.5-.6.3-.8a2.5,2.5,0,0,0,.4-.7c0-.2.1-.3.1-.4h.4l.3.2a.3.3,0,0,1,.1.2l-.2.5h0l-.6,1.4a3.8,3.8,0,0,1-.9,1.2c0,.1-.1.2-.2.3l-.3.2h-.8a1.3,1.3,0,0,1-.9-.4,1.3,1.3,0,0,1-.5-.9l-.8.9a1.6,1.6,0,0,1-.9.3l-.9-.2-.5-.5-.4-.6a6.4,6.4,0,0,0-.2-.7v-.4a3.8,3.8,0,0,1,.1-1l.3-1a3.1,3.1,0,0,1,.5-1,3.5,3.5,0,0,1,.7-.9l.9-.6a1.7,1.7,0,0,1,1-.3h.6l.5.3.4.5a1.4,1.4,0,0,1,.2.6A6.4,6.4,0,0,0,676.2,491.3Zm-1.5,0h.3l.4.2c-.1-.1-.1-.1-.1-.2h0a.4.4,0,0,1-.1-.3.3.3,0,0,0-.1-.2c-.1-.1-.1-.2-.2-.2h-.3a1.3,1.3,0,0,0-.8.3,3.5,3.5,0,0,0-.6.9,3,3,0,0,0-.4,1,5.2,5.2,0,0,0-.2,1.1.4.4,0,0,0-.1.3c0,.1.1.3.1.4s.1.3.2.5h.4l.4-.2.4-.6a2.1,2.1,0,0,0,.4-.6,1.6,1.6,0,0,1,.3-.6,2.2,2.2,0,0,0,.1-.8v-.7Z" transform="translate(-590.5 -483.5)"/><path class="cls-1" d="M684.5,493.8l-.3.7-.6.9-.6.7a1.3,1.3,0,0,1-.8.3h-.5l-.5-.3-.3-.5a1.4,1.4,0,0,1-.2-.7,2,2,0,0,1-.1-.7c0-.3.1-.5.1-.8a3.1,3.1,0,0,1,.2-.8,4.4,4.4,0,0,1,.2-1c0-.2.1-.3.1-.5v-.3l-.4.5-.7.8-.6,1a6.8,6.8,0,0,0-.2,1.5,3.8,3.8,0,0,0,0,1.5.2.2,0,0,1-.2.2h-.5l-.5-.3-.3-.3v-1.1a3.8,3.8,0,0,1,.1-1,3.8,3.8,0,0,1,.1-1c.1-.3.1-.6.2-.9a5,5,0,0,1,.2-1.2c0-.3.1-.7.1-1s.2-.1.4,0l.4.2.5.3c.1.2.3.3.3.5l.8-.7a1.8,1.8,0,0,1,1-.4l.4.2.4.3.3.5c0,.2.1.3.1.4s-.2.8-.3,1.2-.1.7-.2.9-.1.4-.1.6a1.3,1.3,0,0,0-.1.6,1.3,1.3,0,0,0-.1.6v.6a.1.1,0,0,1,.1-.1h0l.7-.6.7-1.2c0-.1.1-.2.1-.4l.2-.3v-.4h.5l.2.2a.3.3,0,0,1,.1.2h0l-.5,1.1Z" transform="translate(-590.5 -483.5)"/><path class="cls-1" d="M693.1,483.6a2.5,2.5,0,0,1,1.5.2,3.7,3.7,0,0,1,1.4.7,4,4,0,0,1,1,1.2,7.7,7.7,0,0,1,.7,1.6,8.1,8.1,0,0,1,0,2.2,10.5,10.5,0,0,1-.6,2.4,15.1,15.1,0,0,1-1.1,2.2,10.5,10.5,0,0,1-1.5,1.9,8.5,8.5,0,0,1-1.9,1.4,6.6,6.6,0,0,1-2,.6h-1l-1-.5-1-.7a10.5,10.5,0,0,1-.8-1.1c0-.3,0-.5.1-.6l.4-.4.5-.2.5.2a3.6,3.6,0,0,0,.4.9l.6.7.6.4h.7l1.4-.6a7.1,7.1,0,0,0,1.3-1.2l1.2-1.6a8.2,8.2,0,0,0,.9-1.9c.3-.7.4-1.4.6-2a6.7,6.7,0,0,0,0-2,3.6,3.6,0,0,0-.4-1.1,2.4,2.4,0,0,0-.6-.9l-.8-.6-.9-.2-.8.2-.9.5.4.2.5.4.4.5a.6.6,0,0,1,.1.4l-.9,2.4a20.2,20.2,0,0,1-.7,2.3,20.5,20.5,0,0,0-.5,2.4c-.2.8-.3,1.5-.5,2.3h0c0,.1,0,.2-.2.1s-.3-.2-.4-.4l-.5-.4c-.1-.2-.2-.3-.2-.4l.3-2.2a22.1,22.1,0,0,1,.5-2.5l.6-2.5c.3-.8.5-1.5.7-2.2a10.7,10.7,0,0,0-1.4,1.6,9.9,9.9,0,0,0-1.1,2,8.9,8.9,0,0,0-.7,1.9,4.7,4.7,0,0,0-.1,1.6.7.7,0,0,1-.6.3l-.6-.3a2,2,0,0,1-.4-.8,2.8,2.8,0,0,1-.1-.9c.1-.6.3-1.2.4-1.8a13,13,0,0,1,.8-1.7l1-1.5,1.3-1.2a6,6,0,0,1,1.6-.8A3.9,3.9,0,0,1,693.1,483.6Z" transform="translate(-590.5 -483.5)"/><path class="cls-1" d="M702.7,491.3h-.1a.1.1,0,0,0-.1.1H702l.4.3.4.3c.1.1.2.2.2.3a.8.8,0,0,1,.1.4c0,.1,0,.1-.1.2v.2a4.3,4.3,0,0,0-.1.5c0,.2-.1.3-.1.5a.9.9,0,0,1-.1.5v.4h.1l.6-.4.4-.6a2,2,0,0,0,.4-.8l.3-.7a.8.8,0,0,0,.1-.4h.5l.2.2a.3.3,0,0,1,.1.2l-.2.5h0l-.6,1.4a3.6,3.6,0,0,1-.8,1.2c-.1.1-.2.2-.2.3l-.3.2h-.9a1.5,1.5,0,0,1-.9-.4,1.9,1.9,0,0,1-.5-.9l-.8.9a1.6,1.6,0,0,1-.9.3l-.8-.2-.6-.5-.3-.6a2.5,2.5,0,0,1-.2-.7v-.4a3.3,3.3,0,0,1,0-1,4.2,4.2,0,0,1,.4-1,3.1,3.1,0,0,1,.5-1,2.2,2.2,0,0,1,.7-.9,1.6,1.6,0,0,1,.8-.6,1.7,1.7,0,0,1,1-.3h.6l.6.3c.1.2.3.4.3.5l.3.6C702.6,490.9,702.7,491.1,702.7,491.3Zm-1.4,0h.3l.3.2v-.2h-.1a.4.4,0,0,0-.1-.3c0-.1,0-.2-.1-.2a.2.2,0,0,0-.2-.2h-.2a1.1,1.1,0,0,0-.8.3,2.2,2.2,0,0,0-.7.9,10.4,10.4,0,0,0-.4,1,5.2,5.2,0,0,0-.2,1.1v.7c0,.2.1.3.2.5h.5l.4-.2a2.1,2.1,0,0,1,.4-.6,2.1,2.1,0,0,1,.4-.6l.3-.6a2.2,2.2,0,0,1,.1-.8v-.7Z" transform="translate(-590.5 -483.5)"/><path class="cls-1" d="M705.1,489.3c0-.1.2-.1.3,0l.4.2c.2,0,.3.2.5.3l.3.4,1-.7a1.7,1.7,0,0,1,1.2-.2l.7.2.4.4a2.1,2.1,0,0,1,.4.6c0,.2.1.4.1.6s.1.4.1.6a1.1,1.1,0,0,1-.1.5,5.8,5.8,0,0,1-.3,1.4,5.7,5.7,0,0,1-.8,1.3,4.7,4.7,0,0,1-1,1,2.1,2.1,0,0,1-1.2.4l-.9-.2-.7-.6h0l-.3,1.1-.3,1.1c-.1.3-.1.7-.2,1.1v1.1h-.6l-.5-.2c-.2-.1-.2-.2-.3-.3v-1.2c0-.4.1-.8.1-1.2l.3-1.2.3-1.2a3.6,3.6,0,0,0,.2-1l.3-.9h0c0-.2.1-.5.1-.7s.1-.5.1-.8a4.3,4.3,0,0,0,.2-1.1C705,489.9,705,489.6,705.1,489.3Zm.9,4.5h0v.2l.2.5a.5.5,0,0,0,.4.2h.6l.5-.6a1.8,1.8,0,0,0,.5-.7,3.6,3.6,0,0,0,.4-.9,2.9,2.9,0,0,0,.2-.9,1.7,1.7,0,0,0,.1-.7c-.1-.2-.2-.4-.4-.4H708l-.6.3-.5.4-.5.6a2.9,2.9,0,0,1-.2.9c-.1.3-.1.7-.2,1Z" transform="translate(-590.5 -483.5)"/><path class="cls-1" d="M715.7,491.3h-.6l.4.3.3.3c.1.1.2.2.2.3a.8.8,0,0,1,.1.4v.2c0,.1-.1.1-.1.2a1.1,1.1,0,0,1-.1.5.9.9,0,0,1-.1.5v.9h0l.6-.4.5-.6.3-.8.3-.7c.1-.2.1-.3.2-.4h.4l.3.2c0,.1.1.2,0,.2l-.2.5h0a4.2,4.2,0,0,1-.6,1.4,3.6,3.6,0,0,1-.8,1.2l-.2.3-.3.2h-.8a1.8,1.8,0,0,1-1-.4,1.3,1.3,0,0,1-.4-.9l-.8.9a1.7,1.7,0,0,1-1,.3l-.8-.2-.5-.5a2.1,2.1,0,0,1-.4-.6,6.4,6.4,0,0,0-.2-.7v-.4a3.8,3.8,0,0,1,.1-1,1.9,1.9,0,0,1,.3-1,3.1,3.1,0,0,1,.5-1,2.2,2.2,0,0,1,.7-.9,2.1,2.1,0,0,1,.8-.6l1-.3h.7l.5.3.4.5a1.4,1.4,0,0,1,.2.6A2,2,0,0,1,715.7,491.3Zm-1.4,0h.3l.4.2c-.1-.1-.1-.1-.1-.2h-.1v-.3c-.1-.1-.1-.2-.2-.2a.3.3,0,0,0-.1-.2h-.3a1.3,1.3,0,0,0-.8.3l-.6.9-.5,1c-.1.4-.1.8-.2,1.1v.3a.6.6,0,0,0,.1.4.9.9,0,0,0,.1.5h.5l.4-.2.4-.6.4-.6.3-.6c0-.3.1-.5.1-.8v-.7Z" transform="translate(-590.5 -483.5)"/><path class="cls-1" d="M717.7,489.8h-.4l-.2-.2c0-.1-.1-.2-.1-.3s.1-.3.2-.3l1.6-1.1a8.9,8.9,0,0,0,.3-1.4,6,6,0,0,0,.2-1.2.4.4,0,0,1,.5,0c.2,0,.3.1.5.3a1.2,1.2,0,0,1,.5.5,1.7,1.7,0,0,1,.2.5,6181264102505.1,6181264102505.1,0,0,0-.2.6H723a.9.9,0,0,1,0,.8c0,.1-.1.2-.1.3l-.3.2h-2.1l-.4,1.1v.2c-.1.1-.1.3-.2.6l-.3.9a4.4,4.4,0,0,1-.2,1l-.3,1c0,.4-.1.7-.1.9a.8.8,0,0,0,0,.7h.1a1,1,0,0,0,.5-.4l.5-.6.3-.7.3-.8h0c0-.1.1-.1.1-.2s.1-.1.1-.2h.4l.3.2c0,.1.1.1.1.2l-.3.5a4.2,4.2,0,0,1-.6,1.4,3.6,3.6,0,0,1-.8,1.2c0,.1-.1.2-.2.3l-.3.2h-.8a1.5,1.5,0,0,1-.9-.4,3.6,3.6,0,0,1-.4-1.1v-.5a10.1,10.1,0,0,1,.3-2.5l.6-2.3v-.2h-.3l-.4.3Z" transform="translate(-590.5 -483.5)"/><path class="cls-1" d="M727.4,492.8l-.5,1.2a4.1,4.1,0,0,1-.7,1.1,2,2,0,0,1-.9.9,1.6,1.6,0,0,1-1.2.4,2.1,2.1,0,0,1-1.2-.5,2.7,2.7,0,0,1-.8-1V496a.2.2,0,0,1-.2.2h-.5l-.5-.3-.3-.3V494c.1-.5.1-1,.2-1.5a8.3,8.3,0,0,1,.4-1.5,5.7,5.7,0,0,1,.4-1.4l.2-.8a2.9,2.9,0,0,0,.2-.9l.3-1c0-.3.1-.6.1-.9a1.7,1.7,0,0,0,.1-.7.4.4,0,0,1,.5,0,.9.9,0,0,1,.6.3l.4.5a.6.6,0,0,1,.2.5,4.3,4.3,0,0,0-.1.5c-.1.3-.1.5-.2.8l-.3.9c-.1.3-.1.5-.2.8v.3l.6-.5.8-.2.4.2.4.3.3.5a.8.8,0,0,1,.1.4c-.1.3-.1.6-.2.9l-.3.7a2.5,2.5,0,0,0-.2.7,2.5,2.5,0,0,0-.1.9l-.7-.4a1,1,0,0,1-.5-.4.5.5,0,0,1-.3-.4c-.1-.1-.1-.2-.1-.4a.2.2,0,0,1,0-.3v-.2l.3-.6c.1-.2.1-.4.2-.5l-.4.6c-.2.1-.3.3-.4.4l-.3.5c-.2.2-.2.5-.3.7v.7c.1.2.1.4.3.6l.3.5.5.2h.5l.9-.3a4.6,4.6,0,0,0,.7-.7,3.6,3.6,0,0,0,.5-.9l.4-.9h.4l.3.2a.3.3,0,0,1,.1.2h0Z" transform="translate(-590.5 -483.5)"/><path class="cls-1" d="M731.6,491.3H731l.4.3.3.3.3.3v.6c0,.1,0,.1-.1.2a1.1,1.1,0,0,1-.1.5.9.9,0,0,1-.1.5v.9h0l.6-.4.5-.6.3-.8.3-.7c.1-.2.1-.3.2-.4h.4l.3.2a.3.3,0,0,1,.1.2l-.2.5h0l-.7,1.4a3.6,3.6,0,0,1-.8,1.2c0,.1-.1.2-.2.3l-.3.2h-.8a1.3,1.3,0,0,1-.9-.4,1.3,1.3,0,0,1-.5-.9l-.8.9a1.7,1.7,0,0,1-1,.3l-.8-.2-.5-.5-.4-.6a6.4,6.4,0,0,0-.2-.7v-.4a3.8,3.8,0,0,1,.1-1l.3-1a3.1,3.1,0,0,1,.5-1,3.5,3.5,0,0,1,.7-.9,1.8,1.8,0,0,1,.9-.6,1.6,1.6,0,0,1,.9-.3h.7l.5.3.4.5a1.4,1.4,0,0,1,.2.6A2,2,0,0,1,731.6,491.3Zm-1.4,0h.3l.4.2c-.1-.1-.1-.1-.1-.2h0a.4.4,0,0,1-.1-.3v-.2c-.1-.1-.1-.2-.2-.2h-.3a1.3,1.3,0,0,0-.8.3,3.5,3.5,0,0,0-.6.9,3,3,0,0,0-.4,1,6.1,6.1,0,0,0-.3,1.1v.3a.6.6,0,0,0,.1.4.9.9,0,0,0,.1.5h.5l.4-.2.4-.6.4-.6a1.6,1.6,0,0,1,.3-.6c0-.3.1-.5.1-.8v-.7Z" transform="translate(-590.5 -483.5)"/><path class="cls-1" d="M740,493.8l-.3.7-.6.9-.6.7-.8.3h-.5l-.5-.3-.4-.5a6.4,6.4,0,0,1-.2-.7v-.7c0-.3.1-.5.1-.8s.1-.5.1-.8l.3-1a.9.9,0,0,1,.1-.5v-.3l-.5.5-.6.8-.6,1a6.8,6.8,0,0,0-.2,1.5,3.8,3.8,0,0,0,0,1.5c0,.1-.1.2-.3.2h-.4l-.5-.3-.3-.3v-1.1a3.8,3.8,0,0,1,.1-1,3.8,3.8,0,0,1,.1-1,2.9,2.9,0,0,1,.2-.9,5,5,0,0,1,.2-1.2c0-.3.1-.7.1-1s.2-.1.4,0l.4.2.5.3.3.5.8-.7a1.8,1.8,0,0,1,1-.4l.3.2.5.3.3.5c0,.2.1.3.1.4s-.2.8-.3,1.2-.1.7-.2.9-.1.4-.2.6a1.3,1.3,0,0,1-.1.6v1.2a.1.1,0,0,1,.1-.1h0a1.7,1.7,0,0,0,.6-.6,6.2,6.2,0,0,0,.8-1.2c0-.1.1-.2.1-.4l.2-.3v-.4h.4l.3.2a.3.3,0,0,1,.1.2h0l-.5,1.1Z" transform="translate(-590.5 -483.5)"/></svg>