<svg id="Layer_1" data-name="Layer 1" xmlns="http://www.w3.org/2000/svg" viewBox="0 0 46.7 52.29"><defs><style>.cls-1{fill:#fff;}.cls-2{fill:#5b5b5b;}.cls-10,.cls-100,.cls-101,.cls-102,.cls-103,.cls-104,.cls-105,.cls-106,.cls-107,.cls-108,.cls-109,.cls-11,.cls-110,.cls-111,.cls-112,.cls-113,.cls-114,.cls-115,.cls-116,.cls-117,.cls-118,.cls-119,.cls-12,.cls-120,.cls-121,.cls-122,.cls-123,.cls-124,.cls-125,.cls-126,.cls-13,.cls-14,.cls-15,.cls-16,.cls-17,.cls-18,.cls-19,.cls-2,.cls-20,.cls-21,.cls-22,.cls-23,.cls-24,.cls-25,.cls-26,.cls-27,.cls-28,.cls-29,.cls-3,.cls-30,.cls-31,.cls-32,.cls-33,.cls-34,.cls-35,.cls-36,.cls-37,.cls-38,.cls-39,.cls-4,.cls-40,.cls-41,.cls-42,.cls-43,.cls-44,.cls-45,.cls-46,.cls-47,.cls-48,.cls-49,.cls-5,.cls-50,.cls-51,.cls-52,.cls-53,.cls-54,.cls-55,.cls-56,.cls-57,.cls-58,.cls-59,.cls-6,.cls-60,.cls-61,.cls-62,.cls-63,.cls-64,.cls-65,.cls-66,.cls-67,.cls-68,.cls-69,.cls-7,.cls-70,.cls-71,.cls-72,.cls-73,.cls-74,.cls-75,.cls-76,.cls-77,.cls-78,.cls-79,.cls-8,.cls-80,.cls-81,.cls-82,.cls-83,.cls-84,.cls-85,.cls-86,.cls-87,.cls-88,.cls-89,.cls-9,.cls-90,.cls-91,.cls-92,.cls-93,.cls-94,.cls-95,.cls-96,.cls-97,.cls-98,.cls-99{fill-rule:evenodd;}.cls-3{fill:#9b9c9c;}.cls-4{fill:#b78878;}.cls-5{fill:#d6d5d6;}.cls-6{fill:#e8e7e7;}.cls-7{fill:#a67c73;}.cls-8{fill:#686866;}.cls-9{fill:#818181;}.cls-10{fill:#c8927d;}.cls-11{fill:#b1b1b0;}.cls-12{fill:#685449;}.cls-13{fill:#563c33;}.cls-14{fill:#989797;}.cls-15{fill:#d9d9d9;}.cls-16{fill:#a7a8a8;}.cls-17{fill:#6c6c6c;}.cls-18{fill:#796459;}.cls-19{fill:#b57b68;}.cls-20{fill:#bbbbbc;}.cls-21{fill:#f9f9f9;}.cls-22{fill:#adadad;}.cls-23{fill:#7c7b7c;}.cls-24{fill:#987667;}.cls-25{fill:#966c63;}.cls-26{fill:#dedee0;}.cls-27{fill:#877a76;}.cls-28{fill:#bdbebd;}.cls-29{fill:#787676;}.cls-30{fill:#e4e2e2;}.cls-31{fill:#a98676;}.cls-32{fill:#ecebec;}.cls-33{fill:#888887;}.cls-34{fill:#e7aa97;}.cls-35{fill:#a6a6a6;}.cls-36{fill:#cdcdcd;}.cls-37{fill:#d9a28d;}.cls-38{fill:#876b64;}.cls-39{fill:#aa826c;}.cls-40{fill:#4b4b4b;}.cls-41{fill:#e9e9e9;}.cls-42{fill:#a3a3a4;}.cls-43{fill:#d1d0d0;}.cls-44{fill:#f4f4f4;}.cls-45{fill:#ddd;}.cls-46{fill:#c7c8c8;}.cls-47{fill:#d8d8d7;}.cls-48{fill:#d8a696;}.cls-49{fill:#929292;}.cls-50{fill:#abacac;}.cls-51{fill:#d3d3d3;}.cls-52{fill:#72716e;}.cls-53{fill:#594339;}.cls-54{fill:#b4b4b4;}.cls-55{fill:#747474;}.cls-56{fill:#aaa9a9;}.cls-57{fill:#987b74;}.cls-58{fill:#a2a2a2;}.cls-59{fill:#a77967;}.cls-60{fill:#b99587;}.cls-61{fill:#8e8e8e;}.cls-62{fill:#c5c5c5;}.cls-63{fill:#494646;}.cls-64{fill:#d69a88;}.cls-65{fill:#d2d2d2;}.cls-66{fill:#b8b8b7;}.cls-67{fill:#886758;}.cls-68{fill:#636363;}.cls-69{fill:#9e9e9e;}.cls-70{fill:#cccccb;}.cls-71{fill:#5f5f61;}.cls-72{fill:#7e7e7e;}.cls-73{fill:#c0c2c0;}.cls-74{fill:#c89787;}.cls-75{fill:#959595;}.cls-76{fill:#c3c4c3;}.cls-77{fill:#584a45;}.cls-78{fill:#775848;}.cls-79{fill:#858283;}.cls-80{fill:#e1e1e1;}.cls-81{fill:#4a332a;}.cls-82{fill:#766866;}.cls-83{fill:#674c44;}.cls-84{fill:#eee;}.cls-85{fill:#c58b79;}.cls-86{fill:#949393;}.cls-87{fill:#b78c84;}.cls-88{fill:#f6f6f6;}.cls-89{fill:#855a49;}.cls-90{fill:#0c0d0c;}.cls-91{fill:#7a7a7a;}.cls-92{fill:#b59b94;}.cls-93{fill:#b9b9b9;}.cls-94{fill:#9a725c;}.cls-95{fill:#545454;}.cls-96{fill:#434343;}.cls-97{fill:#919190;}.cls-98{fill:#685955;}.cls-99{fill:#595956;}.cls-100{fill:#9f9fa0;}.cls-101{fill:#40403d;}.cls-102{fill:#6e6154;}.cls-103{fill:#775c54;}.cls-104{fill:#f1f1f1;}.cls-105{fill:#c9958b;}.cls-106{fill:#bfbfc0;}.cls-107{fill:#473b36;}.cls-108{fill:#bcc2c4;}.cls-109{fill:#895c51;}.cls-110{fill:#373638;}.cls-111{fill:#2e3031;}.cls-112{fill:#8b8b8b;}.cls-113{fill:#231b15;}.cls-114{fill:#e4dbd8;}.cls-115{fill:#291c17;}.cls-116{fill:#c6bbb8;}.cls-117{fill:#3b3b3c;}.cls-118{fill:#343434;}.cls-119{fill:#252829;}.cls-120{fill:#b5aba8;}.cls-121{fill:#1c1c1c;}.cls-122{fill:#674839;}.cls-123{fill:#c9a796;}.cls-124{fill:#33231c;}.cls-125{fill:#e6e2dd;}.cls-126{fill:#c9c9c9;}</style></defs><path class="cls-1" d="M57.79,29.81" transform="translate(-70.87 -48.72)"/><path d="M104,81.4" transform="translate(-70.87 -48.72)"/><path d="M83.38,99.89a5.51,5.51,0,0,1-1,.82,1.83,1.83,0,0,1-.93.31,31.12,31.12,0,0,1-3.22-.17,1.06,1.06,0,0,1-.34-.39.76.76,0,0,1-.08-.49.7.7,0,0,1,.31-.45l.17-.27h0A12.43,12.43,0,0,0,79.09,98a8.85,8.85,0,0,0,.7-1.58,13.59,13.59,0,0,0,.47-2c.14-.82.26-1.73.38-2.71s.23-2,.33-3.08.19-2.11.28-3.12.18-2.1.26-3,.18-1.7.27-2.29.18-1,.32-1.55.32-1.23.53-1.91.43-1.38.69-2.09a20,20,0,0,1,.84-2l-.11.13c-.42.44-.85.86-1.29,1.28a9.23,9.23,0,0,1-1.41,1.1,8,8,0,0,1-1.64.77,6.14,6.14,0,0,1-2,.3A11.45,11.45,0,0,1,76,76a8.18,8.18,0,0,1-2.15-.69l-.22-.14a.74.74,0,0,1-.21-.17.47.47,0,0,1-.09-.22.26.26,0,0,1,.12-.23l2.06-1.74c.23-.22.41-.32.55-.31a.8.8,0,0,1,.32.07,8,8,0,0,0,1.28.35,6.93,6.93,0,0,0,1.19.11,6,6,0,0,0,1.77-.25,8.08,8.08,0,0,0,1.58-.65,12.34,12.34,0,0,0,1.46-.92l1.37-1c.42-.33.84-.64,1.26-1a10.13,10.13,0,0,1,1.23-.79l.24.38a14.58,14.58,0,0,0-1.35,3.48,35.61,35.61,0,0,0-.8,4.11c-.19,1.44-.34,2.91-.44,4.42s-.17,3-.25,4.41c0,.4,0,.73,0,1s0,.53,0,.77,0,.49,0,.75,0,.55-.08.89l.52-1.17c.45-1.08.93-2.21,1.44-3.37s1-2.33,1.62-3.48,1.16-2.26,1.78-3.35a33.08,33.08,0,0,1,2-3,21.52,21.52,0,0,1,2.09-2.52,10.73,10.73,0,0,1,2.24-1.8h0a.85.85,0,0,1,.66-.17.67.67,0,0,1,.44.31,1,1,0,0,1,.17.57.91.91,0,0,1-.22.6,27.78,27.78,0,0,0-2,5.55c-.51,2-.93,3.9-1.28,5.82-.13.63-.23,1.19-.31,1.68s-.15,1-.23,1.41-.17.93-.28,1.41-.27,1.06-.47,1.71l1-1.79c.82-1.28,1.65-2.62,2.49-4s1.71-2.74,2.58-4.07,1.77-2.59,2.68-3.79A26.52,26.52,0,0,1,104.3,72a13.6,13.6,0,0,1,3-2.14,6.71,6.71,0,0,1,3.11-.79,5.85,5.85,0,0,1,3.16.78A3.74,3.74,0,0,1,115.19,72a2.21,2.21,0,0,1-.14,1.82,1.28,1.28,0,0,1-1.26.65,1,1,0,0,1-.67-.32,2.21,2.21,0,0,1-.46-.68,1.9,1.9,0,0,1-.16-.77.89.89,0,0,1,.22-.64.71.71,0,0,0,.13-.31c0-.12-.07-.25-.24-.4a2.83,2.83,0,0,0-.78-.49,3.87,3.87,0,0,0-1.17-.27,5.55,5.55,0,0,0-2.75.79,13.41,13.41,0,0,0-2.72,2.12,25.17,25.17,0,0,0-2.64,3.09q-1.3,1.77-2.54,3.73t-2.4,4q-1.17,2-2.22,3.9l-3.71,12.15c-.76.79-6.43.49-6.43.49a2.1,2.1,0,0,1-.33-.4,1,1,0,0,1-.08-.5,1.24,1.24,0,0,1,.26-.48,13.94,13.94,0,0,0,1-1.66A19.8,19.8,0,0,0,87,95.53c.29-.85.56-1.78.82-2.79s.53-2.08.81-3.2.63-2.48,1-3.79.74-2.63,1.15-4,.86-2.65,1.34-4a34.59,34.59,0,0,1,1.62-3.76,21.07,21.07,0,0,0-2,3c-.61,1.08-1.19,2.22-1.74,3.4S89,82.84,88.46,84.1s-1,2.49-1.48,3.7l-1.13,2.78" transform="translate(-70.87 -48.72)"/><path class="cls-2" d="M96.67,74.33c.45-.76-.37-.56.85-.39-.87,1.49-.23.28-.85.39Zm5,8.83V83c0-1.29.2-1.29.34-1.37l-.33,1.51Zm.39-1.81a5.53,5.53,0,0,0-.22-.84l.46-.24L102,81.35Zm-7.3-1.95.28.06.24-1.13c.07,0,.13-.07.14,0l.45.31.22-2.92.37-.27.09-.67c1.1.29,1.06.19,1.71,1.07-.87.2-.08,0-.64.6l1.63,1-.47-1,1.66,0c.55.1,1.16.25,1.71.39l-.06.91.48.17-.58.17.71.32.11-.49a3.12,3.12,0,0,1-.21-1.31c-2.25-.84-2.61.06-4.55-1.79l2,0c-1.33-1.35,1.55,1.1-.77-.56L98.92,74c.69-.46.49-.45,1.33-.52l1,.28c.65-.89-.25,1,0-.31.07-.42-.12,0,.27-.45l-.11-.31c-.43.5-.1.25-.77.28l-1,.5c-.14.62,0,.49-.57.36-.59-.65-.13-.37-.78-.31a7.88,7.88,0,0,1-1.33,0V73l0-2.32c.13,0,.21-.08.21,0s.23.2.2-.31l.18-.36-.69-.08-.63,1.64.44,1-1-.35-.4.52L93.94,73.9v.27c.84-.45.13-.27.82-.23.17.21.3.15.3.58,0,.62.16.21-.29.57l-1,1-.37.38c0,.34-.44.43.34.17l.06.12c.8-1,.35-1,1.72-1.36.18.93.21.63-.29,1.38a1.24,1.24,0,0,1,0,.26,4.19,4.19,0,0,0,0,.48s0,.49-.06.59-.2.62-.37,1.24Zm.16-6.27c.47-.13,0-.53.9.22l-.58.09a1.83,1.83,0,0,1-.16-.13S95,73.19,94.9,73.13Z" transform="translate(-70.87 -48.72)"/><path class="cls-3" d="M91.08,70.47c.53.57.56.16.14.82-.36-.52-.62.55-.14-.82Zm-1.75,7.89.36.08c.46-2,.84-3.64,1.12-4.57,1.53.09.77-.15,1.48.92l-.64.9,1.19-.42c.56-.19,1.72-.66,1.94-.18.45-.36.28,0,.29-.57,0-.43-.13-.37-.3-.58-.32.62-.4.67-1.11.59.49.15,0,.07.29-.36V73.9L93,74a25.08,25.08,0,0,1,1.14-3.33,20.59,20.59,0,0,1,1.74-2.54c-.63-.93.16-.22-.36-1.23-.41-.81-.37.47-.41-1L94,65.57l.22.15c-.71.26-.51.32-1.17.6s-.28-.17-.8.46L91,67.49c.57-.85,2.33-1,3.56-.68l-.44.51s-.13.21-.14.17-.09.11-.14.17c1.19-.33.35-.47,1.67-.58L95,68.49c-.34.82-.52,1.57-1.25,1.76l0,0-1.15,3.71a5.1,5.1,0,0,1-.87-3.29,6,6,0,0,1,1.87-2.9c-.64,0-.51-.15-1.2.5a4.79,4.79,0,0,0-.76,1l-2.47-.57c-.44.39-.27.1-.39.76l.4-.35-.11.55.65-.49,1.66.45a9,9,0,0,0-.89.35,4.15,4.15,0,0,1-1.49,0l.13.49c-1.09-.07-1.1,0-1.82.71l-.06.28,1.41-.46.38.19h1.77L91,72.33l.26.17c.11.8-.06.65.25,1l-.77-.19-.54-.15c.36.88,0,1.44-.52,2.32a4.25,4.25,0,0,1-1.31,1.39l.87.23.46-.36-.36,1.66Zm1.75-7.89c.55-.81.15-.16,0-.37C90.7,70.54,90.77,70.22,91.08,70.47Z" transform="translate(-70.87 -48.72)"/><path class="cls-4" d="M79.55,82.67c.47-.89.06-.48.87-.6-.45,1,.13.47-.87.6Zm.64,1.3.16-.72.71-.24,1.09-2.58h-.49l.2-1.57c.15-.55,0-.12.23-.38.34.74.15.75-.11,1.61.55-1-.22-1.15.82-1.3l0-.31-1.9-.41a2.62,2.62,0,0,1-.74,3.28L80.93,78l-.45-.1-.33-.32.46-.55c.23-1.47-.12-.8-.22-2.18l-.94-.31c-.08.63-.13,1.43-.22,2-.19,1.34-.37.75-.72,1.73l.11.76c.55-.88.23-1.08,1.17-.69l-.42,2.24-1.05-.74c.25,1.14.1.17.44.9.07.15.1.09.12.25,0,.44.23,0-.2.38l.87,1.24a2,2,0,0,1,.37,1.24Z" transform="translate(-70.87 -48.72)"/><path class="cls-5" d="M97.56,58.06,97,58.2c.15-.24.43-1.1.53-.14Zm3-2.29a.7.7,0,0,1-.13.18l-1.71.3-1.45.7.21-1c-.63-.34-.18.21-.54-.37-.69-1.08-.2-.3-.44-.33-.06.18-.85-.2.42,1.29-.27.13,0,.05-.4.14-.91.17.57-.19-.24,0v.73l-.53-.18-.82-.38c0,.06.06.1,0,.18l0,.49c-.65-.19-.22.09-.65-.41l-.6-.17L94,58.06c2.59-.08,1.3.47,2.61-.2A3,3,0,0,1,96.86,60l-.76-.14.85.52c.36-.74.29-.52,1.2-1l.14-.92c-.31-.33-.14-.08-.16-.54l.68-.06c.25-.3,0-.21.54-.44,0,0,.11,0,.11,0,.06.39.73-.38,1.65-.47-.72,1.43-.68-.05-1,1.16l.46,1c.09-.79.28-.64,1.22-.74l.08-.6.69.51.06-1.16.48,0c0-.78.1-.23-.24-1s-.29-.13-.21-.79c-1.32.65.39-.45-.91,1.92-.51-.46-.11-.94-1.24-.78Z" transform="translate(-70.87 -48.72)"/><path class="cls-6" d="M97.37,68a3.38,3.38,0,0,1,.19,2l-.18.36c.75.48.65.31,1,1.15h.18c2.89,1.51,2.43.31,4.84,1.06l.12-.65-.46-.16a2.5,2.5,0,0,1-.71-.82c-.21-.31-.43-.55-.72-.91l-.84-.45.12,1.58c-.29.16.52.5-.2-.25-.06-.06-.13-.16-.19-.21l-.21-.25.22,1.41a3.33,3.33,0,0,1-.59-2.12l-.48.57.53-1s.12.08.17.09l.14,0,.61,0a14.88,14.88,0,0,0-2.41-1.36l-.69-.21-.41-.07Z" transform="translate(-70.87 -48.72)"/><path class="cls-7" d="M90.64,57.87l.56.29,1.49,1.15-.37,2.86c-.61-.43-2-1.7-2.06-2.44-.73-.41-.78-.29-.87-1,0,0,0-.48,0-.55,0-.62-.07-.74-.09-1.46l1.36,1.19Zm-4-2.56-.08,1.19a5.36,5.36,0,0,1,.24.52,3.69,3.69,0,0,1,.11.45c.61.45.44.32.32,1.2l.11.09.16-.14-.09-.92c1.59.42,1.33,1.16,2.28,2.58.65.53.18.33.9.89l1.31,1.68c.41.43,0,.14.58.49l-.12-.59c.45-.81-.14,0,.7-.33-.66-.86-.18-1.87,0-2.91.42-1,0-.37.58-.5l.46.13-3.91-2.33-.2-.63-1.13,0-.56.28c.78.25,1,.11,1.18,1,0,0,0,.73,0,.75-.16.53-.11.21-.35.44l-1.44-3c.47.38.48.29,1,.25-.58-.23-.54,0-.45-.46l-.22,0A4,4,0,0,0,86.64,55.31Z" transform="translate(-70.87 -48.72)"/><path class="cls-8" d="M82.1,77.58c.49.2.15,0,.24.17l.56.24c1,.28,1.53.45,2.19-.18a3.8,3.8,0,0,0-2.29-.07,12.81,12.81,0,0,0,4.78-2.64c.29-.24.55-.43.83-.62.79-.56.42-.54,1.09-.22,0,.37.1.14-.15.47-.9,1.22-.69-.33-1,1.37-1,1.13-.46-.17-1.37.92,1-.26.2-.08.4.11-.37,1.22-.61.8.09,1.31,1-.61,1.1-.47,1.79-1.38l-.87-.23a4.25,4.25,0,0,0,1.31-1.39c.53-.88.88-1.44.52-2.32L90,73c-1,.3-.69.52-1.8,1.37C85,76.79,82.79,76.87,82.1,77.58Z" transform="translate(-70.87 -48.72)"/><path class="cls-9" d="M96.41,63.39c.37-.16.13.23.88-.58.41.62.66-.57.19.94l.53.06c-.44.63-.33.31-.12,1.12-.51.17.83.94-1.18-.25.43,1.23.31,1.46-.62,1.8.41-1.45-.28-.06-.17-1.66l.33-1.48c-.34-.47-.51.48-.22-.6,1,.24.29-.09.38.65Zm.39-1.26-.1.55c-1-.4-1.08-.24-1.44.67A4.44,4.44,0,0,0,95,65l-.84.76L94,65.57l1.17.33c-.3-1.14-.08-.25.07-.47.17.9,0,.62.9,1,.73.7.82.31.83.2.22.47.22.53.46,1l.41.07-.14-.86c.57.23,1.07.81,1.39-.46a.83.83,0,0,0,0-.2c-1.85-.41.15.74-1.79-.07.61,0,.93.67,1-1.5s-.7-.22-.48-2l-.48.13-.29-1.46c-.46-.84-.14-.44-.38-.11Z" transform="translate(-70.87 -48.72)"/><path class="cls-10" d="M108.93,66.79,110,68c.43-.57-.16-.43.73-.39.67.83,1.15.48,2.31.75l.35.22a1.49,1.49,0,0,0,.56-1.14c-.75-.21-1.31-.58-2.07-.78-1-.27-1.12,0-2.1-.32l3.16.1c-.92-.66-.17-.56-1.46-1l.47-.17a2,2,0,0,0-1.85.32c-.76.5-.74.54-.61,1.2Z" transform="translate(-70.87 -48.72)"/><path class="cls-9" d="M81.22,65.68c.55.15.41.22.46.26l.43.31c1.07.82.75-.29.47,1.07-.14-.37-.32-.27-.53-.49l-.18,0,.2.54c.74.12.65.28,1.14-.11l-.24.93-1.42.38,0,.09c.77.25.28,0,.36.43l.29.1a1.84,1.84,0,0,1,1.56-.71l-.2,1.21.09-.22c.79.19.66-.55.57.36l.36-2.88-.65.83c-.21-.53-.73.44,0-1.27l.73-.11.6-.35.11-.41-1.78,0L83.33,65l-1.56-.35c.63.58.26.35,1.17.58-1,.1-.79.39-1.4-.1C80.74,65.24,81.4,64.6,81.22,65.68Z" transform="translate(-70.87 -48.72)"/><path class="cls-4" d="M78,68.23l-.17.1,1.2.77c1.17.46.19.13.43-.27l0-.77.15-.09A10.87,10.87,0,0,1,79,64.58c.9,1,.12-.17.89,2.21.75-.05.12-.3.47,0l-.16,1.06v.66l.18-.25.34-1.94L81,65.11c-1.37-.13.06-.13-2.44-1.45,0,.75,0,1.85-.07,2.46C78.33,67,77.76,67.53,78,68.23Z" transform="translate(-70.87 -48.72)"/><path class="cls-11" d="M98.5,52.26c-.18.55.15.22-.26.44-.33-.29-.55.34-.11-.56l-1.41.09-.16,0c1.49.95,1.11.89,2.29,1.06.82.11.5,1.43.39,2-1.2-.94-.62-1.53-2.61-1.4l-.07.32c1,.17.48-.34.82.56-.5.25.82.7-.83,0a.44.44,0,0,1,.07.21.53.53,0,0,0,.06.2s.17.35.21.42c.36.58-.09,0,.54.37.46-.9.28-.53.25-1.58.72.63,1,.86,1,1.84l1.71-.3a.7.7,0,0,0,.13-.18l1.2-1c-.89,0-1.1.36-1.74,1a2.19,2.19,0,0,1,.39-2.27l-1.07-.21s.61-.45.64-.49c.32-.54.11,0,0-.73l-.68.21L99,51.8Z" transform="translate(-70.87 -48.72)"/><path class="cls-12" d="M78,63.74l0,2c-.74.84-.44.32-.54,1.36,0,.57,0,.12-.15.74,0,.54,0,.75.39,1.09.49.56.47-.52.39.76-.67.11-.43.36-1.06-.17l.45.68.23.28.28.14-.26-.59c.4-.56-.07,0,.75-.25h-.15c-.3-.89-.37-.86-.3-1.57-.26-.7.31-1.19.47-2.11.11-.61,0-1.71.07-2.46C81.06,65,79.63,65,81,65.11l-.28,1.19.5-.62c.18-1.08-.48-.44.32-.59.61.49.39.2,1.4.1-.91-.23-.54,0-1.17-.58l-.88-.13-.51-.25.24-.62-.1-.11-.41-.09c-1.39.25-.83-.64-1.91-1C77.89,63.32,78.39,62.34,78,63.74Z" transform="translate(-70.87 -48.72)"/><path class="cls-5" d="M99.42,67.66c-.86.1-.4-.08-.94.26a14.88,14.88,0,0,1,2.41,1.36l-.61,0-.14,0s-.13-.08-.17-.09l-.53,1,.48-.57a3.33,3.33,0,0,0,.59,2.12l-.22-1.41.21.25c.06,0,.13.15.19.21.72.75-.09.41.2.25l-.12-1.58.84.45c.49.42.26-.23.5.53.76-.26.53.91.64-.66-.35-.75,0-.27-.65-1l.15-.27c-.47-.31-.33-.16-.49-.59l-.15,0L99.8,66.84C99.35,67.22,99.47,66,99.42,67.66Z" transform="translate(-70.87 -48.72)"/><path class="cls-13" d="M107.62,62.67l-.44.47c-.23.22-.54.54-.75.78a8.52,8.52,0,0,0-1.28,1.19c-.46.58-.47.76-1.15,1l-1-.56c-.25.71-.24.43-.09.88l.4,0,.36.76-.54.48-.93.92-.15.27c.83.2.66.2,1.29-.27,1-.73-.08-.6,1.15-.55l.16-.65-.82-.1-.09-.07c.53-.64-.38-.56,1.36-.26,0-.57,0-.66.4-.9,1-.64.87-1.25,1.64-1.89a10,10,0,0,0,.93-1.55Z" transform="translate(-70.87 -48.72)"/><path class="cls-14" d="M88.58,72.25l-1.3,2.34a8.63,8.63,0,0,0-3,1.25,5.36,5.36,0,0,1-3,1.09c-.66,1.19-.28.32,0,.67l.85,0c.69-.71,2.94-.79,6.05-3.19,1.11-.85.83-1.07,1.8-1.37l-.22-.28-.17-.54-.4-.08C88.61,72.1,88.79,72,88.58,72.25Z" transform="translate(-70.87 -48.72)"/><path class="cls-15" d="M97.07,61.29l.29,1.46c.43-.75-.13,0,.67-.73l.67-.81s0,0,0,.09l.54,1-.17.4L99,63l.36.55.55-.47v-.17c.7-1.55.43-1.43.31-3l-.11-.33c-.73.49-.24.54-1,1.53-.91-1.86,1.2-1.13.12-2.07l-.11.15c-.33.57.07.12-.46.53l-.57.35C97.31,60.48,97.26,60.3,97.07,61.29Z" transform="translate(-70.87 -48.72)"/><path class="cls-16" d="M86,59.31c.91.09.64-.11,1.18.66-.38-.1-.32,0-.74-.23s-.29-.24-.44-.43Zm-2.8-2.54,1.12.29c1-1.36.83-.17,1,0-1.13-.1-.55-.17-1.27.21.41.31.33,0,.41.37.69.47,1.64,1,1.94,1.69l-1.72-.37a4.29,4.29,0,0,0,3.12,1.52c-.33-.88-.07-.82-.52-1.52-.64.14-1-.45-1.31-.88l-.23-.26c-.59-.72-.23.07-.51-.86a10.44,10.44,0,0,0,1.08.88c.5.36.43.42,1,.86.12-.88.29-.75-.32-1.2l-1-.5a8.91,8.91,0,0,0-3.15-1.39Z" transform="translate(-70.87 -48.72)"/><path class="cls-17" d="M97.79,67.71l.69.21c.54-.34.08-.16.94-.26-.34-.52-.38.53-.26-.72l1.1-.27-.81-.37c.86-.51.41-.94.9-1.89l-.51-.24-.28-.07c-.67-.38-.75-.24-.61-1.15l.14-.26-1.25-.07c-.22,1.78.58,0,.48,2s-.44,1.53-1,1.5c1.94.81-.06-.34,1.79.07a.83.83,0,0,1,0,.2c-.32,1.27-.82.69-1.39.46Z" transform="translate(-70.87 -48.72)"/><path class="cls-18" d="M79.48,74.29l-.26.36-.45,1.25c-.23.85-.57,2-.74,2.89-.25,1.33-.57,2.1.65,2.64.43-.39.24.06.2-.38,0-.16,0-.1-.12-.25-.34-.73-.19.24-.44-.9l.3-.81-.11-.76c.35-1,.53-.39.72-1.73.09-.61.14-1.41.22-2l.94.31a3.61,3.61,0,0,0,1.22.94l.13-.36c.93-1.19,0-.87,1.07-1.49-.32-.76-.5-.12.25-.56s.1.46.71-.54c-1.44.64-1.85.41-2.65,2C79.94,74.15,80.68,74.2,79.48,74.29Z" transform="translate(-70.87 -48.72)"/><path class="cls-5" d="M95.89,68.1a20.59,20.59,0,0,0-1.74,2.54A25.08,25.08,0,0,0,93,74l.93-.07,1.31-1.29c-.67-.45-.37,0-.52-.88,0,0,0-.9,0-.94L95,69.72a4.62,4.62,0,0,1,.46.71s.2.45.25.54c1-.89.5-1.17.07-2.55,1,1,.18.49,1,1.24a5.81,5.81,0,0,0-.24-.93c-.21-.85-1,.38,0-.88C96.14,68,96.35,67.83,95.89,68.1Z" transform="translate(-70.87 -48.72)"/><path class="cls-19" d="M73,69.81c-.71.35-.11-.07-.75.56a3.27,3.27,0,0,1-.6.5l2,.43c2.14.11,3.22.91,5.24,1.22,0-1.06,0-.43-.27-.81-.48.05-.08.22-.58-.17s-.31-.27-.43-.57c-.77-.25-1.78-1-2.42-.91.75.85.45,0,1,1.09A7.09,7.09,0,0,1,73,69.81Z" transform="translate(-70.87 -48.72)"/><path class="cls-20" d="M89.23,54.62l.86-.34c-.07,1.42-.46.65,0,2.08-1.41-1.08-.26,0-.76-1.17a2.14,2.14,0,0,0-.78-.89l1.28-2.74c.22-.72.23-.55.79-.79L90,52.91c-.32,1.6-.63.42-.74,1.71Zm-1,.83c-.09.44-.13.23.45.46l.2.22,1.13,0,.2.63c.56-3.19.19-1.47.17-3.21a6,6,0,0,1,0-1.27c.32-1,.7-.49.38-1.92-1.33-.46-1.43,1-1.85,2s-1.45,1.45-.31,2.72C88.66,56.06,88.71,55.23,88.25,55.45Z" transform="translate(-70.87 -48.72)"/><path class="cls-21" d="M95.35,51l.38.25c.62.47.47.34.19,1.2l-.23.75.86.7.08,0c2-.13,1.41.46,2.61,1.4.11-.58.43-1.9-.39-2-1.18-.17-.8-.11-2.29-1.06,0-1-.36-.64,0-1.34l.78-1.29C96.1,49.6,96,50,95.35,51Z" transform="translate(-70.87 -48.72)"/><path class="cls-22" d="M102.58,76.61l1.3.16-.48,1.9c.59,0,.34.54.7-.79a3.68,3.68,0,0,0,0-1.51,6.86,6.86,0,0,1-3.79-1.23c.63-.5.2-.36,1.19-.26,0-.42.6-.18-.59-.56a5.37,5.37,0,0,0-1.23-.16c.43-.54,0-.54.53-.72-.84.07-.64.06-1.33.52l.33.28c2.32,1.66-.56-.79.77.56l-2,0C100,76.67,100.33,75.77,102.58,76.61Z" transform="translate(-70.87 -48.72)"/><path class="cls-23" d="M87.17,72.78l-.44-.06c-.09.39-.17.28.19.36.54.24.34.1.57.48l-.87.26L82.4,75.74a6.29,6.29,0,0,1-1.18,1.19,5.36,5.36,0,0,0,3-1.09,8.63,8.63,0,0,1,3-1.25l1.3-2.34-.47,0C87.86,72.72,87.71,73,87.17,72.78Z" transform="translate(-70.87 -48.72)"/><path class="cls-4" d="M112.93,64.73l.16.56c1.14-.07.73-.21,1.54.28.6-.78.27-.31.71-.59a4,4,0,0,0-.3-3.69l-.41-.06c-.72,1.8-1,1.57-.93,3.75Z" transform="translate(-70.87 -48.72)"/><path class="cls-24" d="M77.28,75.84l.69-.25-.54,1.13a9.76,9.76,0,0,1-1.65,1.34c-.4.57-.25.42-.84.59-.17,0-.33.06-.54.11a5,5,0,0,1-.61.12c-.69.22-1.65.61-1.78-.08-.47.16-.4-.47-.42.44,1,.42.34,0,.4.56,1.81-.09,2.29.37,3.86-1l1.45-1.21c.65-.5.64-1.08,1.47-1.71l-.42-1.13a.31.31,0,0,0-.06-.21Z" transform="translate(-70.87 -48.72)"/><path class="cls-25" d="M108.43,66.12c.14.52-.05.31.23.74l.27-.07h.57c-.13-.66-.15-.7.61-1.2a2,2,0,0,1,1.85-.32,2.08,2.08,0,0,1,2.23.75l-1.24.46-3.16-.1c1,.3,1.1,0,2.1.32.76.2,1.32.57,2.07.78l-.22-.67.83-.38.06-.85c-.81-.49-.4-.35-1.54-.28l-.16-.56a4.61,4.61,0,0,0-2.55,0C108.71,65.16,109.39,65.63,108.43,66.12Z" transform="translate(-70.87 -48.72)"/><path class="cls-26" d="M91,67.49a1.9,1.9,0,0,1-.94.73c-.46.24-.32,0-.82.42l2.47.57a4.79,4.79,0,0,1,.76-1c.69-.65.56-.48,1.2-.5l.17-.08c.05-.06.13-.21.14-.17s.11-.13.14-.17l.44-.51C93.31,66.45,91.55,66.64,91,67.49Z" transform="translate(-70.87 -48.72)"/><path class="cls-27" d="M106,61.94c-1.36,1.2-.16.61-.75,1.39-1.52-.24-.4,0-.69-.62l-.48.15-1.51.23.87,0,.85.28-.61.93c-.22,1.35-.18.38.18.87,1.44-.88,1.12-2.22,2.71-2.12l-.13.82c.21-.24.52-.56.75-.78-.44-.1-.31.07-.36-.3-.8,0-.36.21-.36-.52a.85.85,0,0,0,.84-.49c.87.72.08.3,1.31.78l.15-.74-.76,0-.07-.38L107,61C106.46,61.55,106.41,61.37,106,61.94Z" transform="translate(-70.87 -48.72)"/><path class="cls-28" d="M104.63,78.39l-.12,0c-.59-.38-.34-.51-.23-1.21.69.29.73.2.86.64.2.7-.15.44.39,1.21l-.9-.6Zm-.49-2a3.68,3.68,0,0,1,0,1.51c-.36,1.33-.11.8-.7.79-.48.71-.15.16,0,1.32h-.63l.14.44.34.15.12-.43.59.26c-.42-1.11.35-.53,0-1.74l1,.36c.27.8,0,.62.33,1.17l.11-.62.87.23.19-.65c-1.35-.64.36.2-1.1-2-.17-.25-.32-.54-.45-.78l.54-.45-.75-.22C104,76.26,104.29,75.87,104.14,76.37Z" transform="translate(-70.87 -48.72)"/><path class="cls-29" d="M115.49,65.58l.28.65-.64.07.16.47-.41.72a3.64,3.64,0,0,1,.5.27l.74.65c-.26,0-.75,0-.81,0l-.62.32-.5,1.4c1-.49.14-.69,1.44-.24V69c1.21.11.32.34,1-.14l.5-.66L116.4,68c.49-1.57.39-.61-.47-1.27.85-.35.71-.1,1.44-.52l-1.05-.31-.09-.15-.38-.73Z" transform="translate(-70.87 -48.72)"/><path class="cls-30" d="M100.12,66.38l1.4-.19,1.53-.62.62-1.22.21-.74c-1.9.53-2.82.45-3.4,1.62Z" transform="translate(-70.87 -48.72)"/><path class="cls-31" d="M87.74,60.45a12.94,12.94,0,0,1,.83,2.65l.52.93.76.8,2,.39c-.42-1.37.36-.11-1.81-1.26.07,0,.19-.16.21-.09l.45-.1c.92-.12.09.25.86-.09l-1.93-.55-.41-.58,1.74,0c-.45-.1-2.08-.27-2.14-.78-.08-1.13.2-.4-.57-1.31Z" transform="translate(-70.87 -48.72)"/><path class="cls-13" d="M79.68,68l-.15.09a4.75,4.75,0,0,1,.15,2.77l-.2.55s0,.08-.09.18l-1-.42.11-1.34c-.82.22-.35-.31-.75.25l.26.59.47.47c.29.46.13.17.12.6.28.38.29-.25.27.81l.2-.07c.53,0,.43-.11.32.4-.07-1-.26-.45.62-.6l1,.68c.94-.58.86-1.22,1.61-1.58l.32-.18c0-.53.17-.07-.14-.54l-.75.6c-.55.59-.08.53-.88.72s-.84,0-1.07-.5c.32-1.26-.26-2.13.5-2.44-.33-.23-.23-.3-.33-.52v-.66c-.25-.31-.25.3-.27-.31,0-.1-.13-.1-.17-.16Z" transform="translate(-70.87 -48.72)"/><path class="cls-32" d="M93.06,62.42l1.3,1.84c.17,0,1,.13.61-.82-.19-.42-.6-.34-1.14-.55,1,.21.84.31,1.54,0L95,61.5c-.67,0-1.46.13-1.79-.71L93,60l.54.2-.42-.65C92.88,60.55,92.4,61.56,93.06,62.42Z" transform="translate(-70.87 -48.72)"/><path class="cls-33" d="M96.07,75.69c.43.71.14,1.17.7,3a.7.7,0,0,0,.08-.14,1,1,0,0,1,.08-.14l.06-.14.24-.56c.92,1,.79,1.16.9,2.6l-1.64-.84c.07.72.06.62.67.85l2.39.39-.64-.81c.26-1.23-.17,0,.6-.36-1.59-1.15-1.22-1-2.1-2.69l-1-1.47Z" transform="translate(-70.87 -48.72)"/><path class="cls-34" d="M74.51,76.38c-.82,1-1.78.27-2.5,2.42.13.69,1.09.3,1.78.08l0-.47c1-.28,1.16-.53,1.47-1.57l.51-.24.18-.75Z" transform="translate(-70.87 -48.72)"/><path class="cls-35" d="M85,65.09c.67.14.57-.06.36.57,1-.43.48-.44,1.73-.78-.78,1.2.18-.18-.62.62-.55.53.13-.59-.08.24,0,.2.49.26-.93.8-.36-.4-.65.4-.23-.51l-.6.35-.1.55.78-.37c.11.35.64-.42-.17.7s-.31.94-1,2.55c.07.15-.08.26.17.51L85,69.9a3.24,3.24,0,0,1,.53-2.39,3.66,3.66,0,0,1,1.24-1.31c.6-.43,0-.31,1-.25l0-.42c.07-.87.06-.2-.3-.57a1.45,1.45,0,0,1-.37-.58c-.5,0-.1,0-.57.08s-.14.06-.46.21A7.42,7.42,0,0,1,85,65.09Z" transform="translate(-70.87 -48.72)"/><path class="cls-36" d="M102.85,73.23l-1-.25-.32,0c-.39.4-.2,0-.27.45-.22,1.31.68-.58,0,.31l-1-.28c-.48.18-.1.18-.53.72a5.37,5.37,0,0,1,1.23.16c1.19.38.6.14.59.56a3.65,3.65,0,0,1,2.79.46c-.39-1-.73-1-1.63-1.4l1-.19-.48-1C103.2,73.74,103.32,73.08,102.85,73.23Z" transform="translate(-70.87 -48.72)"/><path class="cls-37" d="M73.6,71.3l-1.23.25c-.85.09,0,0-.46.3l1.67.31c1-.18,1.49,0,2.28-.15l.29.61,1.33.19-.41.24c.1.53-.49.31.52.5l1.21-.41.24-.69-.2.07C76.82,72.21,75.74,71.41,73.6,71.3Z" transform="translate(-70.87 -48.72)"/><path class="cls-38" d="M108.49,71.18l.52-.29.13,1,.53.09-.11-.5c-.72-.28-.19,0-.24-.37,2.46-1.8,2-.7,3-2l.47.12.28-.9c-1.16-.27-1.64.08-2.31-.75-.89,0-.3-.18-.73.39l1.83.77C110.2,70.06,110,68.9,108.49,71.18Z" transform="translate(-70.87 -48.72)"/><path class="cls-39" d="M75,74.59l-.91,1.3.42.49,1.4-.53-.18.75c0,.15-.35.81-.36.82-.14.82-.37.17.22.43.62-.5.37-.22.79-.82l-.4-.65s1.42-1.57.24-2.77Z" transform="translate(-70.87 -48.72)"/><path class="cls-40" d="M85.25,62.33c-1.14-.31-2.82.43-3.14-.43l-1.18.26c.33.43.13-.26.09.28a2.79,2.79,0,0,1-.11.35,4.58,4.58,0,0,1-.39.71l.1.11,1.27-.31c1.31-.81,3.63-1,4.86-.08l.38.33c.5-.64-.53-.87.68-.42-.36,1.41-.08.17.06.86l.11-.5.07-.88Z" transform="translate(-70.87 -48.72)"/><path class="cls-36" d="M90.31,65.67l-.13.54-.82.24c.46,1,0,.6-.27,1.82l-.09.35.22,0c.5-.42.36-.18.82-.42a1.9,1.9,0,0,0,.94-.73l1.22-.71-1.76-.34,1.39-1.22-2-.39,0,.1C90.35,65.39,90.12,65.18,90.31,65.67Z" transform="translate(-70.87 -48.72)"/><path class="cls-41" d="M92.54,64.67l-.2.12-.51.43-1.39,1.22,1.76.34c.52-.63.09-.16.8-.46s.46-.34,1.17-.6L95,65Z" transform="translate(-70.87 -48.72)"/><path class="cls-41" d="M95.25,72.61l.4-.52.59-.61.63-1.64a2.53,2.53,0,0,0,.2-2l-.51,0c-1.08,1.26-.26,0,0,.88a5.81,5.81,0,0,1,.24.93c-.77-.75,0-.25-1-1.24.43,1.38.9,1.66-.07,2.55,0-.09-.25-.54-.25-.54a4.62,4.62,0,0,0-.46-.71l-.29,1.07s0,.94,0,.94C94.88,72.57,94.58,72.16,95.25,72.61Z" transform="translate(-70.87 -48.72)"/><path class="cls-42" d="M85.09,77.81l.14-.4.74-.08.52,0L87,77c.91-1.09.34.21,1.37-.92v-.7c-.3-.34.67-.23-.74-.3a12.81,12.81,0,0,1-4.78,2.64A3.8,3.8,0,0,1,85.09,77.81Z" transform="translate(-70.87 -48.72)"/><path class="cls-43" d="M80.89,64.48l.88.13,1.56.35,1.7.13a7.42,7.42,0,0,0,1.1-.42c.32-.15.07-.09.46-.21s.07,0,.57-.08c-.33-.41.36-.42-1.7-.36C84.32,64.05,81.56,63.84,80.89,64.48Z" transform="translate(-70.87 -48.72)"/><path class="cls-11" d="M108.37,75l-.68-.74c.11,0-.22-.81.61,0,.4.4.08.06.07.69Zm-1-1.26L107,74c-.19.67-.37.36,0,1.11l-.63-.12c.17.78.78.69,1.61,1.1-.1-.53.35-.08-.24-.65l.61.07,1-.36c-.39-.53,0-.1-.14-.84-.14-1-.18-.74-.75-1.19l-.34.61Z" transform="translate(-70.87 -48.72)"/><path class="cls-38" d="M108.76,61.87l-.15.74c-1.23-.48-.44-.06-1.31-.78a.85.85,0,0,1-.84.49c0,.73-.44.55.36.52.63-.45.57-.63.8-.17l.5-.06a10,10,0,0,1-.93,1.55c.53.45.58-.29,0,.87-.34.65-.32.3-.66,1.1l.42.07a21.85,21.85,0,0,0,2.58-4.32l-.23-.45Z" transform="translate(-70.87 -48.72)"/><path class="cls-44" d="M101.54,74.88c-1-.1-.56-.24-1.19.26a6.86,6.86,0,0,0,3.79,1.23c.15-.5-.12-.11.62-.68-.32-.53-.14-.23-.43-.35A3.65,3.65,0,0,0,101.54,74.88Z" transform="translate(-70.87 -48.72)"/><path class="cls-37" d="M73.16,69.77l-.19,0a7.09,7.09,0,0,0,3.18,1.34c-.56-1.11-.26-.24-1-1.09.64-.12,1.65.66,2.42.91l.14-.47-.23-.28c-.94-.4-1.19-1-2.24-.92A8.15,8.15,0,0,1,73.16,69.77Z" transform="translate(-70.87 -48.72)"/><path class="cls-45" d="M91.78,70.64a5.1,5.1,0,0,0,.87,3.29l1.15-3.71c-.89-.14-1-.17-1.66.57Z" transform="translate(-70.87 -48.72)"/><path class="cls-46" d="M92.8,52.68l1.71.44.7-.4-.39,1,.26,0c.46-.08-.17-.15.72,0l.75.2-.86-.7.23-.75-.7-.28-.84-.19c-.38-.38-.13.07-.2-.62v-.06c-.23.19-.19.36-.42.55L93,51.32l-.84,1.23Z" transform="translate(-70.87 -48.72)"/><path class="cls-47" d="M81.89,63.3c-1.08.79-.28.15-.11.46.92,0,4.62.06,5-.54C85.52,62.3,83.2,62.49,81.89,63.3Z" transform="translate(-70.87 -48.72)"/><path class="cls-48" d="M90.26,59.73c.1.74,1.45,2,2.06,2.44l.37-2.86L91.2,58.16l.11,1c.33-.43.17-.34.56-.33.22,1,.72,1.51-.11,2.28-.1-.65.14-.67-.18-1.68,0,.07-.14.42-.17.46-.3.51,0,.3-.54.58a4.3,4.3,0,0,0-.23-2.57c-.23.42,0,.18-.14.84C90.46,59,90.28,59.65,90.26,59.73Z" transform="translate(-70.87 -48.72)"/><path class="cls-49" d="M81,60.24c.42-.48.18-.15.84.18a4.33,4.33,0,0,0,1.39.53,4.64,4.64,0,0,0,.91.43c1.09.46,1,.22,1.16.95l2.8.28c-.14-.81,0-.25-.36-.94a4.23,4.23,0,0,0-1,.22c-1.72-.64.56,0-.55-.3A19.9,19.9,0,0,1,81.66,60c-.64-.4-.7-.11-.5-1.17C80.16,59.3,80.41,59.65,81,60.24Z" transform="translate(-70.87 -48.72)"/><path class="cls-50" d="M95.85,78.61l.64.9,1.64.84c-.11-1.44,0-1.58-.9-2.6l-.24.56-.06.14a1,1,0,0,0-.08.14.7.7,0,0,1-.08.14c-.56-1.87-.27-2.33-.7-3Z" transform="translate(-70.87 -48.72)"/><path class="cls-51" d="M102.65,55.48c1.18.74,1.15,1,2.43.77.18.79,0,.14.35.73a7,7,0,0,0,.39.77l.39.29.61-1.51c-.7-.35-1.31-.43-1.85-.69-.9-.44-.36-.72-1.54-1.09Z" transform="translate(-70.87 -48.72)"/><path class="cls-31" d="M85,69.9v.39l.39.19c.62-.13.1-.06.27.14l.15.67c.61-.82.19-.36.81-.69l.09-.12.31-.46-1.06.7c.34-1.37.65-2.35,2.17-2.22.38.38.14-.09.1.64a4.91,4.91,0,0,0,.73-.52l.09-.35c-.55-.12-.71,0-.29-.26L88,67.66l.31.53L87,68.1l.25-.53v-.22l-.28.23Z" transform="translate(-70.87 -48.72)"/><path class="cls-50" d="M108.79,58.71c.06-.06.2-.2.21-.14s.16-.13.19-.16a.73.73,0,0,0,.17-.15l-.58,2.42c1.19-.94,1.21-3,2.3-4.2-.6-.47-.94.4-.22-.82A4.39,4.39,0,0,0,108.79,58.71Z" transform="translate(-70.87 -48.72)"/><path class="cls-52" d="M94.61,77.82c-.65.94-1,.7-1.87,1.19a5.9,5.9,0,0,0-1.63,1.39l-.28.35-.41-.48-.17,1.26c1-.21,1.28-1.17,2.34-1.76,1.36-.77,1.25.15,2.52-1.61,0-.1.06-.56.06-.59a4.19,4.19,0,0,1,0-.48,1.24,1.24,0,0,0,0-.26Z" transform="translate(-70.87 -48.72)"/><path class="cls-29" d="M77.3,67.86c.19-.62.1-.17.15-.74.1-1-.2-.52.54-1.36l-.44.09,0-2c.24-.36-.16-.11.44-.15.43-1.4-.07-.42.24-1.38-.88-.46-.49-.44-1.49-1,0,1.6.27.81.43,3.29A17.4,17.4,0,0,0,77.3,67.86Z" transform="translate(-70.87 -48.72)"/><path class="cls-24" d="M73.08,69.27l.37,0-.29.52a8.15,8.15,0,0,0,2.07-.47c1-.1,1.3.52,2.24.92L77,69.54c.63.53.39.28,1.06.17.08-1.28.1-.2-.39-.76-.39.61,0,.44-1,.12-.45-.15-.92-.38-1.37-.48A1.94,1.94,0,0,0,73.08,69.27Z" transform="translate(-70.87 -48.72)"/><path class="cls-53" d="M83.21,72.52l-1.34.39c-.47.44-.5.41-1.18.25l-.92.3-.29.83c1.2-.09.46-.14,1.64.54.8-1.56,1.21-1.33,2.65-2l.6-.46-.31-.1Z" transform="translate(-70.87 -48.72)"/><path class="cls-11" d="M91.65,75.69c-1.15.43-1.52,2.4-1.31,3.68,1.44.32.35.18.89-.08-.58-1-.22-.05,0-1.09.14-.85-.33.31.12-.81.27-.69.8-.84,1.26-1.51l.28-.61Z" transform="translate(-70.87 -48.72)"/><path class="cls-54" d="M93.1,59.51l.42.65L95,61.5l.39,1.35c-.7.35-.49.25-1.54,0,.54.21,1,.13,1.14.55.43,1-.44.8-.61.82-.07.41.51.24-.6.31a6.91,6.91,0,0,1-1.08-.13l-.14.23L95,65a4.44,4.44,0,0,1,.25-1.61c.36-.91.41-1.07,1.44-.67l.1-.55c-.4.2.44,1.32-1.86-1.27-.27-.3-.52-.56-.79-.84-.48-.51-.34-.11-.47-1C93.14,59.14,93.52,58.51,93.1,59.51Z" transform="translate(-70.87 -48.72)"/><path class="cls-15" d="M96.8,62.13l-.11-1c-.47-.42-.59-.81-1.09-1.15-.75-.5-.72-.19-1.46-.89L93.68,59c.13.9,0,.5.47,1,.27.28.52.54.79.84C97.24,63.45,96.4,62.33,96.8,62.13Z" transform="translate(-70.87 -48.72)"/><path class="cls-55" d="M89.23,54.62c.11-1.29.42-.11.74-1.71l.63-2.14c-.56.24-.57.07-.79.79L88.53,54.3a2.14,2.14,0,0,1,.78.89c.5,1.19-.65.09.76,1.17-.44-1.43,0-.66,0-2.08Z" transform="translate(-70.87 -48.72)"/><path class="cls-56" d="M113.49,69.4l-.25.5.73-.17-.24,1c1.37-.11.8-.44,2.2-.16.31-1.25.43-.44,1.1-1.3l-.41-.46c-.67.48.22.25-1,.14v.94c-1.3-.45-.44-.25-1.44.24l.5-1.4-.35-.53C113.9,69.11,114.28,68.89,113.49,69.4Z" transform="translate(-70.87 -48.72)"/><path class="cls-20" d="M93.94,50.55c1,0,.75-.15,1.41.4.65-1,.75-1.35,2-1.38l-.78,1.29.34.11.49,0c.52-.8,1-1.28.34-2a1.9,1.9,0,0,0-2,.41C94.61,50.6,95.24,50,93.94,50.55Z" transform="translate(-70.87 -48.72)"/><path class="cls-5" d="M87.69,61.67a2.75,2.75,0,0,0-1.59-1l.6.63c-.92-.18-1.57-.67-2.64-1a5.24,5.24,0,0,0-2.4-.27,19.9,19.9,0,0,0,4.45,1.58c1.11.3-1.17-.34.55.3A4.23,4.23,0,0,1,87.69,61.67Z" transform="translate(-70.87 -48.72)"/><path class="cls-49" d="M79.2,61.61c.51-.12.35-.35,1,.2.87.69.58-.12.19,1.07L79.2,61.61Zm.91,1.8.41.09a4.58,4.58,0,0,0,.39-.71,2.79,2.79,0,0,0,.11-.35c0-.54.24.15-.09-.28l.09-.6a1.89,1.89,0,0,1-1.8-.75l.65-.3.09-.25c-.91.09-1,0-1.74.39.15.64,0,.21.28.72,0,.07.43.6.5.69A10.67,10.67,0,0,1,80.11,63.41Z" transform="translate(-70.87 -48.72)"/><path class="cls-22" d="M99.51,72.55l.7.14c.52.16.15-.18.44.24.67,0,.34.22.77-.28l.11.31.32,0c.46-.57-.2-.33.64-.33l.36.58c.47-.15.35.51.39-.49l.14-.25c-2.41-.75-1.95.45-4.84-1.06-.24,1-.73,1-.19,2,.67-.84.47-.37.45-1.48l1.06.51C99.25,72.17,99.82,72.39,99.51,72.55Z" transform="translate(-70.87 -48.72)"/><path class="cls-43" d="M91.11,80.4A5.9,5.9,0,0,1,92.74,79c.9-.49,1.22-.25,1.87-1.19-.81-.31-.3.28-.59-.43l.34-.51-.59-.07-.06-.12-2.47,3.08Z" transform="translate(-70.87 -48.72)"/><path class="cls-13" d="M77.59,73.55c-.08.39,0,.29-.4.2l.52.45.13.13c-.73.59-1.37,1-.83,1.79l.27-.28,1-1.28a.31.31,0,0,1,.06.21l.42,1.13.45-1.25-.49-1.47.07,0Z" transform="translate(-70.87 -48.72)"/><path class="cls-57" d="M70.87,71.21c.14.67,1.18,1.45,1.86,1.73.5.2,1,.23,1.56.44.76.26.6.53,1.16.08l0-.31-.9,0,0-.6a1.61,1.61,0,0,1-1.35.21l.45-.56-1.67-.31c.48-.27-.39-.21.46-.3l-1-.51c-.54,0-.28-.32-.49.13Z" transform="translate(-70.87 -48.72)"/><path class="cls-58" d="M103.85,60.72c-1.25.83-1.15-.22-2.33-.06l-.09.84.5-.27c1,0,.08-.1.33.48l2.27-.45c0,.25-.12.24.41.66l.62-.3,0-1.37Z" transform="translate(-70.87 -48.72)"/><path class="cls-59" d="M97.3,83.93c.9.28.35.14,1.13.58l.24-.49-.45-2.19-1.32-.45-.75-.26-.17.43c.43.29,1.19.69,1.85,1.06Z" transform="translate(-70.87 -48.72)"/><path class="cls-14" d="M81.89,63.3l-1.27.31-.24.62.51.25c.67-.64,3.43-.43,4.57-.46,2.06-.06,1.37,0,1.7.36.45-.09.43.7.32-.56l-.35-.27-.38-.33c-.35.6-4,.54-5,.54C81.61,63.45,80.81,64.09,81.89,63.3Z" transform="translate(-70.87 -48.72)"/><path class="cls-49" d="M91.23,79.29c-.54.26.55.4-.89.08-.13,1-.36,1.28-.09,2.16l.17-1.26.41.48.28-.35.13-.63,2.47-3.08c-.78.26-.3.17-.34-.17C92.36,76.9,91.62,78.29,91.23,79.29Z" transform="translate(-70.87 -48.72)"/><path class="cls-60" d="M115.34,65l-.09.49.24.11.36-.53.38.73.09.15.11-1.19A2.94,2.94,0,0,0,115,61.29,4,4,0,0,1,115.34,65Z" transform="translate(-70.87 -48.72)"/><path class="cls-61" d="M84.37,72.4l-.6.46c-.61,1,.1.07-.71.54s-.57-.2-.25.56a2.18,2.18,0,0,0,1.57-.08,2.05,2.05,0,0,0,.66-.22c.63-.34.44-.34.71-.66l-.5-.16.47-.6-.61.18c-.22-.23-.41.34-.09-.39Z" transform="translate(-70.87 -48.72)"/><path class="cls-51" d="M93.75,70.25c.73-.19.91-.94,1.25-1.76l-1,.36c-.1-.38-.5.21.48-.83-1.35.06-1.16.16-1,1.2-1,.07-.82.38-1.27,1.28Z" transform="translate(-70.87 -48.72)"/><path class="cls-62" d="M102.26,61.71l0,.94-.08.35.36.09,1.51-.23c0-1,.28,0-.5-.87l1.25.27.12-.34c-.53-.42-.39-.41-.41-.66Z" transform="translate(-70.87 -48.72)"/><path class="cls-63" d="M108.39,75.54c.87.23.27-.2.72.4-.34,1,0,.39-.62.67l-.36,1.85c.37-.46-.07-.66,1.38-1.85l1.72-.1c-.18-.82-1-1-1.81-1.33Z" transform="translate(-70.87 -48.72)"/><path class="cls-64" d="M95.61,83.43l.38-.27.94.7.37.07.53-1.32c-.66-.37-1.42-.77-1.85-1.06,0,1,0,.81-.8,1.46Z" transform="translate(-70.87 -48.72)"/><path class="cls-65" d="M81.5,61c.23.63,0,.37.61.93.32.86,2,.12,3.14.43-.16-.73-.07-.49-1.16-.95a4.64,4.64,0,0,1-.91-.43l-1,.46C81.57,61.16,82.15,61.86,81.5,61Z" transform="translate(-70.87 -48.72)"/><path class="cls-4" d="M102.1,68.85c.6.7.3.22.65,1l.23,1.29.67-.25c-.58-.66-.22.25-.49-.91.58-.47-.15-.26.78-.11l.19-.06.22-.36.19-1.39c-1.23,0-.17-.18-1.15.55C102.76,69.05,102.93,69.05,102.1,68.85Z" transform="translate(-70.87 -48.72)"/><path class="cls-41" d="M93.82,67.66l-.17.08a6,6,0,0,0-1.87,2.9l.36.15c.66-.74.77-.71,1.66-.57l0,0-1.51.25c.45-.9.32-1.21,1.27-1.28-.16-1-.35-1.14,1-1.2-1,1-.58.45-.48.83l1-.36.49-1.41C94.17,67.19,95,67.33,93.82,67.66Z" transform="translate(-70.87 -48.72)"/><path class="cls-66" d="M81.66,60a5.24,5.24,0,0,1,2.4.27c1.07.31,1.72.8,2.64,1l-.6-.63-5-1.84,0,.05C81,59.9,81,59.61,81.66,60Z" transform="translate(-70.87 -48.72)"/><path class="cls-5" d="M85,69.9,87,67.58c-.25-.15-.94,0-.14-.86,0,0,.11,0,.14-.11s.1,0,.15-.07l-.32-.34a3.66,3.66,0,0,0-1.24,1.31A3.24,3.24,0,0,0,85,69.9Z" transform="translate(-70.87 -48.72)"/><path class="cls-30" d="M92.56,75.88c-.46.67-1,.82-1.26,1.51-.45,1.12,0,0-.12.81-.17,1-.53.11,0,1.09.39-1,1.13-2.39,2.14-2.77l.37-.38c-.21-.26-.1-.33-.66-.42C93.06,75.71,92.63,75.86,92.56,75.88Z" transform="translate(-70.87 -48.72)"/><path class="cls-10" d="M72,77.21c-.79.48-.64,1.87-.72,2.71.82.51.06.09.46,0-.37-.26-.45.5-.15-.65,0-.91,0-.28.42-.44.72-2.15,1.68-1.4,2.5-2.42l-.42-.49c-.62.12,0-.11-.69.34a2.3,2.3,0,0,0-.53.44C72,77.63,72.29,78.12,72,77.21Z" transform="translate(-70.87 -48.72)"/><path class="cls-67" d="M80.53,69l1,.2c-.07.75-.73,2-1.47,2.24.23.48.33.68,1.07.5s.33-.13.88-.72c-.76-.59-.62-.71-.25-1.56l.16-.6c-.08-.42.41-.18-.36-.43l-1.33-.15C80.3,68.71,80.2,68.78,80.53,69Z" transform="translate(-70.87 -48.72)"/><path class="cls-11" d="M99.84,64.17l.51.24c-.49,1,0,1.38-.9,1.89l.81.37-.14-.29.36-1.15c.58-1.17,1.5-1.09,3.4-1.62l-.21.74.61-.93-.85-.28c-1.12.86-.58.14-1.79.55A17.27,17.27,0,0,1,99.84,64.17Z" transform="translate(-70.87 -48.72)"/><path class="cls-4" d="M103.85,65.22l.2.07,0,.84c.68-.26.69-.44,1.15-1a8.52,8.52,0,0,1,1.28-1.19l.13-.82C105,63,105.29,64.34,103.85,65.22Z" transform="translate(-70.87 -48.72)"/><path class="cls-7" d="M95.21,82.45l-.61,1.41c.47.48.47.3.85.73s.17.34.62.74l.34-.16.89-1.24-.37-.07a2.44,2.44,0,0,1-1,.57l-.34-1L95.18,83c.78-.65.78-.42.8-1.46Z" transform="translate(-70.87 -48.72)"/><path class="cls-68" d="M103.11,57.16l1.11-.1c.63-.29.53.31.78.76s-.28,0,.33.34c.8-.25,0,.09.49-.41a7,7,0,0,1-.39-.77c-.32-.59-.17.06-.35-.73-1.28.25-1.25,0-2.43-.77v-.07c-.08.66,0,.21.21.79S103.1,56.38,103.11,57.16Z" transform="translate(-70.87 -48.72)"/><path class="cls-64" d="M87.5,58.62l.64.2.09,1.6c1,.11.57.24,1.46-.14-1-1.42-.69-2.16-2.28-2.58Z" transform="translate(-70.87 -48.72)"/><path class="cls-69" d="M108.13,78.46l.09.53c.12-.06.2-.18.2-.15l.46-.81.67-.63.37.4c.74.27.46.34.65-.52l-.85-.33,1.89.18-.38-.62-1.72.1C108.06,77.8,108.5,78,108.13,78.46Z" transform="translate(-70.87 -48.72)"/><path class="cls-52" d="M80,60.26l-.09.25c.72.24.92.34,1.15,1.05l-.09.6,1.18-.26c-.62-.56-.38-.3-.61-.93L81,60.24c-.54-.59-.79-.94.21-1.4l0-.05L80.06,58c-.14,1.22.09,1,.27,2.05Z" transform="translate(-70.87 -48.72)"/><path class="cls-67" d="M75.45,73.46l.77.15c1.18,1.2-.24,2.77-.24,2.77l.4.65.34-.52.29-.39c-.54-.76.1-1.2.83-1.79l-.13-.13-.52-.45c.43.09.32.19.4-.2-1-.19-.42,0-.52-.5C76.15,73.63,76.65,73,75.45,73.46Z" transform="translate(-70.87 -48.72)"/><path class="cls-54" d="M97.41,76.89c.88,1.68.51,1.54,2.1,2.69l.36.61.18-.8a5,5,0,0,1-.92-.91l-1.19-1.4c.74.24.58.54,1.2.37h.09l-1.63-1-.2,0Z" transform="translate(-70.87 -48.72)"/><path class="cls-42" d="M96.1,59.89l-2-.75c.74.7.71.39,1.46.89.5.34.62.73,1.09,1.15.24-.33-.08-.73.38.11.19-1,.24-.81,1-1.26l.57-.35c.53-.41.13,0,.46-.53-1-.45-.24.29-.83-.7l-.14.92c-.91.52-.84.3-1.2,1Z" transform="translate(-70.87 -48.72)"/><path class="cls-34" d="M88.8,61.73c.06.51,1.69.68,2.14.78l-1.74,0,.41.58c.82-.26,1.35.13,2.29-.28l-1.31-1.68c0,.09.14.45-.69.68A2.08,2.08,0,0,1,88.8,61.73Z" transform="translate(-70.87 -48.72)"/><path class="cls-70" d="M93.55,54.82c.36-.51-.11-.19.57-.07l.07-.62c-1.49-.7-.53-.29-1.44-1.05-1-.43-1-.52-.62-1.57l-1,.17c.44,1.47.92.78.93,2.17C93.1,54.1,93,53.93,93.55,54.82Z" transform="translate(-70.87 -48.72)"/><path class="cls-38" d="M101.52,66.19l-.31.55.64.19c.24.41.13,0,0,.38s0,.34-.5.22c.41.27.15.22.3.43l.15,0c.42-.14.51-.24.81-.35.61-.22.3-.27.61,0l.54-.48-.36-.76c-.5.5.53.49-.92.48l-.28-.68.8.23c-.15-.45-.16-.17.09-.88Z" transform="translate(-70.87 -48.72)"/><path class="cls-71" d="M101.8,58.38l-.83.74,0,.55c.59.61.24.38.66.5a9.87,9.87,0,0,0,1.6.29l0-.18c-.7-1.07-.54-.09-1.07-1-.24-.52-.13-.48.37-.64l.11-.31-.69-.51Z" transform="translate(-70.87 -48.72)"/><path class="cls-22" d="M97,73c.45.8-.19.2.77.58l.1-2c.32-.28-.26-.44.54-.11-.33-.84-.23-.67-1-1.15,0,.51-.2.39-.2.31s-.08,0-.21,0Z" transform="translate(-70.87 -48.72)"/><path class="cls-45" d="M99.07,51.36,99,51.8l.28.46.68-.21c.13.7.34.19,0,.73,0,0-.59.45-.64.49l1.07.21a5.62,5.62,0,0,1,.45-1.24,1.89,1.89,0,0,0,.25-.63c.07-.68.14-.15-.14-.75l-.2.91c-.52.33.38.45-.62.22l-.21-1.08c0-.14-.06-.17-.1-.25-.11.75.07.05-.07.09H99.5s-.1,0-.17,0Z" transform="translate(-70.87 -48.72)"/><path class="cls-72" d="M97.73,49c.64.69.18,1.17-.34,2l.27.06.9-1.57.78.16.5-.16.55.75.39-.85A2.75,2.75,0,0,0,97.73,49Z" transform="translate(-70.87 -48.72)"/><path class="cls-73" d="M87.3,71.36l-.65-.14c-.48.69-.79.46-1.63.81-.32.73-.13.16.09.39l.61-.18,1.19-.36.68.22.54-.14c.47.48.31-.17,0,.33l.47,0c.21-.24,0-.15.58-.13l-.66-.72.21-.5Z" transform="translate(-70.87 -48.72)"/><path class="cls-27" d="M92.48,63.34l.5.35c-.79.07-.23-.29-.3.75a6.91,6.91,0,0,0,1.08.13c1.11-.07.53.1.6-.31l-1.3-1.84c-.84.35-.25-.48-.7.33Z" transform="translate(-70.87 -48.72)"/><path class="cls-16" d="M94.12,54.75c-.68-.12-.21-.44-.57.07l-.34.06a2.49,2.49,0,0,1-.33,1.74,2.3,2.3,0,0,1,1.39-.54l-.8.91h.16l.6.17.14-.49.5.23a1.66,1.66,0,0,0-1.32-1c.09-1-.07-.26.4-.47l.46.12.54.21a2.27,2.27,0,0,0-.1-1.21Z" transform="translate(-70.87 -48.72)"/><path class="cls-74" d="M90.26,59.73c0-.08.2-.76.24-1,.1-.66-.09-.42.14-.84l-1.36-1.19c0,.72,0,.84.09,1.46,0,.07,0,.54,0,.55C89.48,59.44,89.53,59.32,90.26,59.73Z" transform="translate(-70.87 -48.72)"/><path class="cls-75" d="M105.33,58.16c.46.54.54-.41.35.49H105c-.63.24-.42.25-1,.74-.75.4-1,.23-1.88-.14.53.95.37,0,1.07,1,1.15-.21.64-.21,1.56-.9a4.68,4.68,0,0,1,1.77-.69c-.08-.65.26-.06-.28-.65l-.39-.29C105.32,58.25,106.13,57.91,105.33,58.16Z" transform="translate(-70.87 -48.72)"/><path class="cls-76" d="M102.46,58.6c-.5.16-.61.12-.37.64.85.37,1.13.54,1.88.14l-.85-.17,1.42-1.66a9.57,9.57,0,0,0,.44,1.09h.7c.19-.9.11.05-.35-.49-.61-.33,0,.14-.33-.34s-.15-1-.78-.76a4.66,4.66,0,0,1-1.8,2.12Z" transform="translate(-70.87 -48.72)"/><path class="cls-2" d="M89.86,65.5l-.48.5v-.44l-1,.26-.09,1-.73.11a2.81,2.81,0,0,0,1.68-.23L88.8,68c-.42.31-.26.14.29.26.32-1.22.73-.84.27-1.82l.82-.24.13-.54Z" transform="translate(-70.87 -48.72)"/><path class="cls-77" d="M81.61,75.81l-.93,1.13c.26.55.19-.37,0,.47l-.25.51.45.1v0l1.9.41L82.9,78l-.56-.24c-.09-.14.25,0-.24-.17l-.85,0c-.31-.35-.69.52,0-.67a6.29,6.29,0,0,0,1.18-1.19l-.66-.29Z" transform="translate(-70.87 -48.72)"/><path class="cls-18" d="M88.27,69.14,87.06,70l-.31.46.73,0-.12.63c.72-.73.73-.78,1.82-.71l-.13-.49.07-.28.11-.55-.4.35c.12-.66,0-.37.39-.76l-.22,0A4.91,4.91,0,0,1,88.27,69.14Z" transform="translate(-70.87 -48.72)"/><path class="cls-78" d="M70.88,71.17c.21-.45,0-.08.49-.13l1,.51,1.23-.25-2-.43a3.27,3.27,0,0,0,.6-.5c.64-.63,0-.21.75-.56l.19,0,.29-.52-.37,0c-1.2.12-1.26.62-2.07,1.31Z" transform="translate(-70.87 -48.72)"/><path class="cls-76" d="M106.55,67c-.62,0-.19-.38-.68.25a13.44,13.44,0,0,0,2.6,1.64l.42-.1-1.29-1c.49.16.19.2.34-.37-.66-.5-.2,0-.35-.81Z" transform="translate(-70.87 -48.72)"/><path class="cls-79" d="M97,73v.57a7.88,7.88,0,0,0,1.33,0c.65-.06.19-.34.78.31.62.13.43.26.57-.36l-.5-.28.39-.6c.31-.16-.26-.38.35-.12l-1.06-.51c0,1.11.22.64-.45,1.48-.54-1,0-.94.19-2h-.18c-.8-.33-.22-.17-.54.11l-.1,2C96.76,73.15,97.4,73.75,97,73Z" transform="translate(-70.87 -48.72)"/><path class="cls-11" d="M102.23,85.12c1,.16.17.1.5-.26a9.9,9.9,0,0,0,.92-2L103,81.17l-.6.48c.45.84.21.26.36.9.23,1,0,1-.07,1.12Z" transform="translate(-70.87 -48.72)"/><path class="cls-68" d="M95.12,65.9c0,1.44,0,.16.41,1,.52,1-.27.3.36,1.23.46-.27.25-.13.67-.25l.51,0,.3.08v-.32c-.24-.43-.24-.49-.46-1,0,.11-.1.5-.83-.2-.94-.43-.73-.15-.9-1C95,65.65,94.82,64.76,95.12,65.9Z" transform="translate(-70.87 -48.72)"/><path class="cls-34" d="M87.06,70l1.21-.88c0-.73.28-.26-.1-.64-1.52-.13-1.83.85-2.17,2.22Z" transform="translate(-70.87 -48.72)"/><path class="cls-80" d="M97.66,51.07l-.25.72,1.09-.5c.67-.45,1.24-.69.84-1.63l-.78-.16Z" transform="translate(-70.87 -48.72)"/><path class="cls-37" d="M88.23,60.42c.77.91.49.18.57,1.31a2.08,2.08,0,0,0,1.1.12c.83-.23.64-.59.69-.68-.72-.56-.25-.36-.9-.89C88.8,60.66,89.18,60.53,88.23,60.42Z" transform="translate(-70.87 -48.72)"/><path class="cls-68" d="M99.51,79.58c-.77.37-.34-.87-.6.36l.64.81-2.39-.39c.16.57,1,.58,1.71.81.19-.48.51-.22,1.19-.11.5.16,0,.07.29-.37-.06-.86.12-.6-.3-1.3l-.18.8Z" transform="translate(-70.87 -48.72)"/><path class="cls-28" d="M98.5,51.29l.57.07.26-.6c.07,0,.17,0,.17,0h.22c.14,0,0,.66.07-.09,0,.08.11.11.1.25L100.1,52c1,.23.1.11.62-.22-1-.15-.32,0-.48-.32.55-1,.13-.46.58-.48.07-1,.22-.67,0-1.57l-.39.85-.55-.75-.5.16C99.74,50.6,99.17,50.84,98.5,51.29Z" transform="translate(-70.87 -48.72)"/><path class="cls-15" d="M100.5,63l-.39.42a7,7,0,0,0-.55.65l.28.07a17.27,17.27,0,0,0,1.8-.48c1.21-.41.67.31,1.79-.55l-.87,0L102.2,63Z" transform="translate(-70.87 -48.72)"/><path class="cls-5" d="M101.43,61.5l.09-.84c1.18-.16,1.08.89,2.33.06l-.71,0,0-.21a9.87,9.87,0,0,1-1.6-.29c-.42-.12-.07.11-.66-.5-.54.09-.65-.41-.41.65s.46.31.64.25l-.35.87Z" transform="translate(-70.87 -48.72)"/><path class="cls-8" d="M95.92,64.82c-.11,1.6.58.21.17,1.66.93-.34,1-.57.62-1.8,2,1.19.67.42,1.18.25-.21-.81-.32-.49.12-1.12l-.53-.06a7.64,7.64,0,0,0-1.22,1.42Z" transform="translate(-70.87 -48.72)"/><path class="cls-7" d="M79.05,69.1c.43.59.3.78-.22,1.35l-.51-.65h.15l-.11,1.34,1,.42c0-.1.09-.21.09-.18l.2-.55a4.75,4.75,0,0,0-.15-2.77l0,.77C79.24,69.23,80.22,69.56,79.05,69.1Z" transform="translate(-70.87 -48.72)"/><path class="cls-55" d="M87.26,67.35v.22l.72.09.82.35.42-1.28a2.81,2.81,0,0,1-1.68.23l.73-.11.09-1-.53-.29,0,.42Z" transform="translate(-70.87 -48.72)"/><path class="cls-80" d="M104.54,68l.6.37c1,.29.69.21.78,1l-.33,1.26c1.43-.39.12-1.49,1.1-1.47-.46-1-.61-.41-1.08-1.64l-.91-.16Z" transform="translate(-70.87 -48.72)"/><path class="cls-81" d="M114.63,65.57l-.06.85-.83.38.22.67c.41.64,0,.07.67.46l.25-.44.41-.72-.16-.47.12-.83.09-.49C114.9,65.26,115.23,64.79,114.63,65.57Z" transform="translate(-70.87 -48.72)"/><path class="cls-10" d="M80.53,69c-.76.31-.18,1.18-.5,2.44.74-.2,1.4-1.49,1.47-2.24Z" transform="translate(-70.87 -48.72)"/><path class="cls-17" d="M108.79,58.71l-.67,1.46c.18.33.45-.25-.15.81-.41.07-.18.4-.33-.33l-1.87,1.09.22.2c.42-.57.47-.39,1-.91l.94.42.85-.77.58-2.42a.73.73,0,0,1-.17.15s-.18.21-.19.16S108.85,58.65,108.79,58.71Z" transform="translate(-70.87 -48.72)"/><path class="cls-10" d="M83.71,70.23c-.38.72-.18.61-.84.94l-.32.18c.22.33.75-.34,0,.86,0,0-.68.66-.71.7l1.34-.39c-.46-.41-.55-.2.09-.89a3.84,3.84,0,0,1,.88-.63c.92.75.3.06.35.63l.49-.41.41-.74L85,70.29l-.33.8Z" transform="translate(-70.87 -48.72)"/><path class="cls-82" d="M105.08,69.85l.15.33c-.34-.26-.42-.4-.79-.29l-.43.56.12-.67-.19.06-.29,1-.67.25.06.57.46.16c.12-.55-.15-.27.22-.49l.41-.62.55,0,.7-.13.21.07.33-1.26c-.57-.19-.06-.36-.42,0l.26,0C105.58,70.24,105.83,70.14,105.08,69.85Z" transform="translate(-70.87 -48.72)"/><path class="cls-34" d="M78.62,79.09l-.3.81,1.05.74.42-2.24C78.85,78,79.17,78.21,78.62,79.09Z" transform="translate(-70.87 -48.72)"/><path class="cls-74" d="M88.9,56.13l-.2-.22c-.51,0-.52.13-1-.25l1.44,3c.24-.23.19.09.35-.44,0,0,0-.73,0-.75-.16-.91-.4-.77-1.18-1Z" transform="translate(-70.87 -48.72)"/><path class="cls-83" d="M82.15,80.43,81.06,83c1.43-.66,2.16-3,1.77-4.38l-.3,1.64C82.21,80.5,82.72,80.7,82.15,80.43Z" transform="translate(-70.87 -48.72)"/><path class="cls-84" d="M103.11,57.16l-.48,0-.06,1.16-.11.31,0,.58a4.66,4.66,0,0,0,1.8-2.12Z" transform="translate(-70.87 -48.72)"/><path class="cls-85" d="M91.2,58.16l-.56-.29a4.3,4.3,0,0,1,.23,2.57c.49-.28.24-.07.54-.58,0,0,.14-.39.17-.46.32,1,.08,1,.18,1.68.83-.77.33-1.3.11-2.28-.39,0-.23-.1-.56.33Z" transform="translate(-70.87 -48.72)"/><path class="cls-68" d="M114,67.47a1.49,1.49,0,0,1-.56,1.14c.28.4.29-.11.09.79.79-.51.41-.29.85-1.19l.35.53.62-.32c.06,0,.55,0,.81,0l-.74-.65a3.64,3.64,0,0,0-.5-.27l-.25.44C114,67.54,114.37,68.11,114,67.47Z" transform="translate(-70.87 -48.72)"/><path class="cls-86" d="M96.41,63.39l-.16,0-.33,1.48.34.35a7.64,7.64,0,0,1,1.22-1.42c.47-1.51.22-.32-.19-.94C96.54,63.62,96.78,63.23,96.41,63.39Z" transform="translate(-70.87 -48.72)"/><path class="cls-24" d="M82.12,70.13l.15.91c-.41-.41-.24,0-.39-.53-.24-.84.1-.25.24-.38Zm.32-.25c-.14.45,0,.48-.32.25,0-.53.6-.36-.39-.46-.37.85-.51,1,.25,1.56l.75-.6c.31.47.17,0,.14.54.66-.33.46-.22.84-.94l-.08-.78-.09.22-.68.7Z" transform="translate(-70.87 -48.72)"/><path class="cls-21" d="M97.43,56l-.21,1,1.45-.7c0-1-.27-1.21-1-1.84C97.71,55.46,97.89,55.09,97.43,56Z" transform="translate(-70.87 -48.72)"/><polygon class="cls-2" points="25.85 3.51 27.26 3.42 27.64 3.53 28.08 3.07 28.2 2.64 27.63 2.56 26.54 3.06 26.8 2.35 26.52 2.29 26.04 2.24 25.85 3.51"/><path class="cls-48" d="M91.83,65.22l.51-.43.29-1-1.09-.09c-.77.34.06,0-.86.09l-.45.1c0-.07-.14.06-.21.09C92.19,65.11,91.41,63.85,91.83,65.22Z" transform="translate(-70.87 -48.72)"/><path class="cls-17" d="M92.8,52.68l0,.4c.91.76,0,.35,1.44,1.05l-.07.62.73-.22.08-.15-.55.1c.05,0,.35-.45.45-.56l-.33-.11v-.69Z" transform="translate(-70.87 -48.72)"/><path class="cls-42" d="M96.44,75.42l1,1.47v-.51l.2,0c.56-.63-.23-.4.64-.6-.65-.88-.61-.78-1.71-1.07Z" transform="translate(-70.87 -48.72)"/><path class="cls-44" d="M82.18,69.17l.26.71.42.49.68-.7.2-1.21A1.84,1.84,0,0,0,82.18,69.17Z" transform="translate(-70.87 -48.72)"/><path class="cls-87" d="M109.56,71.5l.11.5a3.9,3.9,0,0,0,3-1.4l.38-.71-.11,0-.83.69c-.3.18-.36.16-.72.37C110.42,71.48,110.74,71.47,109.56,71.5Z" transform="translate(-70.87 -48.72)"/><path class="cls-88" d="M89.16,72.12l.4.08c1-.47.78.15,1.39-.8l-1.86-.31-.38-.19-.21.5Z" transform="translate(-70.87 -48.72)"/><path class="cls-64" d="M113,66.47l1.24-.46a2.08,2.08,0,0,0-2.23-.75l-.47.17C112.78,65.91,112,65.81,113,66.47Z" transform="translate(-70.87 -48.72)"/><path class="cls-33" d="M105.61,67.54c.47,1.23.62.63,1.08,1.64.8-.35.14.12.74-.55l1,.26a13.44,13.44,0,0,1-2.6-1.64Z" transform="translate(-70.87 -48.72)"/><path class="cls-89" d="M79.68,68l.07-.61c0,.06.17.06.17.16,0,.61,0,0,.27.31l.16-1.06c-.35-.28.28,0-.47,0-.77-2.38,0-1.23-.89-2.21A10.87,10.87,0,0,0,79.68,68Z" transform="translate(-70.87 -48.72)"/><path class="cls-90" d="M102.58,76.61c0,1.09.22,1,.33,1.91.39-.15.23-.19.49.15l.48-1.9Z" transform="translate(-70.87 -48.72)"/><path class="cls-71" d="M79,72.45l-.24.69-.07,0,1,.28.92-.3.25-.23-1-.68c-.88.15-.69-.44-.62.6C79.47,72.34,79.57,72.47,79,72.45Z" transform="translate(-70.87 -48.72)"/><path class="cls-11" d="M100.17,59.87c.12,1.56.39,1.44-.31,3,.42-.1.21-.13.72,0,0-.06-.06-.12-.07-.16a1.42,1.42,0,0,0-.05-.16.86.86,0,0,1,0-.17l.2-.79.59.15.21-.27-.63-.06.35-.87c-.18.06-.4.79-.64-.25s-.13-.56.41-.65l0-.55h-.39Z" transform="translate(-70.87 -48.72)"/><path class="cls-69" d="M100.12,66.38l.14.29-1.1.27c-.12,1.25-.08.2.26.72,0-1.67-.07-.44.38-.82L101.61,68c-.15-.21.11-.16-.3-.43.53.12.4.25.5-.22l-1.07-.39.47-.18.31-.55Z" transform="translate(-70.87 -48.72)"/><path class="cls-58" d="M105.35,80.19l-.08.47c.87.32.71,0,.85,1l.59.18.15-.87c.06-1,.34-.68-.53-1.19l-.35.75Z" transform="translate(-70.87 -48.72)"/><path class="cls-10" d="M109.56,71.5a16.54,16.54,0,0,1,3.07-1.76l.14-.45-.47-.12c-1,1.26-.52.16-3,2C109.37,71.48,108.84,71.22,109.56,71.5Z" transform="translate(-70.87 -48.72)"/><path class="cls-85" d="M73.58,72.16l.9.35,0,.6.9,0,.73-.53L75.86,72C75.07,72.21,74.55,72,73.58,72.16Z" transform="translate(-70.87 -48.72)"/><path class="cls-86" d="M92.13,51.51c-.36,1.05-.38,1.14.62,1.57l0-.4-.61-.13L93,51.32l.74.48c.23-.19.19-.36.42-.55h-.58l.41-.63c-.87.21-.27,0-1.08.5C92.51,51.4,92.65,51.38,92.13,51.51Z" transform="translate(-70.87 -48.72)"/><path class="cls-18" d="M85.85,71.29,85,71.22l-.49.41-.47.67.31.1L85,72c.84-.35,1.15-.12,1.63-.81V70.6C86,70.93,86.46,70.47,85.85,71.29Z" transform="translate(-70.87 -48.72)"/><path class="cls-18" d="M72,77.21c.29.91,0,.42.87-.54a2.3,2.3,0,0,1,.53-.44c.64-.45.07-.22.69-.34l.91-1.3a2.18,2.18,0,0,0-.79.42c-.27.2-.54.42-.8.63A4.61,4.61,0,0,0,72,77.21Z" transform="translate(-70.87 -48.72)"/><path class="cls-85" d="M73.79,78.88a5,5,0,0,0,.61-.12c.21-.05.37-.06.54-.11.59-.17.44,0,.84-.59l-.37.25.18-.46c-.59-.26-.36.39-.22-.43,0,0,.31-.67.36-.82l-.51.24c-.31,1-.47,1.29-1.47,1.57Z" transform="translate(-70.87 -48.72)"/><path class="cls-78" d="M97.3,83.93l-.89,1.24h.77c.08-1.15,0-.38.28-.71.92,0,.31-.07.86.27L98,85.3s.32.47.78-.4,0-.71-.12-.88l-.24.49C97.65,84.07,98.2,84.21,97.3,83.93Z" transform="translate(-70.87 -48.72)"/><path class="cls-91" d="M103.72,71.35l.73.14.66,1.2,1,.29c-.39-.83,0-.21-.58-1l-1-1.12.24-.19-.55,0Z" transform="translate(-70.87 -48.72)"/><path class="cls-92" d="M89.61,63.13l1.93.55,1.09.09-.29,1,.2-.12.14-.23c.07-1-.49-.68.3-.75l-.5-.35c-.56-.35-.17-.06-.58-.49C91,63.26,90.43,62.87,89.61,63.13Z" transform="translate(-70.87 -48.72)"/><path class="cls-5" d="M82.07,67.35l-.75.59c-.46.88-.27.23.23.61L83,68.17l.24-.93C82.72,67.63,82.81,67.47,82.07,67.35Z" transform="translate(-70.87 -48.72)"/><path class="cls-55" d="M98.81,57.85l1-.09c-.45.43-.82.62-.44.43l-.2,1,.11-.15c.34-.25-.38-.45.59-.08l.24.62.11.33.41-.75-.46-1-.77-.71C98.8,57.64,99.06,57.55,98.81,57.85Z" transform="translate(-70.87 -48.72)"/><path class="cls-93" d="M83.15,56.77c.68,1,.45,1.57,1.47,2.16-.05-1,0-.17-.41-1.2l.19-.12c-.08-.38,0-.06-.41-.37.72-.38.14-.31,1.27-.21-.16-.14,0-1.33-1,0Z" transform="translate(-70.87 -48.72)"/><path class="cls-31" d="M105.55,66.05l-.06.5,1-.42c.34-.8.32-.45.66-1.1.61-1.16.56-.42,0-.87C106.42,64.8,106.53,65.41,105.55,66.05Z" transform="translate(-70.87 -48.72)"/><path class="cls-37" d="M82.15,80.43c.57.27.06.07.38-.16l.3-1.64,0,.16c-1,.15-.27.27-.82,1.3.26-.86.45-.87.11-1.61-.24.26-.08-.17-.23.38l-.2,1.57Z" transform="translate(-70.87 -48.72)"/><path class="cls-48" d="M80.94,72.93l-.25.23c.68.16.71.19,1.18-.25,0,0,.7-.69.71-.7.72-1.2.19-.53,0-.86C81.8,71.71,81.88,72.35,80.94,72.93Z" transform="translate(-70.87 -48.72)"/><path class="cls-26" d="M105.11,72.69c.37.4-.43-.09.43.38l.49.17.27,1.35c0-.83-.17-.88.4-1.2l.65-.62-.29,0c-.93-.5-.54-.59-1.57-.78.57.75.19.13.58,1Z" transform="translate(-70.87 -48.72)"/><path class="cls-94" d="M109.56,71.5c1.18,0,.86,0,1.78-.57.36-.21.42-.19.72-.37l.83-.69-.26-.13A16.54,16.54,0,0,0,109.56,71.5Z" transform="translate(-70.87 -48.72)"/><path class="cls-34" d="M83.21,72.52l.85-.22.47-.67c0-.57.57.12-.35-.63a3.84,3.84,0,0,0-.88.63C82.66,72.32,82.75,72.11,83.21,72.52Z" transform="translate(-70.87 -48.72)"/><path class="cls-44" d="M104,59.38c.59-.49.38-.5,1-.74a9.57,9.57,0,0,1-.44-1.09l-1.42,1.66Z" transform="translate(-70.87 -48.72)"/><path class="cls-15" d="M84.62,58.93l1.72.37c-.3-.72-1.25-1.22-1.94-1.69l-.19.12C84.62,58.76,84.57,57.89,84.62,58.93Z" transform="translate(-70.87 -48.72)"/><path class="cls-95" d="M94.19,51.25v.06l1.26.36c.52-.28.11.17.29-.47L95.35,51c-.66-.55-.43-.41-1.41-.4l.08.06-.41.63Z" transform="translate(-70.87 -48.72)"/><path class="cls-17" d="M104.33,75.34c.29.12.11-.18.43.35l.75.22.15-.3a5.87,5.87,0,0,1-1.94-1.86l-1,.19C103.6,74.32,103.94,74.36,104.33,75.34Z" transform="translate(-70.87 -48.72)"/><path class="cls-70" d="M92.84,75.27l-.28.61c.07,0,.5-.17.52-.16.56.09.45.16.66.42l1-1C94.56,74.61,93.4,75.08,92.84,75.27Z" transform="translate(-70.87 -48.72)"/><path class="cls-33" d="M88.36,65.82l1-.26.47-.06.45.17c-.19-.49,0-.28-.49-.74l-1.34-.24c-.37-.32-.32.23-.34-.44C88.28,65.56,88.62,64.4,88.36,65.82Z" transform="translate(-70.87 -48.72)"/><path class="cls-62" d="M105.49,72c1,.19.64.28,1.57.78a2.45,2.45,0,0,0-.33-.52,4.85,4.85,0,0,0-.52-.49c-1.14-.88-.86-.12-.83-1.21l-.7.13-.24.19Z" transform="translate(-70.87 -48.72)"/><path class="cls-64" d="M78.32,69.8l.51.65c.52-.57.65-.76.22-1.35l-1.2-.77.17-.1C78,68.94,78,68.91,78.32,69.8Z" transform="translate(-70.87 -48.72)"/><path class="cls-42" d="M117.12,68.16a5.39,5.39,0,0,1,.2-1.17c0-.08.11-.28.12-.35.08-.56.27.15-.07-.4-.73.42-.59.17-1.44.52.86.66,1-.3.47,1.27Z" transform="translate(-70.87 -48.72)"/><path class="cls-37" d="M80.93,78.07v0l-.74,3.33A2.62,2.62,0,0,0,80.93,78.07Z" transform="translate(-70.87 -48.72)"/><path class="cls-51" d="M85.39,65.66l0,0-.11.41c-.42.91-.13.11.23.51,1.42-.54.88-.6.93-.8.21-.83-.47.29.08-.24.8-.8-.16.58.62-.62C85.87,65.22,86.37,65.23,85.39,65.66Z" transform="translate(-70.87 -48.72)"/><path class="cls-51" d="M80.38,68.24c1.24-.46.35-.7,1.49-1.43l.18,0-1.33-.53Z" transform="translate(-70.87 -48.72)"/><path class="cls-96" d="M95.55,55.8l-1.06.28c.66.6.22.38,1.23.43l0,.77.53.18v-.73l-.32-1.12Z" transform="translate(-70.87 -48.72)"/><path class="cls-36" d="M95,61.5l-1.46-1.34L93,60l.21.83C93.52,61.63,94.31,61.49,95,61.5Z" transform="translate(-70.87 -48.72)"/><path class="cls-91" d="M94.87,56.9l.82.38,0-.77c-1,0-.57.17-1.23-.43l1.06-.28-.6-.06-.54-.21-.39.26L94,55.41c-.47.21-.31-.56-.4.47A1.66,1.66,0,0,1,94.87,56.9Z" transform="translate(-70.87 -48.72)"/><path class="cls-9" d="M100.58,62.9l-.08.13,1.7,0,.08-.35-1.75-.59.69-.29-.59-.15-.2.79a.86.86,0,0,0,0,.17,1.42,1.42,0,0,1,.05.16S100.56,62.84,100.58,62.9Z" transform="translate(-70.87 -48.72)"/><path class="cls-96" d="M101.43,61.5l-.21.27-.69.29,1.75.59,0-.94c-.25-.58.65-.47-.33-.48Z" transform="translate(-70.87 -48.72)"/><path class="cls-97" d="M87.58,75.1c1.41.07.44,0,.74.3v.7c.34-1.7.13-.15,1-1.37.25-.33.1-.1.15-.47-.67-.32-.3-.34-1.09.22C88.13,74.67,87.87,74.86,87.58,75.1Z" transform="translate(-70.87 -48.72)"/><path class="cls-95" d="M104.94,61.92l-.12.34-.27.45c.29.57-.83.38.69.62.59-.78-.61-.19.75-1.39l-.22-.2-.21-.12Z" transform="translate(-70.87 -48.72)"/><path class="cls-98" d="M105.15,67l.26.34-.71.09.91.16.26-.29c.49-.63.06-.24.68-.25l0-.87-1,.42.06-.5C105.15,66.29,105.2,66.38,105.15,67Z" transform="translate(-70.87 -48.72)"/><path class="cls-16" d="M85.72,72.24l-.47.6.5.16c.57.06.1.24,1-.28l.44.06.13-.44c-1.09.3-.39.23-.39-.46Z" transform="translate(-70.87 -48.72)"/><path class="cls-11" d="M93.77,76.81l.59.07c.19-.62-.1-.43.46-.59.46.27.21-.06.38.54.5-.75.47-.45.29-1.38C94.12,75.81,94.57,75.85,93.77,76.81Z" transform="translate(-70.87 -48.72)"/><path class="cls-99" d="M87.16,64.38a1.45,1.45,0,0,0,.37.58c.36.37.37-.3.3.57l.53.29c.26-1.42-.08-.26-.22-1.57L88,63.91l-.52-.09C87.59,65.08,87.61,64.29,87.16,64.38Z" transform="translate(-70.87 -48.72)"/><path class="cls-100" d="M80.72,66.3l1.33.53c.21.22.39.12.53.49.28-1.36.6-.25-.47-1.07l-.43-.31c-.05,0,.09-.11-.46-.26Z" transform="translate(-70.87 -48.72)"/><path class="cls-80" d="M81.5,61c.65.89.07.19.67.44l1-.46a4.33,4.33,0,0,1-1.39-.53c-.66-.33-.42-.66-.84-.18Z" transform="translate(-70.87 -48.72)"/><path class="cls-75" d="M94.18,51.31c.07.69-.18.24.2.62l.84.19.7.28c.28-.86.43-.73-.19-1.2-.18.64.23.19-.29.47Z" transform="translate(-70.87 -48.72)"/><path class="cls-40" d="M98.29,58.45c.59,1-.21.25.83.7l.2-1c-.38.19,0,0,.44-.43l-1,.09-.68.06C98.15,58.37,98,58.12,98.29,58.45Z" transform="translate(-70.87 -48.72)"/><path class="cls-30" d="M89.12,69.6l-.07.28a4.15,4.15,0,0,0,1.49,0,9,9,0,0,1,.89-.35l-1.66-.45Z" transform="translate(-70.87 -48.72)"/><path class="cls-18" d="M87.22,58.93c.45.7.19.64.52,1.52l.49,0-.09-1.6-.64-.2-.16.14Z" transform="translate(-70.87 -48.72)"/><path class="cls-93" d="M100.06,59.54l-.24-.62c-1-.37-.25-.17-.59.08,1.08.94-1,.21-.12,2.07C99.82,60.08,99.33,60,100.06,59.54Z" transform="translate(-70.87 -48.72)"/><path class="cls-75" d="M104.58,69.28l.5.57c.75.29.5.39.68-.44l-.26,0c.36-.35-.15-.18.42,0-.09-.78.23-.7-.78-1l.08.69Z" transform="translate(-70.87 -48.72)"/><path class="cls-52" d="M104.28,77.14c-.11.7-.36.83.23,1.21l.12,0,.9.6c-.54-.77-.19-.51-.39-1.21C105,77.34,105,77.43,104.28,77.14Z" transform="translate(-70.87 -48.72)"/><path class="cls-32" d="M86.81,66.2l.32.34s-.12,0-.15.07-.12.08-.14.11c-.8.9-.11.71.14.86l.28-.23L87.8,66C86.81,65.89,87.41,65.77,86.81,66.2Z" transform="translate(-70.87 -48.72)"/><path class="cls-40" d="M102.81,80h.63c-.19-1.16-.52-.61,0-1.32-.26-.34-.1-.3-.49-.15l-.69.84Z" transform="translate(-70.87 -48.72)"/><path class="cls-101" d="M83.33,65l.26.62,1.78,0,0,0c.21-.63.31-.43-.36-.57Z" transform="translate(-70.87 -48.72)"/><path class="cls-51" d="M94.93,54.38l-.08.15a2.27,2.27,0,0,1,.1,1.21l.6.06.36-.19c-1.22,0-.23.06-.59-.36.55-.62,0-.24.67-.32l.08-.26c-.24-.4-.06-.28-.61-.43Z" transform="translate(-70.87 -48.72)"/><path class="cls-46" d="M81,61.56c-.23-.71-.43-.81-1.15-1.05l-.65.3A1.89,1.89,0,0,0,81,61.56Z" transform="translate(-70.87 -48.72)"/><path class="cls-102" d="M83.71,70.23l1,.86.33-.8V69.9l-.67.42c-.25-.25-.1-.36-.17-.51.09-.91.22-.17-.57-.36Z" transform="translate(-70.87 -48.72)"/><path class="cls-5" d="M84.56,66.93l-.36,2.88c.66-1.61.15-1.42,1-2.55s.28-.35.17-.7Z" transform="translate(-70.87 -48.72)"/><path class="cls-73" d="M89.56,72.2l.17.54L91,72.33l-.13-1.23H89.09L91,71.4C90.34,72.35,90.58,71.73,89.56,72.2Z" transform="translate(-70.87 -48.72)"/><path class="cls-14" d="M106.92,66.2l-.42-.07,0,.87,1-.36,1.07.22c-.28-.43-.09-.22-.23-.74C107.82,66.31,107.35,66.46,106.92,66.2Z" transform="translate(-70.87 -48.72)"/><path class="cls-36" d="M87.22,58.93l.12-.17-.11-.09c-.55-.44-.48-.5-1-.86a10.44,10.44,0,0,1-1.08-.88c.28.93-.08.14.51.86l.23.26C86.27,58.48,86.58,59.07,87.22,58.93Z" transform="translate(-70.87 -48.72)"/><path class="cls-80" d="M94.36,76.88l-.34.51c.29.71-.22.12.59.43l.59-1c-.17-.6.08-.27-.38-.54C94.26,76.45,94.55,76.26,94.36,76.88Z" transform="translate(-70.87 -48.72)"/><path class="cls-16" d="M80.38,68.24l-.18.25,1.33.15,0-.09c-.5-.38-.69.27-.23-.61l.75-.59-.2-.54C80.73,67.54,81.62,67.78,80.38,68.24Z" transform="translate(-70.87 -48.72)"/><path class="cls-86" d="M108.13,78.46l.36-1.85c-.26-.8,0-.32-.47-.49A2.47,2.47,0,0,0,108.13,78.46Z" transform="translate(-70.87 -48.72)"/><path class="cls-46" d="M116.32,65.93l1.05.31c-.27-1.21-.43.12-.14-1.31l-.8-.19Z" transform="translate(-70.87 -48.72)"/><path class="cls-20" d="M86.64,55.31c.2-1.51,0-.79.66-1l-.75-1.61A4.55,4.55,0,0,0,86.64,55.31Z" transform="translate(-70.87 -48.72)"/><path class="cls-59" d="M80.61,77.05l.07-.11.93-1.13a3.61,3.61,0,0,1-1.22-.94C80.49,76.25,80.84,75.58,80.61,77.05Z" transform="translate(-70.87 -48.72)"/><path class="cls-58" d="M98,62c-.8.68-.24,0-.67.73l.48-.13,1.25.07.17-.4C98.45,61.86,98.9,61.92,98,62Z" transform="translate(-70.87 -48.72)"/><path class="cls-88" d="M88.14,64.25c0,.67,0,.12.34.44l1.34.24,0-.1-.76-.8C88.24,63.92,89,63.74,88.14,64.25Z" transform="translate(-70.87 -48.72)"/><path class="cls-103" d="M86.64,55.31a4,4,0,0,1,1.39.12L87.3,54.3C86.65,54.52,86.84,53.8,86.64,55.31Z" transform="translate(-70.87 -48.72)"/><polygon class="cls-104" points="18.86 24.02 19.09 24.3 19.33 24.39 19.86 24.55 20.36 24.42 20.38 23.78 20.13 23.6 18.86 24.02"/><path class="cls-83" d="M76.15,72.62l-.73.53,0,.31c1.2-.43.7.17,1.62-.41l.41-.24Z" transform="translate(-70.87 -48.72)"/><path class="cls-105" d="M76.38,77c-.42.6-.17.32-.79.82l-.18.46.37-.25a9.76,9.76,0,0,0,1.65-1.34l-.71-.21Z" transform="translate(-70.87 -48.72)"/><path class="cls-5" d="M79.2,61.61l1.24,1.27c.39-1.19.68-.38-.19-1.07C79.55,61.26,79.71,61.49,79.2,61.61Z" transform="translate(-70.87 -48.72)"/><path class="cls-106" d="M103.5,71.84l1.61.85-.66-1.2-.73-.14C103.35,71.57,103.62,71.29,103.5,71.84Z" transform="translate(-70.87 -48.72)"/><path class="cls-5" d="M93.47,57l.8-.91a2.3,2.3,0,0,0-1.39.54,2.49,2.49,0,0,0,.33-1.74l-.53,1.78Z" transform="translate(-70.87 -48.72)"/><path class="cls-107" d="M112.77,69.29l-.14.45.26.13.11,0h.24l.25-.5c.2-.9.19-.39-.09-.79l-.35-.22Z" transform="translate(-70.87 -48.72)"/><path class="cls-108" d="M78,65.76l0-2c-.6,0-.2-.21-.44.15l0,2Z" transform="translate(-70.87 -48.72)"/><path class="cls-109" d="M96.93,83.86l-.94-.7-.38.27.34,1A2.44,2.44,0,0,0,96.93,83.86Z" transform="translate(-70.87 -48.72)"/><path class="cls-56" d="M96.87,69.84l.69.08a3.38,3.38,0,0,0-.19-2l-.3-.08A2.53,2.53,0,0,1,96.87,69.84Z" transform="translate(-70.87 -48.72)"/><path class="cls-72" d="M95.46,54.24c.55.15.37,0,.61.43l.48.12c-.17-.5-.2-.31,0-.6l.07-.32-.08,0-.75-.2c-.89-.12-.26,0-.72,0C95.79,53.81,95.7,53.6,95.46,54.24Z" transform="translate(-70.87 -48.72)"/><path class="cls-95" d="M84.56,66.93l.1-.55-.73.11c-.75,1.71-.23.74,0,1.27Z" transform="translate(-70.87 -48.72)"/><path class="cls-110" d="M86.49,77.35c.78-.12.23-.07.39.17,0,0-.27.51-.28.54-.15.72-.13.23.09.67l.75-.29c-.7-.51-.46-.09-.09-1.31-.2-.19.6-.37-.4-.11Z" transform="translate(-70.87 -48.72)"/><path class="cls-111" d="M108,76.12c.46.17.21-.31.47.49.64-.28.28.37.62-.67-.45-.6.15-.17-.72-.4l-.61-.07C108.37,76,107.92,75.59,108,76.12Z" transform="translate(-70.87 -48.72)"/><path class="cls-95" d="M106.7,73.39c-.32.87-.3.34.32.64l.34-.28.41-.47-.17-.21-.25-.3Z" transform="translate(-70.87 -48.72)"/><path class="cls-28" d="M95.91,55.61l.32,1.12c.81-.2-.67.16.24,0,.42-.09.13,0,.4-.14-1.27-1.49-.48-1.11-.42-1.29.24,0-.25-.75.44.33,0-.07-.19-.38-.21-.42a.53.53,0,0,1-.06-.2.44.44,0,0,0-.07-.21l-.48-.12-.08.26.34.37Z" transform="translate(-70.87 -48.72)"/><path class="cls-112" d="M106.3,74.59l.11.43.63.12c-.39-.75-.21-.44,0-1.11-.62-.3-.64.23-.32-.64C106.13,73.71,106.33,73.76,106.3,74.59Z" transform="translate(-70.87 -48.72)"/><path class="cls-68" d="M99.13,78.48a5,5,0,0,0,.92.91c0-.79-.16-.92-.75-1.6C98.86,78.21,99,77.66,99.13,78.48Z" transform="translate(-70.87 -48.72)"/><path class="cls-107" d="M95.21,82.45l.77-.9.17-.43.75.26c-.25-.5-.11-.34-.62-.59C95.35,81.2,95.48,81.45,95.21,82.45Z" transform="translate(-70.87 -48.72)"/><path class="cls-56" d="M103.29,80.57l-.22.46.93.21c.39-1.06.12-.4,0-.84l-.59-.26Z" transform="translate(-70.87 -48.72)"/><path class="cls-70" d="M99.51,72.55l-.39.6.5.28,1-.5c-.29-.42.08-.08-.44-.24Z" transform="translate(-70.87 -48.72)"/><path class="cls-87" d="M77.56,71c.12.3,0,.21.43.57s.1.22.58.17c0-.43.17-.14-.12-.6L78,70.64l-.28-.14Z" transform="translate(-70.87 -48.72)"/><path class="cls-56" d="M103.05,65.57l1,.56,0-.84-.2-.07c-.36-.49-.4.48-.18-.87Z" transform="translate(-70.87 -48.72)"/><polygon class="cls-113" points="8.35 25.92 8.61 25.56 8.9 24.74 7.86 24.45 8.35 25.92"/><polygon class="cls-82" points="33.48 20.7 33.71 20.56 34.35 20.36 34.27 19.67 33.67 19.31 33.48 20.7"/><path class="cls-31" d="M101.76,68c.16.43,0,.28.49.59l.93-.92c-.31-.29,0-.24-.61,0C102.27,67.75,102.18,67.85,101.76,68Z" transform="translate(-70.87 -48.72)"/><path class="cls-43" d="M113.24,69.9H113l-.38.71.46-.13a1.07,1.07,0,0,0,.21,0l.44.31.24-1Z" transform="translate(-70.87 -48.72)"/><path class="cls-114" d="M107.93,61.45l.07.38.76,0,.51-.44h-.74c.68-.88.11-.17.25-.74Z" transform="translate(-70.87 -48.72)"/><path class="cls-112" d="M107.36,73.75h.83l.34-.61c-.33-.68-.67-.27-.93-.08l.17.21Z" transform="translate(-70.87 -48.72)"/><path class="cls-3" d="M99.35,57.41l.77.71c.31-1.21.27.27,1-1.16-.92.09-1.59.86-1.65.47C99.46,57.39,99.39,57.41,99.35,57.41Z" transform="translate(-70.87 -48.72)"/><path class="cls-115" d="M104.7,67.38l.71-.09-.26-.34c-1.74-.3-.83-.38-1.36.26l.09.07Z" transform="translate(-70.87 -48.72)"/><path class="cls-116" d="M101.61,70c.29.36.51.6.72.91a2.5,2.5,0,0,0,.71.82l-.06-.57-.23-1.29c-.11,1.57.12.4-.64.66C101.87,69.72,102.1,70.37,101.61,70Z" transform="translate(-70.87 -48.72)"/><path class="cls-46" d="M106.12,81.68c.74.78.91.69,1.35-.24l-.61-.45-.15.87Z" transform="translate(-70.87 -48.72)"/><path class="cls-98" d="M108.4,71.2c-.4,1.23-.22.4.12.72h.62l-.13-1-.52.29Z" transform="translate(-70.87 -48.72)"/><path class="cls-86" d="M99.56,64.1a7,7,0,0,1,.55-.65c-.49,0-.38.08-.25-.42l-.55.47L99,63C98.81,63.86,98.89,63.72,99.56,64.1Z" transform="translate(-70.87 -48.72)"/><polygon class="cls-4" points="6.14 27.4 5.85 27.79 6.57 27.99 7.1 26.87 6.41 27.12 6.14 27.4"/><polygon class="cls-107" points="15.88 21.76 15.79 21.88 15.78 22.5 16.43 22.64 16.49 22.35 16.61 21.73 15.88 21.76"/><path class="cls-7" d="M97.18,85.18c.24.83.81.14.83.12L97.35,85c.31-.32.4-.23,1-.23-.55-.34.06-.24-.86-.27C97.2,84.8,97.26,84,97.18,85.18Z" transform="translate(-70.87 -48.72)"/><path class="cls-71" d="M96.55,54.79c1.65.66.33.21.83,0-.34-.9.17-.39-.82-.56C96.35,54.48,96.38,54.29,96.55,54.79Z" transform="translate(-70.87 -48.72)"/><path class="cls-112" d="M99.13,78.48c-.12-.82-.27-.27.17-.69.18-.37.24-.26-.16-.34-.62.17-.46-.13-1.2-.37Z" transform="translate(-70.87 -48.72)"/><path class="cls-20" d="M88,63.49l-.11.5.13-.08.14.34c.82-.51.1-.33,1-.22l-.52-.93-.07.47Z" transform="translate(-70.87 -48.72)"/><polygon class="cls-55" points="34.49 31.47 35.11 31.83 35.46 31.07 34.59 30.84 34.49 31.47"/><path class="cls-48" d="M103.65,70.86l.29-1c-.93-.15-.2-.36-.78.11C103.43,71.11,103.07,70.2,103.65,70.86Z" transform="translate(-70.87 -48.72)"/><path class="cls-117" d="M94.93,54.38l.53-.14c.24-.64.33-.43-.38-.56l-.26,0v.19c-.1.11-.4.51-.45.56Z" transform="translate(-70.87 -48.72)"/><path class="cls-84" d="M87.59,72.1l-.29.24-.13.44c.54.17.69-.06.94-.49s.49.15,0-.33Z" transform="translate(-70.87 -48.72)"/><polygon class="cls-114" points="17.12 18.94 16.39 18.85 16.14 19.38 17.42 19.47 17.12 18.94"/><path class="cls-88" d="M95.91,55.61l.42-.31L96,54.93c-.69.08-.12-.3-.67.32C95.68,55.67,94.69,55.64,95.91,55.61Z" transform="translate(-70.87 -48.72)"/><path class="cls-105" d="M103.36,66.42l-.4,0-.8-.23.28.68C103.89,66.91,102.86,66.92,103.36,66.42Z" transform="translate(-70.87 -48.72)"/><path class="cls-104" d="M100.58,59.12H101l.83-.74C100.86,58.48,100.67,58.33,100.58,59.12Z" transform="translate(-70.87 -48.72)"/><path class="cls-40" d="M104.35,69.42l-.22.36-.12.67.43-.56c.37-.11.45,0,.79.29l-.15-.33-.5-.57Z" transform="translate(-70.87 -48.72)"/><path class="cls-22" d="M111,55.48l.21.31c.65-.35.41-.13.78-.84C111.17,55,111.49,54.89,111,55.48Z" transform="translate(-70.87 -48.72)"/><path class="cls-78" d="M74.48,72.51l-.9-.35-.45.56A1.61,1.61,0,0,0,74.48,72.51Z" transform="translate(-70.87 -48.72)"/><path class="cls-100" d="M104.07,62.86l.48-.15.27-.45L103.57,62C104.35,62.82,104.07,61.87,104.07,62.86Z" transform="translate(-70.87 -48.72)"/><path class="cls-106" d="M98,62c.87-.1.42-.16,1.23.27l-.54-1c0-.06,0-.08,0-.09Z" transform="translate(-70.87 -48.72)"/><path class="cls-79" d="M96.56,52.2l.16,0L96.9,51l-.34-.11C96.2,51.56,96.52,51.18,96.56,52.2Z" transform="translate(-70.87 -48.72)"/><path class="cls-118" d="M100.06,81.06c-.68-.11-1-.37-1.19.11l.69.37Z" transform="translate(-70.87 -48.72)"/><path class="cls-25" d="M85,71.22l.83.07-.15-.67c-.17-.2.35-.27-.27-.14Z" transform="translate(-70.87 -48.72)"/><path class="cls-104" d="M94.87,56.9l-.5-.23-.14.49c.43.5,0,.22.65.41l0-.49C94.93,57,94.89,57,94.87,56.9Z" transform="translate(-70.87 -48.72)"/><polygon class="cls-75" points="24.79 23.37 25.81 23.72 25.37 22.75 24.79 23.37"/><polygon class="cls-104" points="23.64 4.4 23.63 5.09 23.96 5.19 23.95 5 24.34 3.99 23.64 4.4"/><path class="cls-2" d="M110.86,55.66c-.72,1.22-.38.35.22.82l.16-.69-.21-.31Z" transform="translate(-70.87 -48.72)"/><path class="cls-30" d="M107.69,74.27l.68.74c0-.63.33-.29-.07-.69C107.47,73.46,107.8,74.24,107.69,74.27Z" transform="translate(-70.87 -48.72)"/><path class="cls-61" d="M100.72,51.77l.2-.91-.1.11c-.45,0,0-.53-.58.48C100.4,51.79,99.69,51.62,100.72,51.77Z" transform="translate(-70.87 -48.72)"/><path class="cls-119" d="M87.48,63.82l.52.09-.13.08c-.14-.69-.42.55-.06-.86-1.21-.45-.18-.22-.68.42Z" transform="translate(-70.87 -48.72)"/><path class="cls-53" d="M81.73,69.67c1,.1.4-.07.39.46.33.23.18.2.32-.25l-.26-.71-.29-.1Z" transform="translate(-70.87 -48.72)"/><path class="cls-120" d="M109.14,71.91h-.62c-.34-.32-.52.51-.12-.72-.6.63-.25-.15-.44.88a1.53,1.53,0,0,0,.74.07C109.41,72,108.72,72.28,109.14,71.91Z" transform="translate(-70.87 -48.72)"/><path class="cls-121" d="M97.52,73.94c-1.22-.17-.4-.37-.85.39C97.29,74.22,96.65,75.43,97.52,73.94Z" transform="translate(-70.87 -48.72)"/><path class="cls-65" d="M94,74.17c-.28.43.2.51-.29.36.71.08.79,0,1.11-.59C94.08,73.9,94.79,73.72,94,74.17Z" transform="translate(-70.87 -48.72)"/><path class="cls-41" d="M87.13,60c-.54-.77-.27-.57-1.18-.66.15.19,0,.16.44.43S86.75,59.87,87.13,60Z" transform="translate(-70.87 -48.72)"/><path class="cls-95" d="M85.09,77.81l.38.14c.74-.3.09-.06.5-.62l-.74.08Z" transform="translate(-70.87 -48.72)"/><path class="cls-71" d="M99.86,62.86V63c-.13.5-.24.38.25.42l.39-.42.08-.13C100.07,62.73,100.28,62.76,99.86,62.86Z" transform="translate(-70.87 -48.72)"/><path class="cls-122" d="M79.55,82.67c1-.13.42.38.87-.6C79.61,82.19,80,81.78,79.55,82.67Z" transform="translate(-70.87 -48.72)"/><path class="cls-104" d="M101.81,67.31c.17-.34.28,0,0-.38l-.64-.19-.47.18Z" transform="translate(-70.87 -48.72)"/><path class="cls-87" d="M106.82,62.84c.05.37-.08.2.36.3l.44-.47C107.39,62.21,107.45,62.39,106.82,62.84Z" transform="translate(-70.87 -48.72)"/><polygon class="cls-99" points="44.27 17.57 44.9 17.5 44.63 16.85 44.38 16.75 44.27 17.57"/><path class="cls-41" d="M101.85,73l1,.25-.36-.58C101.65,72.65,102.31,72.41,101.85,73Z" transform="translate(-70.87 -48.72)"/><path class="cls-123" d="M98,85.3l.31-.56c-.57,0-.66-.09-1,.23Z" transform="translate(-70.87 -48.72)"/><path class="cls-117" d="M107.64,60.65c.15.73-.08.4.33.33.6-1.06.33-.48.15-.81Z" transform="translate(-70.87 -48.72)"/><path class="cls-95" d="M91.08,70.47c-.48,1.37-.22.3.14.82C91.64,70.63,91.61,71,91.08,70.47Z" transform="translate(-70.87 -48.72)"/><path class="cls-107" d="M71.74,79.89,72,79.8c-.06-.53.62-.14-.4-.56C71.29,80.39,71.37,79.63,71.74,79.89Z" transform="translate(-70.87 -48.72)"/><path class="cls-124" d="M80.48,77.92l.25-.51c.14-.84.21.08,0-.47l-.07.11-.46.55Z" transform="translate(-70.87 -48.72)"/><path class="cls-110" d="M86.62,73.82l.87-.26c-.23-.38,0-.24-.57-.48a.6.6,0,0,1-.06.44A2.61,2.61,0,0,1,86.62,73.82Z" transform="translate(-70.87 -48.72)"/><path class="cls-17" d="M87.3,72.34l.29-.24-.68-.22C86.91,72.57,86.21,72.64,87.3,72.34Z" transform="translate(-70.87 -48.72)"/><path class="cls-20" d="M94.9,73.13c0,.06.11.16.16.18a1.83,1.83,0,0,0,.16.13l.58-.09C94.94,72.6,95.37,73,94.9,73.13Z" transform="translate(-70.87 -48.72)"/><path class="cls-123" d="M82.12,70.13c-.14.13-.48-.46-.24.38.15.55,0,.12.39.53Z" transform="translate(-70.87 -48.72)"/><path class="cls-40" d="M96.25,63.34l.16,0c-.09-.74.6-.41-.38-.65C95.74,63.82,95.91,62.87,96.25,63.34Z" transform="translate(-70.87 -48.72)"/><polygon class="cls-40" points="32.15 32.45 32.2 32.3 32.42 31.85 32.08 31.69 31.84 32.49 32.15 32.45"/><path class="cls-28" d="M109.5,61.88c.38-.23.16.55.38-.55l-.61.1Z" transform="translate(-70.87 -48.72)"/><path class="cls-65" d="M98.5,52.26l-.37-.12c-.44.9-.22.27.11.56C98.65,52.48,98.32,52.81,98.5,52.26Z" transform="translate(-70.87 -48.72)"/><path class="cls-125" d="M85.89,57l1,.5A3.69,3.69,0,0,0,86.8,57a5.36,5.36,0,0,0-.24-.52l0,.72Z" transform="translate(-70.87 -48.72)"/><path class="cls-36" d="M109.92,77.8l.85.46-.2-1C110.38,78.14,110.66,78.07,109.92,77.8Z" transform="translate(-70.87 -48.72)"/><path class="cls-104" d="M97.56,58.06c-.1-1-.38-.1-.53.14Z" transform="translate(-70.87 -48.72)"/><path class="cls-126" d="M90.73,73.27l.77.19c-.31-.31-.14-.16-.25-1l0,.64Z" transform="translate(-70.87 -48.72)"/><polygon class="cls-28" points="18.99 16.78 18.52 16.84 18.51 17.27 18.99 16.78"/><polygon class="cls-100" points="31.1 29.36 31.68 29.19 31.2 29.02 31.1 29.36"/><path class="cls-43" d="M91.08,70.47c.55-.81.15-.16,0-.37C90.7,70.54,90.77,70.22,91.08,70.47Z" transform="translate(-70.87 -48.72)"/><polygon class="cls-40" points="23.55 6.81 23.08 6.68 23.15 7.06 23.55 6.81"/></svg>