<svg id="Layer_1" data-name="Layer 1" xmlns="http://www.w3.org/2000/svg" viewBox="0 0 63.4 40.9"><defs><style>.cls-1{fill:#5b5b5b;}.cls-1,.cls-10,.cls-100,.cls-101,.cls-102,.cls-103,.cls-104,.cls-105,.cls-106,.cls-107,.cls-108,.cls-109,.cls-11,.cls-110,.cls-111,.cls-112,.cls-113,.cls-114,.cls-115,.cls-116,.cls-117,.cls-118,.cls-119,.cls-12,.cls-120,.cls-121,.cls-122,.cls-123,.cls-124,.cls-125,.cls-13,.cls-14,.cls-15,.cls-16,.cls-17,.cls-18,.cls-19,.cls-2,.cls-20,.cls-21,.cls-22,.cls-23,.cls-24,.cls-25,.cls-26,.cls-27,.cls-28,.cls-29,.cls-3,.cls-30,.cls-31,.cls-32,.cls-33,.cls-34,.cls-35,.cls-36,.cls-37,.cls-38,.cls-39,.cls-4,.cls-40,.cls-41,.cls-42,.cls-43,.cls-44,.cls-45,.cls-46,.cls-47,.cls-48,.cls-49,.cls-5,.cls-50,.cls-51,.cls-52,.cls-53,.cls-54,.cls-55,.cls-56,.cls-57,.cls-58,.cls-59,.cls-6,.cls-60,.cls-61,.cls-62,.cls-63,.cls-64,.cls-65,.cls-66,.cls-67,.cls-68,.cls-69,.cls-7,.cls-70,.cls-71,.cls-72,.cls-73,.cls-74,.cls-75,.cls-76,.cls-77,.cls-78,.cls-79,.cls-8,.cls-80,.cls-81,.cls-82,.cls-83,.cls-84,.cls-85,.cls-86,.cls-87,.cls-88,.cls-89,.cls-9,.cls-90,.cls-91,.cls-92,.cls-93,.cls-94,.cls-95,.cls-96,.cls-97,.cls-98,.cls-99{fill-rule:evenodd;}.cls-2{fill:#9b9c9c;}.cls-3{fill:#b78878;}.cls-4{fill:#d6d5d6;}.cls-5{fill:#e8e7e7;}.cls-6{fill:#a67c73;}.cls-7{fill:#686866;}.cls-8{fill:#818181;}.cls-9{fill:#c8927d;}.cls-10{fill:#b1b1b0;}.cls-11{fill:#685449;}.cls-12{fill:#563c33;}.cls-13{fill:#989797;}.cls-14{fill:#d9d9d9;}.cls-15{fill:#a7a8a8;}.cls-16{fill:#6c6c6c;}.cls-17{fill:#796459;}.cls-18{fill:#b57b68;}.cls-19{fill:#bbbbbc;}.cls-20{fill:#f9f9f9;}.cls-21{fill:#adadad;}.cls-22{fill:#7c7b7c;}.cls-23{fill:#987667;}.cls-24{fill:#966c63;}.cls-25{fill:#dedee0;}.cls-26{fill:#877a76;}.cls-27{fill:#bdbebd;}.cls-28{fill:#787676;}.cls-29{fill:#e4e2e2;}.cls-30{fill:#a98676;}.cls-31{fill:#ecebec;}.cls-32{fill:#888887;}.cls-33{fill:#e7aa97;}.cls-34{fill:#a6a6a6;}.cls-35{fill:#cdcdcd;}.cls-36{fill:#d9a28d;}.cls-37{fill:#876b64;}.cls-38{fill:#aa826c;}.cls-39{fill:#4b4b4b;}.cls-40{fill:#e9e9e9;}.cls-41{fill:#a3a3a4;}.cls-42{fill:#d1d0d0;}.cls-43{fill:#f4f4f4;}.cls-44{fill:#ddd;}.cls-45{fill:#c7c8c8;}.cls-46{fill:#d8d8d7;}.cls-47{fill:#d8a696;}.cls-48{fill:#929292;}.cls-49{fill:#abacac;}.cls-50{fill:#d3d3d3;}.cls-51{fill:#72716e;}.cls-52{fill:#594339;}.cls-53{fill:#b4b4b4;}.cls-54{fill:#747474;}.cls-55{fill:#aaa9a9;}.cls-56{fill:#987b74;}.cls-57{fill:#a2a2a2;}.cls-58{fill:#a77967;}.cls-59{fill:#b99587;}.cls-60{fill:#8e8e8e;}.cls-61{fill:#c5c5c5;}.cls-62{fill:#494646;}.cls-63{fill:#d69a88;}.cls-64{fill:#d2d2d2;}.cls-65{fill:#b8b8b7;}.cls-66{fill:#886758;}.cls-67{fill:#636363;}.cls-68{fill:#9e9e9e;}.cls-69{fill:#cccccb;}.cls-70{fill:#5f5f61;}.cls-71{fill:#7e7e7e;}.cls-72{fill:#c0c2c0;}.cls-73{fill:#c89787;}.cls-74{fill:#959595;}.cls-75{fill:#c3c4c3;}.cls-76{fill:#584a45;}.cls-77{fill:#775848;}.cls-78{fill:#858283;}.cls-79{fill:#e1e1e1;}.cls-80{fill:#4a332a;}.cls-81{fill:#766866;}.cls-82{fill:#674c44;}.cls-83{fill:#eee;}.cls-84{fill:#c58b79;}.cls-85{fill:#949393;}.cls-86{fill:#b78c84;}.cls-87{fill:#f6f6f6;}.cls-88{fill:#855a49;}.cls-89{fill:#0c0d0c;}.cls-90{fill:#7a7a7a;}.cls-91{fill:#b59b94;}.cls-92{fill:#b9b9b9;}.cls-93{fill:#9a725c;}.cls-94{fill:#545454;}.cls-95{fill:#434343;}.cls-96{fill:#919190;}.cls-97{fill:#685955;}.cls-98{fill:#595956;}.cls-99{fill:#9f9fa0;}.cls-100{fill:#40403d;}.cls-101{fill:#6e6154;}.cls-102{fill:#775c54;}.cls-103{fill:#f1f1f1;}.cls-104{fill:#c9958b;}.cls-105{fill:#bfbfc0;}.cls-106{fill:#473b36;}.cls-107{fill:#bcc2c4;}.cls-108{fill:#895c51;}.cls-109{fill:#373638;}.cls-110{fill:#2e3031;}.cls-111{fill:#8b8b8b;}.cls-112{fill:#231b15;}.cls-113{fill:#e4dbd8;}.cls-114{fill:#291c17;}.cls-115{fill:#c6bbb8;}.cls-116{fill:#3b3b3c;}.cls-117{fill:#343434;}.cls-118{fill:#252829;}.cls-119{fill:#b5aba8;}.cls-120{fill:#1c1c1c;}.cls-121{fill:#674839;}.cls-122{fill:#c9a796;}.cls-123{fill:#33231c;}.cls-124{fill:#e6e2dd;}.cls-125{fill:#c9c9c9;}</style></defs><path d="M608.1,518.2l-.2.3h-2.4a8,8,0,0,0-.8-1.6l-.8-1.4a1.4,1.4,0,0,0-.7.3,6.6,6.6,0,0,0,.1,1.3v1.4c0,.1,0,.2-.2.2H601c-.1,0-.1-.1-.1-.2v-1.9a15.8,15.8,0,0,0,.1-1.9,17.9,17.9,0,0,0-.1-2.1v-2h2.4v1.3a7.2,7.2,0,0,0-.1,1.3c0,.3.1.5.3.5a1.4,1.4,0,0,0,1.1-.4,2.9,2.9,0,0,0,.6-1c.1-.4.3-.9.6-1.7H608c0,.1-.1.5-.2,1a5,5,0,0,1-1.7,2.7l-.2.2,1.1,1.8A6.8,6.8,0,0,1,608.1,518.2Z" transform="translate(-595.9 -490.3)"/><path d="M616.9,514.4a4.5,4.5,0,0,1-1.2,3.1,4.1,4.1,0,0,1-3,1.2,3.8,3.8,0,0,1-3-1.3,4.1,4.1,0,0,1-1.2-3,4.3,4.3,0,0,1,1.2-3.1,4.1,4.1,0,0,1,6,0A4.5,4.5,0,0,1,616.9,514.4Zm-2.2,0a2,2,0,0,0-.6-1.5,1.7,1.7,0,0,0-1.4-.7,2.1,2.1,0,0,0-1.4.7,2.5,2.5,0,0,0,0,3,1.7,1.7,0,0,0,1.4.6,1.6,1.6,0,0,0,1.4-.7A2,2,0,0,0,614.7,514.4Z" transform="translate(-595.9 -490.3)"/><path d="M625.6,510.4v2.1a15.6,15.6,0,0,0-.1,2v3.8a.2.2,0,0,1-.2.2h-1.7l-.3-.2-1.9-2.5-1.2-1.7h-.1a.1.1,0,0,0-.1.1c0,.5.1,1.1.1,2v2.1c0,.1,0,.2-.1.2h-2.1c-.1,0-.1-.1-.1-.2v-1.9a15.8,15.8,0,0,0,.1-1.9,16.4,16.4,0,0,0-.1-2v-2a.2.2,0,0,1,.2-.2h1.8l.2.2,2.2,3,.9,1.2.2.2c.1,0,.1-.1.1-.4a14.2,14.2,0,0,0-.1-1.9v-1.9c0-.1,0-.2.1-.2h2.2Z" transform="translate(-595.9 -490.3)"/><path d="M632.4,512.1a.1.1,0,0,1-.1.1h-1.8v4.1a19.7,19.7,0,0,1,.1,2.1c0,.1,0,.1-.1.2h-2.2a.2.2,0,0,1-.2-.2,18.7,18.7,0,0,1,.1-2.1v-4.1h-2a1.3,1.3,0,0,1,.1-.5,1.1,1.1,0,0,0,.1-.5v-.5c.1-.3.1-.5.2-.5h.1l2.8.2h2.8a.1.1,0,0,0,.1.1,4.3,4.3,0,0,0-.1.5v.4a.8.8,0,0,0,.1.4Z" transform="translate(-595.9 -490.3)"/><path d="M640.8,518.3a.2.2,0,0,1-.2.2h-2.2c-.1,0-.2-.1-.2-.3a2.2,2.2,0,0,0-.3-.9h-2.6a1.5,1.5,0,0,0-.3.7c0,.3-.1.5-.2.5h-1.4c-.6,0-.9,0-.9-.1s.5-1.4,1.4-3.8l1.5-4.3c.1-.1.1-.2.2-.2h1.9c.1,0,.1.1.2.2s.7,1.9,1.7,4.3Zm-4.2-5.3-.4,1.1a6.2,6.2,0,0,0-.3,1.1h1.3c.1,0,.1,0,.1-.1a6.5,6.5,0,0,0-.3-1Z" transform="translate(-595.9 -490.3)"/><path d="M648.6,518.2l-.2.3H646a8,8,0,0,0-.8-1.6c-.5-.9-.8-1.3-.8-1.4a1.4,1.4,0,0,0-.7.3,6.6,6.6,0,0,0,.1,1.3v1.4a.2.2,0,0,1-.2.2h-2.1c-.1,0-.1-.1-.1-.2v-1.9a15.8,15.8,0,0,0,.1-1.9,17.9,17.9,0,0,0-.1-2.1v-2h2.4a7.2,7.2,0,0,1-.1,1.3V513c0,.3.1.5.3.5a1.5,1.5,0,0,0,1.1-.4,3,3,0,0,0,.5-1l.7-1.7h2.2c0,.1-.1.5-.2,1a5,5,0,0,1-1.7,2.7l-.2.2,1.1,1.8A6.8,6.8,0,0,1,648.6,518.2Z" transform="translate(-595.9 -490.3)"/><path class="cls-1" d="M643.3,508.2c.4-.5-.2-.5.7-.2-.9.9-.3.2-.7.2Zm1.9,7h0c.2-.9.4-.9.5-.9l-.5,1Zm.6-1.2v-.6h.3l-.3.7Zm-4.8-2.6h.2l.4-.8h.1l.3.3.6-2h.3l.2-.5c.7.4.7.4,1,1.1s0,0-.5.3l.9,1V510l1.1.3,1.1.6-.2.6.3.2h-.4l.5.4v-.3a4.1,4.1,0,0,1,.1-1c-1.4-1-1.8-.4-2.8-2l1.3.3c-.6-1.2.9,1-.4-.5l-.2-.3c.6-.2.4-.2,1-.1l.7.4c.6-.5-.3.6.1-.3s-.1,0,.2-.2v-.3c-.4.3-.1.2-.6.1l-.8.2c-.2.4,0,.3-.5.1s0-.3-.4-.3l-1-.2v-.4l.5-1.7h.1s.1.1.2-.2l.2-.2-.5-.2-.7,1v.8l-.6-.5-.4.3-1.1.7v.2c.7-.2.2-.2.6,0s.2.1.1.4.1.2-.3.4l-.9.5-.3.2c0,.3-.4.2.2.2h0c.8-.5.5-.6,1.5-.7s0,.5-.5.9v.2a.6.6,0,0,0-.1.4,1.5,1.5,0,0,0-.2.4l-.5.8Zm1.3-4.4c.3,0,.1-.3.6.3h-.5a.1.1,0,0,0-.1-.1Z" transform="translate(-595.9 -490.3)"/><path class="cls-2" d="M640.1,504.5c.3.5.3.2-.1.6s-.5.3.1-.6Zm-2.6,5.2h.2c.7-1.3,1.2-2.4,1.6-3s.6,0,.9.9l-.7.5h1c.4,0,1.3-.1,1.3.3s.2,0,.3-.4,0-.3-.1-.4-.4.4-.8.2,0,0,.2-.2v-.2h-.7a11,11,0,0,1,1.4-2.1,7.6,7.6,0,0,1,1.7-1.5c-.3-.8.1-.1-.1-.9s-.3.2-.1-.8l-.7-.4h.1c-.6.1-.4.2-.9.2s-.2-.1-.7.2l-1,.3a2.5,2.5,0,0,1,2.6.2l-.3.2c-.1.1-.2.2-.2.1h-.1c.9,0,.3-.2,1.3-.1l-.6.9c-.4.5-.7,1-1.2,1h0l-1.4,2.4a4.3,4.3,0,0,1-.1-2.5,6.3,6.3,0,0,1,1.9-1.7c-.5-.1-.4-.2-1,.2l-.7.5-1.6-.8c-.4.2-.2,0-.4.4h.3v.3l.5-.2,1.1.6h-.7l-1-.3v.4c-.8-.3-.8-.2-1.4.1v.2h1.1l.2.2,1.2.3v.9h.1c0,.6-.1.5,0,.7l-.5-.2-.3-.2c.1.7-.3,1-.8,1.5a2.6,2.6,0,0,1-1.1.7l.5.3h.4l-.5,1.1Zm2.6-5.2c.5-.5.1-.1,0-.3S639.9,504.3,640.1,504.5Z" transform="translate(-595.9 -490.3)"/><path class="cls-3" d="M629.9,510.9c.5-.5.1-.3.7-.2s0,.3-.7.2Zm.2,1.1.2-.5h.6l1.2-1.6h-.3l.4-1.1c.2-.4,0-.1.2-.2s0,.5-.4,1.1.1-.9.8-.8v-.2l-1.2-.6a1.9,1.9,0,0,1-1.1,2.1l1.1-2.2h-.3l-.2-.3.4-.3c.4-1,.1-.6.3-1.5l-.7-.4a12.1,12.1,0,0,1-.5,1.4c-.3.9-.4.4-.8,1v.6c.5-.5.3-.7.9-.3l-.7,1.5-.6-.7c0,.8.1.1.2.7v.2c-.1.3.2,0-.2.2l.4,1a1.7,1.7,0,0,1,0,1Z" transform="translate(-595.9 -490.3)"/><path class="cls-4" d="M646.8,497h-.4c.2-.1.5-.7.4,0Zm2.5-1.1h-1.4l-1.1.3.3-.7c-.4-.3-.2.1-.3-.3s-.1-.3-.3-.3-.5-.3.1.9h-.3c-.7-.1.4-.1-.2-.1v.5l-.4-.2-.5-.4c0,.1.1.1,0,.1v.4c-.4-.3-.1,0-.4-.4l-.3-.3v.9c1.8.4.8.5,1.9.3a2.6,2.6,0,0,1-.2,1.5l-.5-.2.5.5c.3-.4.3-.3,1-.5l.2-.6c-.1-.3,0-.1,0-.4h.5c.2-.2,0-.2.5-.2h0c0,.3.6-.1,1.3,0s-.5-.2-.9.6v.8c.2-.6.3-.4,1-.3l.2-.4.4.4.2-.8.3.2c.2-.6.1-.2,0-.8s-.1-.1,0-.5.4-.3-.9,1.1c-.3-.4,0-.6-.8-.7Z" transform="translate(-595.9 -490.3)"/><path class="cls-5" d="M644.9,503.9a2.4,2.4,0,0,1-.2,1.4l-.2.2c.4.4.4.3.5,1h.1c1.8,1.5,1.7.6,3.2,1.6l.2-.5h-.3c-.3-.5-.2-.3-.3-.7a3,3,0,0,0-.4-.8l-.5-.5-.2,1.2c-.2,0,.3.4-.1-.3h-.1c0-.1,0-.2-.1-.2v1a2.9,2.9,0,0,1,0-1.6l-.4.3.5-.6h.6a9.2,9.2,0,0,0-1.4-1.4l-.5-.2-.2-.2Z" transform="translate(-595.9 -490.3)"/><path class="cls-6" d="M642,495.6l.4.3.8,1.1-.8,1.9a5.4,5.4,0,0,1-1-2c-.4-.5-.5-.4-.4-.9v-.4c.1-.4.1-.5.2-1l.7,1Zm-2.3-2.5-.3.8a4.3,4.3,0,0,1,.1.5v.3c.3.4.2.3,0,.9h.2v-.7c1,.6.7,1.1,1.1,2.2s.1.3.5.8l.6,1.4.3.5v-.5c.5-.4-.1,0,.6-.1s.2-1.3.5-2,.1-.2.5-.2h.3l-2.3-2.3v-.5l-.8-.2h-.4c.5.3.7.3.6.9v.5c-.2.4-.1.2-.4.3l-.4-2.3c.2.3.3.3.6.3s-.4-.1-.2-.4h-.2Z" transform="translate(-595.9 -490.3)"/><path class="cls-7" d="M632.6,507.8c.3.3.1.1.1.2l.3.3c.7.3,1,.6,1.6.2a2.9,2.9,0,0,0-1.6-.4,10.2,10.2,0,0,0,3.8-1l.7-.3c.7-.2.4-.3.8,0s0,.2-.2.3-.4-.3-.9.8-.3-.2-1.2.4c.8,0,.2,0,.3.2s-.6.4-.2.9.9-.1,1.5-.7l-.5-.3a2.6,2.6,0,0,0,1.1-.7c.5-.5.9-.8.8-1.5h-.2c-.7,0-.5.2-1.5.6S633.2,507.5,632.6,507.8Z" transform="translate(-595.9 -490.3)"/><path class="cls-8" d="M645.1,500.5c.2,0,0,.2.7-.2s.5-.3-.1.6l.4.2c-.4.3-.3.1-.3.7s.4.8-.8-.3c.1.9,0,1-.7,1.1s-.2-.1.2-1.2l.5-1c-.2-.3-.5.3-.1-.4s.2,0,.2.5Zm.5-.8-.2.4c-.7-.5-.7-.4-1.1.2a2.3,2.3,0,0,0-.5,1l-.7.4H643l.7.4c0-.8,0-.2.1-.3s-.1.4.5.9.5.4.5.3l.2.7.2.2v-.7c.4.3.6.8,1.1,0v-.2c-1.2-.6,0,.6-1.2-.3.4.1.5.6,1-.9s-.5-.3,0-1.5h-.4v-1c-.2-.7,0-.4-.3-.2Z" transform="translate(-595.9 -490.3)"/><path class="cls-9" d="M653.2,505.1l.5,1.1c.4-.4,0-.4.6-.2s.7.6,1.5.9l.2.3c.3-.2.3-.2.6-.7l-1.3-.9a9.4,9.4,0,0,0-1.5-.6l2.2.6c-.5-.6,0-.4-.8-1h.4a1.4,1.4,0,0,0-1.4-.1c-.6.2-.6.2-.6.7Z" transform="translate(-595.9 -490.3)"/><path class="cls-8" d="M634.1,499.4c.3.2.2.2.2.3l.3.3c.6.7.6-.1.1.8s-.2-.3-.3-.5h-.1v.4c.5.2.4.3.8.1l-.4.6h-1c.4.3.2.1.1.4h.2c.4-.3.6-.3,1.2-.2l-.3.8h.1c.5.2.5-.3.3.3l.8-1.9-.6.4c-.1-.4-.6.2.2-.9h1l.2-.3-1.3-.4v-.4l-1.1-.6c.4.6.2.3.8.7s-.7.1-1-.4S634.4,498.7,634.1,499.4Z" transform="translate(-595.9 -490.3)"/><path class="cls-3" d="M631.4,500.6h-.2l.7.8c.8.5.2.1.4-.1l.2-.5h.1a7.1,7.1,0,0,1,.1-2.5c.5.9.1-.1.2,1.7.6.1.2-.2.4.1l-.3.7v.3l.6-1.3.4-.7c-.9-.4.1-.1-1.4-1.5-.2.5-.3,1.3-.5,1.7S631.3,500.1,631.4,500.6Z" transform="translate(-595.9 -490.3)"/><path class="cls-10" d="M648.5,493.1c-.2.4.1.2-.3.3s-.4.1.1-.4l-1-.2h-.2c.9,1,.7.9,1.5,1.2s.1,1.1-.1,1.4-.2-1.1-1.6-1.4v.2c.7.3.4-.1.5.6s.4.6-.6-.2v.2h0v.4c.1.4-.1,0,.3.3s.3-.3.4-1,.6.7.4,1.4h1.4l1-.5c-.6-.2-.8.1-1.4.4a1.5,1.5,0,0,1,.7-1.5l-.7-.3c0-.1.5-.2.5-.3s.1,0,.1-.5H649v-.4Z" transform="translate(-595.9 -490.3)"/><path class="cls-11" d="M632.1,497.5l-.3,1.4c-.7.4-.4.1-.6.8s0,.1-.3.5a.8.8,0,0,0,.1.8c.3.5.4-.2.2.6s-.4.2-.8-.3l.2.6.2.2v-.3c.4-.3,0,0,.6,0h-.1c0-.7-.1-.7.1-1.2s.4-.8.7-1.4.3-1.2.5-1.7c1.5,1.4.5,1.1,1.4,1.5l-.4.7.5-.3c.3-.7-.3-.4.3-.4s.2.3,1,.4-.4-.1-.8-.7l-.6-.2-.3-.3.3-.4h0l-.3-.2c-1-.1-.5-.6-1.1-1.1S632.7,496.6,632.1,497.5Z" transform="translate(-595.9 -490.3)"/><path class="cls-4" d="M646.4,504c-.6-.1-.3-.1-.7,0a9.2,9.2,0,0,1,1.4,1.4h-.6l-.5.6.4-.3a2.9,2.9,0,0,0,0,1.6v-1c.1,0,.1.1.1.2h.1c.4.7-.1.3.1.3l.2-1.2.5.5c.3.4.2-.1.3.5s.2.7.5-.4a2.4,2.4,0,0,0-.2-.8h.1c-.3-.3-.2-.2-.2-.5h-.1l-1.1-1.1C646.4,503.7,646.7,502.9,646.4,504Z" transform="translate(-595.9 -490.3)"/><path class="cls-12" d="M653,502l-.4.2-.7.5a4.1,4.1,0,0,0-1.1.6c-.4.3-.4.4-.9.5l-.6-.6c-.3.5-.2.3-.2.6h.3v.5l-.5.3-.8.5h-.1c.5.3.4.3.9.1s0-.5.9-.2l.2-.4-.5-.3h-.1c.5-.4-.1-.5,1,0s.1-.4.5-.5.8-.7,1.4-1l1-1Z" transform="translate(-595.9 -490.3)"/><path class="cls-13" d="M638,505.3l-1.3,1.4a8.5,8.5,0,0,0-2.3.3,3.7,3.7,0,0,1-2.3.2c-.7.7-.3.2-.1.5h.6c.6-.3,2.2,0,4.7-1.1s.8-.6,1.5-.6v-.7h-.3C638.1,505.2,638.2,505.2,638,505.3Z" transform="translate(-595.9 -490.3)"/><path class="cls-14" d="M645.9,499.2v1l.6-.4.6-.4s.1,0,0,.1l.2.7-.2.3h-.1l.2.5.4-.2v-.2c.7-.9.5-.9.7-2v-.2c-.6.2-.3.3-1,.9-.3-1.5,1.1-.6.5-1.5h-.1c-.3.4,0,.1-.4.3l-.5.2C646.2,498.6,646.2,498.5,645.9,499.2Z" transform="translate(-595.9 -490.3)"/><path class="cls-15" d="M638.5,495.8c.6.2.5,0,.7.7l-.5-.3-.2-.4Zm-1.5-2.3.7.4c.9-.7.6.1.7.2s-.3-.2-.9-.1.2.1.2.3,1,1,1.1,1.6l-1.2-.6a3.3,3.3,0,0,0,1.9,1.6c0-.7.1-.6-.1-1.1s-.5-.5-.7-.9v-.2c-.3-.6-.2,0-.2-.7l.6.8c.3.3.2.4.5.8s.3-.5,0-.9l-.6-.5a7.8,7.8,0,0,0-2-1.6Z" transform="translate(-595.9 -490.3)"/><path class="cls-16" d="M645.2,503.8l.5.2c.4-.1.1-.1.7,0s-.4.3-.1-.5h.9l-.5-.4c.6-.2.4-.6.9-1.2l-.3-.2h-.2c-.4-.4-.5-.3-.2-1h.1l-.8-.3c-.5,1.2.4.1,0,1.5s-.6,1-1,.9c1.2.9,0-.3,1.2.3v.2c-.5.8-.7.3-1.1,0Z" transform="translate(-595.9 -490.3)"/><path class="cls-17" d="M631.3,505.1l-.2.2-.6.8-1,1.9c-.4.8-.8,1.3,0,1.9s.1.1.2-.2v-.2c-.1-.6-.2.1-.2-.7l.4-.5v-.6c.4-.6.5-.1.8-1a12.1,12.1,0,0,0,.5-1.4l.7.4a1.7,1.7,0,0,0,.6.8l.2-.2c.9-.7.2-.6,1-.9s-.3-.1.3-.3,0,.3.6-.2c-1.2.1-1.4-.1-2.2.9C631.7,505.1,632.2,505.2,631.3,505.1Z" transform="translate(-595.9 -490.3)"/><path class="cls-4" d="M643.9,503.7a7.6,7.6,0,0,0-1.7,1.5,11,11,0,0,0-1.4,2.1h.7l1.1-.7c-.4-.4-.2-.1-.2-.7l.2-.6.4-.7.2.5v.5c.9-.5.6-.8.5-1.8.5.9.1.4.5,1v-.7c0-.6-.8.1.2-.6Z" transform="translate(-595.9 -490.3)"/><path class="cls-18" d="M627.6,500.8c-.6.1-.1-.1-.6.3l-.5.2,1.3.7c1.4.4,2,1.2,3.4,1.7s.1-.3-.1-.6-.1.2-.3-.2-.2-.2-.2-.5-1.1-1-1.6-1,.4,0,.6.9A5.3,5.3,0,0,1,627.6,500.8Z" transform="translate(-595.9 -490.3)"/><path class="cls-19" d="M641.6,493.1h.7c-.3,1-.5.4-.4,1.5-.8-1-.2-.1-.3-1a2.5,2.5,0,0,0-.4-.7l1.4-1.7c.2-.5.2-.4.7-.4l-.9,1.4c-.5,1-.5.1-.8,1Zm-.8.4c-.2.3-.2.2.2.4v.2l.8.2v.5c1-2.1.4-1,.7-2.2s.1-.7.2-.9.6-.2.6-1.2-1.1.4-1.6,1-1.3.8-.7,1.8S641.1,493.4,640.8,493.5Z" transform="translate(-595.9 -490.3)"/><path class="cls-20" d="M646.5,491.6l.3.3c.3.4.2.3-.1.9l-.3.4.4.7h.1c1.4.3.9.6,1.6,1.4s.6-1.2.1-1.4-.6-.2-1.5-1.2-.1-.5.3-.9l.8-.8C647.3,490.8,647.2,491.1,646.5,491.6Z" transform="translate(-595.9 -490.3)"/><path class="cls-21" d="M647,510.8l.9.4-.7,1.2c.4.1.2.4.6-.4s.2-.7.3-1.1a4.5,4.5,0,0,1-2.4-1.5c.5-.2.2-.2.9,0s.4,0-.3-.5l-.9-.3c.4-.3.2-.4.5-.4s-.4-.1-1,.1l.2.3c1.3,1.5-.2-.7.4.5l-1.3-.3C645.2,510.4,645.6,509.8,647,510.8Z" transform="translate(-595.9 -490.3)"/><path class="cls-22" d="M636.9,505.4h-.3c-.1.2-.1.1.1.3s.2.1.3.4h-.6l-3.3.6a3.3,3.3,0,0,1-1,.6,3.7,3.7,0,0,0,2.3-.2,8.5,8.5,0,0,1,2.3-.3l1.3-1.4h-.3C637.4,505.5,637.3,505.6,636.9,505.4Z" transform="translate(-595.9 -490.3)"/><path class="cls-3" d="M656.3,504.4v.4c.8.1.6,0,1.1.5s.2-.2.6-.3a3.2,3.2,0,0,0,.4-2.7h-.3c-.8,1.2-1,.9-1.3,2.5Z" transform="translate(-595.9 -490.3)"/><path class="cls-23" d="M629.5,505.8h.5l-.5.7-1.4.7c-.4.3-.3.2-.7.2h-.9c-.5,0-1.2.1-1.2-.4s-.2-.4-.4.2.3.1.2.5,1.6.7,2.9,0l1.2-.6c.6-.2.6-.6,1.3-.9v-.9c.1,0,.1-.1,0-.1Z" transform="translate(-595.9 -490.3)"/><path class="cls-24" d="M652.9,504.5c.1.4,0,.2.1.6h.6c0-.5,0-.5.6-.7a1.4,1.4,0,0,1,1.4.1,1.4,1.4,0,0,1,1.4.9h-1l-2.2-.6a9.4,9.4,0,0,1,1.5.6l1.3.9V506l.7-.2.2-.5c-.5-.5-.3-.4-1.1-.5v-.4a2.8,2.8,0,0,0-1.7-.5C653.3,503.9,653.7,504.4,652.9,504.5Z" transform="translate(-595.9 -490.3)"/><path class="cls-25" d="M640.5,502.4a1.1,1.1,0,0,1-.7.3l-.7.2,1.6.8.7-.5c.6-.4.5-.3,1-.2h.2c0,.1.1,0,.2-.1l.3-.2A2.5,2.5,0,0,0,640.5,502.4Z" transform="translate(-595.9 -490.3)"/><path class="cls-26" d="M652,501.2c-1.2.6-.2.4-.8.8s-.3-.1-.4-.5h-1.4l.6.2.5.3-.6.6c-.4.9-.2.2,0,.6s1.2-1.3,2.3-1l-.3.6.7-.5c-.3-.1-.2,0-.2-.2s-.3.1-.2-.5a.6.6,0,0,0,.7-.1c.5.6,0,.2.8.7l.2-.5h-.5v-.3l-.6-.5Z" transform="translate(-595.9 -490.3)"/><path class="cls-27" d="M648.1,512.4H648c-.3-.4-.1-.5.1-.9s.5.3.5.6-.2.3,0,.9l-.5-.6Zm0-1.5c-.1.4,0,.7-.3,1.1s-.2.5-.6.4-.1.1-.2.9h-.4v.3l.2.2.2-.3.3.3c-.1-.8.4-.3.3-1.2l.7.4c0,.6-.2.5,0,.9l.2-.4.5.3.3-.4c-.8-.7.2.2-.4-1.6-.1-.2-.1-.5-.2-.6l.5-.3-.5-.2C648.1,510.8,648.3,510.6,648.1,510.9Z" transform="translate(-595.9 -490.3)"/><path class="cls-28" d="M658,505.4v.5h-.4v.3l-.4.4.3.3.4.6h-1.1l-.6.9c.8-.2.3-.5,1.1.1l.2-.7c.8.3.1.3.7.1l.4-.4-.4-.2c.6-1,.3-.4-.1-1s.5.1,1.1-.1l-.7-.4h-.1v-.6Z" transform="translate(-595.9 -490.3)"/><path class="cls-29" d="M647.1,503.2l1,.2,1.2-.2.6-.7.3-.5c-1.4,0-2-.2-2.6.5Z" transform="translate(-595.9 -490.3)"/><path class="cls-30" d="M639.5,496.9a6.7,6.7,0,0,1,.1,2l.2.8.4.6,1.3.7c0-1.1.3,0-1-1.2h.5c.7.1,0,.2.6.1l-1.2-.7-.2-.5,1.2.3c-.3-.1-1.4-.5-1.4-.9s.3-.3-.1-1Z" transform="translate(-595.9 -490.3)"/><path class="cls-12" d="M632.6,500.7h-.1a4.1,4.1,0,0,1-.4,1.9l-.3.4c0-.1,0,0-.1.1l-.6-.5.3-.9c-.6,0-.2-.3-.6,0v.5l.3.4c.1.4,0,.1-.1.4s.3-.1.1.6h.1c.4.1.4,0,.2.4s-.1-.4.5-.3l.6.6c.7-.2.8-.7,1.4-.8h.2c.2-.3.2,0,0-.4l-.6.3c-.5.3-.1.4-.7.3s-.6-.1-.7-.5.2-1.5.8-1.6-.1-.3-.1-.4v-.5c-.2-.2-.3.2-.2-.3h-.1Z" transform="translate(-595.9 -490.3)"/><path class="cls-31" d="M642.9,499.2l.6,1.5c.1.1.7.3.5-.4s-.3-.4-.7-.6.6.4,1.1.2v-1c-.5-.1-1-.1-1.1-.8v-.6l.3.2-.2-.5C643.1,497.9,642.6,498.5,642.9,499.2Z" transform="translate(-595.9 -490.3)"/><path class="cls-32" d="M642.6,509c.2.6-.1.9,0,2.3,0-.1,0-.1.1-.1h0a.1.1,0,0,0,.1-.1l.3-.3c.4.8.3.9.1,1.9l-1-.9c0,.6,0,.5.4.8l1.6.7-.3-.7c.4-.8-.2,0,.4-.2s-.6-.9-1-2.2l-.4-1.2Z" transform="translate(-595.9 -490.3)"/><path class="cls-33" d="M627.5,505.7c-.8.5-1.3-.2-2.2,1.2s.7.4,1.2.4v-.4c.7,0,.9-.1,1.3-.8h.4l.3-.5Z" transform="translate(-595.9 -490.3)"/><path class="cls-34" d="M636.8,499.7c.5.2.4,0,.2.4s.4-.2,1.3-.2c-.7.7.2-.1-.5.3s.2-.4-.1.2.3.2-.8.4-.5.1-.1-.4h-.5v.4l.6-.2c0,.3.5-.1-.3.5s-.3.6-1.1,1.6-.1.2,0,.4l.6-.2a3,3,0,0,1,1.9-2.2c.5-.2,0-.3.7,0v-.3c.2-.6.1-.2-.1-.5l-.2-.5H638c-.3,0-.1,0-.3.1Z" transform="translate(-595.9 -490.3)"/><path class="cls-35" d="M647.8,508.5l-.7-.4h-.2c-.3.2-.1,0-.2.2s.5-.2-.1.3l-.7-.4c-.3,0-.1.1-.5.4l.9.3c.7.5.4.2.3.5s1.2.1,1.8.8-.3-.8-.8-1.2h.7l-.2-.8C647.9,508.9,648.1,508.5,647.8,508.5Z" transform="translate(-595.9 -490.3)"/><path class="cls-36" d="M627.8,502h-.9c-.7-.1,0,0-.4.1l1.1.6c.7,0,1,.3,1.6.3v.4l.9.4h-.3c-.1.4-.4.1.2.4h.9l.3-.5h-.1C629.8,503.2,629.2,502.4,627.8,502Z" transform="translate(-595.9 -490.3)"/><path class="cls-37" d="M652.1,508.1h.4v.7l.4.2v-.4c-.5-.3-.2-.1-.1-.3,2-.8,1.5-.1,2.4-.8h.3l.4-.6c-.8-.3-1.2-.2-1.5-.9s-.2-.2-.6.2l1.1.8C653.5,507.6,653.6,506.8,652.1,508.1Z" transform="translate(-595.9 -490.3)"/><path class="cls-38" d="M628.1,504.5l-.8.7.2.5,1.1-.2-.3.5-.4.5c-.2.6-.3.1.1.4s.3-.1.7-.5l-.2-.5s1.3-.8.7-1.9Z" transform="translate(-595.9 -490.3)"/><path class="cls-39" d="M637.5,497.8c-.8-.4-2.1-.2-2.1-.9h-.9c.1.4.1-.2,0,.2v.2l-.4.5h1a3.3,3.3,0,0,1,3.4.8l.2.3c.4-.4-.3-.7.5-.2s-.1.1-.1.6l.2-.3.2-.6Z" transform="translate(-595.9 -490.3)"/><path class="cls-35" d="M640.4,501l-.2.4h-.6c.1.7-.1.4-.5,1.2v.2h.1l.7-.2a1.1,1.1,0,0,0,.7-.3l1-.3-1.1-.5,1.1-.6-1.3-.7h0C640.5,500.8,640.4,500.6,640.4,501Z" transform="translate(-595.9 -490.3)"/><path class="cls-40" d="M642.1,500.7H642l-.5.2-1.1.6,1.1.5c.5-.3.1-.1.7-.2s.3-.1.9-.2l.7-.4Z" transform="translate(-595.9 -490.3)"/><path class="cls-40" d="M642.6,506.7l.4-.3.5-.3.7-1a1.6,1.6,0,0,0,.5-1.3l-.3-.2c-1,.7-.2,0-.2.6v.7c-.4-.6,0-.1-.5-1,.1,1,.4,1.3-.5,1.8v-.5l-.2-.5-.4.7-.2.6C642.4,506.6,642.2,506.3,642.6,506.7Z" transform="translate(-595.9 -490.3)"/><path class="cls-41" d="M634.6,508.5l.2-.2h.9l.3-.2c.9-.6.2.2,1.2-.4v-.5c-.2-.3.5,0-.5-.3a10.2,10.2,0,0,1-3.8,1A2.9,2.9,0,0,1,634.6,508.5Z" transform="translate(-595.9 -490.3)"/><path class="cls-42" d="M634,498.5l.6.2,1.1.6,1.1.4h.9c.2-.1,0-.1.3-.1h.4c-.1-.3.4-.2-1.1-.5S634.6,498.2,634,498.5Z" transform="translate(-595.9 -490.3)"/><path class="cls-10" d="M651.3,510.7l-.3-.6c.1,0,0-.6.4.1s0,.1-.1.5Zm-.5-1h-.2c-.3.4-.4.2-.2.8l-.4-.2c-.1.6.4.6.9,1s.2,0-.1-.5l.4.2h.8c-.2-.4,0,0,.1-.6s0-.5-.3-.9l-.4.3Z" transform="translate(-595.9 -490.3)"/><path class="cls-37" d="M653.9,501.6l-.2.5c-.8-.5-.3-.1-.8-.7a.6.6,0,0,1-.7.1c-.1.6-.4.4.2.5s.5-.4.6,0h.4l-1,1c.3.4.5-.1-.1.6s-.3.1-.7.6h.3a14.8,14.8,0,0,0,2.5-2.5v-.4Z" transform="translate(-595.9 -490.3)"/><path class="cls-43" d="M646.6,509.4c-.7-.2-.4-.2-.9,0a4.5,4.5,0,0,0,2.4,1.5c.2-.3,0-.1.6-.3s-.1-.2-.3-.4S647.4,509.6,646.6,509.4Z" transform="translate(-595.9 -490.3)"/><path class="cls-36" d="M627.7,500.8h-.1a5.3,5.3,0,0,0,2,1.5c-.2-.9-.2-.2-.6-.9s1.1.7,1.6,1l.2-.3-.2-.2c-.5-.5-.6-.9-1.4-1A10.6,10.6,0,0,1,627.7,500.8Z" transform="translate(-595.9 -490.3)"/><path class="cls-44" d="M640.5,504.7a4.3,4.3,0,0,0,.1,2.5l1.4-2.4c-.6-.3-.6-.3-1.2.1Z" transform="translate(-595.9 -490.3)"/><path class="cls-45" d="M644.4,492.4l1.2.6h.5l-.4.6h.7l.4.3-.4-.7.3-.4-.5-.4-.5-.2c-.2-.4-.1,0-.1-.5h.1c-.2,0-.2.2-.4.3l-.5-.5-.8.7Z" transform="translate(-595.9 -490.3)"/><path class="cls-46" d="M635,497.9c-.9.3-.3,0-.2.3s3.2.8,3.6.5A3.3,3.3,0,0,0,635,497.9Z" transform="translate(-595.9 -490.3)"/><path class="cls-47" d="M641.4,496.9a5.4,5.4,0,0,0,1,2l.8-1.9-.8-1.1v.7c.3-.2.1-.2.4-.1s.2,1.2-.5,1.6a3.7,3.7,0,0,0,.2-1.2l-.2.3c-.3.3-.1.2-.5.3a2.6,2.6,0,0,0,.3-1.9c-.2.3,0,.2-.2.6Z" transform="translate(-595.9 -490.3)"/><path class="cls-48" d="M634.8,495.6c.4-.3.2-.1.6.2a2.2,2.2,0,0,0,.9.7l.5.4c.7.5.7.3.7.9l1.9.7c0-.6,0-.2-.1-.7h-.8c-1.1-.7.4.1-.3-.3a12.6,12.6,0,0,1-2.8-1.9c-.4-.4-.5-.2-.2-.9S634.6,495,634.8,495.6Z" transform="translate(-595.9 -490.3)"/><path class="cls-49" d="M642,511l.2.7,1,.9c.2-1,.3-1.1-.1-1.9l-.3.3a.1.1,0,0,1-.1.1h0c-.1,0-.1,0-.1.1-.1-1.4.2-1.7,0-2.3Z" transform="translate(-595.9 -490.3)"/><path class="cls-50" d="M650.8,496.1c.7.7.6.9,1.6,1s0,.1.1.5,0,.2.1.6l.2.3.7-.9a5.9,5.9,0,0,0-1.1-.8c-.6-.5-.2-.6-.9-1.1Z" transform="translate(-595.9 -490.3)"/><path class="cls-30" d="M636,503v.3l.2.2c.5,0,.1,0,.2.1v.5c.6-.4.2-.2.7-.3h.1l.3-.2-.9.3c.5-.9.9-1.6,1.9-1.2s.1,0,0,.5l.6-.3v-.2c-.4-.2-.5-.1-.2-.2l-.5-.4v.4l-.8-.3.2-.3v-.2h-.3Z" transform="translate(-595.9 -490.3)"/><path class="cls-49" d="M654.5,499.4h.3c.1,0,.2,0,.2-.1l-.8,1.6c1-.4,1.3-1.9,2.3-2.5s-.7.1,0-.6A3.4,3.4,0,0,0,654.5,499.4Z" transform="translate(-595.9 -490.3)"/><path class="cls-51" d="M641.2,510.2c-.6.6-.8.4-1.5.5l-1.4.7-.2.2-.2-.4-.4.8c.8.1,1.1-.5,2-.8s.8.4,2-.6a1.5,1.5,0,0,1,.2-.4.6.6,0,0,1,.1-.4v-.2Z" transform="translate(-595.9 -490.3)"/><path class="cls-28" d="M630.9,500.2c.3-.4.1-.1.3-.5s-.1-.4.6-.8h-.3l.3-1.4c.2-.2-.1-.1.3,0s.1-.3.5-1-.3-.3-.9-.9a22.3,22.3,0,0,0-.3,2.3C631.3,498.7,630.9,499.6,630.9,500.2Z" transform="translate(-595.9 -490.3)"/><path class="cls-23" d="M627.8,500.5h.2l-.3.3a10.6,10.6,0,0,0,1.5.1c.8.1.9.5,1.4,1l-.2-.6c.4.5.3.3.8.3s.1-.1-.2-.6,0,.4-.7,0-.5-.5-.8-.6A1.2,1.2,0,0,0,627.8,500.5Z" transform="translate(-595.9 -490.3)"/><path class="cls-52" d="M634.2,504.5h-1c-.4.2-.4.1-.8-.1h-.7l-.4.5c.9.1.4,0,1.1.7.8-1,1-.8,2.2-.9l.5-.3h-.9Z" transform="translate(-595.9 -490.3)"/><path class="cls-10" d="M639.5,508.2c-.8.1-1.4,1.4-1.5,2.4s.2.1.6.1-.1-.1.2-.8-.3.1.2-.6.7-.4,1.2-.8l.3-.4Z" transform="translate(-595.9 -490.3)"/><path class="cls-53" d="M643.4,497.2l.2.5.8,1.2v1c-.5.2-.4.1-1.1-.2s.7.3.7.6-.4.5-.5.4.3.3-.5.2l-.7-.3h-.2l1.7.6a2.3,2.3,0,0,1,.5-1c.4-.6.4-.7,1.1-.2l.2-.4c-.4.1,0,1-1.1-1.2l-.4-.7c-.3-.5-.2-.2-.2-.8S643.9,496.6,643.4,497.2Z" transform="translate(-595.9 -490.3)"/><path class="cls-14" d="M645.6,499.7V499c-.2-.4-.2-.7-.5-1s-.5-.2-.9-.9h-.3c0,.6-.1.3.2.8l.4.7C645.6,500.7,645.2,499.8,645.6,499.7Z" transform="translate(-595.9 -490.3)"/><path class="cls-54" d="M641.6,493.1c.3-.9.3,0,.8-1l.9-1.4c-.5,0-.5-.1-.7.4l-1.4,1.7a2.5,2.5,0,0,1,.4.7c.1.9-.5,0,.3,1-.1-1.1.1-.5.4-1.5Z" transform="translate(-595.9 -490.3)"/><path class="cls-55" d="M655.9,507.7l-.3.3h.6l-.4.7c1,.2.6-.2,1.6.3s.4-.2,1-.7l-.2-.4c-.6.2.1.2-.7-.1l-.2.7c-.8-.6-.3-.3-1.1-.1l.6-.9V507C656.2,507.6,656.5,507.5,655.9,507.7Z" transform="translate(-595.9 -490.3)"/><path class="cls-19" d="M645.6,491.1c.7.2.6,0,.9.5s.8-.8,1.7-.6l-.8.8h.2l.3.2c.5-.5,1-.8.6-1.4a1.4,1.4,0,0,0-1.5,0C646.1,491.3,646.6,490.9,645.6,491.1Z" transform="translate(-595.9 -490.3)"/><path class="cls-4" d="M639.3,497.8a2.4,2.4,0,0,0-.9-1.1l.3.6c-.6-.3-1-.8-1.7-1.2a6.4,6.4,0,0,0-1.6-.6,12.6,12.6,0,0,0,2.8,1.9c.7.4-.8-.4.3.3Z" transform="translate(-595.9 -490.3)"/><path class="cls-48" d="M633.4,496.2c.4,0,.3-.2.7.3s.4,0-.1.8l-.6-1.1Zm.3,1.4.3.2.4-.5v-.2c.1-.4.1.2,0-.2l.2-.4c-.7-.2-.8-.2-1.2-.9h.5l.2-.2c-.7-.1-.7-.2-1.3,0s-.1.1,0,.5l.3.6A9.7,9.7,0,0,1,633.7,497.6Z" transform="translate(-595.9 -490.3)"/><path class="cls-21" d="M645.6,507.4l.4.3c.4.2.2-.1.3.2s.2.2.6-.1v.3h.2c.5-.3,0-.2.5-.1l.2.5c.3,0,.1.4.3-.3h.2c-1.5-1-1.4-.1-3.2-1.6-.3.7-.7.5-.5,1.3s.4-.1.6-.9l.6.5C645.5,507.1,645.8,507.4,645.6,507.4Z" transform="translate(-595.9 -490.3)"/><path class="cls-42" d="M638.3,511.4l1.4-.7c.7-.1.9.1,1.5-.5s-.2.2-.3-.4l.3-.3h-.4l-2.3,1.7Z" transform="translate(-595.9 -490.3)"/><path class="cls-12" d="M630.1,504.2c-.1.3,0,.2-.3.1l.3.4a.1.1,0,0,0,.1.1c-.6.3-1.2.5-.9,1.1h.2l.9-.7c.1,0,.1.1,0,.1v.9l.6-.8v-1.1h-.9Z" transform="translate(-595.9 -490.3)"/><path class="cls-56" d="M625.9,501.4c-.1.5.5,1.2,1,1.5a3.3,3.3,0,0,0,1,.6c.4.4.3.5.8.3v-.2l-.6-.2V503c-.5,0-.5.1-1-.1l.4-.3-1.1-.6c.4-.1-.3-.2.4-.1l-.7-.5c-.3-.1-.1-.3-.3,0Z" transform="translate(-595.9 -490.3)"/><path class="cls-57" d="M650.7,500c-1,.3-.7-.4-1.6-.5l-.2.6h.4c.7.2.1-.1.1.4h1.7c0,.1-.1.1.2.5h.4l.3-1Z" transform="translate(-595.9 -490.3)"/><path class="cls-58" d="M642,515c.6.3.2.1.7.6l.3-.3v-1.6l-.8-.6-.5-.3-.2.3,1.1,1Z" transform="translate(-595.9 -490.3)"/><path class="cls-13" d="M635,497.9h-1l-.3.4.3.3c.6-.3,2.5.3,3.3.5s1,.2,1.1.5.2.6.4-.3l-.2-.2-.2-.3c-.4.3-3-.4-3.6-.5S634.1,498.2,635,497.9Z" transform="translate(-595.9 -490.3)"/><path class="cls-48" d="M638.6,510.7c-.4,0,.3.3-.6-.1a2.7,2.7,0,0,0-.5,1.4l.4-.8.2.4.2-.2.2-.4,2.3-1.7c-.6,0-.2.1-.2-.2A3.5,3.5,0,0,0,638.6,510.7Z" transform="translate(-595.9 -490.3)"/><path class="cls-59" d="M658,505l-.2.3h.2l.3-.3v.6h.1l.3-.8a2.2,2.2,0,0,0-.4-2.7A3.2,3.2,0,0,1,658,505Z" transform="translate(-595.9 -490.3)"/><path class="cls-60" d="M635.1,504.6l-.5.3c-.6.5,0,0-.6.2s-.4-.2-.3.3a1.4,1.4,0,0,0,1.1.3h.5c.5-.1.4-.1.6-.3l-.3-.2.4-.3h-.4c-.1-.2-.4.1,0-.3Z" transform="translate(-595.9 -490.3)"/><path class="cls-50" d="M642,504.8c.5,0,.8-.5,1.2-1h-.8c0-.3-.4,0,.5-.5-.9-.2-.8-.1-.9.7s-.6.1-1.1.6Z" transform="translate(-595.9 -490.3)"/><path class="cls-61" d="M649.4,500.4v.9h1.3c.2-.7.2,0-.2-.7l.8.4.2-.2c-.3-.4-.2-.4-.2-.5Z" transform="translate(-595.9 -490.3)"/><path class="cls-62" d="M651.2,511.1c.6.3.3-.1.5.4s-.1.3-.6.4l-.6,1.2c.4-.3.1-.5,1.3-1.1l1.2.3c.1-.6-.5-.9-1-1.3Z" transform="translate(-595.9 -490.3)"/><path class="cls-63" d="M640.9,514.3h.3l.6.7h.2l.6-.9-1.1-1c-.2.7-.1.5-.8.9Z" transform="translate(-595.9 -490.3)"/><path class="cls-64" d="M635.1,496.2c0,.4-.1.2.3.7s1.3.5,2.1.9,0-.4-.7-.9l-.5-.4h-.8C635.1,496.3,635.4,496.9,635.1,496.2Z" transform="translate(-595.9 -490.3)"/><path class="cls-3" d="M648.1,505.3a2.4,2.4,0,0,1,.2.8v.9h.5c-.3-.6-.2.1-.2-.7s-.1-.2.6,0h.1l.2-.2.4-.9c-.9-.3-.1-.2-.9.2S648.6,505.6,648.1,505.3Z" transform="translate(-595.9 -490.3)"/><path class="cls-40" d="M642.5,503h-.1a6.3,6.3,0,0,0-1.9,1.7l.3.2c.6-.4.6-.4,1.2-.1h-1.1c.5-.5.4-.8,1.1-.6s0-.9.9-.7c-.9.5-.5.2-.5.5h.8l.6-.9C642.8,502.8,643.4,503,642.5,503Z" transform="translate(-595.9 -490.3)"/><path class="cls-65" d="M635.4,495.5a6.4,6.4,0,0,1,1.6.6c.7.4,1.1.9,1.7,1.2l-.3-.6-3.2-2.1h0C634.9,495.3,635,495.1,635.4,495.5Z" transform="translate(-595.9 -490.3)"/><path class="cls-4" d="M636,503l1.7-1.3c-.1-.1-.6-.1.1-.6h.1c0-.1.1,0,.1-.1v-.2A3,3,0,0,0,636,503Z" transform="translate(-595.9 -490.3)"/><path class="cls-29" d="M640.2,508.5c-.5.4-.9.4-1.2.8s0,0-.2.6-.4,0-.2.8a3.5,3.5,0,0,1,2-1.6l.3-.2c-.1-.2,0-.2-.4-.4Z" transform="translate(-595.9 -490.3)"/><path class="cls-9" d="M625.6,505.8c-.6.2-.8,1.2-1,1.8s0,0,.3,0-.4.3,0-.5.1-.2.4-.2,1.4-.7,2.2-1.2l-.2-.5c-.5,0,0,0-.6.2s-.2,0-.4.2S625.6,506.5,625.6,505.8Z" transform="translate(-595.9 -490.3)"/><path class="cls-66" d="M633,501.6l.6.3c-.2.5-.8,1.3-1.4,1.3s.1.5.7.5.2,0,.7-.3-.3-.6.1-1.1l.2-.4c.1-.3.3-.1-.1-.4l-.9-.3C632.9,501.3,632.8,501.4,633,501.6Z" transform="translate(-595.9 -490.3)"/><path class="cls-10" d="M647.3,501.7l.3.2c-.5.6-.3,1-.9,1.2l.5.4v-.3l.5-.7c.6-.7,1.2-.5,2.6-.5l-.3.5.6-.6-.5-.3c-.9.4-.4,0-1.4,0Z" transform="translate(-595.9 -490.3)"/><path class="cls-3" d="M649.9,503.1h.1v.6c.5-.1.5-.2.9-.5a4.1,4.1,0,0,1,1.1-.6l.3-.6C651.1,501.8,651.1,502.7,649.9,503.1Z" transform="translate(-595.9 -490.3)"/><path class="cls-6" d="M640.8,513.6l-.6.8c.2.5.2.3.4.7s.1.3.3.6h.3l.8-.7h-.2c-.4.2-.3.1-.8.2v-.8l-.2-.3c.7-.4.6-.2.8-.9Z" transform="translate(-595.9 -490.3)"/><path class="cls-67" d="M650.8,497.4h.8c.5-.1.3.3.4.6s-.2,0,.2.3,0,.1.4-.2,0-.2-.1-.6-.2.1-.1-.5-.9-.3-1.6-1h0c-.1.4,0,.1,0,.5S651,496.8,650.8,497.4Z" transform="translate(-595.9 -490.3)"/><path class="cls-63" d="M639.7,495.6l.4.2-.2,1.2c.6.2.3.2,1,.1s-.1-1.6-1.1-2.2Z" transform="translate(-595.9 -490.3)"/><path class="cls-68" d="M650.5,513.1v.4h.2l.4-.5.6-.3.2.3c.5.4.3.4.6-.2l-.6-.4,1.3.5-.2-.5-1.2-.3C650.6,512.6,650.9,512.8,650.5,513.1Z" transform="translate(-595.9 -490.3)"/><path class="cls-51" d="M634.2,495.4l-.2.2a1,1,0,0,1,.7.9l-.2.4h.9c-.4-.5-.3-.3-.3-.7l-.3-.6c-.2-.6-.3-.8.4-1h0l-.6-.7c-.3.8-.1.7-.2,1.4Z" transform="translate(-595.9 -490.3)"/><path class="cls-66" d="M628.7,503.8l.5.2c.6,1.1-.7,1.9-.7,1.9l.2.5.3-.3.3-.2c-.3-.6.3-.8.9-1.1a.1.1,0,0,1-.1-.1l-.3-.4c.3.1.2.2.3-.1s-.3,0-.2-.4S629.6,503.7,628.7,503.8Z" transform="translate(-595.9 -490.3)"/><path class="cls-53" d="M643.3,510.1c.4,1.3.1,1.1,1,2.2l.2.5.2-.5a3,3,0,0,1-.4-.8l-.6-1.2c.5.3.3.5.8.5h0l-.9-1h-.2Z" transform="translate(-595.9 -490.3)"/><path class="cls-41" d="M645.5,498l-1.3-.9c.4.7.5.4.9.9s.3.6.5,1,.1-.5.3.2.3-.6.9-.7l.5-.2c.4-.2.1.1.4-.3s-.2.2-.5-.6l-.2.6c-.7.2-.7.1-1,.5Z" transform="translate(-595.9 -490.3)"/><path class="cls-33" d="M640,498c0,.4,1.1.8,1.4.9l-1.2-.3.2.5c.6,0,.9.3,1.6.2l-.6-1.4c-.1.1,0,.4-.6.4S640.3,498.1,640,498Z" transform="translate(-595.9 -490.3)"/><path class="cls-69" d="M644.6,494c.3-.3-.1-.1.4.1l.2-.4c-1-.8-.4-.3-.9-1s-.6-.6-.1-1.2h-.8c.1,1.1.5.7.3,1.7S644.3,493.3,644.6,494Z" transform="translate(-595.9 -490.3)"/><path class="cls-37" d="M648.1,503.4l-.3.3.4.2c.1.4.1.1-.1.3s0,.2-.4.1.1.1.2.3h.7c.5-.1.2-.2.4.1l.5-.3v-.5c-.5.2.2.4-.8.1v-.5l.5.3c0-.3-.1-.1.2-.6Z" transform="translate(-595.9 -490.3)"/><path class="cls-70" d="M649.7,498l-.7.3v.4c.3.5.1.3.3.5l1.1.5v-.2c-.3-.8-.4-.1-.5-.9s-.1-.3.3-.4l.2-.2-.4-.4Z" transform="translate(-595.9 -490.3)"/><path class="cls-21" d="M643.7,507.3c.2.6-.1.1.5.5l.4-1.4c.3-.1-.1-.3.4.1s-.1-.6-.5-1-.2.2-.2.2h-.1Z" transform="translate(-595.9 -490.3)"/><path class="cls-44" d="M649,492.6v.7h.5c0,.5.2.2-.1.5s-.5.2-.5.3l.7.3.5-.8.3-.4c.2-.4.1-.1,0-.5l-.3.6c-.4.1.2.4-.4,0v-1c-.2.5,0,.1-.1.1h-.1c0-.1-.1-.1-.2-.1Z" transform="translate(-595.9 -490.3)"/><path class="cls-71" d="M648.5,490.7c.4.6-.1.9-.6,1.4h.2l.9-.9.5.3h.4l.3.7.4-.6A2.1,2.1,0,0,0,648.5,490.7Z" transform="translate(-595.9 -490.3)"/><path class="cls-72" d="M637.3,504.4l-.4-.2c-.5.4-.7.2-1.3.3s-.1.1,0,.3h1.3l.5.3h.4c.2.4.2-.1-.1.2h.3c.2-.1.1-.1.4,0l-.3-.6.3-.3Z" transform="translate(-595.9 -490.3)"/><path class="cls-26" d="M642.3,499.8l.3.3c-.6-.1-.1-.2-.3.5l.7.3c.8.1.3.1.5-.2l-.6-1.5c-.7.1-.1-.3-.6.1Z" transform="translate(-595.9 -490.3)"/><path class="cls-15" d="M645,494.1c-.5-.2-.1-.4-.4-.1h-.3c-.1.7,0,.6-.5,1.2a1.8,1.8,0,0,1,1.1-.2l-.8.5h.2l.3.3.2-.3.3.2a1,1,0,0,0-.7-.9c.2-.7,0-.2.4-.3l.3.2.3.2c.2-.4.1-.4.1-.8Z" transform="translate(-595.9 -490.3)"/><path class="cls-73" d="M641.4,496.9l.4-.7c.2-.4,0-.3.2-.6l-.7-1c-.1.5-.1.6-.2,1v.4C640.9,496.5,641,496.4,641.4,496.9Z" transform="translate(-595.9 -490.3)"/><path class="cls-74" d="M652.2,498.4c.2.5.4-.1.2.4h-.5a1.8,1.8,0,0,0-.9.4c-.6.1-.7-.1-1.2-.5s.2.1.5.9.5,0,1.3-.3a3,3,0,0,1,1.3-.2c.1-.5.2,0-.1-.5l-.2-.3C652.2,498.5,652.8,498.4,652.2,498.4Z" transform="translate(-595.9 -490.3)"/><path class="cls-75" d="M650.1,498.2c-.4.1-.4,0-.3.4s.6.6,1.2.5l-.5-.3,1.3-.9a2.5,2.5,0,0,0,.1.8h.5c.2-.5,0,.1-.2-.4s-.1.1-.2-.3.1-.7-.4-.6a3.3,3.3,0,0,1-1.6,1.1Z" transform="translate(-595.9 -490.3)"/><path class="cls-1" d="M640.1,500.8l-.4.3v-.3H639l-.2.7h-.6a2,2,0,0,0,1.3.1l-.6.9c-.3.1-.2,0,.2.2s.6-.5.5-1.2h.6l.2-.4Z" transform="translate(-595.9 -490.3)"/><path class="cls-76" d="M632.5,506.5l-.8.6c.1.5.2-.2-.1.4l-.2.3h.3l1.2.6v-.3l-.3-.3c0-.1.2.1-.1-.2H632c-.2-.3-.6.2.1-.5a3.3,3.3,0,0,0,1-.6l-.4-.3Z" transform="translate(-595.9 -490.3)"/><path class="cls-17" d="M638.4,503.1l-1,.4-.3.2h.5l-.2.4c.6-.3.6-.4,1.4-.1v-.9h-.3c.2-.4,0-.2.4-.4H639Z" transform="translate(-595.9 -490.3)"/><path class="cls-77" d="M625.9,501.4c.2-.3,0-.1.3,0l.7.5h.9l-1.3-.7.5-.2c.5-.4,0-.2.6-.3h.1l.3-.3h-.2c-.9-.2-1,.2-1.7.5Z" transform="translate(-595.9 -490.3)"/><path class="cls-75" d="M651.5,504.8c-.5-.1-.1-.3-.5.1a10.6,10.6,0,0,0,1.5,1.6h.3l-.7-.9c.3.2.1.1.3-.2s-.2-.1-.1-.6Z" transform="translate(-595.9 -490.3)"/><path class="cls-78" d="M643.7,507.3v.4l1,.2c.4,0,.1-.2.4.3s.3.3.5-.1l-.3-.3.4-.4c.2,0-.1-.3.2,0l-.6-.5c-.2.8,0,.5-.6.9s.2-.6.5-1.3H645c-.5-.4-.1-.2-.4-.1l-.4,1.4C643.6,507.4,643.9,507.9,643.7,507.3Z" transform="translate(-595.9 -490.3)"/><path class="cls-10" d="M645.2,516.7c.7.3.1.1.4-.1a5.8,5.8,0,0,0,1-1.2v-1.3l-.5.2c.2.7.1.2.1.7s-.2.6-.3.8Z" transform="translate(-595.9 -490.3)"/><path class="cls-67" d="M643.7,502c-.2,1,0,.1.1.8s-.2.1.1.9h.5l.3.2h.2v-.3l-.2-.7c0,.1-.1.3-.5-.3s-.5-.2-.5-.9S643.7,501.2,643.7,502Z" transform="translate(-595.9 -490.3)"/><path class="cls-33" d="M637.4,503.5l1-.4c.1-.5.2-.2,0-.5s-1.4.3-1.9,1.2Z" transform="translate(-595.9 -490.3)"/><path class="cls-79" d="M648.1,492.1l-.3.5.9-.2c.5-.1,1-.2.8-.9l-.5-.3Z" transform="translate(-595.9 -490.3)"/><path class="cls-36" d="M639.9,497c.4.7.3.2.1,1s.5.3.8.3.5-.3.6-.4-.1-.3-.5-.8S640.5,497.2,639.9,497Z" transform="translate(-595.9 -490.3)"/><path class="cls-67" d="M644.3,512.3c-.6.2,0-.6-.4.2l.3.7-1.6-.7c0,.4.5.5,1,.8s.4,0,.9.2,0,0,.2-.2.2-.4,0-1l-.2.5Z" transform="translate(-595.9 -490.3)"/><path class="cls-27" d="M648.7,492.4l.3.2.3-.4c.1,0,.2,0,.2.1h.1c.1,0-.1.4.1-.1v1c.6.4,0,.1.4,0s-.2-.1-.3-.3.2-.3.5-.3.3-.4.3-1.1l-.4.6-.3-.7h-.4C649.7,492.2,649.2,492.3,648.7,492.4Z" transform="translate(-595.9 -490.3)"/><path class="cls-14" d="M648,501l-.4.2-.5.4h1.5c1,0,.5.4,1.4,0l-.6-.2h-.2Z" transform="translate(-595.9 -490.3)"/><path class="cls-4" d="M648.9,500.1l.2-.6c.9.1.6.8,1.6.5l-.5-.2h.1l-1.1-.5c-.2-.2,0,0-.3-.5s-.4-.4-.4.4.2.3.4.3l-.4.5Z" transform="translate(-595.9 -490.3)"/><path class="cls-7" d="M644.5,501.4c-.4,1.1.3.3-.2,1.2s.8-.2.7-1.1c1.2,1.1.4.4.8.3s-.1-.4.3-.7l-.4-.2-1.1.8Z" transform="translate(-595.9 -490.3)"/><path class="cls-6" d="M631.9,501.4c.2.5.1.6-.3.9l-.3-.5h.1l-.3.9.6.5c.1-.1.1-.2.1-.1l.3-.4a4.1,4.1,0,0,0,.4-1.9l-.2.5C632.1,501.5,632.7,501.9,631.9,501.4Z" transform="translate(-595.9 -490.3)"/><path class="cls-54" d="M638,501.6v.2l.5.2.5.4.6-.9a2,2,0,0,1-1.3-.1h.6l.2-.7-.3-.3v.3Z" transform="translate(-595.9 -490.3)"/><path class="cls-79" d="M649.9,505.2l.3.3c.7.4.5.3.4.9l-.4.8c1,0,.3-1,1-.8s-.4-.4-.5-1.4l-.6-.2Z" transform="translate(-595.9 -490.3)"/><path class="cls-80" d="M657.4,505.3l-.2.5-.7.2v.5c.1.5,0,0,.3.4l.3-.3.4-.4v-.3l.2-.6.2-.3C657.6,505.1,657.9,504.8,657.4,505.3Z" transform="translate(-595.9 -490.3)"/><path class="cls-9" d="M633,501.6c-.6.1-.3.8-.8,1.6s1.2-.8,1.4-1.3Z" transform="translate(-595.9 -490.3)"/><path class="cls-16" d="M654.5,499.4l-.7.9c.1.3.3-.1-.3.6s-.2.2-.1-.3l-1.5.4v.2l.8-.5.6.5.8-.4.8-1.6c0,.1-.1.1-.2.1h-.3Z" transform="translate(-595.9 -490.3)"/><path class="cls-9" d="M635,503c-.4.4-.2.4-.8.5H634c.1.3.6-.1-.1.6l-.7.4h1c-.2-.4-.3-.2.3-.6l.7-.3c.5.7.2.1.1.5l.4-.2.4-.4-.2-.2-.4.5Z" transform="translate(-595.9 -490.3)"/><path class="cls-81" d="M649.9,506.5v.3c-.2-.2-.2-.4-.5-.3l-.4.3.2-.5h-.1l-.4.7h-.5v.5h.3c.2-.3-.1-.2.2-.3l.4-.3h1.1l.4-.8c-.3-.3,0-.3-.3-.1h.2C650.2,506.9,650.4,506.9,649.9,506.5Z" transform="translate(-595.9 -490.3)"/><path class="cls-33" d="M629.9,508.3l-.4.5.6.7.7-1.5C630.2,507.6,630.4,507.8,629.9,508.3Z" transform="translate(-595.9 -490.3)"/><path class="cls-73" d="M641.1,494.1v-.2c-.3,0-.4,0-.6-.3l.4,2.3c.3-.1.2.1.4-.3v-.5c.1-.6-.1-.6-.6-.9Z" transform="translate(-595.9 -490.3)"/><path class="cls-82" d="M632.1,509.8l-1.2,1.6a3,3,0,0,0,2-2.7l-.5,1.1C632.1,509.9,632.4,510.1,632.1,509.8Z" transform="translate(-595.9 -490.3)"/><path class="cls-83" d="M650.8,497.4l-.3-.2-.2.8-.2.2v.4a3.3,3.3,0,0,0,1.6-1.1Z" transform="translate(-595.9 -490.3)"/><path class="cls-84" d="M642.4,495.9l-.4-.3a2.6,2.6,0,0,1-.3,1.9c.4-.1.2,0,.5-.3l.2-.3a3.7,3.7,0,0,1-.2,1.2c.7-.4.5-.9.5-1.6s-.1-.1-.4.1Z" transform="translate(-595.9 -490.3)"/><path class="cls-67" d="M656.6,506.5c-.3.5-.3.5-.6.7s.2-.1-.1.5.3-.1.8-.7v.5h1.1l-.4-.6-.3-.3-.3.3C656.6,506.5,656.7,507,656.6,506.5Z" transform="translate(-595.9 -490.3)"/><path class="cls-85" d="M645.1,500.5H645l-.5,1v.3l1.1-.8c.6-.9.2-.1.1-.6S645.3,500.5,645.1,500.5Z" transform="translate(-595.9 -490.3)"/><path class="cls-23" d="M633.9,502.7v.6c-.2-.3-.1,0-.1-.4s.1-.2.2-.2Zm.3-.2c-.2.3-.1.4-.3.2s.5-.2-.2-.4-.5.6-.1,1.1l.6-.3c.2.4.2.1,0,.4s.4-.1.8-.5v-.5H635l-.6.4Z" transform="translate(-595.9 -490.3)"/><path class="cls-20" d="M647.1,495.5l-.3.7,1.1-.3c.2-.7,0-.9-.4-1.4S647.6,495,647.1,495.5Z" transform="translate(-595.9 -490.3)"/><polygon class="cls-1" points="51.3 2.5 52.3 2.7 52.6 2.8 53 2.6 53.1 2.3 52.7 2.1 51.9 2.3 52.2 1.8 52 1.8 51.7 1.6 51.3 2.5"/><path class="cls-47" d="M641.5,501l.5-.2.4-.7-.8-.3c-.6.1.1,0-.6-.1h-.5C641.8,501,641.5,499.9,641.5,501Z" transform="translate(-595.9 -490.3)"/><path class="cls-16" d="M644.4,492.4v.3c.5.7-.1.2.9,1l-.2.4h.2l.4-.3h-.2l.2-.5Z" transform="translate(-595.9 -490.3)"/><path class="cls-41" d="M642.9,508.9l.4,1.2v-.4h.2c.5-.3-.1-.3.5-.3s-.3-.7-1-1.1Z" transform="translate(-595.9 -490.3)"/><path class="cls-43" d="M634.1,502v.5l.2.5.6-.4.3-.8C634.7,501.7,634.5,501.7,634.1,502Z" transform="translate(-595.9 -490.3)"/><path class="cls-86" d="M652.8,508.5v.4a3.1,3.1,0,0,0,2.3-.5l.4-.4h-.1l-.7.4h-.6C653.4,508.6,653.6,508.7,652.8,508.5Z" transform="translate(-595.9 -490.3)"/><path class="cls-87" d="M638.4,505.3h.3c.8-.1.5.3,1.1-.3l-1.2-.5-.2-.2-.3.3Z" transform="translate(-595.9 -490.3)"/><path class="cls-63" d="M656,505.6h1a1.4,1.4,0,0,0-1.4-.9h-.4C656,505.2,655.5,505,656,505.6Z" transform="translate(-595.9 -490.3)"/><path class="cls-32" d="M650.7,505c.1,1,.3.6.5,1.4s.1.1.6-.3l.7.4a10.6,10.6,0,0,1-1.5-1.6Z" transform="translate(-595.9 -490.3)"/><path class="cls-88" d="M632.6,500.7v-.4h.1c-.1.5,0,.1.2.3l.3-.7c-.2-.3.2,0-.4-.1-.1-1.8.3-.8-.2-1.7A7.1,7.1,0,0,0,632.6,500.7Z" transform="translate(-595.9 -490.3)"/><path class="cls-89" d="M647,510.8c-.2.8,0,.8-.1,1.4s.2-.1.3.2l.7-1.2Z" transform="translate(-595.9 -490.3)"/><path class="cls-70" d="M631.3,503.7l-.3.5h0l.7.4h.9l-.6-.6c-.6-.1-.4-.5-.5.3S631.7,503.8,631.3,503.7Z" transform="translate(-595.9 -490.3)"/><path class="cls-10" d="M648.3,498.7c-.2,1.1,0,1.1-.7,2l.4.2h0v-.2l.3-.5.4.2h.2l-.4-.2.4-.5c-.2,0-.5.5-.4-.3s0-.4.4-.4v-.4h-.3Z" transform="translate(-595.9 -490.3)"/><path class="cls-68" d="M647.1,503.2v.3h-.9c-.3.8-.1.1.1.5s0-.3.4-.5l1.1,1.1c-.1-.2.1-.1-.2-.3s.3.2.4-.1l-.7-.5h.4l.3-.3Z" transform="translate(-595.9 -490.3)"/><path class="cls-57" d="M648.3,513.8v.3c.5.4.4.2.4.9l.3.2.3-.6c.2-.6.4-.4-.2-.9l-.3.5Z" transform="translate(-595.9 -490.3)"/><path class="cls-9" d="M652.8,508.5a9.5,9.5,0,0,1,2.4-.7l.2-.3h-.3c-.9.7-.4,0-2.4.8C652.6,508.4,652.3,508.2,652.8,508.5Z" transform="translate(-595.9 -490.3)"/><path class="cls-84" d="M627.6,502.6l.6.4v.4l.6.2.6-.3v-.4C628.6,502.9,628.3,502.6,627.6,502.6Z" transform="translate(-595.9 -490.3)"/><path class="cls-85" d="M644.2,491.5c-.5.6-.5.7.1,1.2v-.3l-.4-.2.8-.7.5.5c.2-.1.2-.3.4-.3l-.4-.2.4-.3c-.7,0-.2-.1-.9.1S644.6,491.5,644.2,491.5Z" transform="translate(-595.9 -490.3)"/><path class="cls-17" d="M636.3,504.1l-.6-.2-.4.2-.4.4h.7c.6-.1.8.1,1.3-.3v-.4C636.5,503.9,636.9,503.7,636.3,504.1Z" transform="translate(-595.9 -490.3)"/><path class="cls-17" d="M625.6,505.8c0,.7-.1.3.7-.2s.2-.1.4-.2.1-.2.6-.2l.8-.7c-.3,0-.2,0-.6.2l-.6.2A4.3,4.3,0,0,0,625.6,505.8Z" transform="translate(-595.9 -490.3)"/><path class="cls-84" d="M626.5,507.3h.9c.4,0,.3.1.7-.2h-.3l.2-.3c-.4-.3-.3.2-.1-.4l.4-.5h-.4c-.4.7-.6.8-1.3.8Z" transform="translate(-595.9 -490.3)"/><path class="cls-77" d="M642,515l-.8.7h.5c.3-.8.1-.2.3-.4s.3,0,.6.3l-.3.4s.1.3.6-.2.1-.5.1-.6l-.3.3C642.2,515.1,642.6,515.3,642,515Z" transform="translate(-595.9 -490.3)"/><path class="cls-90" d="M648.7,507.3l.5.3.3.9.6.4c-.1-.6,0-.1-.3-.8l-.5-.9h-.2Z" transform="translate(-595.9 -490.3)"/><path class="cls-91" d="M640.4,499.1l1.2.7.8.3-.4.7h.3c.2-.7-.3-.6.3-.5l-.3-.3-.3-.5C641.3,499.4,641,499.1,640.4,499.1Z" transform="translate(-595.9 -490.3)"/><path class="cls-4" d="M634.4,500.7l-.7.3c-.4.5-.2.1.1.5h1l.4-.6C634.8,501,634.9,500.9,634.4,500.7Z" transform="translate(-595.9 -490.3)"/><path class="cls-54" d="M647.7,497.1h.7l-.4.2-.3.6h.1c.3-.1-.2-.3.4.1v.7l.4-.4v-.8l-.4-.6C647.7,496.9,647.9,496.9,647.7,497.1Z" transform="translate(-595.9 -490.3)"/><path class="cls-92" d="M637,493.5c.3.9,0,1.2.6,1.8s.1-.1,0-.9h.1c0-.2,0,0-.2-.3s.1-.2.9.1.2-.9-.7-.2Z" transform="translate(-595.9 -490.3)"/><path class="cls-30" d="M651,504l-.2.3h.8c.4-.5.3-.3.7-.6s.4-.2.1-.6S651.7,503.7,651,504Z" transform="translate(-595.9 -490.3)"/><path class="cls-36" d="M632.1,509.8c.3.3,0,.1.3,0l.5-1.1h-.1c-.7-.1-.2.2-.8.8s.5-.6.4-1.1,0-.2-.2.2l-.4,1.1Z" transform="translate(-595.9 -490.3)"/><path class="cls-47" d="M632.6,504.4h-.2c.4.2.4.3.8.1l.7-.4c.7-.7.2-.3.1-.6S633.3,504.2,632.6,504.4Z" transform="translate(-595.9 -490.3)"/><path class="cls-25" d="M649.5,508.5c.2.4-.3-.1.2.4l.3.2v1c.1-.6,0-.7.4-.8l.6-.3h-.2c-.6-.6-.3-.6-1-.9s.2.2.3.8Z" transform="translate(-595.9 -490.3)"/><path class="cls-93" d="M652.8,508.5c.8.2.6.1,1.3-.1h.6l.7-.4h-.2A9.5,9.5,0,0,0,652.8,508.5Z" transform="translate(-595.9 -490.3)"/><path class="cls-33" d="M634.2,504.5h.7l.4-.4c.1-.4.4.2-.1-.5l-.7.3C633.9,504.3,634,504.1,634.2,504.5Z" transform="translate(-595.9 -490.3)"/><path class="cls-43" d="M651,499.1a1.8,1.8,0,0,1,.9-.4,2.5,2.5,0,0,1-.1-.8l-1.3.9Z" transform="translate(-595.9 -490.3)"/><path class="cls-14" d="M637.6,495.3l1.2.6c-.1-.6-.7-1.1-1.1-1.6h-.1C637.7,495.2,637.8,494.6,637.6,495.3Z" transform="translate(-595.9 -490.3)"/><path class="cls-94" d="M645.7,491.7h-.1l.9.5c.4-.1,0,.1.3-.3l-.3-.3c-.3-.5-.2-.3-.9-.5h.1l-.4.3Z" transform="translate(-595.9 -490.3)"/><path class="cls-16" d="M648.4,510.2c.2.2.2-.1.3.4l.5.2h.1a5,5,0,0,1-1-1.7h-.7C648.1,509.4,648.3,509.5,648.4,510.2Z" transform="translate(-595.9 -490.3)"/><path class="cls-69" d="M640.5,508.1l-.3.4h.3c.4.2.3.2.4.4l.9-.5C641.8,508,640.9,508.1,640.5,508.1Z" transform="translate(-595.9 -490.3)"/><path class="cls-32" d="M639,500.8h1.1l.3.2c0-.4.1-.2-.2-.6l-.9-.4c-.2-.3-.3.1-.2-.4C639,500.6,639.4,499.8,639,500.8Z" transform="translate(-595.9 -490.3)"/><path class="cls-61" d="M649.8,508.1c.7.3.4.3,1,.9s0-.2-.1-.5l-.3-.4c-.6-.8-.6-.2-.4-1h-.7Z" transform="translate(-595.9 -490.3)"/><path class="cls-63" d="M631.3,501.8l.3.5c.4-.3.5-.4.3-.9l-.7-.8h.2C631.2,501.1,631.3,501.1,631.3,501.8Z" transform="translate(-595.9 -490.3)"/><path class="cls-41" d="M658.6,507.5l.4-.8v-.2c.2-.4.2.2.1-.3s-.5,0-1.1.1.7,0,.1,1Z" transform="translate(-595.9 -490.3)"/><path class="cls-36" d="M631.7,508h0l-1.1,2.2A1.9,1.9,0,0,0,631.7,508Z" transform="translate(-595.9 -490.3)"/><path class="cls-50" d="M637,500.1h0l-.2.3c-.4.5-.1,0,.1.4s.7-.3.8-.4-.4.1.1-.2-.2.4.5-.3C637.4,499.9,637.7,500,637,500.1Z" transform="translate(-595.9 -490.3)"/><path class="cls-50" d="M633,501c1-.1.4-.4,1.3-.7h.1l-.8-.6Z" transform="translate(-595.9 -490.3)"/><path class="cls-95" d="M645.8,495.1H645c.4.5.1.3.8.5l-.2.5.4.2V495Z" transform="translate(-595.9 -490.3)"/><path class="cls-35" d="M644.4,498.9l-.8-1.2-.3-.2v.6C643.4,498.8,643.9,498.8,644.4,498.9Z" transform="translate(-595.9 -490.3)"/><path class="cls-90" d="M645.1,495.7l.5.4.2-.5c-.7-.2-.4,0-.8-.5h.8l-.4-.2-.3-.2h-.4v-.3c-.4.1-.2-.4-.4.3A1,1,0,0,1,645.1,495.7Z" transform="translate(-595.9 -490.3)"/><path class="cls-8" d="M648,500.9h0l1.2.3V501l-1.1-.7h.5l-.4-.2-.3.5v.2h0Z" transform="translate(-595.9 -490.3)"/><path class="cls-95" d="M648.9,500.1h-.7l1.1.7v-.6c0-.5.6-.2-.1-.4Z" transform="translate(-595.9 -490.3)"/><path class="cls-96" d="M636.8,507.1c1,.3.3,0,.5.3v.5c.5-1.1.1-.1.9-.8s.1,0,.2-.3-.1-.2-.8,0Z" transform="translate(-595.9 -490.3)"/><path class="cls-94" d="M651.3,501l-.2.2-.3.3c.1.4-.6.1.4.5s-.4-.2.8-.8V501h-.6Z" transform="translate(-595.9 -490.3)"/><path class="cls-97" d="M650.5,504.5v.3h-.5l.6.2h.3c.4-.4,0-.2.5-.1v-.6h-.8l.2-.3C650.6,504.1,650.7,504.1,650.5,504.5Z" transform="translate(-595.9 -490.3)"/><path class="cls-15" d="M636,504.8l-.4.3.3.2c.4.1,0,.2.7,0h.3l.2-.3c-.8,0-.3.1-.2-.4Z" transform="translate(-595.9 -490.3)"/><path class="cls-10" d="M640.8,509.4h.4c.3-.4,0-.3.5-.3s.1,0,.1.4.4-.2.5-.9S641.6,508.9,640.8,509.4Z" transform="translate(-595.9 -490.3)"/><path class="cls-98" d="M638.4,499.5l.2.5c.2.3.3-.1.1.5l.3.3c.4-1,0-.2.1-1.2v-.2l-.3-.2C638.6,500.1,638.8,499.6,638.4,499.5Z" transform="translate(-595.9 -490.3)"/><path class="cls-99" d="M633.6,499.7l.8.6c.1.2.3.2.3.5s.5-.1-.1-.8l-.3-.3c0-.1.1-.1-.2-.3Z" transform="translate(-595.9 -490.3)"/><path class="cls-79" d="M635.1,496.2c.3.7,0,.1.4.4h.8a2.2,2.2,0,0,1-.9-.7c-.4-.3-.2-.5-.6-.2Z" transform="translate(-595.9 -490.3)"/><path class="cls-74" d="M645.6,491.7c0,.5-.1.1.1.5l.5.2.5.4c.3-.6.4-.5.1-.9s.1.2-.3.3Z" transform="translate(-595.9 -490.3)"/><path class="cls-39" d="M647.2,497.4c.3.8-.1.1.5.6l.3-.6.4-.2h-1.2C647.2,497.3,647.1,497.1,647.2,497.4Z" transform="translate(-595.9 -490.3)"/><path class="cls-29" d="M638.9,503.5v.2l1,.3h.7l-1.1-.6Z" transform="translate(-595.9 -490.3)"/><path class="cls-17" d="M639.4,495.8c.2.5.1.4.1,1.1h.4l.2-1.2-.4-.2h-.3Z" transform="translate(-595.9 -490.3)"/><path class="cls-92" d="M648.3,498.5V498c-.6-.4-.1-.2-.4-.1s-.8,0-.5,1.5C648,498.8,647.7,498.7,648.3,498.5Z" transform="translate(-595.9 -490.3)"/><path class="cls-74" d="M649.7,506.1l.2.4c.5.4.3.4.6-.1h-.2c.3-.2,0-.2.3.1s.3-.5-.4-.9v.5Z" transform="translate(-595.9 -490.3)"/><path class="cls-51" d="M648.1,511.5c-.2.4-.4.5-.1.9h.1l.5.6c-.2-.6,0-.4,0-.9S648.5,511.8,648.1,511.5Z" transform="translate(-595.9 -490.3)"/><path class="cls-31" d="M637.9,500.8v.2c0,.1-.1,0-.1.1h-.1c-.7.5-.2.5-.1.6h.3l.6-.8C637.9,500.5,638.4,500.6,637.9,500.8Z" transform="translate(-595.9 -490.3)"/><path class="cls-39" d="M646.6,513.2h.4c.1-.8-.3-.5.2-.9s0-.2-.3-.2l-.6.5Z" transform="translate(-595.9 -490.3)"/><path class="cls-100" d="M635.7,499.3v.4l1.3.4h0c.2-.4.3-.2-.2-.4Z" transform="translate(-595.9 -490.3)"/><path class="cls-50" d="M645.6,494h-.1c0,.4.1.4-.1.8l.4.2h.3c-.9-.2-.2,0-.4-.4s.1-.1.6-.1h.1c-.1-.4,0-.2-.4-.4Z" transform="translate(-595.9 -490.3)"/><path class="cls-45" d="M634.7,496.5a1,1,0,0,0-.7-.9h-.5C633.9,496.3,634,496.3,634.7,496.5Z" transform="translate(-595.9 -490.3)"/><path class="cls-101" d="M635,503l.5.8.4-.5V503l-.6.2c-.1-.2,0-.3,0-.4s.2-.1-.3-.3Z" transform="translate(-595.9 -490.3)"/><path class="cls-4" d="M636.2,500.9l-.8,1.9c.8-1,.4-1,1.1-1.6s.3-.2.3-.5Z" transform="translate(-595.9 -490.3)"/><path class="cls-72" d="M638.7,505.4v.4h1v-.9l-1.2-.3,1.2.5C639.2,505.7,639.5,505.3,638.7,505.4Z" transform="translate(-595.9 -490.3)"/><path class="cls-13" d="M651.9,504.3h-.3v.6h.8l.7.3c-.1-.4,0-.2-.1-.6S652.1,504.6,651.9,504.3Z" transform="translate(-595.9 -490.3)"/><path class="cls-35" d="M639.4,495.8h.1c-.3-.4-.2-.5-.5-.8l-.6-.8c0,.7-.1.1.2.7v.2C638.9,495.3,639,495.7,639.4,495.8Z" transform="translate(-595.9 -490.3)"/><path class="cls-79" d="M641.2,509.5l-.3.3c.1.6-.2.1.3.4l.6-.6c0-.4.1-.1-.1-.4S641.5,509.1,641.2,509.5Z" transform="translate(-595.9 -490.3)"/><path class="cls-15" d="M633,501v.2l.9.3h0c-.3-.4-.5,0-.1-.5l.7-.3v-.4C633.4,500.6,634,500.9,633,501Z" transform="translate(-595.9 -490.3)"/><path class="cls-85" d="M650.5,513.1l.6-1.2c0-.6.1-.3-.2-.5A1.8,1.8,0,0,0,650.5,513.1Z" transform="translate(-595.9 -490.3)"/><path class="cls-45" d="M658.5,505.8l.7.4c0-.9-.4,0,.1-.9l-.5-.3Z" transform="translate(-595.9 -490.3)"/><path class="cls-19" d="M639.7,493.1c.4-1,.1-.5.6-.6l-.2-1.2C639.9,491.7,639.5,492.7,639.7,493.1Z" transform="translate(-595.9 -490.3)"/><path class="cls-58" d="M631.6,507.2h.1l.8-.6a1.7,1.7,0,0,1-.6-.8C631.7,506.6,632,506.2,631.6,507.2Z" transform="translate(-595.9 -490.3)"/><path class="cls-57" d="M646.4,499.8l-.6.4h.4l.8.3.2-.3C646.7,499.8,647.1,499.9,646.4,499.8Z" transform="translate(-595.9 -490.3)"/><path class="cls-87" d="M639.1,499.6c-.1.5,0,.1.2.4l.9.4h0l-.4-.6C639.3,499.4,639.8,499.4,639.1,499.6Z" transform="translate(-595.9 -490.3)"/><path class="cls-102" d="M639.7,493.1l.9.4-.3-1C639.8,492.6,640.1,492.1,639.7,493.1Z" transform="translate(-595.9 -490.3)"/><polygon class="cls-103" points="42.8 15.5 42.9 15.8 43.1 15.9 43.4 16.1 43.8 16.1 43.9 15.6 43.8 15.5 42.8 15.5"/><path class="cls-82" d="M629.3,503.3l-.6.3v.2c.9-.1.4.2,1.2,0h.3Z" transform="translate(-595.9 -490.3)"/><path class="cls-104" d="M628.7,506.4c-.4.4-.2.2-.7.5l-.2.3h.3l1.4-.7-.5-.3Z" transform="translate(-595.9 -490.3)"/><path class="cls-4" d="M633.4,496.2l.6,1.1c.5-.8.6-.1.1-.8S633.8,496.2,633.4,496.2Z" transform="translate(-595.9 -490.3)"/><path class="cls-105" d="M648.5,507.6l1,.9-.3-.9-.5-.3C648.4,507.4,648.7,507.3,648.5,507.6Z" transform="translate(-595.9 -490.3)"/><path class="cls-4" d="M644.1,495.5l.8-.5a1.8,1.8,0,0,0-1.1.2c.5-.6.4-.5.5-1.2l-.6,1.2Z" transform="translate(-595.9 -490.3)"/><path class="cls-106" d="M655.4,507.5l-.2.3h.4l.3-.3c.3-.6.2-.2.1-.5l-.2-.3Z" transform="translate(-595.9 -490.3)"/><path class="cls-107" d="M631.8,498.9l.3-1.4c-.4-.1-.1-.2-.3,0l-.3,1.4Z" transform="translate(-595.9 -490.3)"/><path class="cls-108" d="M641.8,514.9l-.6-.7h-.3v.8C641.5,515,641.4,515.1,641.8,514.9Z" transform="translate(-595.9 -490.3)"/><path class="cls-55" d="M644.2,505.1l.5.2a2.4,2.4,0,0,0,.2-1.4h-.2A1.6,1.6,0,0,1,644.2,505.1Z" transform="translate(-595.9 -490.3)"/><path class="cls-71" d="M646,494c.4.2.3,0,.4.4h.3c-.1-.3-.1-.2.1-.4v-.2h-.1l-.4-.3h-.5C646.3,493.7,646.3,493.6,646,494Z" transform="translate(-595.9 -490.3)"/><path class="cls-94" d="M636.2,500.9v-.4h-.5c-.8,1.1-.3.5-.2.9Z" transform="translate(-595.9 -490.3)"/><path class="cls-109" d="M635.7,508.5c.5,0,.1,0,.2.2l-.3.3c-.2.5-.1.1,0,.5h.5c-.4-.5-.3-.2.2-.9s.5-.2-.3-.2Z" transform="translate(-595.9 -490.3)"/><path class="cls-110" d="M650.9,511.4c.3.2.2-.1.2.5s.1.3.6-.4.1-.1-.5-.4l-.4-.2C651.1,511.4,650.9,511.1,650.9,511.4Z" transform="translate(-595.9 -490.3)"/><path class="cls-94" d="M650.4,509.3c-.3.5-.2.2.2.5h.2l.4-.3V509Z" transform="translate(-595.9 -490.3)"/><path class="cls-27" d="M646.1,495v.8c.6,0-.5,0,.2.1h.3c-.6-1.2-.2-.8-.1-.9s0-.6.3.3v-.4h0v-.2h-.4v.4Z" transform="translate(-595.9 -490.3)"/><path class="cls-111" d="M650,510.1v.3l.4.2c-.2-.6-.1-.4.2-.8s-.5,0-.2-.5S650.1,509.5,650,510.1Z" transform="translate(-595.9 -490.3)"/><path class="cls-67" d="M644.3,511.5a3,3,0,0,0,.4.8c.2-.5.1-.7-.2-1.2S644.3,510.9,644.3,511.5Z" transform="translate(-595.9 -490.3)"/><path class="cls-106" d="M640.8,513.6l.7-.5.2-.3.5.3c-.1-.4,0-.2-.3-.5S641.2,512.9,640.8,513.6Z" transform="translate(-595.9 -490.3)"/><path class="cls-55" d="M646.8,513.7l-.2.3.6.3c.4-.7.1-.3.1-.6l-.3-.3Z" transform="translate(-595.9 -490.3)"/><path class="cls-69" d="M645.6,507.4l-.4.4.3.3.8-.2c-.1-.3.1,0-.3-.2Z" transform="translate(-595.9 -490.3)"/><path class="cls-86" d="M630.6,502.4c0,.3-.1.2.2.5s0,.2.3.2.2,0,.1-.4l-.3-.4v-.2Z" transform="translate(-595.9 -490.3)"/><path class="cls-55" d="M649.3,503.2l.6.6v-.6h-.1c-.2-.4-.4.3,0-.6Z" transform="translate(-595.9 -490.3)"/><polygon class="cls-112" points="35.2 15 35.4 14.8 35.8 14.3 35.1 13.9 35.2 15"/><polygon class="cls-81" points="53.6 15.8 53.8 15.8 54.3 15.7 54.3 15.2 54 14.9 53.6 15.8"/><path class="cls-30" d="M648,504.7c0,.3-.1.2.2.5l.8-.5c-.2-.3.1-.2-.4-.1Z" transform="translate(-595.9 -490.3)"/><path class="cls-42" d="M655.6,508h-.1l-.4.4h.5l.2.3.4-.7Z" transform="translate(-595.9 -490.3)"/><path class="cls-113" d="M653.4,501.2v.3h.5l.5-.2h-.6c.7-.5.2-.1.4-.5Z" transform="translate(-595.9 -490.3)"/><path class="cls-111" d="M650.8,509.7h.6l.4-.3c-.1-.6-.5-.3-.7-.3v.2Z" transform="translate(-595.9 -490.3)"/><path class="cls-2" d="M648.2,496.9l.4.6c.4-.8.1.2.9-.6s-1.3.3-1.3,0Z" transform="translate(-595.9 -490.3)"/><path class="cls-114" d="M650.1,504.8h.5v-.3c-1.1-.5-.5-.4-1,0h.1Z" transform="translate(-595.9 -490.3)"/><path class="cls-115" d="M647.5,506a3,3,0,0,1,.4.8c.1.4,0,.2.3.7v-1.4c-.3,1.1,0,.3-.5.4S647.8,506.4,647.5,506Z" transform="translate(-595.9 -490.3)"/><path class="cls-45" d="M648.6,515c.3.6.5.6,1,0l-.4-.4-.3.6Z" transform="translate(-595.9 -490.3)"/><path class="cls-97" d="M652,508.1c-.5.8-.2.2,0,.5h.4V508H652Z" transform="translate(-595.9 -490.3)"/><path class="cls-85" d="M647.1,501.6l.5-.4c-.3-.1-.3,0-.1-.3l-.4.2-.2-.5C646.6,501.3,646.7,501.2,647.1,501.6Z" transform="translate(-595.9 -490.3)"/><polygon class="cls-3" points="33.4 15.6 33.1 15.8 33.5 16.1 34.1 15.4 33.6 15.5 33.4 15.6"/><polygon class="cls-106" points="41.1 13.4 41.1 13.5 40.9 13.9 41.4 14.1 41.5 14 41.7 13.5 41.1 13.4"/><path class="cls-6" d="M641.7,515.8c0,.6.6.3.6.3l-.4-.4c.2-.2.3-.1.7,0s.1-.1-.6-.3S642,515,641.7,515.8Z" transform="translate(-595.9 -490.3)"/><path class="cls-70" d="M646.7,494.5c1,.8.2.2.6.2s.2-.3-.5-.6S646.6,494.2,646.7,494.5Z" transform="translate(-595.9 -490.3)"/><path class="cls-111" d="M644.3,511.5c0-.6-.2-.2.2-.4s.2-.2,0-.3-.3-.2-.8-.5Z" transform="translate(-595.9 -490.3)"/><path class="cls-19" d="M639.2,499.1l-.2.3h.1v.2c.7-.2.2-.2.7.1l-.2-.8v.3Z" transform="translate(-595.9 -490.3)"/><polygon class="cls-54" points="52.4 23.5 52.8 23.9 53.1 23.4 52.6 23.1 52.4 23.5"/><path class="cls-47" d="M648.8,507l.4-.7c-.7-.2-.1-.3-.6,0S648.5,506.4,648.8,507Z" transform="translate(-595.9 -490.3)"/><path class="cls-116" d="M645.6,494h.4c.3-.4.3-.3-.1-.5h-.3l-.4.3Z" transform="translate(-595.9 -490.3)"/><path class="cls-83" d="M637.4,505h-.3l-.2.3c.4.2.5.1.8-.2s.3.2.1-.2Z" transform="translate(-595.9 -490.3)"/><polygon class="cls-113" points="42.5 11.7 42 11.5 41.7 11.8 42.6 12.1 42.5 11.7"/><path class="cls-87" d="M646.1,495h.3v-.4c-.5,0-.1-.2-.6.1S645.2,494.8,646.1,495Z" transform="translate(-595.9 -490.3)"/><path class="cls-104" d="M649.4,503.9h-.3l-.5-.3v.5C649.6,504.3,648.9,504.1,649.4,503.9Z" transform="translate(-595.9 -490.3)"/><path class="cls-103" d="M648.7,498.3h.3l.7-.3C649,497.9,648.9,497.7,648.7,498.3Z" transform="translate(-595.9 -490.3)"/><path class="cls-39" d="M649.5,506.1l-.2.2-.2.5.4-.3c.3-.1.3.1.5.3v-.3l-.2-.4Z" transform="translate(-595.9 -490.3)"/><path class="cls-21" d="M656.6,497.6v.2c.6-.1.3,0,.7-.4S657.1,497.3,656.6,497.6Z" transform="translate(-595.9 -490.3)"/><path class="cls-77" d="M628.2,503l-.6-.4-.4.3C627.7,503.1,627.7,503,628.2,503Z" transform="translate(-595.9 -490.3)"/><path class="cls-99" d="M650.5,501.5h.3l.3-.3-.8-.4C650.7,501.5,650.7,500.8,650.5,501.5Z" transform="translate(-595.9 -490.3)"/><path class="cls-105" d="M646.4,499.8c.7.1.3,0,.8.4l-.2-.7c.1-.1,0-.1,0-.1Z" transform="translate(-595.9 -490.3)"/><path class="cls-78" d="M647.1,492.7h.2l.3-.9h-.2C647,492.2,647.3,492,647.1,492.7Z" transform="translate(-595.9 -490.3)"/><path class="cls-117" d="M644.5,513.5c-.5-.2-.7-.5-.9-.2l.4.4Z" transform="translate(-595.9 -490.3)"/><path class="cls-24" d="M635.7,503.9l.6.2v-.5c-.1-.1.3-.1-.2-.1Z" transform="translate(-595.9 -490.3)"/><path class="cls-103" d="M645.1,495.7l-.3-.2-.2.3c.3.4,0,.1.4.4v-.4C645.2,495.8,645.1,495.8,645.1,495.7Z" transform="translate(-595.9 -490.3)"/><polygon class="cls-74" points="47.1 16.1 47.7 16.6 47.6 15.8 47.1 16.1"/><polygon class="cls-103" points="49.6 2.7 49.5 3.2 49.7 3.3 49.7 3.2 50.2 2.6 49.6 2.7"/><path class="cls-1" d="M656.5,497.7c-.7.7-.3.2,0,.6l.2-.5v-.2Z" transform="translate(-595.9 -490.3)"/><path class="cls-29" d="M651,510.1l.3.6c.1-.4.3-.1.1-.5S651.1,510.1,651,510.1Z" transform="translate(-595.9 -490.3)"/><path class="cls-60" d="M650.1,493.2l.3-.6h-.1c-.3,0,.1-.3-.5.3S649.4,492.9,650.1,493.2Z" transform="translate(-595.9 -490.3)"/><path class="cls-118" d="M638.8,499.2l.3.2H639c0-.5-.4.3.1-.6s-.1-.2-.5.2Z" transform="translate(-595.9 -490.3)"/><path class="cls-52" d="M633.7,502.3c.7.2.3,0,.2.4s.1.1.3-.2V502h-.2Z" transform="translate(-595.9 -490.3)"/><path class="cls-119" d="M652.4,508.7H652c-.2-.3-.5.3,0-.5s-.1-.2-.4.5.2.2.5.2S652.1,508.9,652.4,508.7Z" transform="translate(-595.9 -490.3)"/><path class="cls-120" d="M644,508c-.9-.3-.3-.3-.7.2S643.1,508.9,644,508Z" transform="translate(-595.9 -490.3)"/><path class="cls-64" d="M641.4,507.6c-.2.2.1.4-.2.2s.5.1.8-.2S642.1,507.4,641.4,507.6Z" transform="translate(-595.9 -490.3)"/><path class="cls-40" d="M639.2,496.5c-.2-.7-.1-.5-.7-.7l.2.4Z" transform="translate(-595.9 -490.3)"/><path class="cls-94" d="M634.6,508.5l.2.2c.6-.1.1,0,.5-.3h-.5Z" transform="translate(-595.9 -490.3)"/><path class="cls-70" d="M647.6,500.7v.2c-.2.3-.2.2.1.3l.4-.2h0Z" transform="translate(-595.9 -490.3)"/><path class="cls-121" d="M629.9,510.9c.7.1.2.4.7-.2S630.4,510.4,629.9,510.9Z" transform="translate(-595.9 -490.3)"/><path class="cls-103" d="M648.1,504.2c.2-.2.2.1.1-.3l-.4-.2h-.4Z" transform="translate(-595.9 -490.3)"/><path class="cls-86" d="M652.4,502c0,.2-.1.1.2.2l.4-.2C652.9,501.6,652.9,501.8,652.4,502Z" transform="translate(-595.9 -490.3)"/><polygon class="cls-98" points="61.7 15.6 62.1 15.6 62 15.1 61.9 15 61.7 15.6"/><path class="cls-40" d="M647.1,508.1l.7.4-.2-.5C647.1,507.9,647.6,507.8,647.1,508.1Z" transform="translate(-595.9 -490.3)"/><path class="cls-122" d="M642.3,516.1l.3-.4c-.4-.1-.5-.2-.7,0Z" transform="translate(-595.9 -490.3)"/><path class="cls-116" d="M653.4,500.6c-.1.5-.2.3.1.3s.4-.3.3-.6Z" transform="translate(-595.9 -490.3)"/><path class="cls-94" d="M640.1,504.5c-.6.9-.2.2-.1.6S640.4,505,640.1,504.5Z" transform="translate(-595.9 -490.3)"/><path class="cls-106" d="M624.9,507.6h.2c.1-.4.5,0-.2-.5S624.7,507.4,624.9,507.6Z" transform="translate(-595.9 -490.3)"/><path class="cls-123" d="M631.4,507.8l.2-.3c.3-.6.2.1.1-.4h-.1l-.4.3Z" transform="translate(-595.9 -490.3)"/><path class="cls-109" d="M636.4,506h.6c-.1-.3.1-.2-.3-.4v.2h-.3Z" transform="translate(-595.9 -490.3)"/><path class="cls-16" d="M637.1,505.1h.3l-.5-.3C636.8,505.2,636.3,505.1,637.1,505.1Z" transform="translate(-595.9 -490.3)"/><path class="cls-19" d="M642.3,507v.2a.1.1,0,0,1,.1.1h.5C642.4,506.7,642.6,507,642.3,507Z" transform="translate(-595.9 -490.3)"/><path class="cls-122" d="M633.9,502.7c-.1,0-.3-.4-.2.2s-.1.1.1.4Z" transform="translate(-595.9 -490.3)"/><path class="cls-39" d="M645,500.4h.1c0-.5.4-.2-.2-.5S644.8,500.1,645,500.4Z" transform="translate(-595.9 -490.3)"/><polygon class="cls-39" points="50.6 23.8 50.6 23.7 50.9 23.4 50.7 23.2 50.4 23.7 50.6 23.8"/><path class="cls-27" d="M654.4,501.8c.4-.1.1.4.4-.3h-.4Z" transform="translate(-595.9 -490.3)"/><path class="cls-64" d="M648.5,493.1h-.2c-.5.5-.2.1-.1.4S648.3,493.5,648.5,493.1Z" transform="translate(-595.9 -490.3)"/><path class="cls-124" d="M638.9,494.2l.6.5v-.3a4.3,4.3,0,0,0-.1-.5v.5Z" transform="translate(-595.9 -490.3)"/><path class="cls-35" d="M651.9,512.9l.5.5v-.7C652.2,513.3,652.4,513.3,651.9,512.9Z" transform="translate(-595.9 -490.3)"/><path class="cls-103" d="M646.8,497c.1-.7-.2-.1-.4,0Z" transform="translate(-595.9 -490.3)"/><path class="cls-125" d="M639.3,506.4l.5.2c-.1-.2,0-.1,0-.7v.5Z" transform="translate(-595.9 -490.3)"/><polygon class="cls-27" points="44.2 10.5 43.9 10.5 43.8 10.8 44.2 10.5"/><polygon class="cls-99" points="50.4 21.4 50.8 21.4 50.5 21.2 50.4 21.4"/><path class="cls-42" d="M640.1,504.5c.5-.5.1-.1,0-.3S639.9,504.3,640.1,504.5Z" transform="translate(-595.9 -490.3)"/><polygon class="cls-39" points="49.1 4.4 48.8 4.2 48.8 4.5 49.1 4.4"/><path d="M599.1,528.4a9.4,9.4,0,0,1,.1-3.3q.1-.3,0-.3a6.7,6.7,0,0,1-.6,1.1l-1,1.7c-.5.8-.7.9-1.1.9h-.4c-.2-.2-.2-.4-.2-1.2a7.7,7.7,0,0,1,.6-2.4,14,14,0,0,1,1.4-3c.3-.5.6-.6.7-.4s0,.2-.2.6a17.9,17.9,0,0,0-1,2.4,11.1,11.1,0,0,0-.7,2.2,4.2,4.2,0,0,0-.1,1.5c.1.1.3-.2.6-.7l1.5-2.3c1.3-2.2,1.3-2.3,1.6-2.2h.1c0,.1-.1.4-.2.8a19.7,19.7,0,0,0-.5,3.5c-.1.9,0,1.3.3,1.6s.2.2.5,0a11.7,11.7,0,0,0,3.1-4.4,10.6,10.6,0,0,0,1-2.8,4.1,4.1,0,0,0-.1-1.2.1.1,0,0,0-.1-.1c-.2,0-.2-.2,0-.3a.4.4,0,0,1,.5.2,2.3,2.3,0,0,1,.1,1.2,7.3,7.3,0,0,1-.8,2.6,24.8,24.8,0,0,1-2.2,4c-.8,1-1.7,1.5-2.2,1.3A1.3,1.3,0,0,1,599.1,528.4Z" transform="translate(-595.9 -490.3)"/><path d="M605.4,525.7l-.3.5c0,.2,0,.2.1.3h.4a17.5,17.5,0,0,0,2.6-.7c.5-.2.7-.2.7,0l-.6.3-2.3.7h-1.2c-.4-.1-.4-.5-.1-1a.7.7,0,0,1,.6-.4C605.6,525.3,605.6,525.4,605.4,525.7Zm.9-1.7c-.2.3-.4.4-.5.3s.1-.6.4-.6S606.5,523.8,606.3,524Z" transform="translate(-595.9 -490.3)"/><path d="M608.9,525.4c.3,0,.3.2.1.4a.5.5,0,0,0-.1.8v.2h.4a13.1,13.1,0,0,1,3.1-1c.2,0,.2.1-.1.2a3.1,3.1,0,0,1-1.2.4l-1.5.6-.5.2v.2c.1.3-.1.6-.5.9a1.1,1.1,0,0,1-1,.3c-.3,0-.3-.1-.3-.3s0-.2.2-.4l.6-.5c.2-.1.4-.2.4-.3l-.2-.2c-.3-.3-.4-.6-.2-.9s.4-.5.7-.5Zm-1.2,2.8h.4c.4-.2.7-.6.6-.7h0C608.5,527.4,607.7,528,607.7,528.2Z" transform="translate(-595.9 -490.3)"/><path d="M613.9,525.4c.1.3-.3.7-.7.9h-.7v.2a.2.2,0,0,0,0,.3c.2.1.4.1.9,0a9.5,9.5,0,0,0,2.9-.9c.5-.2.7-.3.7-.1s-.1.2-.9.5l-2.7.9h-.9c-.7-.2-.8-.6-.4-1.1a1.5,1.5,0,0,1,1.2-.8A.8.8,0,0,1,613.9,525.4Zm-1.2.4c0,.2.4.2.6,0a.3.3,0,0,0,.1-.2c0-.1,0-.1-.1-.1Z" transform="translate(-595.9 -490.3)"/><path d="M623.3,528.4a9.4,9.4,0,0,1,.1-3.3q.1-.3,0-.3a6.7,6.7,0,0,1-.6,1.1l-1,1.7c-.5.8-.7.9-1.1.9h-.4c-.2-.2-.2-.4-.2-1.2a11.4,11.4,0,0,1,.5-2.4c.3-.7,1.2-2.7,1.4-3s.6-.6.8-.4,0,.2-.2.6a17.9,17.9,0,0,0-1,2.4,11.1,11.1,0,0,0-.7,2.2,4.2,4.2,0,0,0-.1,1.5c0,.1.3-.2.6-.7l1.4-2.3c1.3-2.2,1.4-2.3,1.7-2.2h.1c0,.1-.1.4-.2.8a19.7,19.7,0,0,0-.5,3.5,2.3,2.3,0,0,0,.2,1.6c.2.2.3.2.5,0s2.1-2.1,3.2-4.4a10.6,10.6,0,0,0,1-2.8,4.1,4.1,0,0,0-.1-1.2.1.1,0,0,0-.1-.1c-.2,0-.2-.2,0-.3a.4.4,0,0,1,.5.2,4.1,4.1,0,0,1,.1,1.2,7.3,7.3,0,0,1-.8,2.6,24.8,24.8,0,0,1-2.2,4c-.8,1-1.7,1.5-2.2,1.3A1.3,1.3,0,0,1,623.3,528.4Z" transform="translate(-595.9 -490.3)"/><path d="M630.6,525.4c.1.3-.3.7-.7.9h-.7v.2a.2.2,0,0,0,0,.3c.2.1.4.1.9,0a9.5,9.5,0,0,0,2.9-.9c.5-.2.7-.3.7-.1s-.1.2-.9.5l-2.7.9h-.9c-.7-.2-.8-.6-.4-1.1a1.5,1.5,0,0,1,1.2-.8A.8.8,0,0,1,630.6,525.4Zm-1.2.4c0,.2.4.2.6,0a.3.3,0,0,0,.1-.2c0-.1,0-.1-.1-.1S629.4,525.7,629.4,525.8Z" transform="translate(-595.9 -490.3)"/><path d="M638.4,521.9c0,.4-.3.9-1.1,1.7a13.6,13.6,0,0,1-1.7,1.7l-.7.6a3.6,3.6,0,0,0-.3,2.2c.2.1.2.3,0,.3h-.4a1.4,1.4,0,0,1-.2-1.2c.1-.7.1-.7-.3-.4s-1,.5-1.2.3-.2-.3-.1-.6a2,2,0,0,1,1.2-1.2.8.8,0,0,1,.7.2v.2l.2-.5c.8-1.7,2-3.3,2.9-3.6h.4C638.2,521.5,638.4,521.6,638.4,521.9Zm-5,4a2.7,2.7,0,0,0-.4.7c0,.1.4-.1.7-.3l.4-.3v-.2a.3.3,0,0,1-.1-.2h-.1A.5.5,0,0,0,633.4,525.9Zm4.4-4.1a2.8,2.8,0,0,0-.9.7,14,14,0,0,0-1.3,1.8l-.4.9.6-.5a15.4,15.4,0,0,0,1.8-2,1.3,1.3,0,0,0,.3-.7v-.3Z" transform="translate(-595.9 -490.3)"/><path d="M641.4,521.9c0,.4-.3.9-1,1.7l-1.7,1.7-.8.6a4.4,4.4,0,0,0-.2,2.2c.1.1.1.3,0,.3h-.4a1.4,1.4,0,0,1-.2-1.2c.1-.7.1-.7-.3-.4s-1.1.5-1.3.3-.1-.3,0-.6a1.8,1.8,0,0,1,1.2-1.2c.2,0,.5,0,.6.2v.2l.3-.5c.7-1.7,2-3.3,2.9-3.6h.3C641.2,521.5,641.4,521.6,641.4,521.9Zm-5,4-.4.7c0,.1.4-.1.8-.3l.3-.3v-.4h0Zm4.4-4.1-.9.7a8.1,8.1,0,0,0-1.2,1.8c-.2.4-.5.9-.4.9a2,2,0,0,1,.5-.5,17,17,0,0,0,1.9-2,1.3,1.3,0,0,0,.3-.7v-.3Z" transform="translate(-595.9 -490.3)"/><path d="M640.1,525.7a1.7,1.7,0,0,0-.2.5c-.1.2-.1.2,0,.3h.5l2.5-.7c.6-.2.7-.2.7,0s-.2.1-.6.3l-2.3.7h-1.2c-.4-.1-.4-.5-.1-1a.7.7,0,0,1,.6-.4C640.3,525.3,640.3,525.4,640.1,525.7Zm1-1.7c-.3.3-.4.4-.6.3s.1-.6.4-.6S641.2,523.8,641.1,524Z" transform="translate(-595.9 -490.3)"/><path d="M643.4,525.3c.2-.2.4-.2.5-.1s.1.2-.1.4a.4.4,0,0,1-.1.3l.3-.2a3,3,0,0,1,1.6-.4,1.1,1.1,0,0,1,.3.6c0,.1,0,.2.1.2s.7,0,1.9-.2,1.5-.3,1.5-.2-.1.1-.1.2l-.9.2-1.2.2a2.7,2.7,0,0,1-1.5.1c-.3-.1-.3-.2-.4-.5s0-.4-.5-.2a3,3,0,0,0-1.1.7c-.5.4-.7.5-.8.3S643,525.7,643.4,525.3Z" transform="translate(-595.9 -490.3)"/><path d="M649.9,525.3h.4a.1.1,0,0,1,.1.1c0,.1.1.1.4,0s.5-.2.7.1a1.4,1.4,0,0,1,0,.9h0l.5-.2,2.4-.8h.5c.1.1.1.1,0,.1l-.4.2a15.4,15.4,0,0,0-3,1.1,1.1,1.1,0,0,0-.3.5,9.2,9.2,0,0,1-2.5,3.2c-.6.5-1.1.6-1.4.4s-.4-.5,0-1.1a9.5,9.5,0,0,1,2.7-2.4c.4-.2.7-.5.7-.6a3.5,3.5,0,0,0,.3-1.1v-.2h-.1l-.9.5c-1,.6-1.2.6-1.4.4s-.2-.1-.1-.3a1.5,1.5,0,0,1,1.4-1Zm-1.3,3.8c-.9.8-1.3,1.4-1.1,1.7s0,.1.2,0l.4-.2,1.1-1.1a13.4,13.4,0,0,0,1.1-1.7h0Zm.9-3.2c-.2.1-.4.3-.4.4l.5-.3c.5-.2.5-.2.4-.3a.1.1,0,0,0-.1-.1Z" transform="translate(-595.9 -490.3)"/></svg>