<svg id="Layer_1" data-name="Layer 1" xmlns="http://www.w3.org/2000/svg" viewBox="0 0 88.8 46.4"><defs><style>.cls-1{fill:#5b5b5b;}.cls-1,.cls-10,.cls-100,.cls-101,.cls-102,.cls-103,.cls-104,.cls-105,.cls-106,.cls-107,.cls-108,.cls-109,.cls-11,.cls-110,.cls-111,.cls-112,.cls-113,.cls-114,.cls-115,.cls-116,.cls-117,.cls-118,.cls-119,.cls-12,.cls-120,.cls-121,.cls-122,.cls-123,.cls-124,.cls-125,.cls-13,.cls-14,.cls-15,.cls-16,.cls-17,.cls-18,.cls-19,.cls-2,.cls-20,.cls-21,.cls-22,.cls-23,.cls-24,.cls-25,.cls-26,.cls-27,.cls-28,.cls-29,.cls-3,.cls-30,.cls-31,.cls-32,.cls-33,.cls-34,.cls-35,.cls-36,.cls-37,.cls-38,.cls-39,.cls-4,.cls-40,.cls-41,.cls-42,.cls-43,.cls-44,.cls-45,.cls-46,.cls-47,.cls-48,.cls-49,.cls-5,.cls-50,.cls-51,.cls-52,.cls-53,.cls-54,.cls-55,.cls-56,.cls-57,.cls-58,.cls-59,.cls-6,.cls-60,.cls-61,.cls-62,.cls-63,.cls-64,.cls-65,.cls-66,.cls-67,.cls-68,.cls-69,.cls-7,.cls-70,.cls-71,.cls-72,.cls-73,.cls-74,.cls-75,.cls-76,.cls-77,.cls-78,.cls-79,.cls-8,.cls-80,.cls-81,.cls-82,.cls-83,.cls-84,.cls-85,.cls-86,.cls-87,.cls-88,.cls-89,.cls-9,.cls-90,.cls-91,.cls-92,.cls-93,.cls-94,.cls-95,.cls-96,.cls-97,.cls-98,.cls-99{fill-rule:evenodd;}.cls-2{fill:#9b9c9c;}.cls-3{fill:#b78878;}.cls-4{fill:#d6d5d6;}.cls-5{fill:#e8e7e7;}.cls-6{fill:#a67c73;}.cls-7{fill:#686866;}.cls-8{fill:#818181;}.cls-9{fill:#c8927d;}.cls-10{fill:#b1b1b0;}.cls-11{fill:#685449;}.cls-12{fill:#563c33;}.cls-13{fill:#989797;}.cls-14{fill:#d9d9d9;}.cls-15{fill:#a7a8a8;}.cls-16{fill:#6c6c6c;}.cls-17{fill:#796459;}.cls-18{fill:#b57b68;}.cls-19{fill:#bbbbbc;}.cls-20{fill:#f9f9f9;}.cls-21{fill:#adadad;}.cls-22{fill:#7c7b7c;}.cls-23{fill:#987667;}.cls-24{fill:#966c63;}.cls-25{fill:#dedee0;}.cls-26{fill:#877a76;}.cls-27{fill:#bdbebd;}.cls-28{fill:#787676;}.cls-29{fill:#e4e2e2;}.cls-30{fill:#a98676;}.cls-31{fill:#ecebec;}.cls-32{fill:#888887;}.cls-33{fill:#e7aa97;}.cls-34{fill:#a6a6a6;}.cls-35{fill:#cdcdcd;}.cls-36{fill:#d9a28d;}.cls-37{fill:#876b64;}.cls-38{fill:#aa826c;}.cls-39{fill:#4b4b4b;}.cls-40{fill:#e9e9e9;}.cls-41{fill:#a3a3a4;}.cls-42{fill:#d1d0d0;}.cls-43{fill:#f4f4f4;}.cls-44{fill:#ddd;}.cls-45{fill:#c7c8c8;}.cls-46{fill:#d8d8d7;}.cls-47{fill:#d8a696;}.cls-48{fill:#929292;}.cls-49{fill:#abacac;}.cls-50{fill:#d3d3d3;}.cls-51{fill:#72716e;}.cls-52{fill:#594339;}.cls-53{fill:#b4b4b4;}.cls-54{fill:#747474;}.cls-55{fill:#aaa9a9;}.cls-56{fill:#987b74;}.cls-57{fill:#a2a2a2;}.cls-58{fill:#a77967;}.cls-59{fill:#b99587;}.cls-60{fill:#8e8e8e;}.cls-61{fill:#c5c5c5;}.cls-62{fill:#494646;}.cls-63{fill:#d69a88;}.cls-64{fill:#d2d2d2;}.cls-65{fill:#b8b8b7;}.cls-66{fill:#886758;}.cls-67{fill:#636363;}.cls-68{fill:#9e9e9e;}.cls-69{fill:#cccccb;}.cls-70{fill:#5f5f61;}.cls-71{fill:#7e7e7e;}.cls-72{fill:#c0c2c0;}.cls-73{fill:#c89787;}.cls-74{fill:#959595;}.cls-75{fill:#c3c4c3;}.cls-76{fill:#584a45;}.cls-77{fill:#775848;}.cls-78{fill:#858283;}.cls-79{fill:#e1e1e1;}.cls-80{fill:#4a332a;}.cls-81{fill:#766866;}.cls-82{fill:#674c44;}.cls-83{fill:#eee;}.cls-84{fill:#c58b79;}.cls-85{fill:#949393;}.cls-86{fill:#b78c84;}.cls-87{fill:#f6f6f6;}.cls-88{fill:#855a49;}.cls-89{fill:#0c0d0c;}.cls-90{fill:#7a7a7a;}.cls-91{fill:#b59b94;}.cls-92{fill:#b9b9b9;}.cls-93{fill:#9a725c;}.cls-94{fill:#545454;}.cls-95{fill:#434343;}.cls-96{fill:#919190;}.cls-97{fill:#685955;}.cls-98{fill:#595956;}.cls-99{fill:#9f9fa0;}.cls-100{fill:#40403d;}.cls-101{fill:#6e6154;}.cls-102{fill:#775c54;}.cls-103{fill:#f1f1f1;}.cls-104{fill:#c9958b;}.cls-105{fill:#bfbfc0;}.cls-106{fill:#473b36;}.cls-107{fill:#bcc2c4;}.cls-108{fill:#895c51;}.cls-109{fill:#373638;}.cls-110{fill:#2e3031;}.cls-111{fill:#8b8b8b;}.cls-112{fill:#231b15;}.cls-113{fill:#e4dbd8;}.cls-114{fill:#291c17;}.cls-115{fill:#c6bbb8;}.cls-116{fill:#3b3b3c;}.cls-117{fill:#343434;}.cls-118{fill:#252829;}.cls-119{fill:#b5aba8;}.cls-120{fill:#1c1c1c;}.cls-121{fill:#674839;}.cls-122{fill:#c9a796;}.cls-123{fill:#33231c;}.cls-124{fill:#e6e2dd;}.cls-125{fill:#c9c9c9;}</style></defs><path d="M602.9,518.1a3.3,3.3,0,0,1-.7,2.3,3,3,0,0,1-2.2,1h-1.4c-.2,0-.3.1-.3.2a2.5,2.5,0,0,0,.1.8v.8c0,.1,0,.1-.1.1h-2.1c-.2,0-.2,0-.2-.2v-3.9c0-1.2,0-2.5-.1-3.8h0c0-.1,0-.1.1-.2h3.8a3.2,3.2,0,0,1,2.3.9A3.3,3.3,0,0,1,602.9,518.1Zm-2.3.1a1.2,1.2,0,0,0-1.3-1.3c-.7,0-1,0-1,.1s-.1.5-.1,1.3v.5a3.5,3.5,0,0,0,.1.6c0,.1.3.1,1,.1S600.6,519.1,600.6,518.2Z" transform="translate(-595.9 -492.4)"/><path d="M609.7,521.4a3.4,3.4,0,0,1-.1.9,1.4,1.4,0,0,1-.2.9h-5.5c-.1,0-.2,0-.2-.2a14.9,14.9,0,0,1,.1-1.9v-4.5c0-.3-.1-.8-.1-1.4h0c0-.1,0-.1.2-.1H609c.2,0,.4.1.4.2a3.2,3.2,0,0,0,.1.8v.9a.1.1,0,0,1-.1.1h-3.3v.4c0,.3,0,.5.1.6h3c.1,0,.2,0,.2.1s-.1.2-.1.9a2.8,2.8,0,0,0-.1.9c0,.1,0,.2-.2.2h-2.6c-.2,0-.3,0-.3.1v.9c.1.2.4.3.8.3h2.7C609.7,521.2,609.7,521.2,609.7,521.4Z" transform="translate(-595.9 -492.4)"/><path d="M615.9,523.3h-5.1c-.2,0-.2-.1-.2-.2v-5.8c0-.9-.1-1.6-.1-2.1s.1-.1.2-.1h2.2c.1,0,.1,0,.1.1h0c-.1.7-.1,1.8-.2,3.3v2.8h3.4c.1,0,.2,0,.2.1a7.9,7.9,0,0,1-.2,1.7c0,.1,0,.2-.1.2Z" transform="translate(-595.9 -492.4)"/><path d="M624.8,523.1h-2.3c-.2,0-.2-.1-.3-.3a2.2,2.2,0,0,0-.3-.9h-1.6c-.6,0-1,0-1,.1s-.2.2-.2.6-.2.5-.3.5h-1.3c-.6,0-.9-.1-.9-.2a39.6,39.6,0,0,1,1.3-3.8c.9-2.5,1.5-4,1.5-4.2s.1-.3.2-.3h1.9c.1,0,.2,0,.2.2s.8,1.8,1.7,4.2S624.8,523,624.8,523.1Zm-4.2-5.4a5.1,5.1,0,0,1-.4,1.1,10.2,10.2,0,0,0-.3,1.1c0,.1.1.1.4.1h1a4.5,4.5,0,0,0-.3-1.1Z" transform="translate(-595.9 -492.4)"/><path d="M632.1,517.1a.9.9,0,0,1-.1.5,17,17,0,0,1-2.1,3.1,1.7,1.7,0,0,0-.2.5,3.4,3.4,0,0,0,.1.9v1.1h-2.3a.2.2,0,0,1-.2-.2,3.4,3.4,0,0,1,.1-.9v-1a.8.8,0,0,0-.1-.4c-.5-.6-1.2-1.7-2.1-3a.8.8,0,0,1-.1-.4v-1.1a4.1,4.1,0,0,1-.1-1,.3.3,0,0,1,.1-.2h2.4c0,.2-.1.5-.1.9v.9a4.5,4.5,0,0,0,.5.9l.7.9a3.5,3.5,0,0,0,.6-.9c.4-.5.5-.7.5-.8v-.9c0-.4-.1-.7-.1-.9a.1.1,0,0,1,.1-.1H632a.3.3,0,0,1,.1.2v1.9Z" transform="translate(-595.9 -492.4)"/><path d="M640.6,523.1h-2.3a.3.3,0,0,1-.3-.3,2.2,2.2,0,0,0-.3-.9h-1.6c-.6,0-1,0-1,.1s-.2.2-.3.6-.1.5-.2.5h-1.4c-.6,0-.9-.1-.9-.2s.5-1.4,1.4-3.8l1.5-4.2c.1-.2.1-.3.2-.3h1.9c.1,0,.1,0,.2.2s.8,1.8,1.7,4.2S640.6,523,640.6,523.1Zm-4.2-5.4-.4,1.1a10.2,10.2,0,0,0-.3,1.1c0,.1.1.1.3.1h1.1a4.5,4.5,0,0,0-.3-1.1Z" transform="translate(-595.9 -492.4)"/><path d="M649,515.2v2a16.4,16.4,0,0,0-.1,2V523c0,.2-.1.2-.2.2H647l-.3-.2-1.9-2.5-1.2-1.6a.1.1,0,0,0-.1-.1h-.1c0,.5.1,1.2.1,2.1v2c0,.1,0,.2-.1.2h-2.1c-.1,0-.1-.1-.1-.2v-1.9a14.9,14.9,0,0,0,.1-1.9,17.2,17.2,0,0,0-.1-2v-2a.2.2,0,0,1,.2-.2h1.8s.1,0,.2.2l2.2,3,.9,1.1c.1.2.1.2.2.2s.1-.1.1-.4a14.9,14.9,0,0,0-.1-1.9v-1.8c0-.2,0-.3.1-.3h2.1C649,515,649,515,649,515.2Z" transform="translate(-595.9 -492.4)"/><path d="M657.8,523.1a.1.1,0,0,1-.1.1h-2.2c-.1,0-.2-.1-.2-.3a4.2,4.2,0,0,1-.3-.9h-2.7l-.2.6c-.1.3-.2.5-.3.5h-1.3c-.6,0-.9-.1-.9-.2a39.6,39.6,0,0,1,1.3-3.8c1-2.5,1.5-4,1.6-4.2a.4.4,0,0,1,.1-.3h2s.1,0,.2.2.7,1.8,1.6,4.2A30,30,0,0,1,657.8,523.1Zm-4.1-5.4-.4,1.1a4.9,4.9,0,0,0-.4,1.1c0,.1.2.1.4.1h1c0-.2-.1-.5-.2-1.1Z" transform="translate(-595.9 -492.4)"/><path d="M666.2,523.1h-2.4c-.1,0-.2-.1-.2-.3a2.2,2.2,0,0,0-.3-.9h-2.7a3.2,3.2,0,0,0-.2.6c-.1.3-.1.5-.2.5h-1.4c-.6,0-.9-.1-.9-.2s.5-1.4,1.3-3.8,1.5-4,1.6-4.2.1-.3.2-.3h1.9c.1,0,.1,0,.2.2l1.7,4.2C665.7,521.7,666.2,523,666.2,523.1Zm-4.2-5.4-.4,1.1a10.2,10.2,0,0,0-.3,1.1c0,.1.1.1.3.1h1.1a4.5,4.5,0,0,0-.3-1.1Z" transform="translate(-595.9 -492.4)"/><path d="M677.1,515v2a16.4,16.4,0,0,0-.1,2v3.8a.2.2,0,0,1-.2.2h-1.9l-.2-.2-2.1-2.5a11.3,11.3,0,0,0-1.3-1.6c0-.1,0-.1-.1-.1h0v2.1a16.4,16.4,0,0,1,.1,2,.2.2,0,0,1-.2.2h-3.8a.2.2,0,0,1-.2-.2,15.8,15.8,0,0,1,.1-1.9V508c0-.9-.1-1.6-.1-2s.1-.2.3-.2h3.5s.1,9,.2,9.2l2.4,3,.9,1.1c.1.2.2.2.3.2a.6.6,0,0,0,.1-.4c0-.4-.1-1.1-.1-1.9a13.6,13.6,0,0,1-.1-1.8.4.4,0,0,1,.1-.3H677C677.1,514.8,677.1,514.8,677.1,515Z" transform="translate(-595.9 -492.4)"/><path class="cls-1" d="M669.5,510.7c.3-.5-.3-.4.6-.3-.7,1.1-.2.2-.6.3Zm3.4,6.5h0c-.1-1,.1-1,.2-1l-.2,1.1Zm.3-1.3c0-.2-.1-.3-.2-.6l.4-.2-.2.8Zm-5.2-1.6h.2l.2-.8h.1l.3.3.2-2.1.3-.2V511a1.6,1.6,0,0,1,1.2.8c-.7.1-.1,0-.5.4l1.1.8-.3-.7h1.2l1.2.3v.7h-.1l.5.3v-.4a1.2,1.2,0,0,1-.1-.9c-1.6-.7-1.9,0-3.3-1.4h1.5c-1-1,1.1.8-.6-.4l-.2-.2c.5-.3.3-.3,1-.4l.7.3c.5-.7-.2.7,0-.3s-.1,0,.2-.3v-.2c-.3.4-.1.2-.6.2l-.7.3c-.1.5,0,.4-.4.3s-.1-.3-.6-.3h-.9v-2h.2c0,.1.2.2.2-.2v-.2h-.5l-.5,1.2.3.7-.7-.3-.3.3-1,1h0c.6-.3.1-.1.6-.1s.2.1.2.4.1.2-.2.4l-.8.8-.3.2c.1.3-.3.3.3.1h0c.6-.6.3-.7,1.3-.9s.1.5-.2,1,0,.1-.1.2v.7l-.3.9Zm.2-4.5c.4-.1.1-.4.7.2h-.5a.1.1,0,0,1-.1-.1Z" transform="translate(-595.9 -492.4)"/><path class="cls-2" d="M665.5,507.8c.4.4.4.2.1.6s-.5.4-.1-.6Zm-1.4,5.7h.3a16.5,16.5,0,0,1,.9-3.2c1.1.1.5-.1,1,.7l-.5.6.9-.3c.4-.1,1.2-.4,1.4-.1s.2.1.2-.4-.1-.3-.2-.4-.3.5-.8.4,0,0,.2-.3h-.7c.3-.8.6-1.7.9-2.4a14,14,0,0,1,1.3-1.8c-.4-.7.1-.1-.2-.9s-.3.4-.3-.7l-.8-.2h.1c-.5.1-.3.2-.8.4s-.2-.1-.6.3l-.9.5c.4-.6,1.7-.7,2.6-.4s-.2.2-.3.3-.1.2-.1.1l-.2.2c.9-.2.3-.4,1.3-.4l-.4,1c-.3.6-.4,1.1-1,1.2h.1l-.9,2.6a3.2,3.2,0,0,1-.6-2.3,4.3,4.3,0,0,1,1.4-2.1c-.4,0-.3-.1-.9.3l-.5.7-1.8-.4c-.3.2-.2,0-.3.5l.3-.2v.4l.5-.4,1.2.4-.7.2a3.4,3.4,0,0,1-1,0v.3c-.8-.1-.8,0-1.4.5v.2l1-.3h1.6v.9h.2c.1.6-.1.5.2.7l-.6-.2h-.4c.3.7,0,1-.4,1.7a2.2,2.2,0,0,1-1,.9l.7.2.3-.2-.3,1.2Zm1.4-5.7c.4-.5.1-.1,0-.2S665.3,507.6,665.5,507.8Z" transform="translate(-595.9 -492.4)"/><path class="cls-3" d="M657,516.4c.3-.7,0-.4.6-.4s.1.3-.6.4Zm.4.9v-.5l.6-.2.8-1.8h-.3v-1.1c.1-.4,0-.1.2-.3s.1.6-.1,1.2-.1-.9.6-1v-.2l-1.3-.3a1.8,1.8,0,0,1-.6,2.3l.6-2.3h-.4l-.2-.3.4-.4c.2-1-.1-.5-.1-1.5l-.7-.3c-.1.5-.1,1.1-.2,1.5s-.3.5-.6,1.2v.6c.4-.6.2-.8.8-.5l-.3,1.6-.7-.5c.1.8,0,.1.3.6v.2c.1.3.2,0-.1.3l.6.9c.2.2.2.5.2.9Z" transform="translate(-595.9 -492.4)"/><path class="cls-4" d="M670.4,499H670c.2-.1.4-.8.4-.1Zm2.2-1.5h-.1l-1.2.2-1.1.4.2-.7c-.5-.2-.2.2-.4-.2s-.1-.3-.3-.3-.6-.1.3,1h-.3c-.7.2.4-.1-.2.1v.5l-.4-.2-.6-.3c0,.1.1.1,0,.2v.3c-.5-.1-.1.1-.5-.3h-.4l.2.8c1.9,0,1,.3,1.9-.1a2,2,0,0,1,.2,1.5h-.6l.6.4c.3-.5.3-.4.9-.7v-.7c-.2-.2-.1,0-.1-.4h.5l.4-.3h.1c0,.3.5-.2,1.2-.3s-.5,0-.7.8l.3.8c.1-.6.2-.5.9-.5v-.5l.5.4v-.8h.3c0-.6.1-.2-.1-.7s-.2-.1-.2-.6.3-.3-.6,1.4c-.4-.3-.1-.7-.9-.6Z" transform="translate(-595.9 -492.4)"/><path class="cls-5" d="M670.1,506.1a2.6,2.6,0,0,1,.1,1.5v.2c.5.4.4.3.6.9h.2c2,1.1,1.7.2,3.4.8v-.4l-.3-.2c-.4-.3-.3-.2-.5-.6l-.5-.6-.6-.4v1.2c-.3.1.3.3-.2-.2s-.1-.1-.1-.2l-.2-.2.2,1.1a2.3,2.3,0,0,1-.4-1.6l-.4.4.4-.7h.7c-.9-.5-.6-.6-1.7-1.1h-.8Z" transform="translate(-595.9 -492.4)"/><path class="cls-6" d="M665.5,498.8l.4.2,1,.8-.3,2.1a4.3,4.3,0,0,1-1.5-1.8c-.5-.3-.5-.2-.6-.8v-1.4l1,.9Zm-2.9-2v.9a.5.5,0,0,1,.2.4c.1.1.1.1.1.3s.3.2.2.9h.2v-.6c1.2.3,1,.8,1.6,1.9s.1.2.7.6l.9,1.3c.2.3,0,.1.4.3v-.4c.3-.6-.1,0,.5-.2s-.1-1.4.1-2.1,0-.3.4-.4h.3l-2.7-1.7-.2-.5h-.8l-.4.2c.6.2.8.1.9.7s-.1.5-.1.6-.1.1-.2.3l-1-2.2c.3.3.3.2.7.2s-.4,0-.3-.3h-.2Z" transform="translate(-595.9 -492.4)"/><path class="cls-7" d="M658.9,512.8c.4.1.1,0,.2.1l.4.2c.7.2,1.1.3,1.6-.1a3.3,3.3,0,0,0-1.7-.1,9.7,9.7,0,0,0,3.5-1.8l.6-.4c.6-.4.3-.4.8-.2s.1.1-.1.4-.5-.3-.8.9-.3-.1-1,.7.2-.1.3,0-.4.6,0,1a2.8,2.8,0,0,0,1.4-1l-.7-.2a2.2,2.2,0,0,0,1-.9c.4-.7.7-1,.4-1.7h-.1c-.7.2-.5.4-1.4,1S659.4,512.3,658.9,512.8Z" transform="translate(-595.9 -492.4)"/><path class="cls-8" d="M669.5,502.8c.3-.1.1.2.6-.4s.5-.4.2.7h.3c-.3.4-.2.2-.1.8s.6.7-.8-.2c.3.9.2,1-.5,1.3s-.2-.1-.1-1.2l.3-1.1c-.3-.3-.4.3-.2-.4s.2-.1.3.4Zm.3-.9v.4c-.7-.3-.8-.2-1,.5a1.6,1.6,0,0,0-.2,1.1l-.7.6h-.1l.8.2c-.2-.8,0-.2.1-.3s-.1.4.6.8.6.2.6.1a1.5,1.5,0,0,0,.3.7h.3v-.6c.4.1.8.6,1-.3v-.2c-1.3-.3.1.5-1.2-.1.4.1.6.5.7-1s-.5-.2-.3-1.5h-.3l-.2-1.1c-.3-.6-.1-.3-.3,0Z" transform="translate(-595.9 -492.4)"/><path class="cls-9" d="M678.4,505.5l.8.9c.3-.4-.1-.3.5-.2s.8.4,1.7.6h.2c.3-.2.3-.2.4-.8a8.4,8.4,0,0,1-1.4-.6c-.8-.2-.8,0-1.6-.2h2.3c-.6-.5-.1-.4-1-.8h.3a1.5,1.5,0,0,0-1.3.2c-.6.3-.5.4-.5.8Z" transform="translate(-595.9 -492.4)"/><path class="cls-8" d="M658.5,504.2l.4.2.3.2c.7.6.5-.2.3.8s-.3-.2-.4-.4H659v.4c.5.1.5.2.8-.1l-.2.7-1,.3h0c.5.2.2,0,.2.3h.2a1.7,1.7,0,0,1,1.2-.5l-.2.9v-.2c.5.2.5-.3.4.3l.3-2-.5.5c-.1-.4-.5.3.1-.9h.5l.4-.3v-.3h-1.3v-.5l-1.2-.3c.5.5.2.3.9.5s-.6.2-1-.1S658.7,503.4,658.5,504.2Z" transform="translate(-595.9 -492.4)"/><path class="cls-3" d="M656.2,506h-.1l.8.6c.8.4.1.1.3-.2v-.5h.1a9.2,9.2,0,0,1-.5-2.5c.7.8.1-.1.6,1.7.6-.1.1-.3.4,0l-.2.7v.5l.2-.2.3-1.4.2-.8c-1-.1,0-.1-1.7-1.1a10.3,10.3,0,0,0-.1,1.7C656.4,505.1,656,505.4,656.2,506Z" transform="translate(-595.9 -492.4)"/><path class="cls-10" d="M671.2,494.9c-.1.4.1.1-.2.3s-.4.2,0-.4h-1.2c1.1.7.8.7,1.7.8s.3,1.1.2,1.5-.4-1.1-1.9-1.1v.2c.7.2.3-.2.6.5s.5.5-.6,0h0v.2a1,1,0,0,1,.1.3c.2.4-.1,0,.4.2s.2-.3.2-1.1.7.7.7,1.4l1.2-.2h.1l.9-.8c-.7,0-.8.3-1.3.7a1.6,1.6,0,0,1,.3-1.6l-.7-.2.4-.3c.3-.4.1,0,0-.5h-.5l-.2-.3Z" transform="translate(-595.9 -492.4)"/><path class="cls-11" d="M656.2,502.7v1.5c-.5.6-.3.2-.4.9v.6c0,.4-.1.5.2.8s.4-.4.3.5-.3.3-.8-.1l.3.5.2.2h.2l-.2-.4c.3-.4,0-.1.6-.2h-.1c-.2-.7-.3-.6-.2-1.1s.2-.9.4-1.6a10.3,10.3,0,0,1,.1-1.7c1.7,1,.7,1,1.7,1.1l-.2.8.3-.4c.2-.8-.3-.3.3-.4s.2.1,1,.1-.4,0-.9-.5h-.6l-.3-.2v-.4h-.3c-1,.2-.6-.4-1.4-.8S656.6,501.7,656.2,502.7Z" transform="translate(-595.9 -492.4)"/><path class="cls-4" d="M671.6,506c-.6,0-.3-.1-.7.1,1.1.5.8.6,1.7,1.1h-.7l-.4.7.4-.4a2.3,2.3,0,0,0,.4,1.6l-.2-1.1.2.2c0,.1.1.1.1.2s-.1.3.2.2v-1.2l.6.4c.3.3.2-.2.3.4s.4.6.5-.5,0-.2-.4-.7v-.2c-.3-.2-.2-.1-.4-.4h-.1l-1.2-.8C671.5,505.7,671.6,504.8,671.6,506Z" transform="translate(-595.9 -492.4)"/><path class="cls-12" d="M677.6,502.5l-.4.4-.5.5a4.1,4.1,0,0,0-1,.9c-.3.4-.3.5-.8.7l-.7-.5c-.2.5-.2.3-.1.7h.3l.3.5-.4.3-.7.7v.2c.6.1.4.1.9-.2s0-.4.8-.4l.2-.4h-.6a.1.1,0,0,1-.1-.1c.4-.4-.2-.4,1-.1s0-.5.3-.7.7-.8,1.2-1.3.4-.3.7-1.1Z" transform="translate(-595.9 -492.4)"/><path class="cls-13" d="M663.7,509.1l-1,1.6a5.4,5.4,0,0,0-2.2.9,4.1,4.1,0,0,1-2.2.7c-.5.8-.2.2,0,.5h.6c.5-.5,2.2-.6,4.4-2.2s.7-.8,1.4-1l-.2-.2V509h-.3C663.7,508.9,663.8,508.9,663.7,509.1Z" transform="translate(-595.9 -492.4)"/><path class="cls-14" d="M670,501.3l.2,1.1c.3-.5-.1,0,.5-.5l.5-.6h0l.4.7-.2.3v.2l.3.4.4-.3v-.2c.5-1.1.3-1,.3-2.1v-.3c-.5.4-.2.4-.7,1.1-.6-1.3.9-.8.1-1.5v.2c-.2.4.1,0-.3.3l-.4.3C670.2,500.8,670.2,500.6,670,501.3Z" transform="translate(-595.9 -492.4)"/><path class="cls-15" d="M662.1,499.7c.6.1.4-.1.8.5l-.5-.2c-.3-.2-.2-.2-.3-.3Zm-2-1.9.8.3c.7-1,.6-.2.7,0s-.4-.2-.9.1.2,0,.3.3a3,3,0,0,1,1.3,1.2l-1.2-.3a3.4,3.4,0,0,0,2.2,1.2c-.2-.7,0-.6-.3-1.1s-.7-.4-.9-.7l-.2-.2c-.4-.5-.2.1-.4-.6l.8.6c.4.3.3.3.7.7s.2-.6-.2-.9l-.7-.4a6.7,6.7,0,0,0-2.3-1Z" transform="translate(-595.9 -492.4)"/><path class="cls-16" d="M670.4,506h.5c.4-.2.1-.1.7-.1s-.3.3-.2-.6h.8l-.6-.3c.7-.4.3-.7.7-1.3l-.4-.2h-.2c-.4-.3-.5-.2-.4-.8v-.2h-.9c-.2,1.3.5,0,.3,1.5s-.3,1.1-.7,1c1.3.6-.1-.2,1.2.1v.2c-.2.9-.6.4-1,.3Z" transform="translate(-595.9 -492.4)"/><path class="cls-17" d="M657.1,510.3l-.2.3-.3.9a15.2,15.2,0,0,0-.6,2c-.2,1-.5,1.5.4,2s.2,0,.1-.3V515c-.3-.5-.2.2-.3-.6l.2-.6v-.6c.3-.7.4-.2.6-1.2s.1-1,.2-1.5l.7.3a2.7,2.7,0,0,0,.8.7v-.3c.7-.8.1-.6.8-1s-.4-.1.2-.4.1.3.5-.4-1.3.3-1.9,1.4C657.4,510.2,658,510.3,657.1,510.3Z" transform="translate(-595.9 -492.4)"/><path class="cls-4" d="M669,506.2a14,14,0,0,0-1.3,1.8c-.3.7-.6,1.6-.9,2.4h.7l1-1c-.5-.3-.3,0-.4-.6v-.7l.3-.7a1.3,1.3,0,0,1,.3.5,1.4,1.4,0,0,0,.2.4c.7-.6.3-.9.1-1.9.6.8.1.4.6,1s-.1-.4-.1-.7-.8.2,0-.7Z" transform="translate(-595.9 -492.4)"/><path class="cls-18" d="M652.5,507c-.5.2-.1-.1-.5.4l-.5.3,1.4.4c1.6.1,2.3.7,3.8,1s0-.4-.2-.6-.1.1-.4-.2-.2-.2-.3-.4-1.3-.8-1.7-.7.3,0,.7.8A4.9,4.9,0,0,1,652.5,507Z" transform="translate(-595.9 -492.4)"/><path class="cls-19" d="M664.5,496.4l.6-.2c0,1-.3.4,0,1.5-1-.8-.2,0-.5-.9l-.6-.6,1-2c.2-.5.2-.4.6-.5l-.5,1.5c-.3,1.1-.5.3-.6,1.2Zm-.7.6c-.1.3-.1.1.3.3v.2h.8l.2.5a7.6,7.6,0,0,0,.2-2.3c0-.3-.1-.7,0-.9s.5-.4.3-1.4-1,.7-1.4,1.4-1,1-.2,1.9S664.1,496.8,663.8,497Z" transform="translate(-595.9 -492.4)"/><path class="cls-20" d="M669,493.9l.3.2c.4.3.3.2.1.8l-.2.6.6.5h0c1.5,0,1,.4,1.9,1.1s.3-1.4-.2-1.5-.6-.1-1.7-.8-.2-.5.1-1l.5-.9C669.5,492.9,669.5,493.2,669,493.9Z" transform="translate(-595.9 -492.4)"/><path class="cls-21" d="M673.7,512.5h.9l-.4,1.4c.4,0,.2.4.5-.6s.1-.6.1-1.1a4.6,4.6,0,0,1-2.7-.9c.5-.4.1-.3.9-.2s.4-.1-.5-.4l-.8-.2c.3-.3,0-.3.4-.5s-.5.1-1,.4l.2.2c1.7,1.2-.4-.6.6.4h-1.5C671.8,512.5,672.1,511.8,673.7,512.5Z" transform="translate(-595.9 -492.4)"/><path class="cls-22" d="M662.7,509.4h-.4c0,.2-.1.2.2.2s.2.1.4.4h-.6l-3.1,1.3a7.6,7.6,0,0,1-.9.9,4.1,4.1,0,0,0,2.2-.7,5.4,5.4,0,0,1,2.2-.9l1-1.6h-.4C663.2,509.4,663.1,509.5,662.7,509.4Z" transform="translate(-595.9 -492.4)"/><path class="cls-3" d="M681.3,504.1v.4c.9,0,.6-.1,1.1.3s.2-.2.6-.4a2.9,2.9,0,0,0-.2-2.7h-.3a4.4,4.4,0,0,0-.7,2.6Z" transform="translate(-595.9 -492.4)"/><path class="cls-23" d="M655.5,511.4l.5-.2-.4.8-1.2,1c-.3.4-.2.3-.6.4h-.9c-.5.2-1.2.4-1.3-.1s-.2-.3-.3.3.3.1.3.4,1.7.4,2.8-.6l1.1-.8c.5-.4.5-.8,1.1-1.2l-.3-.8v-.2Z" transform="translate(-595.9 -492.4)"/><path class="cls-24" d="M678.1,505c.1.4-.1.3.1.6h.6c0-.4-.1-.5.5-.8a3,3,0,0,1,2.9.4l-.9.3H679c.8.2.8,0,1.6.2a8.4,8.4,0,0,0,1.4.6v-.5l.6-.2v-.6c-.5-.4-.2-.3-1.1-.3v-.4a3.7,3.7,0,0,0-1.8,0C678.3,504.4,678.8,504.7,678.1,505Z" transform="translate(-595.9 -492.4)"/><path class="cls-25" d="M665.5,505.7l-.7.5-.6.3,1.8.4.5-.7c.6-.4.5-.3.9-.3h.1l.2-.2c0,.1,0,0,.1-.1s.1-.2.3-.3S665.9,505.1,665.5,505.7Z" transform="translate(-595.9 -492.4)"/><path class="cls-26" d="M676.4,502c-1,.8-.1.4-.6,1s-.2-.1-.4-.5h-.9l.6.2-.4.7c-.2.9-.1.2.1.6s.9-1.6,2-1.5v.6l.5-.5c-.3-.1-.2,0-.2-.2s-.3.1-.3-.4a.8.8,0,0,0,.7-.4c.6.6,0,.3.9.6V502h-.5v-.3l-.7-.3C676.8,501.7,676.7,501.6,676.4,502Z" transform="translate(-595.9 -492.4)"/><path class="cls-27" d="M675.1,513.8H675c-.4-.3-.2-.4-.1-.9s.5.1.6.5-.1.3.2.8l-.6-.4Zm-.3-1.5c0,.5.1.7-.1,1.1s-.1.6-.5.6-.1.1,0,.9h-.4v.3h.2V515l.4.2c-.3-.8.3-.4.1-1.2l.7.2c.1.6-.1.5.2.9v-.4h.6v-.4c-.9-.5.3.1-.7-1.5l-.3-.6.4-.3h-.5C674.7,512.2,674.9,512,674.8,512.3Z" transform="translate(-595.9 -492.4)"/><path class="cls-28" d="M683.2,504.8v.5h-.4v.3l-.3.6.3.2.6.4H683l-.5.3-.4,1c.8-.4.2-.5,1.1-.2v-.7c.9.1.2.3.7,0l.4-.5h-.5c.3-1.1.3-.5-.3-.9s.5-.1,1-.4l-.7-.2h-.1l-.3-.6Z" transform="translate(-595.9 -492.4)"/><path class="cls-29" d="M672.1,505.1h1l1.1-.5.5-.8.2-.6c-1.4.4-2.1.3-2.5,1.1A9.4,9.4,0,0,0,672.1,505.1Z" transform="translate(-595.9 -492.4)"/><path class="cls-30" d="M663.3,500.6a6,6,0,0,1,.6,1.9l.3.7.5.5,1.5.4c-.3-1,.2-.1-1.3-1,0,0,.1-.1.1,0h.4c.6-.1,0,.2.6,0l-1.4-.5-.3-.4h1.3c-.3-.1-1.5-.2-1.5-.6s.1-.3-.4-1Z" transform="translate(-595.9 -492.4)"/><path class="cls-12" d="M657.4,505.8h-.1a3.4,3.4,0,0,1,0,2v.4c0-.1-.1,0-.1.1l-.7-.3v-1c-.6.1-.3-.2-.6.2l.2.4.3.3c.2.4.1.2.1.5s.2-.2.2.6h.1c.4,0,.3-.1.2.3s-.1-.3.5-.4l.7.5c.7-.4.6-.9,1.2-1.1h.2c0-.4.1-.1-.1-.4l-.5.4c-.4.4-.1.4-.7.5s-.6,0-.7-.4-.2-1.5.4-1.7-.2-.3-.3-.4v-.5c-.1-.2-.1.2-.1-.2s-.1-.1-.2-.1Z" transform="translate(-595.9 -492.4)"/><path class="cls-31" d="M667.1,502.1l.9,1.3c.1,0,.7.1.5-.6s-.5-.2-.8-.4.5.3,1.1,0l-.3-.9c-.5-.1-1.1,0-1.3-.6v-.6l.4.2-.3-.5C667,500.7,666.6,501.4,667.1,502.1Z" transform="translate(-595.9 -492.4)"/><path class="cls-32" d="M669,511.7c.3.5.1.8.4,2.2h.2l.2-.4c.6.7.5.8.6,1.9l-1.2-.7c.1.6.1.5.5.7l1.7.3-.4-.6c.2-.9-.2,0,.4-.3-1.1-.8-.9-.7-1.5-1.9l-.6-1.1Z" transform="translate(-595.9 -492.4)"/><path class="cls-33" d="M653.5,511.7c-.6.8-1.3.2-1.9,1.7s.8.3,1.3.1v-.3a1.3,1.3,0,0,0,1.1-1.1l.4-.2v-.5Z" transform="translate(-595.9 -492.4)"/><path class="cls-34" d="M661.3,503.8c.5.2.4,0,.2.5a8.1,8.1,0,0,1,1.3-.6c-.6.9.1-.1-.5.5s.1-.5,0,.1.3.2-.7.6-.5.3-.2-.4l-.4.3v.4l.6-.3c0,.3.4-.3-.2.5s-.2.7-.7,1.8-.1.2.1.4l.5-.3a2.7,2.7,0,0,1,.4-1.7,3.8,3.8,0,0,1,.9-.9c.5-.3,0-.3.8-.2v-.3c.1-.6,0-.1-.2-.4l-.3-.4h-.4c-.3.1-.1.1-.3.2Z" transform="translate(-595.9 -492.4)"/><path class="cls-35" d="M673.9,510l-.7-.2H673c-.3.3-.2,0-.2.3s.5-.4,0,.3l-.7-.3c-.4.2-.1.2-.4.5l.8.2c.9.3.5.1.5.4a2.7,2.7,0,0,1,1.9.4c-.2-.7-.5-.8-1.1-1l.7-.2-.3-.7C674.2,510.4,674.3,509.9,673.9,510Z" transform="translate(-595.9 -492.4)"/><path class="cls-36" d="M652.9,508.1H652c-.6.1.1.1-.3.2l1.2.3c.7-.1,1.1.1,1.6-.1l.2.5h1l-.3.2c.1.4-.4.2.4.4l.8-.3.2-.5h-.1C655.2,508.8,654.5,508.2,652.9,508.1Z" transform="translate(-595.9 -492.4)"/><path class="cls-37" d="M678,508.7l.4-.2v.7h.4v-.4c-.5-.2-.2,0-.2-.2,1.8-1.3,1.4-.5,2.2-1.4h.3l.3-.6c-.9-.2-1.2,0-1.7-.6s-.2-.2-.5.2l1.3.6C679.3,507.9,679.2,507.1,678,508.7Z" transform="translate(-595.9 -492.4)"/><path class="cls-38" d="M653.9,510.5l-.7.9.3.3,1-.3v.5a3.3,3.3,0,0,0-.3.6c-.1.6-.3.1.1.3s.3-.1.6-.5l-.3-.5s1.1-1.1.3-2Z" transform="translate(-595.9 -492.4)"/><path class="cls-39" d="M661.5,501.9c-.8-.3-2,.2-2.3-.4h-.8c.2.4.1-.1.1.3s-.1.2-.1.2l-.3.5h0l1-.2a3.4,3.4,0,0,1,3.5,0l.2.3c.4-.5-.3-.7.5-.3s0,.1,0,.6v-1Z" transform="translate(-595.9 -492.4)"/><path class="cls-35" d="M665.1,504.4v.3l-.6.2c.3.7,0,.4-.3,1.3v.3h.1l.6-.3.7-.5.9-.5-1.3-.3,1.1-.8-1.5-.4h0C665.1,504.2,664.9,504,665.1,504.4Z" transform="translate(-595.9 -492.4)"/><path class="cls-40" d="M666.7,503.7h-.2c-.1.1-.2.1-.3.3l-1.1.8,1.3.3c.4-.4.1-.1.6-.3s.3-.3.8-.4l.7-.6Z" transform="translate(-595.9 -492.4)"/><path class="cls-40" d="M668.5,509.4l.3-.3.4-.4.5-1.2a1.9,1.9,0,0,0,.2-1.4h-.4c-.8.9-.2.1,0,.7s.1.2.1.7,0-.2-.6-1c.2,1,.6,1.3-.1,1.9a1.4,1.4,0,0,1-.2-.4,1.3,1.3,0,0,0-.3-.5l-.3.7v.7C668.2,509.4,668,509.1,668.5,509.4Z" transform="translate(-595.9 -492.4)"/><path class="cls-41" d="M661.1,513v-.3h.9l.3-.2c.7-.8.3.1,1-.7v-.5c-.2-.2.5-.1-.5-.2a9.7,9.7,0,0,1-3.5,1.8A3.3,3.3,0,0,1,661.1,513Z" transform="translate(-595.9 -492.4)"/><path class="cls-42" d="M658.3,503.3h.6l1.2.3h1.2l.8-.2c.2-.1,0-.1.3-.2h.4c-.2-.3.3-.3-1.2-.3S658.8,502.9,658.3,503.3Z" transform="translate(-595.9 -492.4)"/><path class="cls-10" d="M677.9,511.4l-.5-.5c.1,0-.2-.6.4,0s.1.1.1.5Zm-.7-.9-.3.2c-.1.5-.3.3,0,.8h-.5c.2.6.6.5,1.2.8s.2,0-.2-.4h.5l.7-.2c-.3-.4,0-.1-.1-.6s-.1-.6-.5-.9l-.2.4Z" transform="translate(-595.9 -492.4)"/><path class="cls-37" d="M678.4,502v.5c-.9-.3-.3,0-.9-.6a.8.8,0,0,1-.7.4c0,.5-.3.4.3.4s.4-.5.6-.2h.3c-.3.8-.4.6-.7,1.1s.4-.2,0,.6-.3.2-.5.8h.3a12.3,12.3,0,0,0,1.9-3.1v-.3Z" transform="translate(-595.9 -492.4)"/><path class="cls-43" d="M673,511.2c-.8-.1-.4-.2-.9.2a4.6,4.6,0,0,0,2.7.9c.1-.3-.1-.1.5-.4s-.1-.2-.4-.3A2.7,2.7,0,0,0,673,511.2Z" transform="translate(-595.9 -492.4)"/><path class="cls-36" d="M652.7,507h-.2a4.9,4.9,0,0,0,2.3,1c-.4-.8-.2-.2-.7-.8s1.1.5,1.7.7v-.3l-.2-.2c-.6-.3-.8-.8-1.6-.7S653.6,507,652.7,507Z" transform="translate(-595.9 -492.4)"/><path class="cls-44" d="M666,508a3.2,3.2,0,0,0,.6,2.3l.9-2.6c-.7-.1-.7-.1-1.2.4Z" transform="translate(-595.9 -492.4)"/><path class="cls-45" d="M667.1,495.1l1.2.3.5-.3-.3.8h.2c.4,0-.1-.1.5,0l.6.2-.6-.5.2-.6-.5-.2h-.6c-.3-.3-.1,0-.2-.5h0l-.3.4-.5-.4-.6.9Z" transform="translate(-595.9 -492.4)"/><path class="cls-46" d="M659.1,502.5c-.8.5-.2.1-.1.3s3.3.2,3.6-.3A3.4,3.4,0,0,0,659.1,502.5Z" transform="translate(-595.9 -492.4)"/><path class="cls-47" d="M665.1,500.1a4.3,4.3,0,0,0,1.5,1.8l.3-2.1-1-.8v.7c.3-.3.1-.3.4-.2s.5,1.1-.1,1.6.1-.5-.1-1.2v.3c-.3.4-.1.2-.4.4a3.6,3.6,0,0,0-.1-1.8c-.2.3-.1.1-.2.6A1.4,1.4,0,0,1,665.1,500.1Z" transform="translate(-595.9 -492.4)"/><path class="cls-48" d="M658.4,500.3c.4-.4.2-.1.6.1l1,.4.7.3c.7.4.7.2.8.8l2,.2a1.4,1.4,0,0,0-.2-.7l-.8.2c-1.2-.5.4,0-.4-.3a11.7,11.7,0,0,1-3.1-1.2c-.5-.3-.5-.1-.4-.8S658.1,499.8,658.4,500.3Z" transform="translate(-595.9 -492.4)"/><path class="cls-49" d="M668.8,513.8l.4.6,1.2.7c-.1-1.1,0-1.2-.6-1.9l-.2.4h-.2c-.3-1.4-.1-1.7-.4-2.2Z" transform="translate(-595.9 -492.4)"/><path class="cls-50" d="M674.1,497.3c.9.5.8.7,1.8.6s0,.1.2.5,0,.2.3.6l.2.2.5-1.1-1.3-.5c-.6-.3-.2-.5-1.1-.8Z" transform="translate(-595.9 -492.4)"/><path class="cls-30" d="M661.2,507.3v.3h.3c.4-.1,0,0,.1.1v.5c.5-.6.2-.2.6-.5h.1l.2-.3-.7.5c.2-1,.5-1.7,1.6-1.6s.1,0,0,.5l.6-.3v-.3c-.4-.1-.5,0-.2-.2l-.5-.3.2.4h-1l.2-.3v-.2l-.2.2Z" transform="translate(-595.9 -492.4)"/><path class="cls-49" d="M678.5,499.7h.3a.1.1,0,0,0,.1-.1l-.5,1.7c.9-.6,1-2.1,1.8-2.9s-.7.2-.2-.6A3,3,0,0,0,678.5,499.7Z" transform="translate(-595.9 -492.4)"/><path class="cls-51" d="M667.9,513.2c-.5.6-.7.5-1.4.8a5.3,5.3,0,0,0-1.2,1l-.2.2-.2-.3-.2.9c.8-.2.9-.9,1.7-1.3s.9.2,1.9-1.1v-.7c.1-.1,0-.2.1-.2Z" transform="translate(-595.9 -492.4)"/><path class="cls-28" d="M655.7,505.7v-.6c.1-.7-.1-.3.4-.9h-.3v-1.4c.2-.2-.1-.1.3-.1s0-.3.2-1-.3-.3-1-.7c-.1,1.1.2.6.2,2.4A8.7,8.7,0,0,0,655.7,505.7Z" transform="translate(-595.9 -492.4)"/><path class="cls-23" d="M652.6,506.6h.3l-.2.4c.9,0,1-.3,1.4-.3s1,.4,1.6.7l-.3-.5c.5.4.3.2.8.1s.1-.1-.3-.5,0,.3-.7,0a3.2,3.2,0,0,0-.9-.3A1.5,1.5,0,0,0,652.6,506.6Z" transform="translate(-595.9 -492.4)"/><path class="cls-52" d="M659.8,509.1l-1,.3c-.3.3-.3.3-.8.1l-.7.3-.2.5c.9,0,.3-.1,1.2.5.6-1.1.9-1,1.9-1.4l.5-.3h-.9Z" transform="translate(-595.9 -492.4)"/><path class="cls-10" d="M665.8,511.6c-.8.3-1.1,1.7-1,2.6s.3.1.6,0-.1-.1,0-.8-.2.2.1-.6.6-.6,1-1.1l.2-.4Z" transform="translate(-595.9 -492.4)"/><path class="cls-53" d="M667.2,500l.3.5,1,1,.3.9c-.6.3-.4.2-1.1,0s.6.1.8.4-.4.6-.5.6.4.2-.4.2h-.8v.2l1.8.2a1.6,1.6,0,0,1,.2-1.1c.2-.7.3-.8,1-.5v-.4c-.3.2.3,1-1.3-.9l-.6-.6c-.3-.4-.2-.1-.3-.8S667.5,499.3,667.2,500Z" transform="translate(-595.9 -492.4)"/><path class="cls-14" d="M669.8,501.9v-.6l-.7-.9c-.5-.4-.5-.1-1.1-.7h-.3c.1.7,0,.4.3.8l.6.6C670.1,502.9,669.5,502.1,669.8,501.9Z" transform="translate(-595.9 -492.4)"/><path class="cls-54" d="M664.5,496.4c.1-.9.3-.1.6-1.2l.5-1.5c-.4.1-.4,0-.6.5l-1,2,.6.6c.3.9-.5.1.5.9-.3-1.1,0-.5,0-1.5Z" transform="translate(-595.9 -492.4)"/><path class="cls-55" d="M681.7,507.5l-.2.4h.5l-.2.7c1-.1.6-.3,1.6-.1s.3-.3.8-.9l-.3-.3c-.5.3.2.1-.7,0v.7c-.9-.3-.3-.2-1.1.2l.4-1-.2-.4C681.9,507.3,682.2,507.2,681.7,507.5Z" transform="translate(-595.9 -492.4)"/><path class="cls-19" d="M668,493.6c.7,0,.5-.1,1,.3s.5-1,1.4-1l-.5.9h.5c.4-.6.8-.9.3-1.4a1.2,1.2,0,0,0-1.4.2C668.5,493.6,668.9,493.2,668,493.6Z" transform="translate(-595.9 -492.4)"/><path class="cls-4" d="M663.3,501.4a2.4,2.4,0,0,0-1.2-.7l.5.4a14.6,14.6,0,0,1-1.9-.7,4,4,0,0,0-1.7-.3,11.7,11.7,0,0,0,3.1,1.2c.8.3-.8-.2.4.3Z" transform="translate(-595.9 -492.4)"/><path class="cls-48" d="M657.2,501.2c.3-.1.2-.2.7.2s.4-.1.1.8l-.8-1Zm.6,1.3h.3l.3-.5s0-.2.1-.2.1.1-.1-.3v-.4a1.2,1.2,0,0,1-1.3-.6l.5-.2h0c-.6,0-.7-.1-1.2.2s0,.2.2.5a2.2,2.2,0,0,0,.3.5C657.3,502,657.6,502.1,657.8,502.5Z" transform="translate(-595.9 -492.4)"/><path class="cls-21" d="M671.5,509.5h.5c.4.1.2-.1.3.2s.3.2.6-.2v.2h.2c.4-.4-.1-.2.5-.2l.2.4c.4-.1.3.4.3-.3v-.2c-1.7-.6-1.4.3-3.4-.8-.2.7-.6.7-.2,1.4s.3-.3.3-1.1l.8.4C671.4,509.2,671.8,509.4,671.5,509.5Z" transform="translate(-595.9 -492.4)"/><path class="cls-42" d="M665.3,515a5.3,5.3,0,0,1,1.2-1c.7-.3.9-.2,1.4-.8s-.2.2-.4-.3l.3-.4h-.5l-1.9,2.2Z" transform="translate(-595.9 -492.4)"/><path class="cls-12" d="M655.8,509.8c-.1.3,0,.2-.3.1l.3.3h.1c-.5.4-1,.7-.6,1.3l.2-.2.7-.9v.2l.3.8.3-.9-.3-1.1h0Z" transform="translate(-595.9 -492.4)"/><path class="cls-56" d="M651,508a2.6,2.6,0,0,0,1.3,1.2l1.1.4c.5.2.4.4.8.1v-.3h-.6V509c-.4.1-.3.2-.9.1l.3-.4-1.2-.3c.4-.1-.3-.1.3-.2l-.7-.4c-.3.1-.2-.2-.3.1Z" transform="translate(-595.9 -492.4)"/><path class="cls-57" d="M674.9,501.1c-.9.5-.8-.2-1.7-.1v.6l.4-.2c.7,0,.1-.1.2.4l1.7-.3c0,.2-.1.1.3.5l.4-.2v-1Z" transform="translate(-595.9 -492.4)"/><path class="cls-58" d="M669.7,517.6c.7.2.3.1.8.5l.2-.4-.3-1.6-.9-.3-.5-.2-.2.3,1.3.8Z" transform="translate(-595.9 -492.4)"/><path class="cls-13" d="M659.1,502.5l-1,.2v.4l.3.2c.5-.4,2.5-.2,3.3-.2s1,0,1.2.3.3.5.3-.4l-.3-.2-.2-.3c-.3.5-3,.3-3.6.3S658.3,503,659.1,502.5Z" transform="translate(-595.9 -492.4)"/><path class="cls-48" d="M665.4,514.2c-.3.1.4.3-.6,0s-.3.9-.1,1.6l.2-.9.2.3.2-.2v-.5l1.9-2.2c-.6.2-.2.2-.3-.1S665.8,513.5,665.4,514.2Z" transform="translate(-595.9 -492.4)"/><path class="cls-59" d="M683.1,504.4v.3h.2l.2-.4.3.6h.1v-.9a2.2,2.2,0,0,0-1-2.5A2.9,2.9,0,0,1,683.1,504.4Z" transform="translate(-595.9 -492.4)"/><path class="cls-60" d="M660.7,509.1l-.5.3c-.4.7.1.1-.5.4s-.4-.2-.2.4a1.4,1.4,0,0,0,1.1-.1h.5c.5-.2.3-.2.5-.5h-.3l.3-.4h-.4c-.2-.2-.3.2-.1-.3Z" transform="translate(-595.9 -492.4)"/><path class="cls-50" d="M667.4,507.7c.6-.1.7-.6,1-1.2l-.7.2c-.1-.3-.4.2.3-.6-.9,0-.8.1-.7.9s-.6.2-.9.9Z" transform="translate(-595.9 -492.4)"/><path class="cls-61" d="M673.7,501.8v.9H675c0-.7.2,0-.3-.6l.9.2V502c-.4-.4-.3-.3-.3-.5Z" transform="translate(-595.9 -492.4)"/><path class="cls-62" d="M677.9,511.8c.6.2.2-.1.5.3s0,.3-.5.5l-.3,1.3c.3-.3,0-.5,1-1.3h1.3c-.1-.6-.7-.8-1.3-1Z" transform="translate(-595.9 -492.4)"/><path class="cls-63" d="M668.5,517.2l.3-.2.7.6h.2l.4-.9-1.3-.8c0,.7,0,.6-.6,1Z" transform="translate(-595.9 -492.4)"/><path class="cls-64" d="M658.8,500.8c.2.5,0,.3.4.7s1.5.1,2.3.4-.1-.4-.8-.8l-.7-.3-.7.3C658.9,500.9,659.3,501.5,658.8,500.8Z" transform="translate(-595.9 -492.4)"/><path class="cls-3" d="M673.5,506.9c.4.5.2.1.4.7l.2.9h.4c-.4-.5-.1.1-.3-.7s-.1-.2.6-.1h.1l.2-.3v-1c-.8,0-.1-.1-.8.4S674.1,507,673.5,506.9Z" transform="translate(-595.9 -492.4)"/><path class="cls-40" d="M667.5,505.9h-.1A4.3,4.3,0,0,0,666,508h.3c.5-.5.5-.5,1.2-.4h-.1l-1,.2c.3-.7.2-.9.9-.9s-.2-.9.7-.9c-.7.8-.4.3-.3.6l.7-.2.4-1C667.8,505.5,668.4,505.7,667.5,505.9Z" transform="translate(-595.9 -492.4)"/><path class="cls-65" d="M659,500.1a4,4,0,0,1,1.7.3,14.6,14.6,0,0,0,1.9.7l-.5-.4-3.5-1.5h0C658.5,500,658.5,499.8,659,500.1Z" transform="translate(-595.9 -492.4)"/><path class="cls-4" d="M661.2,507.3l1.4-1.6c-.1-.1-.6,0-.1-.7h.2c0-.1,0-.1.1-.1l-.3-.2a3.8,3.8,0,0,0-.9.9A2.7,2.7,0,0,0,661.2,507.3Z" transform="translate(-595.9 -492.4)"/><path class="cls-29" d="M666.5,511.7c-.4.5-.8.6-1,1.1s.1,0-.1.6-.3.1,0,.8.9-1.7,1.6-2l.3-.2c-.1-.2,0-.3-.4-.4Z" transform="translate(-595.9 -492.4)"/><path class="cls-9" d="M651.7,512.3c-.6.3-.5,1.3-.6,1.9s0,.1.3,0-.3.4-.1-.5,0-.2.3-.3,1.3-.9,1.9-1.7l-.3-.3-.5.2-.4.3C651.6,512.6,651.9,512.9,651.7,512.3Z" transform="translate(-595.9 -492.4)"/><path class="cls-66" d="M658,506.6h.7c-.1.6-.6,1.5-1.1,1.6s.2.5.7.4.3-.1.7-.5-.5-.5-.2-1.1v-.5c0-.3.3-.1-.2-.3h-1C657.8,506.3,657.7,506.4,658,506.6Z" transform="translate(-595.9 -492.4)"/><path class="cls-10" d="M671.9,503.5l.4.2c-.4.6,0,.9-.7,1.3l.6.3v-.2a9.4,9.4,0,0,1,.3-.9c.4-.8,1.1-.7,2.5-1.1l-.2.6.4-.7-.6-.2c-.8.6-.4.1-1.3.4Z" transform="translate(-595.9 -492.4)"/><path class="cls-3" d="M674.8,504.3h.1v.6c.5-.2.5-.3.8-.7a4.1,4.1,0,0,1,1-.9v-.6C675.7,502.7,675.9,503.7,674.8,504.3Z" transform="translate(-595.9 -492.4)"/><path class="cls-6" d="M668.3,516.5l-.5,1c.3.4.3.2.6.6l.4.5h.3l.6-.9h-.2a2,2,0,0,1-.8.4l-.2-.8-.3-.3c.6-.4.6-.3.6-1Z" transform="translate(-595.9 -492.4)"/><path class="cls-67" d="M674.4,498.5h.8c.5-.2.4.2.6.5s-.2,0,.2.3,0,0,.4-.3-.1-.3-.3-.6-.1.1-.2-.5-.9-.1-1.8-.6h0c0,.5,0,.2.2.6S674.4,497.9,674.4,498.5Z" transform="translate(-595.9 -492.4)"/><path class="cls-63" d="M663.2,499.2l.4.2v1.1c.7.1.4.2,1,0s-.4-1.6-1.6-1.9Z" transform="translate(-595.9 -492.4)"/><path class="cls-68" d="M677.6,513.9v.4h.1l.4-.6.5-.4.2.3c.5.2.3.2.5-.4l-.6-.2h1.3l-.2-.4h-1.3C677.6,513.4,677.9,513.6,677.6,513.9Z" transform="translate(-595.9 -492.4)"/><path class="cls-51" d="M657.7,500.3h0a1.1,1.1,0,0,1,.8.8v.4h.8c-.4-.4-.2-.2-.4-.7l-.4-.5c-.3-.5-.5-.7.2-1h0l-.8-.5c-.1.8.1.7.2,1.5Z" transform="translate(-595.9 -492.4)"/><path class="cls-66" d="M654.2,509.7h.6c.8.9-.3,2-.3,2l.3.5.3-.4.2-.3c-.4-.6.1-.9.6-1.3h-.1l-.3-.3c.3.1.2.2.3-.1s-.3,0-.4-.4S655.1,509.4,654.2,509.7Z" transform="translate(-595.9 -492.4)"/><path class="cls-53" d="M669.9,512.6c.6,1.2.4,1.1,1.5,1.9l.2.5.2-.6a4.6,4.6,0,0,1-.7-.7l-.8-1c.5.2.4.4.9.3h0l-1.1-.8h-.2Z" transform="translate(-595.9 -492.4)"/><path class="cls-41" d="M669.3,500.3l-1.4-.6c.6.6.6.3,1.1.7l.7.9c.2-.3,0-.6.3,0s.2-.5.8-.8l.4-.3c.4-.3.1.1.3-.3s-.2.2-.6-.6v.7c-.6.3-.6.2-.9.7Z" transform="translate(-595.9 -492.4)"/><path class="cls-33" d="M664.1,501.5c0,.4,1.2.5,1.5.6h-1.3l.3.4a10.3,10.3,0,0,0,1.7-.1l-.9-1.3c-.1.1,0,.4-.6.5A.8.8,0,0,1,664.1,501.5Z" transform="translate(-595.9 -492.4)"/><path class="cls-69" d="M667.6,496.6c.3-.3-.1-.1.4,0v-.5c-1.1-.5-.4-.2-1-.7s-.7-.4-.4-1.2h-.8c.3,1.1.6.6.6,1.6S667.2,496,667.6,496.6Z" transform="translate(-595.9 -492.4)"/><path class="cls-37" d="M673.1,505l-.2.3.4.2c.2.3.1,0,0,.3s0,.2-.4.1.1.2.2.3h.1a1.6,1.6,0,0,0,.6-.3c.5-.1.3-.2.5,0l.4-.3-.3-.5c-.3.3.4.3-.6.3l-.2-.5.5.2c-.1-.4-.1-.2.1-.7Z" transform="translate(-595.9 -492.4)"/><path class="cls-70" d="M673.5,499.4l-.6.5v.4c.4.4.2.2.5.3l1.1.3v-.2c-.5-.7-.4,0-.7-.7s-.1-.4.2-.5v-.2l-.5-.4Z" transform="translate(-595.9 -492.4)"/><path class="cls-21" d="M669.7,509.7c.3.6-.2.2.5.5v-1.5c.3-.2-.1-.3.4,0s-.1-.5-.6-.9-.2.3-.2.2h-.2Z" transform="translate(-595.9 -492.4)"/><path class="cls-44" d="M671.6,494.2v.4l.2.3h.5c.1.5.3.1,0,.5l-.4.3.7.2.4-.9c.1-.1.1-.3.2-.4s.1-.1-.1-.6l-.2.7c-.4.2.3.3-.4.1l-.2-.8c.1-.1,0-.1,0-.1s0,0-.1,0h-.3Z" transform="translate(-595.9 -492.4)"/><path class="cls-71" d="M670.7,492.6c.5.5.1.8-.3,1.4h.2l.7-1.1h.9l.4.6.3-.6A2,2,0,0,0,670.7,492.6Z" transform="translate(-595.9 -492.4)"/><path class="cls-72" d="M662.8,508.4h-.5c-.3.5-.6.3-1.2.5s-.1.1.1.3h.4l.9-.2h.9c.3.4.2-.1-.1.3h.4c.1-.2,0-.2.4-.1l-.5-.6.2-.3Z" transform="translate(-595.9 -492.4)"/><path class="cls-26" d="M666.7,502.7l.3.3c-.5,0-.1-.2-.2.5h.8c.8,0,.3.1.4-.2l-.9-1.3c-.6.2-.2-.4-.5.2Z" transform="translate(-595.9 -492.4)"/><path class="cls-15" d="M668,496.6c-.5-.1-.1-.3-.4,0h-.2c0,.7,0,.5-.3,1.2l1-.4-.6.7h.5l.2-.3h.3a1.1,1.1,0,0,0-.9-.7c.1-.7-.1-.2.3-.3h.7c.1-.4,0-.4,0-.9Z" transform="translate(-595.9 -492.4)"/><path class="cls-73" d="M665.1,500.1a1.4,1.4,0,0,0,.2-.7c.1-.5,0-.3.2-.6l-1-.9v1.4C664.6,499.9,664.6,499.8,665.1,500.1Z" transform="translate(-595.9 -492.4)"/><path class="cls-74" d="M676,499.3c.3.4.4-.3.2.3h-.4a2.2,2.2,0,0,0-.8.5c-.5.3-.7.2-1.3-.1s.2,0,.7.7.5-.1,1.1-.6a3.3,3.3,0,0,1,1.3-.4c0-.5.2-.1-.2-.5l-.2-.2C676,499.3,676.6,499.1,676,499.3Z" transform="translate(-595.9 -492.4)"/><path class="cls-75" d="M673.9,499.5c-.3.1-.4.1-.2.5s.8.4,1.3.1h-.6l1.1-1.2.3.8h.4c.2-.6.1.1-.2-.3s0,.1-.2-.3-.1-.7-.6-.5a3.3,3.3,0,0,1-1.3,1.4Z" transform="translate(-595.9 -492.4)"/><path class="cls-1" d="M664.7,504.2l-.3.4v-.3h-.7v.8H663a2,2,0,0,0,1.3-.1l-.4.9c-.3.2-.2.1.2.2s.6-.6.3-1.3l.6-.2v-.3Z" transform="translate(-595.9 -492.4)"/><path class="cls-76" d="M658.6,511.5l-.7.8c.2.4.2-.3,0,.3s-.1.4-.2.4h.4l1.3.3v-.3l-.4-.2c-.1-.1.2,0-.2-.1h-.6c-.2-.3-.5.3,0-.5a7.6,7.6,0,0,0,.9-.9l-.5-.2Z" transform="translate(-595.9 -492.4)"/><path class="cls-17" d="M663.5,506.8l-.9.6-.2.3h.5v.5c.6-.5.6-.6,1.4-.5v-.9l-.3.2c.1-.5,0-.3.3-.5h-.1Z" transform="translate(-595.9 -492.4)"/><path class="cls-77" d="M651,507.9c.1-.3,0,0,.3-.1l.7.4h.9l-1.4-.4.5-.3c.4-.5,0-.2.5-.4h.2l.2-.4h-.3c-.9.1-.9.4-1.5.9Z" transform="translate(-595.9 -492.4)"/><path class="cls-75" d="M676.7,505.6c-.4,0-.1-.2-.5.2a8.8,8.8,0,0,0,1.9,1.2h.3l-1-.8c.4.2.2.2.3-.2s-.1,0-.2-.6Z" transform="translate(-595.9 -492.4)"/><path class="cls-78" d="M669.7,509.7v.4h.9c.5,0,.2-.2.6.3s.3.2.4-.3l-.4-.2.3-.4c.3-.1-.1-.3.3-.1l-.8-.4c0,.8.2.5-.3,1.1s0-.7.2-1.4h-.2c-.5-.3-.1-.2-.4,0v1.5C669.5,509.9,670,510.3,669.7,509.7Z" transform="translate(-595.9 -492.4)"/><path class="cls-10" d="M673.2,518.6c.7.1.2.1.4-.2a4.6,4.6,0,0,0,.7-1.4l-.4-1.2-.5.3c.4.6.2.2.3.6s0,.7-.1.8Z" transform="translate(-595.9 -492.4)"/><path class="cls-67" d="M668.5,504.6c0,1.1,0,.1.3.7s-.2.2.2.9l.5-.2h.6v-.2a1.5,1.5,0,0,1-.3-.7c0,.1-.1.4-.6-.1s-.5-.2-.6-.8S668.3,503.8,668.5,504.6Z" transform="translate(-595.9 -492.4)"/><path class="cls-33" d="M662.6,507.4l.9-.6c.1-.5.2-.2,0-.5s-1.4.6-1.6,1.6Z" transform="translate(-595.9 -492.4)"/><path class="cls-79" d="M670.6,494l-.2.5.8-.3c.5-.3.9-.5.7-1.2h-.6Z" transform="translate(-595.9 -492.4)"/><path class="cls-36" d="M663.7,500.5c.5.7.3.2.4,1a.8.8,0,0,0,.7.1c.6-.1.5-.4.6-.5s-.2-.2-.7-.6S664.4,500.6,663.7,500.5Z" transform="translate(-595.9 -492.4)"/><path class="cls-67" d="M671.4,514.5c-.6.3-.2-.6-.4.3l.4.6-1.7-.3c.1.4.7.4,1.2.6s.4-.2.9-.1,0,.1.2-.2.1-.5-.2-1l-.2.6Z" transform="translate(-595.9 -492.4)"/><path class="cls-27" d="M671.2,494.2h.4l.2-.4h.3c.1,0,0,.5.1,0s.1,0,0,.1l.2.8c.7.2,0,.1.4-.1s-.2,0-.3-.3.1-.3.4-.3.2-.5,0-1.1l-.3.6-.4-.6h-.3C672.1,493.7,671.7,493.9,671.2,494.2Z" transform="translate(-595.9 -492.4)"/><path class="cls-14" d="M672.4,502.7l-.2.3-.5.4h.2l1.3-.3c.9-.3.5.2,1.3-.4h-2.1Z" transform="translate(-595.9 -492.4)"/><path class="cls-4" d="M673.1,501.6V501c.9-.1.8.6,1.7.1h-.5l-1.1-.3c-.3-.1-.1.1-.5-.3s-.4-.3-.3.4.3.3.5.2l-.3.6Z" transform="translate(-595.9 -492.4)"/><path class="cls-7" d="M669.1,503.9c-.1,1.1.4.1.1,1.2s.8-.4.5-1.3c1.4.9.5.3.8.2s-.2-.4.1-.8h-.3a4.5,4.5,0,0,0-.9,1Z" transform="translate(-595.9 -492.4)"/><path class="cls-6" d="M656.9,506.6c.3.4.2.6-.2,1l-.3-.5h.1v1l.7.3c0-.1.1-.2.1-.1v-.4a3.4,3.4,0,0,0,0-2v.5C657,506.7,657.7,507,656.9,506.6Z" transform="translate(-595.9 -492.4)"/><path class="cls-54" d="M662.8,505.5v.2h.6l.5.3.4-.9a2,2,0,0,1-1.3.1h.6v-.8l-.4-.2v.3Z" transform="translate(-595.9 -492.4)"/><path class="cls-79" d="M675.2,506.3l.5.3c.7.2.5.2.5.7l-.3.9c1.1-.2.2-1,.9-1s-.5-.3-.8-1.2h-.6Z" transform="translate(-595.9 -492.4)"/><path class="cls-80" d="M682.5,504.8v.6l-.6.2v.5c.3.5,0,.1.5.4l.2-.3.3-.6v-1.2C682.7,504.6,683,504.2,682.5,504.8Z" transform="translate(-595.9 -492.4)"/><path class="cls-9" d="M658,506.6c-.6.2-.2.8-.4,1.7s1-1,1.1-1.6Z" transform="translate(-595.9 -492.4)"/><path class="cls-16" d="M678.5,499.7l-.5,1.1c.1.2.3-.2-.2.5s-.1.3-.2-.2l-1.3.7v.2c.3-.4.4-.3.7-.6l.7.3.6-.6.5-1.7a.1.1,0,0,1-.1.1h-.3Z" transform="translate(-595.9 -492.4)"/><path class="cls-9" d="M660.2,507.5c-.3.5-.1.4-.6.7h-.2c.1.2.5-.2,0,.6l-.6.5,1-.3c-.3-.3-.4-.1.1-.6l.7-.4c.6.5.2,0,.2.4l.3-.3.4-.5h-.3l-.3.5Z" transform="translate(-595.9 -492.4)"/><path class="cls-81" d="M675.6,507.7v.2c-.2-.2-.3-.3-.6-.2l-.3.4v-.5h-.1l-.3.8h-.4v.4l.3.2c.1-.4-.1-.2.2-.4l.3-.4h1l.3-.9c-.4-.1,0-.2-.3,0h.2C675.9,507.9,676.1,507.9,675.6,507.7Z" transform="translate(-595.9 -492.4)"/><path class="cls-33" d="M656.4,513.8l-.2.6.7.5.3-1.6C656.6,513,656.8,513.2,656.4,513.8Z" transform="translate(-595.9 -492.4)"/><path class="cls-73" d="M664.2,497.5v-.2c-.4,0-.4.1-.7-.2l1,2.2c.1-.2.1,0,.2-.3s.1-.6.1-.6-.3-.5-.9-.7Z" transform="translate(-595.9 -492.4)"/><path class="cls-82" d="M658.9,514.8l-.8,1.8a2.9,2.9,0,0,0,1.3-3.1l-.2,1.2C658.9,514.9,659.3,515,658.9,514.8Z" transform="translate(-595.9 -492.4)"/><path class="cls-83" d="M674.4,498.5h-.3v1.4a3.3,3.3,0,0,0,1.3-1.4Z" transform="translate(-595.9 -492.4)"/><path class="cls-84" d="M665.9,499l-.4-.2a3.6,3.6,0,0,1,.1,1.8c.3-.2.1,0,.4-.4v-.3c.2.7,0,.7.1,1.2s.3-.9.1-1.6-.1-.1-.4.2Z" transform="translate(-595.9 -492.4)"/><path class="cls-67" d="M682,506.1c-.1.6-.1.6-.4.8s.2,0,.1.6.2-.2.6-.8l.2.4.5-.3h.6l-.6-.4-.3-.2-.2.3C682,506.2,682.3,506.6,682,506.1Z" transform="translate(-595.9 -492.4)"/><path class="cls-85" d="M669.5,502.8h-.1l-.3,1.1.3.2a4.5,4.5,0,0,1,.9-1c.3-1.1.1-.2-.2-.7S669.8,502.7,669.5,502.8Z" transform="translate(-595.9 -492.4)"/><path class="cls-23" d="M659.1,507.4v.7c-.3-.3-.2,0-.3-.4s.1-.2.2-.3Zm.2-.2c-.1.4,0,.4-.2.2s.4-.2-.3-.3-.4.7.2,1.1l.5-.4c.2.3.1,0,.1.4s.3-.2.6-.7v-.4l-.5.5Z" transform="translate(-595.9 -492.4)"/><path class="cls-20" d="M670.4,497.5l-.2.7,1.1-.4c0-.7-.2-.9-.7-1.4S670.7,496.9,670.4,497.5Z" transform="translate(-595.9 -492.4)"/><polygon class="cls-1" points="74.1 2.5 75.1 2.4 75.4 2.5 75.7 2.2 75.8 1.9 75.4 1.8 74.6 2.2 74.8 1.7 74.6 1.6 74.2 1.6 74.1 2.5"/><path class="cls-47" d="M666.2,504.1c.1-.2.2-.2.3-.3l.3-.8H666c-.6.2,0-.1-.6,0H665c0-.1-.1,0-.1,0C666.4,504,665.9,503.1,666.2,504.1Z" transform="translate(-595.9 -492.4)"/><path class="cls-16" d="M667.1,495.1v.3c.6.5-.1.2,1,.7v.5l.6-.2h-.4s.3-.3.3-.4h-.2v-.5Z" transform="translate(-595.9 -492.4)"/><path class="cls-41" d="M669.3,511.5l.6,1.1v-.4h.2c.4-.4-.2-.3.5-.4a1.6,1.6,0,0,0-1.2-.8Z" transform="translate(-595.9 -492.4)"/><path class="cls-43" d="M659.1,506.7l.2.5.3.4.5-.5.2-.9A1.7,1.7,0,0,0,659.1,506.7Z" transform="translate(-595.9 -492.4)"/><path class="cls-86" d="M678.8,508.9v.4a2.9,2.9,0,0,0,2.1-.9l.3-.6h-.1l-.6.5-.5.3A1.9,1.9,0,0,1,678.8,508.9Z" transform="translate(-595.9 -492.4)"/><path class="cls-87" d="M664.1,509h.3c.7-.3.5.2,1-.5l-1.3-.3h-.3l-.2.3Z" transform="translate(-595.9 -492.4)"/><path class="cls-63" d="M681.3,505.4l.9-.3a1.5,1.5,0,0,0-1.6-.6h-.3C681.2,505,680.7,504.9,681.3,505.4Z" transform="translate(-595.9 -492.4)"/><path class="cls-32" d="M676,506c.3.9.5.5.8,1.2s.1.1.5-.4l.8.2a8.8,8.8,0,0,1-1.9-1.2Z" transform="translate(-595.9 -492.4)"/><path class="cls-88" d="M657.4,505.8v-.4c.1,0,.2,0,.2.1s0,0,.1.2l.2-.7c-.3-.3.2-.1-.4,0-.5-1.8.1-.9-.6-1.7A9.2,9.2,0,0,0,657.4,505.8Z" transform="translate(-595.9 -492.4)"/><path class="cls-89" d="M673.7,512.5c-.1.7.1.7.2,1.3s.1-.1.3.2l.4-1.4Z" transform="translate(-595.9 -492.4)"/><path class="cls-70" d="M656.8,509l-.2.5h0l.7.3.7-.3h.2l-.7-.5c-.6.1-.5-.3-.5.4S657.2,509,656.8,509Z" transform="translate(-595.9 -492.4)"/><path class="cls-10" d="M672.3,500.4c0,1.1.2,1-.3,2.1s.1-.1.5.1h0v-.2h0l.2-.5h.4v-.2h-.4l.3-.6c-.2.1-.3.6-.5-.2s-.1-.4.3-.4v-.4h-.3Z" transform="translate(-595.9 -492.4)"/><path class="cls-68" d="M672.1,505.1v.2h-.8c-.1.9-.1.2.2.6,0-1.2-.1-.3.3-.6l1.2.8c-.1-.1.1-.1-.2-.3s.3.2.4-.1l-.8-.3.4-.2.2-.3Z" transform="translate(-595.9 -492.4)"/><path class="cls-57" d="M675.6,515.1v.3c.6.3.5.1.6.8h.4l.2-.6c0-.7.2-.5-.4-.9l-.3.6Z" transform="translate(-595.9 -492.4)"/><path class="cls-9" d="M678.8,508.9a15.5,15.5,0,0,1,2.2-1.2v-.3h-.3c-.8.9-.4.1-2.2,1.4C678.6,508.9,678.3,508.7,678.8,508.9Z" transform="translate(-595.9 -492.4)"/><path class="cls-84" d="M652.9,508.7l.6.3v.4h.6l.5-.3-.2-.5C654,508.8,653.6,508.6,652.9,508.7Z" transform="translate(-595.9 -492.4)"/><path class="cls-85" d="M666.7,494.2c-.3.8-.3.8.4,1.2v-.3h-.4l.6-.9.5.4.3-.4h-.4l.3-.5c-.6.1-.2,0-.8.3Z" transform="translate(-595.9 -492.4)"/><path class="cls-17" d="M661.7,508.3h-.6l-.3.3-.4.5h.3l.4-.3c.6-.2.9,0,1.2-.5v-.5C661.9,508.1,662.2,507.7,661.7,508.3Z" transform="translate(-595.9 -492.4)"/><path class="cls-17" d="M651.7,512.3c.2.6-.1.3.6-.4l.4-.3.5-.2.7-.9-.6.3-.6.4A2.7,2.7,0,0,0,651.7,512.3Z" transform="translate(-595.9 -492.4)"/><path class="cls-84" d="M652.9,513.5h.9c.4-.1.3,0,.6-.4h-.3v-.3c-.4-.2-.2.3-.1-.3a3.3,3.3,0,0,1,.3-.6l-.4.2a1.3,1.3,0,0,1-1.1,1.1Z" transform="translate(-595.9 -492.4)"/><path class="cls-77" d="M669.7,517.6l-.6.9h.5c.1-.8,0-.3.2-.5s.3,0,.6.2l-.2.4s.2.4.6-.2,0-.6-.1-.7l-.2.4C670,517.7,670.4,517.8,669.7,517.6Z" transform="translate(-595.9 -492.4)"/><path class="cls-90" d="M674.6,508.7h.5l.5.9.6.2c-.2-.6,0-.1-.4-.7l-.7-.8h-.2Z" transform="translate(-595.9 -492.4)"/><path class="cls-91" d="M664.6,502.5l1.4.5h.8l-.3.8h.2v-.2c.1-.7-.3-.5.2-.5l-.3-.3c-.4-.2-.2,0-.4-.3A10.3,10.3,0,0,1,664.6,502.5Z" transform="translate(-595.9 -492.4)"/><path class="cls-4" d="M659.1,505.4l-.5.4c-.4.6-.2.2.1.5l1-.3.2-.7C659.6,505.6,659.6,505.5,659.1,505.4Z" transform="translate(-595.9 -492.4)"/><path class="cls-54" d="M671.3,498.9h.7c-.3.3-.6.4-.3.3l-.2.7v-.2c.3-.1-.3-.3.4,0l.2.4v.3l.3-.5-.3-.8-.6-.5Z" transform="translate(-595.9 -492.4)"/><path class="cls-92" d="M660.1,497.8c.5.8.3,1.2,1,1.6s0-.1-.3-.9h.2c-.1-.3,0-.1-.3-.3s.1-.2.9-.1,0-1-.7,0Z" transform="translate(-595.9 -492.4)"/><path class="cls-30" d="M676,504.9v.4l.7-.3c.2-.6.2-.3.5-.8s.4-.3,0-.6S676.7,504.5,676,504.9Z" transform="translate(-595.9 -492.4)"/><path class="cls-36" d="M658.9,514.8c.4.2,0,.1.3-.1l.2-1.2h0c-.7.1-.2.2-.6,1s.3-.7.1-1.2-.1-.1-.2.3v1.1Z" transform="translate(-595.9 -492.4)"/><path class="cls-47" d="M658.2,509.4H658c.5.2.5.2.8-.1l.6-.5c.5-.8.1-.4,0-.6S658.9,509,658.2,509.4Z" transform="translate(-595.9 -492.4)"/><path class="cls-25" d="M675.6,509.7c.2.3-.3-.1.3.3h.3l.2,1c0-.6-.1-.6.3-.9l.5-.4H677c-.7-.4-.4-.4-1.2-.6s.2.1.4.7Z" transform="translate(-595.9 -492.4)"/><path class="cls-93" d="M678.8,508.9a1.9,1.9,0,0,0,1.3-.3l.5-.3.6-.5H681A15.5,15.5,0,0,0,678.8,508.9Z" transform="translate(-595.9 -492.4)"/><path class="cls-33" d="M659.8,509.1h.6l.4-.5c0-.4.4.1-.2-.4l-.7.4C659.4,509,659.5,508.8,659.8,509.1Z" transform="translate(-595.9 -492.4)"/><path class="cls-43" d="M675,500.1a2.2,2.2,0,0,1,.8-.5l-.3-.8-1.1,1.2Z" transform="translate(-595.9 -492.4)"/><path class="cls-14" d="M661.1,499.4l1.2.3a3,3,0,0,0-1.3-1.2h-.2C661.1,499.3,661.1,498.7,661.1,499.4Z" transform="translate(-595.9 -492.4)"/><path class="cls-94" d="M668.1,494.1h0l.9.3c.4-.2.1.1.3-.3l-.3-.2c-.5-.4-.3-.3-1-.3h0l-.3.5Z" transform="translate(-595.9 -492.4)"/><path class="cls-16" d="M674.9,511.6c.3.1.1-.1.4.3h.5v-.2a3.8,3.8,0,0,1-1.4-1.4l-.7.2C674.4,510.8,674.7,510.9,674.9,511.6Z" transform="translate(-595.9 -492.4)"/><path class="cls-69" d="M666.7,511.3l-.2.4h.4c.4.1.3.2.4.4l.8-.8C667.9,510.9,667.1,511.2,666.7,511.3Z" transform="translate(-595.9 -492.4)"/><path class="cls-32" d="M663.7,504.4h1l.4.2c-.2-.4,0-.2-.4-.6l-.9-.2c-.3-.2-.3.2-.3-.3S663.9,503.4,663.7,504.4Z" transform="translate(-595.9 -492.4)"/><path class="cls-61" d="M675.8,509.2c.8.2.5.2,1.2.6l-.3-.4-.3-.3c-.8-.7-.6-.1-.6-.9h-.7Z" transform="translate(-595.9 -492.4)"/><path class="cls-63" d="M656.4,507.1l.3.5c.4-.4.5-.6.2-1l-.8-.6h.1C656.1,506.5,656.2,506.4,656.4,507.1Z" transform="translate(-595.9 -492.4)"/><path class="cls-41" d="M684.3,506.7a1.5,1.5,0,0,1,.2-.9v-.2c.1-.4.2.1,0-.3s-.4.1-1,.4.6-.2.3.9Z" transform="translate(-595.9 -492.4)"/><path class="cls-36" d="M658.1,513.1h0l-.6,2.3A1.8,1.8,0,0,0,658.1,513.1Z" transform="translate(-595.9 -492.4)"/><path class="cls-50" d="M661.5,504.3h0v.3c-.3.7-.1.1.2.4s.6-.4.7-.6-.4.2,0-.1-.1.4.5-.5A8.1,8.1,0,0,0,661.5,504.3Z" transform="translate(-595.9 -492.4)"/><path class="cls-50" d="M657.9,506c.9-.3.2-.5,1.1-1h.1l-.9-.4Z" transform="translate(-595.9 -492.4)"/><path class="cls-95" d="M669,497.4l-.7.2c.4.4.1.2.8.3v.5l.4.2v-.5l-.2-.9Z" transform="translate(-595.9 -492.4)"/><path class="cls-35" d="M668.5,501.5l-1-1-.4-.2v.6C667.4,501.5,668,501.4,668.5,501.5Z" transform="translate(-595.9 -492.4)"/><path class="cls-90" d="M668.5,498.1l.6.3v-.5c-.7-.1-.4.1-.8-.3l.7-.2h-1.1v-.2c-.4.1-.2-.4-.3.3A1.1,1.1,0,0,1,668.5,498.1Z" transform="translate(-595.9 -492.4)"/><path class="cls-8" d="M672.5,502.6h1.2v-.3l-1.2-.4.5-.2h-.4l-.2.5h0v.2Z" transform="translate(-595.9 -492.4)"/><path class="cls-95" d="M673.1,501.6v.2l-.5.2,1.2.4v-.6c-.1-.5.5-.4-.2-.4Z" transform="translate(-595.9 -492.4)"/><path class="cls-96" d="M662.9,511.1c1,.1.3,0,.5.2v.5c.3-1.2.1-.1.8-.9s.1-.1.1-.4-.2-.2-.8.2Z" transform="translate(-595.9 -492.4)"/><path class="cls-94" d="M675.7,502v.2l-.2.3c.2.4-.6.3.4.5s-.4-.2.6-1v-.2h-.2Z" transform="translate(-595.9 -492.4)"/><path class="cls-97" d="M675.7,505.6l.2.2h.1l.2-.2c.4-.4.1-.2.5-.2V505l-.7.3v-.4C675.7,505.1,675.8,505.2,675.7,505.6Z" transform="translate(-595.9 -492.4)"/><path class="cls-15" d="M661.6,509l-.3.4h.3c.4.1.1.2.7-.1h.4v-.3c-.8.2-.3.2-.3-.3Z" transform="translate(-595.9 -492.4)"/><path class="cls-10" d="M667.3,512.4h.5c.1-.4-.1-.3.3-.4s.1-.1.3.4.3-.3.2-1S667.9,511.8,667.3,512.4Z" transform="translate(-595.9 -492.4)"/><path class="cls-98" d="M662.8,503.4l.3.4c.2.3.3-.2.2.4l.4.2c.2-1-.1-.2-.2-1.1V503h-.3C663.1,503.9,663.1,503.3,662.8,503.4Z" transform="translate(-595.9 -492.4)"/><path class="cls-99" d="M658.2,504.6l.9.4c.1.2.3.1.4.4s.4-.2-.3-.8l-.3-.2-.4-.2Z" transform="translate(-595.9 -492.4)"/><path class="cls-79" d="M658.8,500.8c.5.7.1.1.5.3l.7-.3-1-.4c-.4-.2-.2-.5-.6-.1Z" transform="translate(-595.9 -492.4)"/><path class="cls-74" d="M668.1,494.1c.1.5-.1.2.2.5h.6l.5.2c.2-.6.3-.5-.1-.8s.1.1-.3.3Z" transform="translate(-595.9 -492.4)"/><path class="cls-39" d="M670.9,499.3c.4.8-.1.2.6.6l.2-.7c-.3.1,0,0,.3-.3h-1.2C670.8,499.3,670.7,499.1,670.9,499.3Z" transform="translate(-595.9 -492.4)"/><path class="cls-29" d="M664.1,507.2v.2a3.4,3.4,0,0,0,1,0l.7-.2-1.2-.4Z" transform="translate(-595.9 -492.4)"/><path class="cls-17" d="M663,499.5c.3.5.1.4.3,1.1h.4v-1.1l-.4-.2h-.1Z" transform="translate(-595.9 -492.4)"/><path class="cls-92" d="M672.2,500.1l-.2-.4c-.7-.3-.1-.1-.4,0s-.7.2-.1,1.5C672,500.5,671.7,500.5,672.2,500.1Z" transform="translate(-595.9 -492.4)"/><path class="cls-74" d="M675.2,507.2l.4.5c.5.2.3.2.5-.3h-.2c.3-.2-.1-.1.3,0s.2-.5-.5-.7v.5Z" transform="translate(-595.9 -492.4)"/><path class="cls-51" d="M674.9,512.9c-.1.5-.3.6.1.9h.1l.6.4c-.3-.5-.1-.3-.2-.8S675.4,513.1,674.9,512.9Z" transform="translate(-595.9 -492.4)"/><path class="cls-31" d="M662.5,504.7l.3.2c-.1,0-.1,0-.1.1h-.2c-.5.7,0,.6.1.7l.2-.2.5-1C662.5,504.4,663,504.4,662.5,504.7Z" transform="translate(-595.9 -492.4)"/><path class="cls-39" d="M673.8,514.9h.4c-.1-.8-.3-.4,0-.9s-.1-.3-.3-.2l-.6.6Z" transform="translate(-595.9 -492.4)"/><path class="cls-100" d="M660.1,503.7v.5h1.3c.2-.5.3-.3-.2-.5Z" transform="translate(-595.9 -492.4)"/><path class="cls-50" d="M668.6,496.3h0c0,.5.1.5,0,.9h.4l.3-.2c-.9,0-.2.1-.4-.2s0-.2.5-.2v-.2c-.1-.3,0-.2-.4-.4Z" transform="translate(-595.9 -492.4)"/><path class="cls-45" d="M658.5,501.2a1.1,1.1,0,0,0-.8-.8l-.5.2A1.2,1.2,0,0,0,658.5,501.2Z" transform="translate(-595.9 -492.4)"/><path class="cls-101" d="M660.2,507.5l.7.6.3-.5v-.3l-.5.3c-.2-.2-.1-.3-.1-.4s.1-.1-.4-.3Z" transform="translate(-595.9 -492.4)"/><path class="cls-4" d="M660.9,505.2l-.3,2c.5-1.1.1-1,.7-1.8s.2-.2.2-.5Z" transform="translate(-595.9 -492.4)"/><path class="cls-72" d="M664.4,509v.4l.9-.2v-.9h-1.3l1.3.3C664.9,509.2,665.1,508.7,664.4,509Z" transform="translate(-595.9 -492.4)"/><path class="cls-13" d="M677,505.1h-.3v.6l.8-.2.7.2c-.2-.3,0-.2-.1-.6S677.3,505.3,677,505.1Z" transform="translate(-595.9 -492.4)"/><path class="cls-35" d="M663,499.5v-.2H663c-.4-.4-.3-.4-.7-.7l-.8-.6c.2.7,0,.1.4.6l.2.2C662.3,499.1,662.5,499.5,663,499.5Z" transform="translate(-595.9 -492.4)"/><path class="cls-79" d="M667.8,512.5l-.3.4c.2.5-.2,0,.4.3l.5-.7c-.2-.5,0-.2-.3-.4S667.9,512.1,667.8,512.5Z" transform="translate(-595.9 -492.4)"/><path class="cls-15" d="M657.9,506l-.2.2h1c-.3-.3-.5.1-.1-.5l.5-.4V505C658.1,505.5,658.8,505.7,657.9,506Z" transform="translate(-595.9 -492.4)"/><path class="cls-85" d="M677.6,513.9l.3-1.3c-.2-.6,0-.2-.3-.4A2,2,0,0,0,677.6,513.9Z" transform="translate(-595.9 -492.4)"/><path class="cls-45" d="M683.8,505.1l.7.2c-.2-.9-.3.1-.1-.9l-.5-.2Z" transform="translate(-595.9 -492.4)"/><path class="cls-19" d="M662.6,496.8c.2-1,.1-.5.5-.7l-.5-1.1A3.7,3.7,0,0,0,662.6,496.8Z" transform="translate(-595.9 -492.4)"/><path class="cls-58" d="M657.9,512.3h0l.7-.8a2.7,2.7,0,0,1-.8-.7C657.8,511.8,658.1,511.3,657.9,512.3Z" transform="translate(-595.9 -492.4)"/><path class="cls-57" d="M670.7,501.9c-.6.5-.2,0-.5.5h1.2l.2-.3C671,501.8,671.3,501.8,670.7,501.9Z" transform="translate(-595.9 -492.4)"/><path class="cls-87" d="M663.5,503.3c0,.5,0,.1.3.3l.9.2h0l-.5-.5C663.6,503.1,664.1,502.9,663.5,503.3Z" transform="translate(-595.9 -492.4)"/><path class="cls-102" d="M662.6,496.8l1,.2-.5-.9C662.7,496.3,662.8,495.8,662.6,496.8Z" transform="translate(-595.9 -492.4)"/><polygon class="cls-103" points="68.6 17.1 68.8 17.3 69 17.4 69.4 17.5 69.7 17.4 69.7 16.9 69.6 16.8 68.6 17.1"/><path class="cls-82" d="M654.7,509.1l-.5.3v.3c.9-.3.5.1,1.2-.3l.3-.2Z" transform="translate(-595.9 -492.4)"/><path class="cls-104" d="M654.8,512.3c-.3.4-.1.2-.6.5v.3h.3l1.2-1h-.5Z" transform="translate(-595.9 -492.4)"/><path class="cls-4" d="M657.2,501.2l.8,1c.3-.9.5-.3-.1-.8S657.5,501.1,657.2,501.2Z" transform="translate(-595.9 -492.4)"/><path class="cls-105" d="M674.4,509.1l1.2.6-.5-.9h-.5C674.3,508.9,674.5,508.7,674.4,509.1Z" transform="translate(-595.9 -492.4)"/><path class="cls-4" d="M667.5,498.2l.6-.7-1,.4c.3-.7.3-.5.3-1.2l-.5,1.2Z" transform="translate(-595.9 -492.4)"/><path class="cls-106" d="M681.1,507.4v.3h.5l.2-.4c.1-.6.1-.3-.1-.6h-.2Z" transform="translate(-595.9 -492.4)"/><path class="cls-107" d="M656.2,504.2v-1.5c-.4,0-.1-.1-.3.1v1.4Z" transform="translate(-595.9 -492.4)"/><path class="cls-108" d="M669.5,517.6l-.7-.6-.3.2.2.8A2,2,0,0,0,669.5,517.6Z" transform="translate(-595.9 -492.4)"/><path class="cls-55" d="M669.7,507.5h.5a2.6,2.6,0,0,0-.1-1.5h-.2A1.9,1.9,0,0,1,669.7,507.5Z" transform="translate(-595.9 -492.4)"/><path class="cls-71" d="M669,496.2c.4.2.3.1.4.4h.4c-.2-.4-.2-.3,0-.5V496h0l-.6-.2c-.6-.1-.1,0-.5,0S669.2,495.8,669,496.2Z" transform="translate(-595.9 -492.4)"/><path class="cls-94" d="M660.9,505.2v-.4h-.5c-.6,1.2-.2.5-.1.9Z" transform="translate(-595.9 -492.4)"/><path class="cls-109" d="M662.1,512.7c.5-.1.1-.1.3.1s-.2.4-.3.4-.1.2.1.5l.5-.2c-.4-.4-.3-.1,0-1s.4-.2-.3,0Z" transform="translate(-595.9 -492.4)"/><path class="cls-110" d="M677.6,512.2c.3.2.1-.2.3.4s.2.3.5-.5.1-.1-.5-.3h-.5C677.8,512.2,677.5,511.8,677.6,512.2Z" transform="translate(-595.9 -492.4)"/><path class="cls-94" d="M676.7,510.2c-.3.7-.2.3.2.5l.3-.2.3-.3-.2-.2v-.2Z" transform="translate(-595.9 -492.4)"/><path class="cls-27" d="M669.3,497.2l.2.9c.6-.2-.5.1.2-.1h.3c-.9-1.1-.4-.9-.3-1s-.2-.5.3.3a1,1,0,0,0-.1-.3v-.2h-.4v.2l.2.2Z" transform="translate(-595.9 -492.4)"/><path class="cls-111" d="M676.4,511.1v.3h.5c-.3-.5-.1-.3,0-.8s-.5.2-.2-.5S676.4,510.5,676.4,511.1Z" transform="translate(-595.9 -492.4)"/><path class="cls-67" d="M671.1,513.7a4.6,4.6,0,0,0,.7.7c0-.5-.1-.6-.5-1.1S671.1,513.2,671.1,513.7Z" transform="translate(-595.9 -492.4)"/><path class="cls-106" d="M668.3,516.5l.5-.6.2-.3.5.2c-.2-.4-.1-.3-.4-.4S668.5,515.8,668.3,516.5Z" transform="translate(-595.9 -492.4)"/><path class="cls-55" d="M674.1,515.3l-.2.4h.7c.3-.7.1-.3,0-.6l-.4-.2Z" transform="translate(-595.9 -492.4)"/><path class="cls-69" d="M671.5,509.5l-.3.4.4.2.7-.3c-.1-.3.1-.1-.3-.2Z" transform="translate(-595.9 -492.4)"/><path class="cls-86" d="M655.8,507.9c.1.2,0,.2.3.4s.1.2.4.2.1-.1-.1-.5l-.3-.3h-.2Z" transform="translate(-595.9 -492.4)"/><path class="cls-55" d="M674.2,504.5l.7.5v-.6h-.1c-.2-.4-.3.3-.1-.6Z" transform="translate(-595.9 -492.4)"/><polygon class="cls-112" points="61.1 18.2 61.2 18 61.5 17.4 60.7 17.2 61.1 18.2"/><polygon class="cls-81" points="79.2 15 79.4 14.9 79.9 14.8 79.8 14.3 79.4 14 79.2 15"/><path class="cls-30" d="M673.2,506.3c.2.3.1.2.4.4l.7-.7c-.2-.2,0-.1-.5,0A1.6,1.6,0,0,1,673.2,506.3Z" transform="translate(-595.9 -492.4)"/><path class="cls-42" d="M681.5,507.9h-.2l-.3.6h.5l.3.3.2-.7Z" transform="translate(-595.9 -492.4)"/><path class="cls-113" d="M677.8,501.7v.3h.5l.4-.3h-.6c.5-.7.1-.1.2-.6Z" transform="translate(-595.9 -492.4)"/><path class="cls-111" d="M677.2,510.5h.6l.2-.4c-.2-.5-.5-.2-.7-.1l.2.2Z" transform="translate(-595.9 -492.4)"/><path class="cls-2" d="M671.7,498.6l.6.5c.2-.8.2.2.7-.8s-1.2.6-1.2.3Z" transform="translate(-595.9 -492.4)"/><path class="cls-114" d="M675.4,505.9h.5l-.2-.2c-1.2-.3-.6-.3-1,.1a.1.1,0,0,0,.1.1Z" transform="translate(-595.9 -492.4)"/><path class="cls-115" d="M673.1,507.7l.5.6c.2.4.1.3.5.6v-.4l-.2-.9c-.1,1.1.1.3-.5.5S673.4,508,673.1,507.7Z" transform="translate(-595.9 -492.4)"/><path class="cls-45" d="M676.1,516.2c.5.6.6.5,1-.2l-.4-.3-.2.6Z" transform="translate(-595.9 -492.4)"/><path class="cls-97" d="M678,508.7c-.4.9-.2.3,0,.5h.5v-.7l-.4.2Z" transform="translate(-595.9 -492.4)"/><path class="cls-85" d="M671.7,503.4l.5-.4c-.4-.1-.3,0-.2-.3l-.4.3-.3-.4C671.2,503.2,671.3,503.1,671.7,503.4Z" transform="translate(-595.9 -492.4)"/><polygon class="cls-3" points="59.4 19.3 59.2 19.5 59.7 19.7 60.1 18.9 59.6 19.1 59.4 19.3"/><polygon class="cls-106" points="66.6 15.4 66.5 15.5 66.5 15.9 66.9 16 67 15.8 67.1 15.4 66.6 15.4"/><path class="cls-6" d="M669.6,518.5c.2.6.6.1.6.1l-.5-.2c.3-.3.3-.2.7-.2s.1-.1-.6-.2S669.7,517.7,669.6,518.5Z" transform="translate(-595.9 -492.4)"/><path class="cls-70" d="M669.8,496.7c1.1.5.2.1.6,0s.1-.3-.6-.5S669.6,496.3,669.8,496.7Z" transform="translate(-595.9 -492.4)"/><path class="cls-111" d="M671.1,513.7c0-.5-.1-.2.2-.4s.2-.2-.1-.3-.4-.1-.9-.3Z" transform="translate(-595.9 -492.4)"/><path class="cls-19" d="M663.4,502.7v.4h.1v.3c.6-.4.1-.2.7-.1l-.3-.7v.3Z" transform="translate(-595.9 -492.4)"/><polygon class="cls-54" points="79.7 22.7 80.2 23 80.4 22.5 79.8 22.3 79.7 22.7"/><path class="cls-47" d="M674.5,508.4l.3-.8c-.7-.1-.2-.2-.6.1S674.1,507.9,674.5,508.4Z" transform="translate(-595.9 -492.4)"/><path class="cls-116" d="M668.6,496.3h.4c.2-.4.2-.3-.3-.4h-.2c0,.1-.3.4-.3.4Z" transform="translate(-595.9 -492.4)"/><path class="cls-83" d="M663,508.9l-.2.2v.3c.4.1.5,0,.6-.3s.4.1.1-.3Z" transform="translate(-595.9 -492.4)"/><polygon class="cls-113" points="67.5 13.4 67 13.3 66.8 13.7 67.7 13.8 67.5 13.4"/><path class="cls-87" d="M669.3,497.2l.3-.2-.2-.2c-.5,0-.1-.3-.5.2S668.4,497.2,669.3,497.2Z" transform="translate(-595.9 -492.4)"/><path class="cls-104" d="M674.4,505.2h-.3l-.5-.2.2.5C674.8,505.5,674.1,505.5,674.4,505.2Z" transform="translate(-595.9 -492.4)"/><path class="cls-103" d="M672.6,499.9h.3l.6-.5C672.8,499.4,672.7,499.3,672.6,499.9Z" transform="translate(-595.9 -492.4)"/><path class="cls-39" d="M675.1,507.3l-.2.3v.5l.3-.4c.3-.1.4,0,.6.2v-.2l-.4-.5Z" transform="translate(-595.9 -492.4)"/><path class="cls-21" d="M680.2,497.5v.2c.5-.3.3-.1.6-.6S680.5,497,680.2,497.5Z" transform="translate(-595.9 -492.4)"/><path class="cls-77" d="M653.5,509l-.6-.3-.3.4C653.2,509.2,653.1,509.1,653.5,509Z" transform="translate(-595.9 -492.4)"/><path class="cls-99" d="M675,502.6h.4l.2-.3-.9-.2C675.2,502.6,675,501.9,675,502.6Z" transform="translate(-595.9 -492.4)"/><path class="cls-105" d="M670.7,501.9c.6-.1.3-.1.9.2l-.4-.7h0Z" transform="translate(-595.9 -492.4)"/><path class="cls-78" d="M669.8,494.8h.1l.2-.9h-.2C669.6,494.3,669.8,494.1,669.8,494.8Z" transform="translate(-595.9 -492.4)"/><path class="cls-117" d="M671.8,515.6c-.5-.1-.7-.3-.9.1l.5.3Z" transform="translate(-595.9 -492.4)"/><path class="cls-24" d="M661.1,508.2h.6v-.5c-.1-.1.3-.2-.1-.1Z" transform="translate(-595.9 -492.4)"/><path class="cls-103" d="M668.5,498.1h-.3l-.2.3c.4.4,0,.2.5.3v-.3C668.6,498.2,668.5,498.2,668.5,498.1Z" transform="translate(-595.9 -492.4)"/><polygon class="cls-74" points="72.9 16.7 73.6 17 73.4 16.3 72.9 16.7"/><polygon class="cls-103" points="72.5 3.1 72.5 3.6 72.7 3.7 72.7 3.5 73 2.8 72.5 3.1"/><path class="cls-1" d="M680,497.6c-.5.8-.2.2.2.6v-.7Z" transform="translate(-595.9 -492.4)"/><path class="cls-29" d="M677.4,510.9l.5.5c0-.4.2-.2-.1-.5S677.5,510.9,677.4,510.9Z" transform="translate(-595.9 -492.4)"/><path class="cls-60" d="M672.8,494.6l.2-.7h-.1c-.3,0,0-.4-.4.3S672.1,494.5,672.8,494.6Z" transform="translate(-595.9 -492.4)"/><path class="cls-118" d="M663.1,503h.2c0-.5-.3.4,0-.6s-.1-.2-.5.3Z" transform="translate(-595.9 -492.4)"/><path class="cls-52" d="M658.8,507.1c.7.1.3-.1.3.3s.1.2.2-.2l-.2-.5h-.2Z" transform="translate(-595.9 -492.4)"/><path class="cls-119" d="M678.5,509.2H678c-.2-.2-.4.4,0-.5s-.2-.1-.4.6h.6C678.7,509.3,678.2,509.5,678.5,509.2Z" transform="translate(-595.9 -492.4)"/><path class="cls-120" d="M670.1,510.4c-.9-.1-.3-.2-.6.3S669.4,511.5,670.1,510.4Z" transform="translate(-595.9 -492.4)"/><path class="cls-64" d="M667.5,510.5c-.2.3.1.4-.2.3s.6,0,.8-.4S668.1,510.2,667.5,510.5Z" transform="translate(-595.9 -492.4)"/><path class="cls-40" d="M662.9,500.2c-.4-.6-.2-.4-.8-.5s0,.1.3.3Z" transform="translate(-595.9 -492.4)"/><path class="cls-94" d="M661.1,513h.2c.6-.2.1-.1.4-.4h-.5Z" transform="translate(-595.9 -492.4)"/><path class="cls-70" d="M672,502.5v.2c-.1.3-.2.2.2.3l.2-.3h.1C672.1,502.4,672.3,502.5,672,502.5Z" transform="translate(-595.9 -492.4)"/><path class="cls-121" d="M657,516.4c.7-.1.3.2.6-.4S657.3,515.7,657,516.4Z" transform="translate(-595.9 -492.4)"/><path class="cls-103" d="M673.3,505.8c.1-.3.2,0,0-.3l-.4-.2-.4.2Z" transform="translate(-595.9 -492.4)"/><path class="cls-86" d="M677,502.7c0,.2-.1.1.2.2l.4-.4C677.4,502.2,677.4,502.3,677,502.7Z" transform="translate(-595.9 -492.4)"/><polygon class="cls-98" points="87 13 87.5 12.9 87.3 12.4 87.1 12.4 87 13"/><path class="cls-40" d="M673.2,509.8l.7.2-.2-.4C673.1,509.6,673.6,509.4,673.2,509.8Z" transform="translate(-595.9 -492.4)"/><path class="cls-122" d="M670.2,518.6l.2-.4c-.4,0-.4-.1-.7.2Z" transform="translate(-595.9 -492.4)"/><path class="cls-116" d="M677.6,501.1c.1.5,0,.3.2.2s.3-.3.2-.5Z" transform="translate(-595.9 -492.4)"/><path class="cls-94" d="M665.5,507.8c-.4,1-.1.2.1.6S665.9,508.2,665.5,507.8Z" transform="translate(-595.9 -492.4)"/><path class="cls-106" d="M651.4,514.2h.2c0-.3.5,0-.3-.4S651.2,514,651.4,514.2Z" transform="translate(-595.9 -492.4)"/><path class="cls-123" d="M657.7,513c.1,0,.2-.4.2-.4s.2.1,0-.3h0l-.4.4Z" transform="translate(-595.9 -492.4)"/><path class="cls-109" d="M662.3,510.1h.6c-.2-.3,0-.2-.4-.4v.2h-.1A.3.3,0,0,1,662.3,510.1Z" transform="translate(-595.9 -492.4)"/><path class="cls-16" d="M662.8,509.1l.2-.2h-.5C662.5,509.3,662,509.3,662.8,509.1Z" transform="translate(-595.9 -492.4)"/><path class="cls-19" d="M668.2,509.8h.1a.1.1,0,0,0,.1.1h.5C668.3,509.4,668.6,509.7,668.2,509.8Z" transform="translate(-595.9 -492.4)"/><path class="cls-122" d="M659.1,507.4c-.1.1-.3-.3-.2.3s0,.1.3.4Z" transform="translate(-595.9 -492.4)"/><path class="cls-39" d="M669.4,502.8h.1c-.1-.5.4-.2-.3-.4S669.1,502.5,669.4,502.8Z" transform="translate(-595.9 -492.4)"/><polygon class="cls-39" points="78 23.4 78.1 23.3 78.2 23 78 22.9 77.8 23.4 78 23.4"/><path class="cls-27" d="M678.9,502c.3-.1.1.4.3-.4h-.4Z" transform="translate(-595.9 -492.4)"/><path class="cls-64" d="M671.2,494.9H671c-.4.6-.2.2,0,.4S671.1,495.3,671.2,494.9Z" transform="translate(-595.9 -492.4)"/><path class="cls-124" d="M662.1,498l.7.4c0-.2,0-.2-.1-.3a.5.5,0,0,0-.2-.4v.5Z" transform="translate(-595.9 -492.4)"/><path class="cls-35" d="M678.9,513.5l.6.3v-.7C679.2,513.7,679.4,513.7,678.9,513.5Z" transform="translate(-595.9 -492.4)"/><path class="cls-103" d="M670.4,499c0-.7-.2,0-.4.1Z" transform="translate(-595.9 -492.4)"/><path class="cls-125" d="M665.2,509.8l.6.2c-.3-.2-.1-.1-.2-.7v.5Z" transform="translate(-595.9 -492.4)"/><polygon class="cls-27" points="68.9 11.9 68.5 11.9 68.5 12.2 68.9 11.9"/><polygon class="cls-99" points="77.3 21.2 77.8 21.1 77.4 20.9 77.3 21.2"/><path class="cls-42" d="M665.5,507.8c.4-.5.1-.1,0-.2S665.3,507.6,665.5,507.8Z" transform="translate(-595.9 -492.4)"/><polygon class="cls-39" points="72.4 4.8 72 4.7 72.1 5 72.4 4.8"/><path d="M601.4,535.2a14.1,14.1,0,0,1,.2-4.4q.1-.3,0-.3a15.5,15.5,0,0,1-.8,1.4l-1.3,2.2c-.7,1-.9,1.2-1.4,1.2h-.5c-.3-.3-.3-.6-.3-1.6a10.9,10.9,0,0,1,.7-3.2,35.7,35.7,0,0,1,1.9-3.9c.3-.5.7-.7.9-.4s0,.2-.3.8l-1.3,3.1c-.4,1.2-.6,1.7-.9,2.8a6.8,6.8,0,0,0-.1,1.9c.1.1.4-.2.8-.9a20.3,20.3,0,0,0,1.9-3c1.7-2.8,1.8-2.9,2.1-2.8s.1.1.1.2,0,.5-.2,1a31.7,31.7,0,0,0-.7,4.6,3.3,3.3,0,0,0,.4,2c.1.2.3.3.6,0s2.7-2.7,4.1-5.7a20.2,20.2,0,0,0,1.3-3.6,4.6,4.6,0,0,0-.1-1.7h-.2c-.2,0-.2-.3,0-.4a.4.4,0,0,1,.7.2,6.8,6.8,0,0,1,.2,1.5,10.5,10.5,0,0,1-1.1,3.5,27.3,27.3,0,0,1-2.9,5.1c-1,1.4-2.2,2.1-2.8,1.8A2.3,2.3,0,0,1,601.4,535.2Z" transform="translate(-595.9 -492.4)"/><path d="M609.6,531.7a3.3,3.3,0,0,1-.3.6c-.1.2-.1.3.1.3h.5l3.4-.9c.7-.2.9-.2.8,0s-.1.1-.6.3l-3.1.9a3.7,3.7,0,0,1-1.5,0c-.5-.2-.6-.7-.1-1.3s.5-.6.7-.6S609.9,531.2,609.6,531.7Zm1.3-2.2c-.3.4-.6.5-.8.3s.2-.8.6-.8S611.1,529.2,610.9,529.5Z" transform="translate(-595.9 -492.4)"/><path d="M614.2,531.2c.4,0,.4.3.1.6s-.4.6-.2,1l.3.3.5-.2a29,29,0,0,1,4-1.3c.3,0,.2.2-.1.3l-1.6.6-2,.7-.6.3v.3c.1.3-.1.7-.6,1.1a2,2,0,0,1-1.4.4.4.4,0,0,1-.4-.4c0-.2.1-.3.3-.6l.8-.6.5-.3a.7.7,0,0,0-.3-.3.9.9,0,0,1-.2-1.2,1.2,1.2,0,0,1,.9-.7Zm-1.5,3.7c0,.1.3,0,.5-.1s.9-.8.8-.9h-.1A2.9,2.9,0,0,0,612.7,534.9Z" transform="translate(-595.9 -492.4)"/><path d="M620.7,531.3c.1.3-.3.9-.9,1.1h-1v.2c0,.2,0,.3.1.4a2.2,2.2,0,0,0,1.2,0,14.4,14.4,0,0,0,3.7-1.2c.7-.3.9-.3.9-.1s-.2.2-1.2.6a17.8,17.8,0,0,1-3.5,1.2,2.3,2.3,0,0,1-1.2,0c-.8-.2-1-.7-.5-1.4a2,2,0,0,1,1.6-1A1.1,1.1,0,0,1,620.7,531.3Zm-1.6.5c0,.2.6.2.8,0l.2-.3c0-.1,0-.1-.2-.1S619.1,531.7,619.1,531.8Z" transform="translate(-595.9 -492.4)"/><path d="M632.9,535.2a14.1,14.1,0,0,1,.2-4.4v-.3l-.8,1.4-1.3,2.2c-.7,1-1,1.2-1.5,1.2h-.4c-.3-.3-.4-.6-.3-1.6a8.4,8.4,0,0,1,.7-3.2,36.6,36.6,0,0,1,1.8-3.9c.4-.5.8-.7.9-.4s.1.2-.2.8a27.2,27.2,0,0,0-1.3,3.1,11.3,11.3,0,0,0-.9,2.8,4.9,4.9,0,0,0-.2,1.9q.1.1.9-.9c.5-.8.6-.9,1.8-3s1.8-2.9,2.1-2.8a.2.2,0,0,1,.2.2l-.2,1a22.1,22.1,0,0,0-.7,4.6,2.8,2.8,0,0,0,.3,2c.2.2.3.3.7,0s2.6-2.7,4.1-5.7a20.2,20.2,0,0,0,1.3-3.6,8.6,8.6,0,0,0-.1-1.7h-.2c-.2,0-.2-.3,0-.4s.5-.1.6.2a2.5,2.5,0,0,1,.2,1.5,10,10,0,0,1-1,3.5,34.3,34.3,0,0,1-2.9,5.1c-1.1,1.4-2.2,2.1-2.8,1.8A1.9,1.9,0,0,1,632.9,535.2Z" transform="translate(-595.9 -492.4)"/><path d="M642.4,531.3c.1.3-.3.9-.9,1.1h-1v.2c0,.2,0,.3.1.4a2.2,2.2,0,0,0,1.2,0,14.4,14.4,0,0,0,3.7-1.2c.7-.3.9-.3.9-.1s-.2.2-1.2.6a17.8,17.8,0,0,1-3.5,1.2,2.3,2.3,0,0,1-1.2,0c-.8-.2-1-.7-.5-1.4a2.2,2.2,0,0,1,1.6-1A1.1,1.1,0,0,1,642.4,531.3Zm-1.5.5c0,.2.5.2.7,0l.2-.3c0-.1,0-.1-.2-.1S640.9,531.7,640.9,531.8Z" transform="translate(-595.9 -492.4)"/><path d="M652.5,526.7c0,.6-.4,1.2-1.3,2.3a24,24,0,0,1-2.3,2.1c-.4.4-.9.8-.9.9s-.6,2.7-.3,2.8.1.3,0,.3-.3.1-.5-.1-.4-.7-.3-1.5.1-.9-.4-.6-1.4.7-1.7.4-.2-.3,0-.7a2.5,2.5,0,0,1,1.6-1.6.8.8,0,0,1,.8.3v.2l.3-.6c1-2.2,2.7-4.3,3.9-4.7h.4A.6.6,0,0,1,652.5,526.7ZM646,532a9,9,0,0,0-.5.9l1-.5.4-.3v-.6h-.1A1.2,1.2,0,0,0,646,532Zm5.7-5.4a3.9,3.9,0,0,0-1.1.9,16.6,16.6,0,0,0-1.7,2.4l-.5,1.1.8-.7a18.9,18.9,0,0,0,2.4-2.6,1.3,1.3,0,0,0,.3-.8v-.4Z" transform="translate(-595.9 -492.4)"/><path d="M656.5,526.7c0,.6-.4,1.2-1.3,2.3a24,24,0,0,1-2.3,2.1,3.4,3.4,0,0,0-.9.9c-.4.4-.6,2.7-.3,2.8s.1.3,0,.3-.3.1-.6-.1-.3-.7-.2-1.5.1-.9-.4-.6-1.4.7-1.7.4-.2-.3,0-.7a2.6,2.6,0,0,1,1.5-1.6.9.9,0,0,1,.9.3v.2l.3-.6c1-2.2,2.7-4.3,3.8-4.7h.5A.6.6,0,0,1,656.5,526.7ZM650,532a2.8,2.8,0,0,0-.5.9l.9-.5.5-.3v-.3c-.1-.1-.1-.3-.2-.3h0A1.2,1.2,0,0,0,650,532Zm5.7-5.4a3.9,3.9,0,0,0-1.1.9,16.6,16.6,0,0,0-1.7,2.4c-.2.4-.6,1.1-.5,1.1l.7-.7a15,15,0,0,0,2.5-2.6,1.3,1.3,0,0,0,.3-.8v-.4Z" transform="translate(-595.9 -492.4)"/><path d="M654.8,531.7l-.3.6q-.2.3,0,.3h.6l3.3-.9c.7-.2.9-.2.9,0s-.2.1-.7.3l-3.1.9a3.8,3.8,0,0,1-1.5,0c-.5-.2-.5-.7-.1-1.3s.5-.6.8-.6S655.1,531.2,654.8,531.7Zm1.2-2.2c-.3.4-.5.5-.7.3s.2-.8.6-.8S656.3,529.2,656,529.5Z" transform="translate(-595.9 -492.4)"/><path d="M659.1,531.1a.5.5,0,0,1,.6-.1c.2.1.1.2-.1.6l-.2.3c0,.1.2,0,.4-.2s1.8-.8,2.2-.5a1.5,1.5,0,0,1,.3.7.4.4,0,0,0,.1.3,8.1,8.1,0,0,0,2.6-.3c1.9-.4,1.8-.4,1.8-.2v.2l-1.1.2-1.6.4a4.3,4.3,0,0,1-1.9.1c-.4-.1-.5-.3-.5-.8s-.1-.4-.7-.2a5.3,5.3,0,0,0-1.5,1c-.6.5-.8.6-1,.3S658.6,531.6,659.1,531.1Z" transform="translate(-595.9 -492.4)"/><path d="M667.6,531.1h.4l.2.2c0,.1.1.1.5-.1s.7-.1.9.2a2.4,2.4,0,0,1,.1,1.2.3.3,0,0,0-.1.2l.7-.3a23.3,23.3,0,0,1,3.1-1.1h.7c.1.1.1.2,0,.2l-.6.2a14.4,14.4,0,0,0-3.8,1.5.8.8,0,0,0-.5.6,13.7,13.7,0,0,1-3.2,4.2,1.9,1.9,0,0,1-1.9.5c-.5-.3-.4-.7,0-1.5a19.6,19.6,0,0,1,3.5-3.1l1-.7a6.6,6.6,0,0,0,.4-1.5v-.3h-.2l-1.2.6c-1.3.7-1.5.8-1.8.6s-.2-.2-.1-.4a2.1,2.1,0,0,1,1.8-1.4Zm-1.8,5c-1.1,1-1.7,1.8-1.4,2.2s.1.1.3,0l.5-.3a9.2,9.2,0,0,0,1.4-1.4,8.4,8.4,0,0,0,1.4-2.2h0Zm1.2-4.2c-.3.2-.5.4-.5.5l.7-.3c.6-.3.6-.4.5-.5h-.2A.5.5,0,0,0,667,531.9Z" transform="translate(-595.9 -492.4)"/></svg>