<svg id="Layer_1" data-name="Layer 1" xmlns="http://www.w3.org/2000/svg" viewBox="0 0 84.3 55.9"><defs><style>.cls-1{fill:#5b5b5b;}.cls-1,.cls-10,.cls-100,.cls-101,.cls-102,.cls-103,.cls-104,.cls-105,.cls-106,.cls-107,.cls-108,.cls-109,.cls-11,.cls-110,.cls-111,.cls-112,.cls-113,.cls-114,.cls-115,.cls-116,.cls-117,.cls-118,.cls-119,.cls-12,.cls-120,.cls-121,.cls-122,.cls-123,.cls-124,.cls-125,.cls-13,.cls-14,.cls-15,.cls-16,.cls-17,.cls-18,.cls-19,.cls-2,.cls-20,.cls-21,.cls-22,.cls-23,.cls-24,.cls-25,.cls-26,.cls-27,.cls-28,.cls-29,.cls-3,.cls-30,.cls-31,.cls-32,.cls-33,.cls-34,.cls-35,.cls-36,.cls-37,.cls-38,.cls-39,.cls-4,.cls-40,.cls-41,.cls-42,.cls-43,.cls-44,.cls-45,.cls-46,.cls-47,.cls-48,.cls-49,.cls-5,.cls-50,.cls-51,.cls-52,.cls-53,.cls-54,.cls-55,.cls-56,.cls-57,.cls-58,.cls-59,.cls-6,.cls-60,.cls-61,.cls-62,.cls-63,.cls-64,.cls-65,.cls-66,.cls-67,.cls-68,.cls-69,.cls-7,.cls-70,.cls-71,.cls-72,.cls-73,.cls-74,.cls-75,.cls-76,.cls-77,.cls-78,.cls-79,.cls-8,.cls-80,.cls-81,.cls-82,.cls-83,.cls-84,.cls-85,.cls-86,.cls-87,.cls-88,.cls-89,.cls-9,.cls-90,.cls-91,.cls-92,.cls-93,.cls-94,.cls-95,.cls-96,.cls-97,.cls-98,.cls-99{fill-rule:evenodd;}.cls-2{fill:#9b9c9c;}.cls-3{fill:#b78878;}.cls-4{fill:#d6d5d6;}.cls-5{fill:#e8e7e7;}.cls-6{fill:#a67c73;}.cls-7{fill:#686866;}.cls-8{fill:#818181;}.cls-9{fill:#c8927d;}.cls-10{fill:#b1b1b0;}.cls-11{fill:#685449;}.cls-12{fill:#563c33;}.cls-13{fill:#989797;}.cls-14{fill:#d9d9d9;}.cls-15{fill:#a7a8a8;}.cls-16{fill:#6c6c6c;}.cls-17{fill:#796459;}.cls-18{fill:#b57b68;}.cls-19{fill:#bbbbbc;}.cls-20{fill:#f9f9f9;}.cls-21{fill:#adadad;}.cls-22{fill:#7c7b7c;}.cls-23{fill:#987667;}.cls-24{fill:#966c63;}.cls-25{fill:#dedee0;}.cls-26{fill:#877a76;}.cls-27{fill:#bdbebd;}.cls-28{fill:#787676;}.cls-29{fill:#e4e2e2;}.cls-30{fill:#a98676;}.cls-31{fill:#ecebec;}.cls-32{fill:#888887;}.cls-33{fill:#e7aa97;}.cls-34{fill:#a6a6a6;}.cls-35{fill:#cdcdcd;}.cls-36{fill:#d9a28d;}.cls-37{fill:#876b64;}.cls-38{fill:#aa826c;}.cls-39{fill:#4b4b4b;}.cls-40{fill:#e9e9e9;}.cls-41{fill:#a3a3a4;}.cls-42{fill:#d1d0d0;}.cls-43{fill:#f4f4f4;}.cls-44{fill:#ddd;}.cls-45{fill:#c7c8c8;}.cls-46{fill:#d8d8d7;}.cls-47{fill:#d8a696;}.cls-48{fill:#929292;}.cls-49{fill:#abacac;}.cls-50{fill:#d3d3d3;}.cls-51{fill:#72716e;}.cls-52{fill:#594339;}.cls-53{fill:#b4b4b4;}.cls-54{fill:#747474;}.cls-55{fill:#aaa9a9;}.cls-56{fill:#987b74;}.cls-57{fill:#a2a2a2;}.cls-58{fill:#a77967;}.cls-59{fill:#b99587;}.cls-60{fill:#8e8e8e;}.cls-61{fill:#c5c5c5;}.cls-62{fill:#494646;}.cls-63{fill:#d69a88;}.cls-64{fill:#d2d2d2;}.cls-65{fill:#b8b8b7;}.cls-66{fill:#886758;}.cls-67{fill:#636363;}.cls-68{fill:#9e9e9e;}.cls-69{fill:#cccccb;}.cls-70{fill:#5f5f61;}.cls-71{fill:#7e7e7e;}.cls-72{fill:#c0c2c0;}.cls-73{fill:#c89787;}.cls-74{fill:#959595;}.cls-75{fill:#c3c4c3;}.cls-76{fill:#584a45;}.cls-77{fill:#775848;}.cls-78{fill:#858283;}.cls-79{fill:#e1e1e1;}.cls-80{fill:#4a332a;}.cls-81{fill:#766866;}.cls-82{fill:#674c44;}.cls-83{fill:#eee;}.cls-84{fill:#c58b79;}.cls-85{fill:#949393;}.cls-86{fill:#b78c84;}.cls-87{fill:#f6f6f6;}.cls-88{fill:#855a49;}.cls-89{fill:#0c0d0c;}.cls-90{fill:#7a7a7a;}.cls-91{fill:#b59b94;}.cls-92{fill:#b9b9b9;}.cls-93{fill:#9a725c;}.cls-94{fill:#545454;}.cls-95{fill:#434343;}.cls-96{fill:#919190;}.cls-97{fill:#685955;}.cls-98{fill:#595956;}.cls-99{fill:#9f9fa0;}.cls-100{fill:#40403d;}.cls-101{fill:#6e6154;}.cls-102{fill:#775c54;}.cls-103{fill:#f1f1f1;}.cls-104{fill:#c9958b;}.cls-105{fill:#bfbfc0;}.cls-106{fill:#473b36;}.cls-107{fill:#bcc2c4;}.cls-108{fill:#895c51;}.cls-109{fill:#373638;}.cls-110{fill:#2e3031;}.cls-111{fill:#8b8b8b;}.cls-112{fill:#231b15;}.cls-113{fill:#e4dbd8;}.cls-114{fill:#291c17;}.cls-115{fill:#c6bbb8;}.cls-116{fill:#3b3b3c;}.cls-117{fill:#343434;}.cls-118{fill:#252829;}.cls-119{fill:#b5aba8;}.cls-120{fill:#1c1c1c;}.cls-121{fill:#674839;}.cls-122{fill:#c9a796;}.cls-123{fill:#33231c;}.cls-124{fill:#e6e2dd;}.cls-125{fill:#c9c9c9;}</style></defs><path d="M350.8,480.8a3.4,3.4,0,0,1-.8,2.3,2.7,2.7,0,0,1-2.2.9h-1.4c-.2,0-.2.1-.2.2v.8c0,.4.1.6.1.8H344a.2.2,0,0,1-.2-.2v-1.9a16.4,16.4,0,0,0,.1-2c0-1.2-.1-2.5-.2-3.8h0l.2-.2h3.8a2.9,2.9,0,0,1,2.2.9A2.8,2.8,0,0,1,350.8,480.8Zm-2.4.1c0-.9-.4-1.4-1.3-1.4h-1v2.5h1.1C348,482.2,348.4,481.8,348.4,480.9Z" transform="translate(-343.7 -445.6)"/><path d="M359.7,481.8a4.5,4.5,0,0,1-1.2,3.1,4.1,4.1,0,0,1-3,1.2,3.8,3.8,0,0,1-3-1.3,4,4,0,0,1-1.1-3,4.4,4.4,0,0,1,1.1-3.1,4.4,4.4,0,0,1,6,0A4.5,4.5,0,0,1,359.7,481.8Zm-2.2,0a2.5,2.5,0,0,0-.5-1.5,2.1,2.1,0,0,0-1.5-.7,2.1,2.1,0,0,0-1.4.7,2.5,2.5,0,0,0-.5,1.5,2,2,0,0,0,.5,1.5,1.9,1.9,0,0,0,2.8,0A2.4,2.4,0,0,0,357.5,481.8Z" transform="translate(-343.7 -445.6)"/><path d="M367.6,485.8h-2.5l-.3-.7c-.2-.4-.4-1-.7-1.8a.6.6,0,0,0-.5-.2H363c-.1,0-.1.1-.1.3a5.7,5.7,0,0,0,.1,1.2c0,.5.1.9.1,1.2h-2.3c-.2,0-.2-.1-.2-.2v-1.9a16.4,16.4,0,0,0,.1-2c0-1.6,0-2.9-.1-3.8h0l.2-.2h3.5a3.8,3.8,0,0,1,2.2.6,2.5,2.5,0,0,1,.9,2,5.2,5.2,0,0,1-.2,1.4l-.9,1h-.2a11.5,11.5,0,0,1,.7,1.5C367.3,485.2,367.6,485.7,367.6,485.8Zm-2.5-5.2a1.1,1.1,0,0,0-.5-1l-1.1-.2c-.4,0-.6,0-.6.2v1.9h.9C364.7,481.6,365.1,481.3,365.1,480.6Z" transform="translate(-343.7 -445.6)"/><path d="M373.9,479.5a.1.1,0,0,1-.1.1H372v2.1a17.2,17.2,0,0,0,.1,2v2.3h-2.3a.2.2,0,0,1-.2-.2c0-.4.1-1.1.1-2.1s.1-1.6.1-2-.1-1-.1-2.1h-1.9v-.5a1.1,1.1,0,0,0,.1-.5.7.7,0,0,0,.1-.5,1.2,1.2,0,0,1,.1-.5h5.8v1.8Z" transform="translate(-343.7 -445.6)"/><path d="M382.7,481.8a4.5,4.5,0,0,1-1.2,3.1,4.1,4.1,0,0,1-3,1.2,3.8,3.8,0,0,1-3-1.3,4.1,4.1,0,0,1-1.2-3,4.5,4.5,0,0,1,1.2-3.1,4.4,4.4,0,0,1,6,0A4.5,4.5,0,0,1,382.7,481.8Zm-2.2,0a2,2,0,0,0-.6-1.5,1.7,1.7,0,0,0-1.4-.7,2.1,2.1,0,0,0-1.4.7,2.5,2.5,0,0,0-.5,1.5,2,2,0,0,0,.5,1.5,1.9,1.9,0,0,0,2.8,0A2.4,2.4,0,0,0,380.5,481.8Z" transform="translate(-343.7 -445.6)"/><path d="M389.6,479.6h-3.4c-.2.1-.2.3-.2.6s.1.6.2.6H389c.2,0,.2.3.2,1v1.1h-2.9c-.2,0-.3.1-.3.2v1.9c.1.7.1,1,.1.9s-.1.2-.4.2h-1.9a.2.2,0,0,1-.2-.2,14.9,14.9,0,0,1,.1-1.9v-2a13.4,13.4,0,0,0-.1-1.9c0-1.2-.1-1.9-.1-2h0c0-.1.1-.1.2-.1h5.4a.5.5,0,0,1,.4.2v.8a1.3,1.3,0,0,0,.1.5Z" transform="translate(-343.7 -445.6)"/><path d="M398.5,481.8a4.5,4.5,0,0,1-1.2,3.1,4.1,4.1,0,0,1-3,1.2,3.8,3.8,0,0,1-3-1.3,4.1,4.1,0,0,1-1.2-3,4.5,4.5,0,0,1,1.2-3.1,4.4,4.4,0,0,1,6,0A4.5,4.5,0,0,1,398.5,481.8Zm-2.3,0a2,2,0,0,0-.5-1.5,1.7,1.7,0,0,0-2.8,0,2,2,0,0,0-.6,1.5,2.5,2.5,0,0,0,.5,1.5,2,2,0,0,0,1.5.6,2,2,0,0,0,1.4-.6A2.3,2.3,0,0,0,396.2,481.8Z" transform="translate(-343.7 -445.6)"/><path d="M404.7,486h-5.1a.2.2,0,0,1-.2-.2v-1.9c0-.8.1-1.5.1-1.9s-.1-1.1-.1-2v-2.1c0-.1,0-.1.1-.1h2.2c.1,0,.1,0,.1.1h0c0,.7-.1,1.8-.1,3.3v1.5c0,.5.1.9.1,1.1v.2h3.4c.1,0,.1.1.1.2a9.1,9.1,0,0,1-.1,1.7v.2Z" transform="translate(-343.7 -445.6)"/><path d="M423,481.8a4.9,4.9,0,0,1-1.1,3.1,4.1,4.1,0,0,1-3,1.2,3.9,3.9,0,0,1-3.1-1.3,4.4,4.4,0,0,1-1.1-3,4.9,4.9,0,0,1,1.1-3.1,4.1,4.1,0,0,1,3.1-1.2,4.1,4.1,0,0,1,3,1.2A4.9,4.9,0,0,1,423,481.8Zm-2.2,0a2.5,2.5,0,0,0-.5-1.5,2.1,2.1,0,0,0-1.4-.7,1.7,1.7,0,0,0-1.4.7,2,2,0,0,0-.6,1.5,2.5,2.5,0,0,0,.5,1.5,2,2,0,0,0,1.5.6,2,2,0,0,0,1.4-.6A3,3,0,0,0,420.8,481.8Z" transform="translate(-343.7 -445.6)"/><path d="M413.6,476v4.8c.1,2.2.1,3.8.1,4.8a.6.6,0,0,1-.5.6h-5.4c-.2-.1-.4-.2-.4-.3s-.1-.3-.1-.7,0-2.5.1-4.6V476a91.4,91.4,0,0,0-.4-10.1v-.5c0-.3.2-.4.5-.4H409l1.5.2H412l1.6-.2c.3,0,.4.2.4.5v.4C413.7,468.8,413.6,472.2,413.6,476Z" transform="translate(-343.7 -445.6)"/><path class="cls-1" d="M414.5,463.9c.2-.6-.4-.3.5-.4s-.1.3-.5.4Zm4.8,5.5h0c-.2-.9-.1-1,0-1v1.1Zm0-1.4c0-.1-.1-.2-.3-.5l.3-.3v.8Zm-5.4-.2h.2V467a.1.1,0,0,1,.1-.1l.4.2-.3-2.1.2-.3v-.5c.8.1.8,0,1.4.5s-.1,0-.4.6l1.3.4-.4-.6,1.1-.3h1.3v.6h.3l-.3.3h.5v-.4a2.2,2.2,0,0,1-.3-.9c-1.7-.2-1.9.5-3.5-.5l1.4-.4c-1.1-.7,1.3.6-.6-.2l-.3-.2c.4-.4.3-.4.9-.5h.7c.3-.7,0,.7,0-.2s-.1,0,.1-.4l-.2-.2c-.2.4,0,.2-.4.3l-.7.5c0,.5.1.4-.3.4s-.2-.3-.6-.1l-1,.2v-.4l-.4-1.6h.2c0,.1.1.1,0-.2v-.3h-.5l-.2,1.3.5.6h-.8l-.2.4-.7,1.1v.2c.6-.4.1-.2.6-.3s.2.1.3.4.1.1-.1.4l-.6.9-.2.4c.1.2-.3.3.3,0h0c.4-.8.1-.7,1-1.2s.3.4,0,1,0,.1.1.2v.3c0,.1.1.4.1.5s-.1.4-.1.9Zm-.9-4.4c.4-.2,0-.4.7,0H413Z" transform="translate(-343.7 -445.6)"/><path class="cls-2" d="M410,462.1c.4.3.4,0,.2.5s-.4.5-.2-.5Zm-.1,5.8h.3a30.3,30.3,0,0,1,.1-3.4c1.1-.2.5-.2,1.2.4l-.4.8.8-.5c.4-.2,1.1-.8,1.4-.5s.2,0,.1-.4-.2-.2-.3-.4-.2.6-.7.6,0,.1.1-.3V464l-.7.2c.1-.7.2-1.8.3-2.5a9.3,9.3,0,0,1,.9-2c-.6-.6,0-.2-.5-.8s-.2.3-.4-.7h-.7c-.5.3-.3.3-.7.6s-.3-.1-.5.4l-.8.7a2.5,2.5,0,0,1,2.4-1l-.2.4s-.1.2-.1.1a.3.3,0,0,1-.1.2c.8-.4.2-.4,1.1-.7v1.1c-.1.6-.1,1.2-.6,1.4h0l-.2,2.8a3.9,3.9,0,0,1-1.1-2.2,4.5,4.5,0,0,1,.8-2.3c-.4.1-.3-.1-.7.5a2,2,0,0,0-.4.8h-1.8c-.3.3-.2.1-.2.6l.2-.3v.4l.4-.5h1.3c-.2,0-.4.3-.6.4l-1.1.2.2.3c-.8.1-.8.1-1.2.8v.2l.9-.6h.4l1.2-.3.3.9h.2c.2.5,0,.4.3.6h-1c.4.5.3,1,0,1.7a3.7,3.7,0,0,1-.7,1.2h.7l.2-.3v1.2Zm.1-5.8c.2-.7,0-.2-.1-.3S409.7,461.9,410,462.1Z" transform="translate(-343.7 -445.6)"/><path class="cls-3" d="M403.7,472.4c.2-.7,0-.3.5-.5s.2.3-.5.5Zm.7.8v-.5l.4-.3.4-2h-.3v-1.1c0-.4-.1-.1.1-.3s.2.5.1,1.1-.3-.8.4-1V469H404a2,2,0,0,1,0,2.4v-2.5h-.6l.2-.5c-.1-1.1-.2-.6-.5-1.5h-.7a7.7,7.7,0,0,0,.2,1.5c0,1-.2.6-.3,1.3l.2.5c.3-.7,0-.8.7-.6V471l-.9-.4c.4.8.1.2.5.6s.1.1.1.2.2-.1-.1.3l.8.7a2.2,2.2,0,0,1,.5.8Z" transform="translate(-343.7 -445.6)"/><path class="cls-4" d="M412.6,452.4h-.3c0-.2.1-.8.3-.1Zm1.7-2.1h0l-1.2.5-.9.7v-.7c-.5-.1-.1.2-.4-.2s-.2-.1-.4-.1-.6,0,.5.8,0,.1-.3.2.4-.2-.1,0v.5h-1.1c.1,0,.1,0,.1.1v.3c-.5,0-.2.1-.6-.2h-.4l.4.7c1.8-.4,1,.1,1.8-.5a1.9,1.9,0,0,1,.5,1.4h-.5l.6.2c.2-.6.2-.4.7-.9v-.7c-.3-.2-.1,0-.2-.3l.5-.2c.1-.2-.1-.1.3-.4h0c.1.3.5-.4,1.1-.6s-.5.1-.5,1l.5.6c-.1-.5.1-.5.7-.7v-.4l.6.3-.2-.9h.4c-.2-.6,0-.2-.3-.7s-.3,0-.3-.5.2-.4-.4,1.5c-.4-.2-.2-.6-1-.4Z" transform="translate(-343.7 -445.6)"/><path class="cls-5" d="M414,459.3a3.3,3.3,0,0,1,.4,1.4v.3c.6.2.6.1.9.6h.1c2.3.6,1.8-.2,3.6,0v-.5h-.4l-.6-.5-.6-.5-.7-.2.3,1.1c-.1.2.5.3-.1-.2s-.2,0-.2-.1h-.2l.4.9a2.2,2.2,0,0,1-.8-1.3l-.2.4.2-.8h.2l.5-.2c-1-.2-.7-.3-1.9-.6h-.9Z" transform="translate(-343.7 -445.6)"/><path class="cls-6" d="M407.7,453.3h.5l1.2.6.2,2c-.5-.2-1.7-.8-1.9-1.4s-.6,0-.7-.5a2.3,2.3,0,0,0-.1-.4,3.8,3.8,0,0,1-.3-1l1.1.6Zm-3.2-1.2v.8l.3.4c.1.1.1.1.1.3s.4.1.4.8h.2l-.2-.6c1.2,0,1.1.6,2,1.4l.8.5,1.2,1,.4.2v-.3c.2-.7-.1,0,.4-.4s-.4-1.3-.4-2,0-.3.3-.5h.4l-3.1-1-.3-.4h-.8l-.3.3c.6.1.7-.1,1,.5v.6c-.1.4-.1.1-.2.3l-1.5-1.8c.4.2.4.1.7,0s-.3.1-.3-.3h-1.2Z" transform="translate(-343.7 -445.6)"/><path class="cls-7" d="M404.7,468.4c.4.1.1,0,.2.1h.5c.7.1,1.1.1,1.5-.5a5.1,5.1,0,0,0-1.7.3,8.1,8.1,0,0,0,3-2.5l.5-.6c.5-.5.2-.5.7-.3s.1.1,0,.3-.5-.1-.5,1.1-.4,0-.8.9.1-.1.3,0-.4.7.2.9.7-.5,1.1-1.2H409a3.7,3.7,0,0,0,.7-1.2c.3-.7.4-1.2,0-1.7h-.1c-.7.4-.5.5-1.1,1.3S405.1,467.8,404.7,468.4Z" transform="translate(-343.7 -445.6)"/><path class="cls-8" d="M412.6,456.3c.2-.2.1.1.5-.6s.4-.5.3.7h.4c-.2.5-.2.3.1.8s.7.6-.9,0c.5.8.5,1-.1,1.4s-.2,0-.4-1.1v-1.1c-.3-.3-.3.4-.3-.4s.2-.1.4.4Zm.1-1v.4c-.8-.1-.8,0-.9.7a2.3,2.3,0,0,0,.1,1.2l-.5.7h.7c-.4-.7-.1-.1,0-.3s0,.4.8.6.6.1.6,0l.4.6h.3l-.2-.6c.4.1.9.4.9-.5v-.2c-1.4,0,.2.5-1.3.3.5-.1.8.3.5-1.3s-.5,0-.6-1.3l-.3.2-.4-1c-.5-.5-.2-.3-.3,0Z" transform="translate(-343.7 -445.6)"/><path class="cls-9" d="M421.9,456.8l1,.7c.2-.5-.2-.3.4-.4s.9.1,1.8.1h.3a1.5,1.5,0,0,0,.2-.8l-1.6-.3c-.8,0-.8.2-1.5.1l2.2-.4c-.7-.3-.2-.4-1.2-.5l.3-.2a1.7,1.7,0,0,0-1.2.5c-.5.5-.5.5-.3,1Z" transform="translate(-343.7 -445.6)"/><path class="cls-8" d="M402.3,460.2c.4,0,.3.1.4.1l.3.2c.9.4.5-.3.5.7s-.3-.2-.5-.3h-.1l.2.4c.6-.1.5.1.8-.3v.7l-.9.5h0c.5.1.2,0,.3.3h.2c.2-.4.4-.5,1-.7v.7c.5,0,.3-.5.4.2l-.2-2.1-.3.7c-.2-.4-.4.4-.2-.9l.5-.2.4-.4v-.3l-1.3.3-.2-.4h-1.2c.5.3.2.2.9.2s-.5.4-1,.1S402.3,459.4,402.3,460.2Z" transform="translate(-343.7 -445.6)"/><path class="cls-3" d="M400.4,462.5h-.1l1,.3c.9.2.1.1.2-.2v-.6h.1a6,6,0,0,1-1-2.3c.7.5,0-.2.9,1.4.5-.2.1-.2.3-.1v-1.3c-.9.2.1-.1-1.9-.6a12.2,12.2,0,0,1,.3,1.7C400.5,461.6,400.1,462,400.4,462.5Z" transform="translate(-343.7 -445.6)"/><path class="cls-10" d="M412.4,448.1c-.1.5.1.2-.1.4s-.4.3-.2-.4l-1,.3H411c1.2.4.9.4,1.8.4s.5.9.6,1.3-.7-.9-2.1-.5v.2c.7,0,.3-.3.7.3s.7.3-.6.1.1.1.1.2a.1.1,0,0,0,.1.1s.1.2.2.2-.1.1.4.2.1-.4-.1-1.1.9.4,1,1.1l1.2-.5h0l.7-.9c-.6.1-.7.4-1.1,1a1.7,1.7,0,0,1,0-1.7h-.8l.4-.4c.1-.4,0-.1-.2-.5l-.4.2-.3-.3Z" transform="translate(-343.7 -445.6)"/><path class="cls-11" d="M399.7,459.4l.3,1.4c-.4.7-.2.3-.1,1v.5c.1.4.1.6.4.7s.3-.4.4.5-.2.3-.8.1l.5.4h.4l-.3-.4c.2-.4-.1,0,.5-.3h-.1a2.1,2.1,0,0,1-.5-1.1c-.3-.5.1-.9,0-1.6a12.2,12.2,0,0,0-.3-1.7c2,.5,1,.8,1.9.6v.9l.3-.5c0-.8-.4-.2.1-.5s.3.1,1-.1-.4.1-.9-.2h-1v-.5h-.4c-1,.4-.7-.3-1.5-.5S399.8,458.3,399.7,459.4Z" transform="translate(-343.7 -445.6)"/><path class="cls-4" d="M415.4,458.8c-.6.2-.3,0-.6.3,1.2.3.9.4,1.9.6l-.5.2H416l-.2.8.2-.4a2.2,2.2,0,0,0,.8,1.3l-.4-.9h.2c0,.1.1.1.2.1s0,.4.1.2l-.3-1.1.7.2c.4.2.1-.2.4.3s.5.5.3-.6,0-.2-.6-.6V459c-.4-.1-.2,0-.4-.3H417l-1.5-.5C415.3,458.5,415.2,457.6,415.4,458.8Z" transform="translate(-343.7 -445.6)"/><path class="cls-12" d="M420.4,454.1l-.3.4-.4.6c-.2.4-.4.5-.7,1s-.2.7-.6.9l-.8-.2c-.1.5-.1.3.1.6h.3l.3.5-.3.4-.5.8v.2c.7.1.5.1.9-.3s-.1-.5.7-.6v-.5h-.6c.3-.5-.4-.3.9-.4s-.1-.4.1-.6.5-1.1.9-1.6a10.4,10.4,0,0,0,.4-1.3Z" transform="translate(-343.7 -445.6)"/><path class="cls-13" d="M408.5,463.7l-.6,1.8a6.7,6.7,0,0,0-1.9,1.4,4.1,4.1,0,0,1-2,1.2c-.3,1-.1.3.1.5l.6-.2c.4-.6,2-1,3.8-3.1s.4-.9,1.1-1.3h-.3l-.2-.4h-.2C408.5,463.6,408.6,463.5,408.5,463.7Z" transform="translate(-343.7 -445.6)"/><path class="cls-14" d="M412.8,454.7l.4,1c.2-.6-.1,0,.3-.6l.4-.7h0l.5.6v.5l.4.3.3-.4h0c.2-1.2,0-1.1-.3-2.2V453c-.4.5-.1.4-.4,1.2-1-1.1.6-.9-.3-1.4h0c-.2.4,0,.1-.3.4l-.3.4C412.8,454.1,412.7,454,412.8,454.7Z" transform="translate(-343.7 -445.6)"/><path class="cls-15" d="M404.6,455c.7-.1.5-.2,1,.3s-.3.1-.6-.1l-.4-.2Zm-2.3-1.3h.8c.5-1.1.6-.3.7-.2s-.4,0-.9.4.3-.1.4.2a3.4,3.4,0,0,1,1.6.8h-1.3a2.8,2.8,0,0,0,2.5.6c-.4-.5-.2-.5-.6-.9s-.8-.2-1.1-.5h-.2c-.5-.4-.1.1-.5-.5l.9.4.8.5c0-.7.1-.6-.4-.8l-.8-.2a6.4,6.4,0,0,0-2.4-.5Z" transform="translate(-343.7 -445.6)"/><path class="cls-16" d="M414.2,459.1h.6c.3-.3,0-.1.6-.3s-.2.5-.3-.5l.7-.3h-.6c.5-.5.1-.8.3-1.5h-.6c-.5-.2-.5-.1-.6-.7v-.2h-.9c.1,1.3.4-.1.6,1.3s0,1.2-.5,1.3c1.5.2-.1-.3,1.3-.3v.2c0,.9-.5.6-.9.5Z" transform="translate(-343.7 -445.6)"/><path class="cls-17" d="M402.4,466.5v.3l-.2,1a14.7,14.7,0,0,0,0,2.1c0,1-.1,1.6.8,1.8s.2,0,.1-.3-.1-.1-.1-.2-.1.2-.5-.6V470l-.2-.5c.1-.7.3-.3.3-1.3a7.7,7.7,0,0,1-.2-1.5h.7l1,.5V467c.4-1-.1-.6.5-1.2s-.4,0,.1-.4.1.3.4-.5-1.3.5-1.6,1.8C402.7,466.4,403.2,466.3,402.4,466.5Z" transform="translate(-343.7 -445.6)"/><path class="cls-4" d="M413,459.7a9.3,9.3,0,0,0-.9,2c-.1.7-.2,1.8-.3,2.5l.7-.2.7-1.1c-.5-.2-.3.1-.5-.5s-.1-.6-.1-.7v-.8l.4.5.3.3c.5-.8.2-.9-.3-1.8.8.6.2.3.8.7s-.2-.3-.3-.6-.7.4-.1-.6S413.2,459.4,413,459.7Z" transform="translate(-343.7 -445.6)"/><path class="cls-18" d="M397.1,464.4c-.4.3-.1-.1-.4.5l-.4.4h1.5c1.5-.2,2.4.2,3.9.1-.2-.8-.1-.3-.3-.5s-.1.1-.5-.1-.2-.1-.4-.3-1.4-.5-1.8-.3.3-.1.9.6A4.9,4.9,0,0,1,397.1,464.4Z" transform="translate(-343.7 -445.6)"/><path class="cls-19" d="M406.2,451.2l.6-.4c.1,1.1-.2.6.3,1.5-1.2-.5-.2.1-.7-.7a1.8,1.8,0,0,0-.7-.5l.5-2.1c0-.6,0-.4.4-.7v1.6c0,1.2-.4.4-.3,1.3Zm-.5.7c0,.4-.1.2.3.3h1l.3.4c-.1-2.3-.1-1.1-.4-2.3a2.9,2.9,0,0,1-.2-.9c.1-.7.4-.4,0-1.4s-.9,1-1,1.7-.8,1.2.2,2S406,451.7,405.7,451.9Z" transform="translate(-343.7 -445.6)"/><path class="cls-20" d="M410,447.7h.3c.5.3.4.2.3.8v.6l.8.4h0c1.4-.4,1.1.1,2.1.5s0-1.4-.6-1.3-.6,0-1.8-.4-.3-.4-.2-.9l.4-1.1C410.3,446.6,410.3,446.9,410,447.7Z" transform="translate(-343.7 -445.6)"/><path class="cls-21" d="M419,464.6h.9v1.4c.4,0,.3.4.3-.6s-.1-.7-.2-1.1a4.3,4.3,0,0,1-2.8-.3c.3-.4.1-.3.8-.3s.4-.3-.5-.3a2.7,2.7,0,0,0-.9,0c.2-.4-.1-.3.3-.5s-.5.1-.9.5l.3.2c1.9.8-.5-.5.6.2l-1.4.4C417.1,465.1,417.3,464.4,419,464.6Z" transform="translate(-343.7 -445.6)"/><path class="cls-22" d="M407.6,464.3h-.4c0,.3,0,.2.2.2s.3.1.5.3l-.6.3-2.6,2a6.1,6.1,0,0,1-.7,1,4.1,4.1,0,0,0,2-1.2,6.7,6.7,0,0,1,1.9-1.4l.6-1.8h-.4C408,464.1,408,464.3,407.6,464.3Z" transform="translate(-343.7 -445.6)"/><path class="cls-3" d="M424.4,454.7l.2.4c.8-.3.5-.3,1.1-.1s.2-.2.5-.5a3.2,3.2,0,0,0-.8-2.5h-.3c-.2,1.3-.5,1.2-.1,2.7Z" transform="translate(-343.7 -445.6)"/><path class="cls-23" d="M401.1,468l.4-.3-.2.8a3.8,3.8,0,0,1-.9,1.2c-.2.5-.1.4-.5.6h-.4c-.2.2-.1.1-.4.2s-1.1.7-1.3.2-.3-.2-.2.4.2,0,.4.3,1.6,0,2.5-1.2l.9-1.1c.3-.5.2-.9.7-1.4l-.4-.8h-.1Z" transform="translate(-343.7 -445.6)"/><path class="cls-24" d="M421.5,456.4c.2.3,0,.2.3.4h.5c-.2-.5-.2-.5.3-1a1.7,1.7,0,0,1,1.2-.5,1.5,1.5,0,0,1,1.7.2l-.8.5-2.2.4c.7.1.7-.1,1.5-.1l1.6.3-.3-.5.5-.4V455c-.6-.2-.3-.2-1.1.1l-.2-.4a3,3,0,0,0-1.8.4C421.5,455.6,422.1,455.9,421.5,456.4Z" transform="translate(-343.7 -445.6)"/><path class="cls-25" d="M409.4,460a1.5,1.5,0,0,1-.5.7c-.3.2-.2,0-.5.4h1.8a2,2,0,0,1,.4-.8c.4-.6.3-.4.7-.5h.1a.3.3,0,0,0,.1-.2c0,.1.1-.1.1-.1l.2-.4A2.5,2.5,0,0,0,409.4,460Z" transform="translate(-343.7 -445.6)"/><path class="cls-26" d="M419.1,453.8c-.7,1,0,.4-.3,1.1s-.3,0-.6-.3h-.3l-1,.4h1.2l-.2.7c0,1-.1.3.2.6s.5-1.7,1.6-1.9v.6l.4-.6c-.3,0-.2.1-.3-.2s-.2.2-.3-.3a.5.5,0,0,0,.5-.5c.8.4.1.2,1.1.4v-.6h-.6v-.2l-.7-.2C419.4,453.4,419.3,453.3,419.1,453.8Z" transform="translate(-343.7 -445.6)"/><path class="cls-27" d="M420.7,465.6a.1.1,0,0,1-.1-.1c-.5-.1-.3-.3-.4-.8s.6.1.7.4,0,.3.5.7l-.7-.2Zm-.7-1.4c.1.4.3.6.2,1.1s.1.6-.3.6-.1.2.2,1h-.4v.2h.3V467h.5c-.5-.7.1-.5-.3-1.3h.8c.3.6,0,.5.4.8v-.4h.7v-.5c-1-.2.3.1-1.1-1.2l-.4-.5.3-.4h-.5C419.9,464.2,420.1,463.8,420,464.2Z" transform="translate(-343.7 -445.6)"/><path class="cls-28" d="M426.4,454.9l.2.4-.4.2.2.3-.2.5h.4l.6.4h-.5l-.4.3-.2,1.1c.7-.5,0-.5,1-.4v-.6c.8-.2.2.1.6-.3l.3-.5h-.5c.1-1.2.2-.5-.6-.8s.5-.2,1-.6h-.9l-.4-.4Z" transform="translate(-343.7 -445.6)"/><path class="cls-29" d="M415.7,457.8l.9-.3,1-.7.3-1v-.5c-1.3.7-1.9.7-2.1,1.6Z" transform="translate(-343.7 -445.6)"/><path class="cls-30" d="M406.1,455.5a10.4,10.4,0,0,1,1,1.8l.5.6.6.4h1.5c-.5-.9.2-.2-1.5-.6.1-.1.1-.2.1-.1l.3-.2c.7-.2.1.2.6-.2h-1.4l-.4-.3,1.2-.3c-.3,0-1.5.1-1.6-.2s.1-.3-.6-.9Z" transform="translate(-343.7 -445.6)"/><path class="cls-12" d="M401.6,462.1h-.1a4.6,4.6,0,0,1,.5,2v.4h-.8v-1c-.6.3-.3-.1-.5.3l.3.4.4.2c.2.3.1.2.2.5s.1-.3.3.5h.1c.4-.1.3-.1.3.2s-.3-.2.3-.5l.8.3c.6-.5.4-.9.9-1.3l.2-.2c-.1-.4.1-.1-.2-.3l-.4.5c-.3.5,0,.4-.5.6s-.6.2-.9-.2-.5-1.4,0-1.7l-.3-.4v-.4c-.2-.2-.1.2-.2-.2h-.2Z" transform="translate(-343.7 -445.6)"/><path class="cls-31" d="M410.1,456.1l1.2,1.1c.1,0,.8-.1.3-.7s-.5-.1-.9-.2.7.1,1.1-.2l-.5-.9c-.4.1-1,.3-1.3-.3l-.3-.5h.4l-.4-.3C409.7,454.8,409.5,455.6,410.1,456.1Z" transform="translate(-343.7 -445.6)"/><path class="cls-32" d="M414.3,465c.4.4.2.8.9,2h.1v-.5c.8.6.7.7,1,1.7l-1.3-.3c.2.5.2.4.6.5h1.8l-.6-.5c0-.9-.1.1.4-.3-1.3-.6-1-.5-1.9-1.6l-.9-.9Z" transform="translate(-343.7 -445.6)"/><path class="cls-33" d="M399.2,468.8c-.4.8-1.2.4-1.4,2s.8.1,1.3-.2v-.3c.7-.4.7-.6.8-1.3l.3-.3v-.5Z" transform="translate(-343.7 -445.6)"/><path class="cls-34" d="M404.9,459.2c.5,0,.4-.1.3.4a5.3,5.3,0,0,1,1.1-.9c-.4,1,.1-.1-.3.6s0-.5,0,.2.3.1-.6.7-.4.3-.2-.4l-.4.4v.4l.5-.4c.1.2.4-.4,0,.5s-.1.7-.3,2,0,.2.2.3l.4-.4a2.8,2.8,0,0,1,0-1.8,4.1,4.1,0,0,1,.7-1.1c.4-.4,0-.2.7-.3v-.3c-.1-.6,0-.2-.3-.4s-.2-.2-.3-.3h-.4c-.3.2-.1.1-.3.3Z" transform="translate(-343.7 -445.6)"/><path class="cls-35" d="M418.6,462.2h-.9c-.2.4-.2.1-.1.4s.3-.5,0,.2h-.7c-.4.2-.1.1-.3.5a2.7,2.7,0,0,1,.9,0c.9,0,.4,0,.5.3a2,2,0,0,1,2-.1c-.4-.7-.7-.6-1.4-.8l.7-.3-.5-.6C419,462.5,418.9,462,418.6,462.2Z" transform="translate(-343.7 -445.6)"/><path class="cls-36" d="M397.8,465.3l-.8.4c-.6.2,0,0-.3.3h1.2l1.6-.4.3.4h1l-.3.2c.2.4-.3.3.4.3l.8-.5v-.5h-.1C400.2,465.5,399.3,465.1,397.8,465.3Z" transform="translate(-343.7 -445.6)"/><path class="cls-37" d="M422.3,459.9l.3-.3.3.7h.3V460c-.6-.1-.1,0-.2-.3,1.4-1.6,1.2-.8,1.8-1.8h.3v-.7c-.9,0-1.2.4-1.8-.1s-.2-.1-.4.4l1.4.2C423.3,458.9,423,458.1,422.3,459.9Z" transform="translate(-343.7 -445.6)"/><path class="cls-38" d="M399.3,467.4l-.5,1.1.4.3.9-.6v.5c0,.1-.1.6-.1.7s-.3.1.2.2.2-.2.4-.7l-.4-.4s.8-1.3-.2-2Z" transform="translate(-343.7 -445.6)"/><path class="cls-39" d="M404.6,457.2c-.8,0-1.9.8-2.3.2l-.7.4c.2.2,0-.2.1.2v.2c0,.2-.1.4-.1.6h.1l.8-.4a3.9,3.9,0,0,1,3.4-.8l.3.2c.3-.5-.5-.5.4-.4s0,.1.2.6v-1Z" transform="translate(-343.7 -445.6)"/><path class="cls-35" d="M408.7,458.8v.4l-.6.3c.5.6.2.4.1,1.3v.3h.2c.3-.4.2-.2.5-.4a1.5,1.5,0,0,0,.5-.7l.8-.7h-1.3l.8-1h-1.5C408.7,458.6,408.5,458.5,408.7,458.8Z" transform="translate(-343.7 -445.6)"/><path class="cls-40" d="M410.1,457.8H410l-.3.4-.8,1h1.3c.2-.5,0-.1.5-.4s.2-.3.7-.6l.5-.7Z" transform="translate(-343.7 -445.6)"/><path class="cls-40" d="M413.2,462.9l.2-.4.3-.5.2-1.3a1.7,1.7,0,0,0-.1-1.4h-.4c-.6,1-.2.1.1.6s.2.2.3.6,0-.1-.8-.7c.5.9.8,1,.3,1.8l-.3-.3-.4-.5v.8c0,.1.1.7.1.7S412.7,462.7,413.2,462.9Z" transform="translate(-343.7 -445.6)"/><path class="cls-41" d="M406.9,468.1v-.3h.9l.3-.3c.4-.9.2.1.8-.9V466c-.3-.2.4-.3-.6-.1a8.1,8.1,0,0,1-3,2.5A5.1,5.1,0,0,1,406.9,468.1Z" transform="translate(-343.7 -445.6)"/><path class="cls-42" d="M401.9,459.4h1.8l1.2-.2.7-.4c.2-.2,0-.1.3-.3h.4c-.3-.3.2-.4-1.3,0S402.2,458.9,401.9,459.4Z" transform="translate(-343.7 -445.6)"/><path class="cls-10" d="M422.8,462.6l-.6-.4c.1,0-.3-.5.4-.1s.1.1.2.5Zm-.9-.7-.2.2c0,.5-.2.3.2.8h-.5c.3.5.7.4,1.3.5s.3-.1-.2-.4h.4l.7-.4c-.4-.3-.1-.1-.3-.6s-.2-.5-.7-.7v.5Z" transform="translate(-343.7 -445.6)"/><path class="cls-37" d="M421.1,453.3v.6c-1-.2-.3,0-1.1-.4a.5.5,0,0,1-.5.5c.1.5-.2.4.3.3s.3-.5.6-.2l.3-.2a10.4,10.4,0,0,1-.4,1.3c.5.2.4-.3.1.6s-.2.2-.3.9h.3a13.8,13.8,0,0,0,1.2-3.4l-.2-.3Z" transform="translate(-343.7 -445.6)"/><path class="cls-43" d="M418,463.6c-.7,0-.5-.1-.8.3a4.3,4.3,0,0,0,2.8.3c.1-.4-.1,0,.4-.6s-.2-.1-.4-.1A2,2,0,0,0,418,463.6Z" transform="translate(-343.7 -445.6)"/><path class="cls-36" d="M397.3,464.3h-.2a4.9,4.9,0,0,0,2.5.4c-.6-.7-.3-.1-.9-.6s1.3.2,1.8.3v-.4h-.2c-.8-.2-1-.6-1.8-.3S398.1,464.1,397.3,464.3Z" transform="translate(-343.7 -445.6)"/><path class="cls-44" d="M410.5,462.1a3.9,3.9,0,0,0,1.1,2.2l.2-2.8c-.6,0-.7,0-1.1.6Z" transform="translate(-343.7 -445.6)"/><path class="cls-45" d="M408.4,449.3h1.3l.4-.4v.7h.2c.3-.2-.1-.1.5-.2h.6l-.8-.4v-.6h-1.2c-.3-.2,0,.1-.2-.4h0c-.1.2-.1.3-.2.4l-.6-.2-.4,1Z" transform="translate(-343.7 -445.6)"/><path class="cls-46" d="M402.4,458.4c-.6.8-.2.2,0,.4s3.2-.7,3.4-1.2A3.9,3.9,0,0,0,402.4,458.4Z" transform="translate(-343.7 -445.6)"/><path class="cls-47" d="M407.7,454.6c.2.6,1.4,1.2,1.9,1.4l-.2-2-1.2-.6.2.7c.1-.4,0-.3.3-.4s.8,1,.3,1.7,0-.5-.4-1.2v.4c-.2.4,0,.2-.3.5a3.5,3.5,0,0,0-.6-1.8c-.1.3,0,.1,0,.6A1.6,1.6,0,0,1,407.7,454.6Z" transform="translate(-343.7 -445.6)"/><path class="cls-48" d="M401.3,456.4c.2-.4.1-.1.6,0a1.6,1.6,0,0,0,1,.2h.8c.8.2.7.1.9.5l2-.2c-.2-.5,0-.2-.4-.6l-.7.3c-1.3-.2.4-.1-.4-.1a20.9,20.9,0,0,1-3.4-.4c-.5-.2-.5,0-.5-.8S400.8,456.1,401.3,456.4Z" transform="translate(-343.7 -445.6)"/><path class="cls-49" d="M414.6,467.1l.5.5,1.3.3c-.3-1-.2-1.1-1-1.7v.5h-.1c-.7-1.2-.5-1.6-.9-2Z" transform="translate(-343.7 -445.6)"/><path class="cls-50" d="M415.8,449.8c.9.3.9.5,1.8.1s.1.1.4.5l.4.5h.3l.2-1.1a9.3,9.3,0,0,0-1.4-.2c-.7-.2-.4-.5-1.3-.6Z" transform="translate(-343.7 -445.6)"/><path class="cls-30" d="M405.6,462.6v.3h.3c.4-.1,0,0,.2.1l.2.4c.3-.6.1-.2.5-.6h0l.2-.3-.7.6c0-1,.1-1.7,1.2-1.9s.1-.1.2.5l.4-.5v-.3c-.4,0-.5.2-.2-.1h-.7l.3.3h-.9v-.4h0l-.2.2Z" transform="translate(-343.7 -445.6)"/><path class="cls-49" d="M420.6,451.1c0-.1.1-.2.1-.1v-.2h.1v1.8c.7-.9.4-2.3,1-3.3s-.6.4-.3-.6A3,3,0,0,0,420.6,451.1Z" transform="translate(-343.7 -445.6)"/><path class="cls-51" d="M413.6,466.7c-.4.8-.6.6-1.2,1.1a4.7,4.7,0,0,0-.9,1.2l-.2.3-.3-.2v.9c.7-.3.7-1,1.3-1.6s.9-.1,1.6-1.5-.1-.4-.1-.5v-.3c-.1-.1-.1-.1-.1-.2Z" transform="translate(-343.7 -445.6)"/><path class="cls-28" d="M399.9,462.3v-.5c-.1-.7-.3-.3.1-1h-.3l-.3-1.4c.1-.3-.1,0,.3-.1s-.1-.3,0-1.1l-1.2-.4c.2,1.1.3.5.8,2.2A11.6,11.6,0,0,0,399.9,462.3Z" transform="translate(-343.7 -445.6)"/><path class="cls-23" d="M397.1,464h.3v.4c.8-.2.9-.5,1.3-.6s1,.1,1.8.3l-.5-.4c.6.2.3.1.8-.1s0-.1-.4-.5.1.4-.6.3h-1.1A1.2,1.2,0,0,0,397.1,464Z" transform="translate(-343.7 -445.6)"/><path class="cls-52" d="M404.7,464.7l-.8.5c-.3.4-.3.4-.8.3l-.6.4v.6c.8-.2.3-.1,1.2.2.3-1.3.7-1.2,1.6-1.8l.3-.5h-.2Z" transform="translate(-343.7 -445.6)"/><path class="cls-10" d="M411.1,465.7c-.7.4-.6,1.9-.3,2.7s.3.1.6-.2-.2,0-.2-.7-.2.2,0-.6.4-.7.6-1.3v-.4Z" transform="translate(-343.7 -445.6)"/><path class="cls-53" d="M409.7,454.1l.4.3,1.2.8.5.9c-.4.3-.3.2-1.1.2s.7,0,.9.2-.2.7-.3.7.4.1-.4.3h-.7v.2l1.8-.2a2.3,2.3,0,0,1-.1-1.2c.1-.7.1-.8.9-.7v-.4c-.3.2.5.9-1.5-.6l-.7-.4c-.4-.3-.2-.1-.5-.7S409.8,453.3,409.7,454.1Z" transform="translate(-343.7 -445.6)"/><path class="cls-14" d="M412.7,455.3l-.2-.6-1-.7c-.6-.2-.5,0-1.1-.4H410c.3.6.1.4.5.7l.7.4C413.2,456.2,412.4,455.5,412.7,455.3Z" transform="translate(-343.7 -445.6)"/><path class="cls-54" d="M406.2,451.2c-.1-.9.3-.1.3-1.3v-1.6c-.4.3-.4.1-.4.7l-.5,2.1a1.8,1.8,0,0,1,.7.5c.5.8-.5.2.7.7-.5-.9-.2-.4-.3-1.5Z" transform="translate(-343.7 -445.6)"/><path class="cls-55" d="M425.5,457.9v.4l.5-.3v.8c1-.3.5-.4,1.5-.5s.3-.3.6-1l-.4-.3c-.4.4.2.1-.6.3v.6c-1-.1-.3-.1-1,.4l.2-1.1-.4-.3C425.8,457.6,426,457.4,425.5,457.9Z" transform="translate(-343.7 -445.6)"/><path class="cls-19" d="M408.9,447.6c.7-.1.5-.2,1.1.1s.3-1.1,1.2-1.3l-.4,1.1h.6c.2-.6.5-1-.1-1.4a1.3,1.3,0,0,0-1.3.6C409.4,447.6,409.7,447,408.9,447.6Z" transform="translate(-343.7 -445.6)"/><path class="cls-4" d="M406.2,456.4a1.9,1.9,0,0,0-1.3-.5l.6.4c-.7,0-1.2-.3-2-.3s-1.4-.1-1.8.2a20.9,20.9,0,0,0,3.4.4c.8,0-.9-.1.4.1Z" transform="translate(-343.7 -445.6)"/><path class="cls-48" d="M400.2,457.7c.4-.2.2-.3.8-.1s.4-.1.3.8l-1.1-.7Zm1,1.1h.3c0-.2.1-.4.1-.6V458c-.1-.4.1,0-.1-.2v-.5a1.2,1.2,0,0,1-1.4-.2l.5-.3v-.2c-.6.2-.7.1-1.2.5s0,.2.3.5l.5.4A3.9,3.9,0,0,1,401.2,458.8Z" transform="translate(-343.7 -445.6)"/><path class="cls-21" d="M416.2,462.2h.5c.4.1.1-.1.4.1s.2.1.4-.3l.2.2h.2c.2-.5-.2-.2.4-.3l.3.3c.3-.2.4.3.2-.4v-.2c-1.8-.2-1.3.6-3.6,0,0,.8-.3.8.2,1.4s.3-.3.1-1.1l.8.2C416,462,416.4,462.1,416.2,462.2Z" transform="translate(-343.7 -445.6)"/><path class="cls-42" d="M411.5,469a4.7,4.7,0,0,1,.9-1.2c.6-.5.8-.3,1.2-1.1s-.2.2-.5-.2v-.4h-.4l-1.3,2.6Z" transform="translate(-343.7 -445.6)"/><path class="cls-12" d="M400.9,466.3c0,.3.1.2-.2.2l.4.2a.1.1,0,0,1,.1.1c-.4.5-.8.9-.3,1.4l.2-.2.5-1.1h.1l.4.8.2-1-.6-.9h0Z" transform="translate(-343.7 -445.6)"/><path class="cls-56" d="M395.9,465.7a2.6,2.6,0,0,0,1.5.9h1.2c.6.1.5.3.8-.1v-.3l-.7.2V466a1.3,1.3,0,0,1-.9.4l.2-.5h-1.2c.3-.3-.3-.1.3-.3l-.8-.2c-.4.1-.3-.2-.3.2Z" transform="translate(-343.7 -445.6)"/><path class="cls-57" d="M417.4,453.3c-.7.7-.8,0-1.6.3v.6l.3-.3c.6-.1,0-.1.3.3l1.5-.7c0,.2-.1.2.4.4l.4-.3-.3-.9Z" transform="translate(-343.7 -445.6)"/><path class="cls-58" d="M416.4,470.6c.7,0,.3,0,.9.2v-.4l-.7-1.4-1-.2h-.6v.3l1.5.5Z" transform="translate(-343.7 -445.6)"/><path class="cls-13" d="M402.4,458.4l-.8.4v.5h.4c.3-.5,2.3-.8,3.1-1s1-.3,1.3,0,.4.4.1-.5h-.3l-.3-.2c-.2.5-2.8,1-3.4,1.2S401.8,459.2,402.4,458.4Z" transform="translate(-343.7 -445.6)"/><path class="cls-48" d="M411.4,468.2c-.3.3.5.2-.6.2s-.1,1,.3,1.6v-.9l.3.2.2-.3v-.4l1.3-2.6c-.6.3-.2.2-.3,0A3.1,3.1,0,0,0,411.4,468.2Z" transform="translate(-343.7 -445.6)"/><path class="cls-59" d="M426.2,454.5v.4h.2v-.4l.4.4h.1v-.8c-.1-1.3-.5-1.9-1.5-2.2A3.2,3.2,0,0,1,426.2,454.5Z" transform="translate(-343.7 -445.6)"/><path class="cls-60" d="M405.5,464.4l-.3.5c-.3.8.1,0-.4.5s-.5-.1-.1.4a1.4,1.4,0,0,0,1.1-.3l.4-.3c.4-.3.3-.3.4-.5h-.4l.3-.5-.4.2c-.2-.1-.3.4-.2-.2Z" transform="translate(-343.7 -445.6)"/><path class="cls-50" d="M411.8,461.5c.5-.2.5-.8.6-1.4l-.6.4c-.2-.3-.3.2.2-.7s-.8.3-.5,1-.6.4-.7,1.1Z" transform="translate(-343.7 -445.6)"/><path class="cls-61" d="M416.5,454.2v.9h.3l1-.4c-.1-.7.2,0-.5-.5h.9v-.3c-.5-.2-.4-.2-.4-.4Z" transform="translate(-343.7 -445.6)"/><path class="cls-62" d="M422.9,463c.6,0,.1-.2.6.2s0,.2-.4.5v1.4c.1-.4-.2-.5.6-1.5l1.2-.4c-.2-.5-.8-.5-1.4-.6Z" transform="translate(-343.7 -445.6)"/><path class="cls-63" d="M415.1,470.5l.2-.3.8.4h.3l.2-1-1.5-.5c.1.7.1.6-.3,1.1Z" transform="translate(-343.7 -445.6)"/><path class="cls-64" d="M401.8,456.9c.2.4,0,.2.5.5s1.5-.2,2.3-.2-.1-.3-.9-.5h-.8l-.6.5C401.8,457,402.4,457.4,401.8,456.9Z" transform="translate(-343.7 -445.6)"/><path class="cls-3" d="M417.4,459.2c.6.4.3.2.6.6l.4.9.4-.3c-.5-.4-.1.2-.4-.5s-.2-.2.5-.2h.1v-1.3c-.8.1-.1-.1-.7.6S418.1,459.3,417.4,459.2Z" transform="translate(-343.7 -445.6)"/><path class="cls-40" d="M411.4,459.7h-.1a4.5,4.5,0,0,0-.8,2.3h.2c.4-.6.5-.6,1.1-.6h0l-1,.4c.1-.7,0-.9.7-1.1s-.4-.7.5-1-.4.4-.2.7l.6-.4V459C411.6,459.3,412.2,459.3,411.4,459.7Z" transform="translate(-343.7 -445.6)"/><path class="cls-65" d="M401.7,456.2c.4-.3,1.2-.2,1.8-.2s1.3.3,2,.3l-.6-.4-3.7-.5h0C401.2,456.2,401.2,456,401.7,456.2Z" transform="translate(-343.7 -445.6)"/><path class="cls-4" d="M405.6,462.6l1-1.9c-.2-.1-.6.1-.2-.6h.1c0-.1,0-.1.1-.1l-.3-.2a4.1,4.1,0,0,0-.7,1.1A2.8,2.8,0,0,0,405.6,462.6Z" transform="translate(-343.7 -445.6)"/><path class="cls-29" d="M411.8,465.6c-.2.6-.5.8-.6,1.3s0,0,0,.6-.3.1.2.7a3.1,3.1,0,0,1,1.1-2.2l.2-.4c-.2-.1-.1-.2-.5-.2Z" transform="translate(-343.7 -445.6)"/><path class="cls-9" d="M397.6,469.7c-.5.5-.2,1.4-.1,2s0,.1.3-.1-.2.5-.2-.4-.1-.2.2-.4,1-1.2,1.4-2l-.4-.3c-.4.2,0-.1-.4.3l-.3.4C397.6,470,397.9,470.3,397.6,469.7Z" transform="translate(-343.7 -445.6)"/><path class="cls-66" d="M402.3,462.7h.7c.1.6-.2,1.6-.7,1.8s.4.5.9.2.2-.1.5-.6-.6-.4-.4-1.1v-.4c-.1-.3.2-.2-.3-.3h-1Z" transform="translate(-343.7 -445.6)"/><path class="cls-10" d="M415.1,456.3h.4c-.2.7.2,1-.3,1.5h.6v-1.1c.2-.9.8-.9,2.1-1.6v.5l.2-.7h-.6c-.6.8-.4.2-1.2.7Z" transform="translate(-343.7 -445.6)"/><path class="cls-3" d="M418.1,456.4h.2v.6c.4-.2.4-.4.6-.9s.5-.6.7-1v-.6C418.6,454.7,419,455.6,418.1,456.4Z" transform="translate(-343.7 -445.6)"/><path class="cls-6" d="M414.7,469.9l-.2,1,.7.4.5.4h.2l.5-1h-.3c-.3.3-.1.2-.6.5l-.4-.6-.3-.3c.4-.5.4-.4.3-1.1Z" transform="translate(-343.7 -445.6)"/><path class="cls-67" d="M416.4,450.9l.7-.3c.4-.3.5.2.7.4s-.2.1.3.2,0,.1.3-.3l-.4-.5c-.3-.4-.1.1-.4-.5s-.9.2-1.8-.1h0c0,.5,0,.2.3.5S416.2,450.3,416.4,450.9Z" transform="translate(-343.7 -445.6)"/><path class="cls-63" d="M405.6,454.3h.5l.3,1.1c.7,0,.5.1,1-.3s-.8-1.4-2-1.4Z" transform="translate(-343.7 -445.6)"/><path class="cls-68" d="M423.2,465.1v.3h.1l.2-.6.4-.6.3.2c.6.1.4.2.4-.4H424l1.4-.2-.4-.4-1.2.4C423,464.6,423.3,464.7,423.2,465.1Z" transform="translate(-343.7 -445.6)"/><path class="cls-51" d="M400.6,456.6v.2c.5,0,.7.1.9.5v.5l.7-.4c-.5-.3-.3-.1-.5-.5l-.5-.5c-.5-.3-.7-.5-.1-1h0l-.9-.4c.1.9.2.7.5,1.4Z" transform="translate(-343.7 -445.6)"/><path class="cls-66" d="M399.4,466.6h.6c1,.7.2,2,.2,2l.4.4.2-.4v-.3c-.5-.5-.1-.9.3-1.4a.1.1,0,0,0-.1-.1l-.4-.2c.3,0,.2.1.2-.2s-.2.1-.4-.3S400.2,466.1,399.4,466.6Z" transform="translate(-343.7 -445.6)"/><path class="cls-53" d="M415.4,465.6c.9,1.1.6,1,1.9,1.6l.3.4V467l-.8-.5-1-.8c.5,0,.5.3.9,0h0l-1.3-.4h-.1Z" transform="translate(-343.7 -445.6)"/><path class="cls-41" d="M411.9,453.9l-1.5-.3c.6.4.5.2,1.1.4l1,.7c.1-.3-.2-.5.3,0s0-.6.5-1l.3-.4c.3-.3.1,0,.3-.4s-.2.2-.7-.4v.7c-.5.5-.5.3-.7.9Z" transform="translate(-343.7 -445.6)"/><path class="cls-33" d="M407,456.3c.1.3,1.3.2,1.6.2l-1.2.3.4.3c.5-.3,1-.1,1.6-.5l-1.2-1c0,.1.2.3-.4.6Z" transform="translate(-343.7 -445.6)"/><path class="cls-69" d="M409.3,450.7c.2-.4-.1-.1.4-.1v-.5c-1.1-.3-.4-.1-1.1-.5s-.8-.2-.7-1l-.7.3c.5.9.8.4,1,1.3S408.7,450.2,409.3,450.7Z" transform="translate(-343.7 -445.6)"/><path class="cls-37" d="M416.6,457.5v.4h.5c.2.3.1,0,0,.3s.1.2-.3.2.1.2.3.3h.1l.5-.4c.4-.2.2-.2.4-.1l.3-.4-.3-.5c-.3.5.4.3-.6.5l-.3-.4h.6c-.2-.3-.2-.1-.1-.6Z" transform="translate(-343.7 -445.6)"/><path class="cls-70" d="M415.6,451.9l-.4.7v.4c.5.3.2.2.6.2h1.1c-.7-.7-.4,0-.9-.6s-.2-.3.1-.5v-.2l-.6-.3Z" transform="translate(-343.7 -445.6)"/><path class="cls-21" d="M414.5,462.9c.4.5-.1.2.6.3l-.2-1.4c.1-.3-.3-.3.3-.2s-.3-.4-.9-.6,0,.3,0,.2h-.2Z" transform="translate(-343.7 -445.6)"/><path class="cls-44" d="M412.6,447.4v.3l.3.3.4-.2c.2.4.3.1.2.5l-.4.4h.8a2.5,2.5,0,0,1,.1-.9c0-.2.1-.3.1-.5s.1-.1-.2-.5v.7c-.3.3.3.2-.4.2l-.3-.7-.2-.2c.1.6.1,0,0,.1h-.3Z" transform="translate(-343.7 -445.6)"/><path class="cls-71" d="M411.3,446c.6.4.3.8.1,1.4h.2l.4-1.2h.6l.3-.2.5.4v-.6A2,2,0,0,0,411.3,446Z" transform="translate(-343.7 -445.6)"/><path class="cls-72" d="M407.4,463.3H407c-.3.5-.5.4-1.1.8s0,.1.2.2l.4-.2.7-.4h.9c.4.2.2-.2,0,.2h.4c.1-.2,0-.1.4-.2l-.6-.4v-.4Z" transform="translate(-343.7 -445.6)"/><path class="cls-26" d="M409.8,456.8l.4.2c-.5.2-.2-.2,0,.6h.7c.8-.2.4,0,.4-.3l-1.2-1.1c-.5.4-.2-.3-.4.4Z" transform="translate(-343.7 -445.6)"/><path class="cls-15" d="M409.7,450.6c-.5,0-.2-.3-.4.1h-.2a2.8,2.8,0,0,1,0,1.3,1.1,1.1,0,0,1,.9-.6l-.4.7h.5v-.3h.3c-.3-.4-.5-.6-1-.6s-.1-.1.2-.4h.7c0-.4-.1-.4-.2-.8Z" transform="translate(-343.7 -445.6)"/><path class="cls-73" d="M407.7,454.6a1.6,1.6,0,0,0,0-.7c0-.5-.1-.3,0-.6l-1.1-.6a3.8,3.8,0,0,0,.3,1,2.3,2.3,0,0,1,.1.4C407.1,454.6,407.2,454.5,407.7,454.6Z" transform="translate(-343.7 -445.6)"/><path class="cls-74" d="M418.1,451.2c.4.4.3-.3.3.3h-.5c-.4.3-.2.3-.6.7s-.7.3-1.3.2.2-.1.9.6.4-.3.9-.9a5,5,0,0,1,1.2-.8c-.2-.4.1,0-.3-.4h-.3C418.1,451.3,418.6,450.9,418.1,451.2Z" transform="translate(-343.7 -445.6)"/><path class="cls-75" d="M416.1,452c-.3.2-.4.2-.1.5s.8.2,1.3-.2h-.6l.7-1.4.5.7h.5c0-.6.1.1-.3-.3s0,.1-.3-.2-.3-.7-.7-.4a3.1,3.1,0,0,1-.9,1.8Z" transform="translate(-343.7 -445.6)"/><path class="cls-1" d="M408.3,458.8l-.2.4v-.3l-.7.3v.8h-.5c.7,0,.6-.1,1.2-.4v1c-.3.3-.2.1.2.1s.4-.7-.1-1.3l.6-.3v-.4Z" transform="translate(-343.7 -445.6)"/><path class="cls-76" d="M404.1,467.3l-.5.9c.3.3.1-.3.1.3v.4h1.8v-.4h-.5c-.1-.1.2,0-.2-.1l-.6.2c-.2-.2-.4.5-.1-.5a6.1,6.1,0,0,0,.7-1h-.5Z" transform="translate(-343.7 -445.6)"/><path class="cls-17" d="M407.8,461.6l-.7.8-.2.3h.5v.5c.4-.7.4-.7,1.2-.8l-.2-.3v-.6l-.2.3c0-.5-.1-.3.2-.6h-.2Z" transform="translate(-343.7 -445.6)"/><path class="cls-77" d="M395.9,465.7c0-.4-.1-.1.3-.2l.8.2.8-.4h-1.5l.4-.4c.3-.6,0-.2.4-.5h.2v-.4h-.3c-.8.2-.8.6-1.2,1.2Z" transform="translate(-343.7 -445.6)"/><path class="cls-75" d="M420.3,457.3c-.4.1-.2-.3-.4.2a6,6,0,0,0,2,.8h.3l-1-.5c.3,0,.1.1.1-.3s-.1,0-.3-.5Z" transform="translate(-343.7 -445.6)"/><path class="cls-78" d="M414.5,462.9v.4l1-.2c.4-.2,0-.3.6.1s.3.1.3-.4H416l.2-.5c.2-.1-.2-.2.2-.1l-.8-.2c.2.8.2.4-.1,1.1s-.2-.6-.2-1.4h-.1c-.6-.1-.2-.1-.3.2l.2,1.4C414.4,463.1,414.9,463.4,414.5,462.9Z" transform="translate(-343.7 -445.6)"/><path class="cls-10" d="M420,470.7c.7-.1.2,0,.3-.3a3.7,3.7,0,0,0,.4-1.5l-.7-1.1-.4.4c.5.5.2.1.4.6s.2.6.1.8Z" transform="translate(-343.7 -445.6)"/><path class="cls-67" d="M412.1,458.2c.2,1,0,.2.4.7s-.1.2.5.8.1-.2.4-.3h.6v-.2l-.4-.6c0,.1,0,.4-.6,0s-.6,0-.8-.6S411.7,457.5,412.1,458.2Z" transform="translate(-343.7 -445.6)"/><path class="cls-33" d="M407.1,462.4l.7-.8c-.1-.6.1-.3-.2-.5s-1.2.9-1.2,1.9Z" transform="translate(-343.7 -445.6)"/><path class="cls-79" d="M411.6,447.4v.6l.7-.5c.4-.5.8-.7.4-1.3H412Z" transform="translate(-343.7 -445.6)"/><path class="cls-36" d="M406.4,455.4c.7.6.4.1.6.9h.8c.6-.3.4-.5.4-.6l-.8-.5C406.9,455.5,407.1,455.4,406.4,455.4Z" transform="translate(-343.7 -445.6)"/><path class="cls-67" d="M417.3,467.2c-.5.4-.4-.6-.4.3l.6.5h-1.8c.2.4.8.2,1.4.3s.3-.2.8-.3,0,.1.1-.3,0-.4-.4-.8v.6Z" transform="translate(-343.7 -445.6)"/><path class="cls-27" d="M412.2,447.5h.4V447h.3c.1-.1.1.5,0-.1l.2.2.3.7c.7,0,.1.1.4-.2s-.3,0-.4-.2,0-.3.3-.4.1-.5-.3-1.1v.6l-.5-.4-.3.2C413,446.8,412.6,447,412.2,447.5Z" transform="translate(-343.7 -445.6)"/><path class="cls-14" d="M415.4,455.4l-.2.4-.3.5h.2l1.2-.6c.8-.5.6.1,1.2-.7h-.9Z" transform="translate(-343.7 -445.6)"/><path class="cls-4" d="M415.9,454.2v-.6c.8-.3.9.4,1.6-.3h-1.6c-.4,0-.1.1-.6-.2s-.5-.2-.2.5.4.1.5.1v.6Z" transform="translate(-343.7 -445.6)"/><path class="cls-7" d="M412.5,457.4c.2,1.1.4,0,.4,1.1s.6-.6.1-1.4c1.6.6.6.2.9,0s-.3-.3-.1-.8h-.4a5.4,5.4,0,0,0-.6,1.1Z" transform="translate(-343.7 -445.6)"/><path class="cls-6" d="M401.3,462.9c.4.4.3.5,0,1l-.4-.3h.1v1h.8v-.4a4.6,4.6,0,0,0-.5-2v.6C401.4,463,402.2,463.1,401.3,462.9Z" transform="translate(-343.7 -445.6)"/><path class="cls-54" d="M406.8,460.5H408v-1c-.6.3-.5.4-1.2.4h.5v-.8h-.4v.3Z" transform="translate(-343.7 -445.6)"/><path class="cls-79" d="M419,458.3l.5.2c.8,0,.5,0,.7.5v1c.9-.5-.2-1.1.5-1.2s-.5-.2-1-1H419Z" transform="translate(-343.7 -445.6)"/><path class="cls-80" d="M425.7,455v.6l-.5.4.3.5c.4.3,0,0,.5.2v-.4l.2-.5-.2-.3v-1C425.9,454.8,426.1,454.4,425.7,455Z" transform="translate(-343.7 -445.6)"/><path class="cls-9" d="M402.3,462.7c-.5.3.1.8,0,1.7s.8-1.2.7-1.8Z" transform="translate(-343.7 -445.6)"/><path class="cls-16" d="M420.6,451.1l-.2,1.1c.1.2.2-.2,0,.6s-.1.3-.3-.2l-1.2,1.1h.2c.2-.5.3-.4.6-.8l.7.2.5-.7v-1.8h-.1v.2C420.7,450.9,420.6,451,420.6,451.1Z" transform="translate(-343.7 -445.6)"/><path class="cls-9" d="M404.7,463c-.1.6,0,.5-.4.8l-.2.2c.2.2.5-.4.1.6l-.3.6.8-.5c-.4-.2-.4,0,0-.6l.5-.6c.7.4.2,0,.3.4l.3-.4.2-.6h-.3v.6Z" transform="translate(-343.7 -445.6)"/><path class="cls-81" d="M419.7,459.5l.2.2c-.3-.1-.4-.2-.7-.1l-.2.5v-.5h-.1v.7l-.4.3v.4h.4c0-.4-.2-.1.1-.3l.2-.5h.3l.5-.2h.2v-1c-.4,0-.1-.2-.3.1h.2C420.1,459.7,420.3,459.6,419.7,459.5Z" transform="translate(-343.7 -445.6)"/><path class="cls-33" d="M402.5,470v.6l.9.4v-1.6C402.5,469.2,402.8,469.3,402.5,470Z" transform="translate(-343.7 -445.6)"/><path class="cls-73" d="M406.2,452.3H406c-.3.1-.3.2-.7,0l1.5,1.8c.1-.2.1.1.2-.3v-.6c-.3-.6-.4-.4-1-.5Z" transform="translate(-343.7 -445.6)"/><path class="cls-82" d="M405.2,470.4l-.4,2a2.9,2.9,0,0,0,.6-3.3v1.2C405.3,470.5,405.6,470.5,405.2,470.4Z" transform="translate(-343.7 -445.6)"/><path class="cls-83" d="M416.4,450.9H416l.2.9v.6a3.1,3.1,0,0,0,.9-1.8Z" transform="translate(-343.7 -445.6)"/><path class="cls-84" d="M408.2,453.4h-.5a3.5,3.5,0,0,1,.6,1.8c.3-.3.1-.1.3-.5v-.4c.4.7.2.7.4,1.2s0-1-.3-1.7-.2,0-.3.4Z" transform="translate(-343.7 -445.6)"/><path class="cls-67" d="M425.6,456.5a1.5,1.5,0,0,1-.2.8c.2.3.1-.1.1.6s.3-.3.4-1l.4.3.4-.3h.5l-.6-.4h-.4v.4C425.6,456.5,426,456.8,425.6,456.5Z" transform="translate(-343.7 -445.6)"/><path class="cls-85" d="M412.6,456.3h-.1v1.1h.3a5.4,5.4,0,0,1,.6-1.1c.1-1.2.1-.3-.3-.7S412.8,456.1,412.6,456.3Z" transform="translate(-343.7 -445.6)"/><path class="cls-23" d="M403.6,463.2l.3.6c-.4-.2-.2.1-.4-.3s0-.2.1-.3Zm.2-.2c0,.3.1.3-.2.2s.4-.3-.3-.3-.2.8.4,1.1l.4-.5c.3.2.1-.1.2.3s.3-.2.4-.8v-.3l-.3.6Z" transform="translate(-343.7 -445.6)"/><path class="cls-20" d="M412.2,450.9v.7l.9-.7c-.1-.7-.4-.8-1-1.1S412.4,450.2,412.2,450.9Z" transform="translate(-343.7 -445.6)"/><polygon class="cls-1" points="67.4 2.8 68.4 2.6 68.7 2.6 68.9 2.2 68.9 1.9 68.5 1.9 67.8 2.4 67.9 1.9 67.7 1.9 67.4 1.9 67.4 2.8"/><path class="cls-47" d="M409.7,458.3l.3-.4v-.8h-.8c-.5.4.1,0-.6.2l-.3.2c0-.1,0,0-.1.1C409.9,458.1,409.2,457.4,409.7,458.3Z" transform="translate(-343.7 -445.6)"/><path class="cls-16" d="M408.4,449.3v.3c.7.4,0,.2,1.1.5v.5l.5-.3h-.4c.1,0,.2-.3.3-.4h-.3v-.4Z" transform="translate(-343.7 -445.6)"/><path class="cls-41" d="M414.5,464.7l.9.9v-.3h.1c.3-.6-.2-.3.4-.6s-.6-.4-1.4-.5Z" transform="translate(-343.7 -445.6)"/><path class="cls-43" d="M403.5,462.5l.3.5.4.3.3-.6v-.9C403.9,462,403.7,462.1,403.5,462.5Z" transform="translate(-343.7 -445.6)"/><path class="cls-86" d="M423.1,460v.3a3.1,3.1,0,0,0,1.9-1.4l.2-.6h-.1l-.5.6-.4.4C423.7,459.8,423.9,459.8,423.1,460Z" transform="translate(-343.7 -445.6)"/><path class="cls-87" d="M408.9,463.5h.2c.7-.5.6,0,.9-.8h-1.7v.4Z" transform="translate(-343.7 -445.6)"/><path class="cls-63" d="M424.7,455.9l.8-.5a1.5,1.5,0,0,0-1.7-.2l-.3.2C424.5,455.5,424,455.6,424.7,455.9Z" transform="translate(-343.7 -445.6)"/><path class="cls-32" d="M419.7,457.8c.5.8.5.3,1,1s.1,0,.5-.5h.7a6,6,0,0,1-2-.8Z" transform="translate(-343.7 -445.6)"/><path class="cls-88" d="M401.6,462.1v-.5h.2c.1.4,0,0,.2.2v-.8c-.2-.1.2-.1-.3.1-.9-1.6-.2-.9-.9-1.4A6,6,0,0,0,401.6,462.1Z" transform="translate(-343.7 -445.6)"/><path class="cls-89" d="M419,464.6c.1.8.3.7.5,1.3s.1-.2.4,0v-1.4Z" transform="translate(-343.7 -445.6)"/><path class="cls-70" d="M401.8,465.3v.5h.8l.6-.4v-.2l-.8-.3c-.6.3-.5-.2-.3.5S402.2,465.2,401.8,465.3Z" transform="translate(-343.7 -445.6)"/><path class="cls-10" d="M414.7,453.2c.3,1.1.5,1,.3,2.2s.1-.1.5-.1a.1.1,0,0,1-.1-.1h-.1v-.6h.4l.2-.2h-.5v-.6c-.1,0-.1.6-.5-.1s-.1-.4.2-.5v-.4h-.3Z" transform="translate(-343.7 -445.6)"/><path class="cls-68" d="M415.7,457.8v.2l-.7.3c.1,1,0,.2.3.5s-.1-.3.1-.6l1.5.5c-.2-.1,0-.1-.3-.3s.3.2.3-.2h-.8l.3-.2v-.4Z" transform="translate(-343.7 -445.6)"/><path class="cls-57" d="M421.5,466.7v.4c.6,0,.5-.1.7.5h.5V467c-.1-.6.2-.5-.5-.7v.6Z" transform="translate(-343.7 -445.6)"/><path class="cls-9" d="M423.1,460a7.7,7.7,0,0,1,1.9-1.7v-.4h-.3c-.6,1-.4.2-1.8,1.8C423,460,422.5,459.9,423.1,460Z" transform="translate(-343.7 -445.6)"/><path class="cls-84" d="M397.9,465.9h.7v.5l.7-.2.4-.4-.3-.4Z" transform="translate(-343.7 -445.6)"/><path class="cls-85" d="M407.8,448.6c-.1.8-.1.8.7,1v-.3H408l.4-1,.6.2c.1-.1.1-.2.2-.4h-.4l.2-.5c-.6.2-.2,0-.7.5Z" transform="translate(-343.7 -445.6)"/><path class="cls-17" d="M406.4,463.4h-.6l-.3.4-.2.5h.2l.4-.3c.6-.4.8-.3,1.1-.8v-.5C406.5,463.2,406.7,462.8,406.4,463.4Z" transform="translate(-343.7 -445.6)"/><path class="cls-17" d="M397.6,469.7c.3.6,0,.3.5-.5l.3-.4c.4-.4,0-.1.4-.3l.5-1.1-.5.4-.5.6A2.8,2.8,0,0,0,397.6,469.7Z" transform="translate(-343.7 -445.6)"/><path class="cls-84" d="M399.1,470.6c.3-.1.2,0,.4-.2h.4c.4-.2.3-.1.5-.6l-.3.3v-.4c-.5-.1-.2.4-.2-.2s.1-.6.1-.7l-.3.3c-.1.7-.1.9-.8,1.3Z" transform="translate(-343.7 -445.6)"/><path class="cls-77" d="M416.4,470.6l-.5,1h.6c-.1-.8-.1-.3.1-.6s.2-.1.6.1v.4s.3.3.5-.4-.1-.5-.2-.6v.4C416.7,470.6,417.1,470.6,416.4,470.6Z" transform="translate(-343.7 -445.6)"/><path class="cls-90" d="M419,460.8h.5l.6.8h.8l-.6-.6-.9-.6h-.2Z" transform="translate(-343.7 -445.6)"/><path class="cls-91" d="M407.8,457.1H410v.8h.1v-.2c-.2-.8-.5-.4,0-.6l-.4-.2-.4-.2C408.8,457,408.3,456.8,407.8,457.1Z" transform="translate(-343.7 -445.6)"/><path class="cls-4" d="M403.1,461.3l-.4.5c-.2.7-.1.2.3.4l.9-.5V461C403.6,461.4,403.7,461.2,403.1,461.3Z" transform="translate(-343.7 -445.6)"/><path class="cls-54" d="M413.5,452l.6-.2c-.2.4-.5.6-.2.4v.7h0c.2-.3-.3-.3.4-.2l.3.4v.2l.2-.6-.5-.6-.6-.4C413.4,451.9,413.6,451.8,413.5,452Z" transform="translate(-343.7 -445.6)"/><path class="cls-92" d="M402.3,453.7c.6.6.5,1,1.3,1.2s0-.1-.4-.7h.1c-.1-.3,0-.1-.4-.2s.1-.3.9-.4-.2-.9-.7.2Z" transform="translate(-343.7 -445.6)"/><path class="cls-30" d="M419.4,456.8v.3l.6-.4c.1-.7.2-.4.3-.9s.4-.4-.1-.6S420,456.2,419.4,456.8Z" transform="translate(-343.7 -445.6)"/><path class="cls-36" d="M405.2,470.4c.4.1.1.1.2-.1v-1.2h0c-.7.2-.1.2-.4,1s.2-.7-.1-1.1-.1-.1-.1.3v1.1Z" transform="translate(-343.7 -445.6)"/><path class="cls-47" d="M403.2,465.3v.2c.5.1.5.1.8-.3l.3-.6c.4-1,.1-.4-.1-.6S403.8,464.8,403.2,465.3Z" transform="translate(-343.7 -445.6)"/><path class="cls-25" d="M420.1,461.5c.4.2-.3,0,.4.2h.4l.4.9c-.1-.6-.3-.6.1-.9l.3-.5h-.2c-.7-.2-.4-.4-1.2-.4l.6.6Z" transform="translate(-343.7 -445.6)"/><path class="cls-93" d="M423.1,460c.8-.2.6-.2,1.2-.7l.4-.4.5-.6H425A7.7,7.7,0,0,0,423.1,460Z" transform="translate(-343.7 -445.6)"/><path class="cls-33" d="M404.7,464.7l.6-.3.2-.5c-.1-.4.4,0-.3-.4l-.5.6C404.3,464.7,404.3,464.5,404.7,464.7Z" transform="translate(-343.7 -445.6)"/><path class="cls-43" d="M417.3,452.3c.4-.4.2-.4.6-.7l-.5-.7-.7,1.4Z" transform="translate(-343.7 -445.6)"/><path class="cls-14" d="M403.6,454.9h1.3a3.4,3.4,0,0,0-1.6-.8h-.1C403.6,454.8,403.5,454.2,403.6,454.9Z" transform="translate(-343.7 -445.6)"/><path class="cls-94" d="M409.2,448.1h.9c.4-.3.1.1.2-.4H410c-.6-.3-.4-.2-1.1-.1h.1l-.2.5Z" transform="translate(-343.7 -445.6)"/><path class="cls-16" d="M420,463.5c.2,0,.1-.2.4.1h.5v-.2a5,5,0,0,1-1.7-1.1l-.7.3C419.3,462.9,419.6,462.8,420,463.5Z" transform="translate(-343.7 -445.6)"/><path class="cls-69" d="M411.9,465.2v.4l.4-.2c.4,0,.3.1.5.2l.6-.9C413,464.4,412.3,465,411.9,465.2Z" transform="translate(-343.7 -445.6)"/><path class="cls-32" d="M407.3,459.2l.7-.3h.7c-.2-.3,0-.2-.5-.4h-1c-.3-.2-.2.2-.3-.2S407.3,458.2,407.3,459.2Z" transform="translate(-343.7 -445.6)"/><path class="cls-61" d="M420.3,460.9c.8,0,.5.2,1.2.4l-.3-.4-.4-.2c-1-.5-.6,0-.8-.7l-.5.2h-.1Z" transform="translate(-343.7 -445.6)"/><path class="cls-63" d="M400.9,463.6l.4.3c.3-.5.4-.6,0-1l-1-.3h.1A2.1,2.1,0,0,0,400.9,463.6Z" transform="translate(-343.7 -445.6)"/><path class="cls-41" d="M427.9,456.5a1.4,1.4,0,0,1,0-.9v-.3c0-.4.2.1-.1-.2s-.4.2-1,.6.7-.4.6.8Z" transform="translate(-343.7 -445.6)"/><path class="cls-36" d="M404,469h0v2.5A2,2,0,0,0,404,469Z" transform="translate(-343.7 -445.6)"/><path class="cls-50" d="M405.2,459.6h0v.3c-.2.7-.1.1.2.4s.6-.6.6-.7-.3.2,0-.2-.1.4.3-.6A5.3,5.3,0,0,0,405.2,459.6Z" transform="translate(-343.7 -445.6)"/><path class="cls-50" d="M402.1,462.1c.8-.5.1-.5.8-1.2h.1l-1-.2Z" transform="translate(-343.7 -445.6)"/><path class="cls-95" d="M410.8,451.1l-.6.3c.5.4.2.3.9.1v.6h.4v-.5l-.4-.7Z" transform="translate(-343.7 -445.6)"/><path class="cls-35" d="M411.3,455.2l-1.2-.8h-.4l.3.5C410.3,455.5,410.9,455.3,411.3,455.2Z" transform="translate(-343.7 -445.6)"/><path class="cls-90" d="M410.5,452h.7v-.6c-.7.2-.4.3-.9-.1l.6-.3H410l-.2.2V451c-.3.3-.3-.3-.2.4S410.2,451.6,410.5,452Z" transform="translate(-343.7 -445.6)"/><path class="cls-8" d="M415.5,455.3h-.1l1.2-.3v-.2l-1.3-.2.4-.3h-.4v.6h.1A.1.1,0,0,0,415.5,455.3Z" transform="translate(-343.7 -445.6)"/><path class="cls-95" d="M415.9,454.2l-.2.2-.4.3,1.3.2v-.7c-.3-.4.3-.4-.3-.3Z" transform="translate(-343.7 -445.6)"/><path class="cls-96" d="M408.2,465.9c1-.2.3-.1.6.1v.4c0-1.2,0-.1.5-1.1s0-.1,0-.3-.2-.2-.7.3Z" transform="translate(-343.7 -445.6)"/><path class="cls-94" d="M418.4,453.9v.7c.3.3-.5.3.6.3s-.4-.1.3-1.1h-.3Z" transform="translate(-343.7 -445.6)"/><path class="cls-97" d="M419.3,457.4l.2.2-.5.2h.7l.2-.3c.2-.5,0-.1.4-.2l-.2-.6-.6.4v-.3C419.2,457,419.2,457,419.3,457.4Z" transform="translate(-343.7 -445.6)"/><path class="cls-15" d="M406.5,464.1l-.3.5h.4c.4-.1.1.1.6-.4h.4V464c-.7.3-.3.2-.4-.3Z" transform="translate(-343.7 -445.6)"/><path class="cls-10" d="M412.8,466.1h.4c.1-.5-.1-.3.3-.5s.1-.1.3.3.3-.4,0-1S413.2,465.3,412.8,466.1Z" transform="translate(-343.7 -445.6)"/><path class="cls-98" d="M406.3,458.4c.1.1.1.2.3.3s.2-.2.3.4h.4c0-1-.1-.2-.4-1v-.3h-.4C406.7,458.8,406.6,458.3,406.3,458.4Z" transform="translate(-343.7 -445.6)"/><path class="cls-99" d="M402,460.7l1,.2c.2.1.3,0,.5.3s.4-.3-.5-.7l-.3-.2c-.1,0,0-.1-.4-.1Z" transform="translate(-343.7 -445.6)"/><path class="cls-79" d="M401.8,456.9c.6.5,0,.1.5.2l.6-.5a1.6,1.6,0,0,1-1-.2c-.5-.1-.4-.4-.6,0Z" transform="translate(-343.7 -445.6)"/><path class="cls-74" d="M409.2,448.1c.2.5-.1.2.2.4h1.2c.1-.6.2-.5-.3-.8s.2.1-.2.4Z" transform="translate(-343.7 -445.6)"/><path class="cls-39" d="M413.2,452.5c.5.6-.1.2.7.4v-.7c-.3.2,0,0,.2-.4l-.6.2-.5.2C413.1,452.5,412.9,452.3,413.2,452.5Z" transform="translate(-343.7 -445.6)"/><path class="cls-29" d="M408.4,461.8v.2l1.1-.2c.2-.1.4-.4.6-.4h-1.3Z" transform="translate(-343.7 -445.6)"/><path class="cls-17" d="M405.5,454.6c.4.4.2.4.6.9h.3l-.3-1.1h-.6Z" transform="translate(-343.7 -445.6)"/><path class="cls-92" d="M414.6,453l-.3-.4c-.7-.1-.2-.1-.4.2s-.7.3.3,1.4C414.5,453.4,414.2,453.5,414.6,453Z" transform="translate(-343.7 -445.6)"/><path class="cls-74" d="M419.3,459.2l.4.3c.6.1.4.2.4-.4h-.2c.2-.3-.1-.1.3-.1s.1-.5-.7-.5l.2.4Z" transform="translate(-343.7 -445.6)"/><path class="cls-51" d="M420.2,464.7c.1.5-.1.7.4.8a.1.1,0,0,0,.1.1l.7.2c-.5-.4-.2-.3-.5-.7S420.8,464.8,420.2,464.7Z" transform="translate(-343.7 -445.6)"/><path class="cls-31" d="M406.3,459.7l.3.2c-.1,0-.1,0-.1.1h-.1c-.4.7,0,.5.2.6l.2-.2.2-1.1C406.3,459.5,406.7,459.3,406.3,459.7Z" transform="translate(-343.7 -445.6)"/><path class="cls-39" d="M419.7,467h.4c-.3-.8-.5-.4-.2-1s-.2-.2-.4,0l-.4.7Z" transform="translate(-343.7 -445.6)"/><path class="cls-100" d="M403.7,459.4l.2.4,1.3-.3h0c.1-.5.2-.4-.3-.4Z" transform="translate(-343.7 -445.6)"/><path class="cls-50" d="M410.2,450.2h0c.1.4.2.4.2.8h.4l.3-.2c-.9.2-.2.1-.5-.2s-.1-.1.4-.3v-.2c-.2-.2,0-.2-.5-.2Z" transform="translate(-343.7 -445.6)"/><path class="cls-45" d="M401.5,457.3c-.2-.4-.4-.5-.9-.5l-.5.3A1.2,1.2,0,0,0,401.5,457.3Z" transform="translate(-343.7 -445.6)"/><path class="cls-101" d="M404.7,463l.9.5v-.9l-.4.4c-.2-.1-.1-.2-.2-.3s.1-.2-.4-.2Z" transform="translate(-343.7 -445.6)"/><path class="cls-4" d="M404.8,460.6l.2,2.1c.2-1.3-.1-1.1.3-2s.1-.3,0-.5Z" transform="translate(-343.7 -445.6)"/><path class="cls-72" d="M409.1,463.5l.2.4.9-.5-.3-.9-1.2.3H410C409.7,463.5,409.8,463,409.1,463.5Z" transform="translate(-343.7 -445.6)"/><path class="cls-13" d="M420.4,456.6h-.3l.2.6.7-.4h.8c-.3-.2-.1-.1-.3-.4S420.8,456.8,420.4,456.6Z" transform="translate(-343.7 -445.6)"/><path class="cls-35" d="M405.5,454.6v-.2h-.1l-.8-.5-.9-.4c.4.6,0,.1.5.5h.2C404.7,454.4,405,454.8,405.5,454.6Z" transform="translate(-343.7 -445.6)"/><path class="cls-79" d="M413.2,466.1v.4c.3.4-.2.1.5.2l.2-.8c-.2-.4,0-.2-.3-.3S413.3,465.6,413.2,466.1Z" transform="translate(-343.7 -445.6)"/><path class="cls-15" d="M402.1,462.1v.2h1c-.4-.2-.5.3-.3-.4l.4-.5-.2-.4C402.2,461.6,402.9,461.6,402.1,462.1Z" transform="translate(-343.7 -445.6)"/><path class="cls-85" d="M423.2,465.1v-1.4c-.3-.5,0-.2-.4-.3S422.7,464.6,423.2,465.1Z" transform="translate(-343.7 -445.6)"/><path class="cls-45" d="M427,455h.8c-.4-.8-.3.1-.3-.9h-.6Z" transform="translate(-343.7 -445.6)"/><path class="cls-19" d="M404.5,452.1c-.1-1.1-.1-.6.3-.8l-.7-1A2.8,2.8,0,0,0,404.5,452.1Z" transform="translate(-343.7 -445.6)"/><path class="cls-58" d="M403.6,468.3h0l.5-.9-1-.5C403.4,467.7,403.5,467.2,403.6,468.3Z" transform="translate(-343.7 -445.6)"/><path class="cls-57" d="M413.5,455.1c-.4.6-.1,0-.3.6l.3-.2h.9v-.3C413.8,454.9,414.1,454.9,413.5,455.1Z" transform="translate(-343.7 -445.6)"/><path class="cls-87" d="M406.9,458.2c.1.4,0,0,.3.2h1l-.6-.4C407,457.9,407.4,457.7,406.9,458.2Z" transform="translate(-343.7 -445.6)"/><path class="cls-102" d="M404.5,452.1h1l-.7-.7C404.4,451.5,404.4,451,404.5,452.1Z" transform="translate(-343.7 -445.6)"/><polygon class="cls-103" points="65.6 18.3 65.8 18.5 66 18.5 66.4 18.5 66.8 18.4 66.7 17.9 66.5 17.8 65.6 18.3"/><path class="cls-82" d="M399.8,465.9l-.4.4v.3c.8-.5.5,0,1.1-.6l.3-.2Z" transform="translate(-343.7 -445.6)"/><path class="cls-104" d="M400.6,468.9c-.2.5,0,.3-.4.7v.4l.3-.3a3.8,3.8,0,0,0,.9-1.2h-.5Z" transform="translate(-343.7 -445.6)"/><path class="cls-4" d="M400.2,457.7l1.1.7c.1-.9.4-.4-.3-.8S400.6,457.5,400.2,457.7Z" transform="translate(-343.7 -445.6)"/><path class="cls-105" d="M418.9,461.1l1.2.4-.6-.8H419C418.7,461,418.9,460.7,418.9,461.1Z" transform="translate(-343.7 -445.6)"/><path class="cls-4" d="M409.6,452.2l.4-.7a1.1,1.1,0,0,0-.9.6,2.8,2.8,0,0,0,0-1.3v1.3Z" transform="translate(-343.7 -445.6)"/><path class="cls-106" d="M425,457.9v.4h.4v-.4c0-.7.1-.3-.1-.6h-.3Z" transform="translate(-343.7 -445.6)"/><path class="cls-107" d="M400,460.8l-.3-1.4c-.4.1-.2-.2-.3.1l.3,1.4Z" transform="translate(-343.7 -445.6)"/><path class="cls-108" d="M416.1,470.6l-.8-.4-.2.3.4.6C416,470.8,415.8,470.9,416.1,470.6Z" transform="translate(-343.7 -445.6)"/><path class="cls-55" d="M413.9,460.7h.5a3.3,3.3,0,0,0-.4-1.4h-.2A1.7,1.7,0,0,1,413.9,460.7Z" transform="translate(-343.7 -445.6)"/><path class="cls-71" d="M410.5,450c.5,0,.3,0,.5.2h.4c-.2-.3-.2-.2-.1-.4v-.2h-.6c-.6.1-.2,0-.5.2S410.6,449.5,410.5,450Z" transform="translate(-343.7 -445.6)"/><path class="cls-94" d="M404.8,460.6v-.4l-.5.2c-.2,1.3,0,.5.2.9Z" transform="translate(-343.7 -445.6)"/><path class="cls-109" d="M407.8,467.6c.5-.2.1-.1.3.1v.4c0,.5-.1.2.1.4l.5-.3c-.6-.2-.3,0-.2-.9s.3-.3-.3,0Z" transform="translate(-343.7 -445.6)"/><path class="cls-110" d="M422.7,463.4c.4.1.1-.2.4.3s.3.2.4-.5,0-.2-.6-.2h-.4C423,463.3,422.6,463.1,422.7,463.4Z" transform="translate(-343.7 -445.6)"/><path class="cls-94" d="M421.4,461.7c-.1.7-.2.3.3.4l.2-.2.2-.4H422l-.3-.2Z" transform="translate(-343.7 -445.6)"/><path class="cls-27" d="M411.1,450.9l.4.7c.5-.2-.5.2.1,0s.1,0,.3-.2-.5-.7-.5-.8-.3-.5.4.1-.2-.2-.2-.2a.1.1,0,0,1-.1-.1c0-.1-.1-.1-.1-.2H411v.2l.3.2Z" transform="translate(-343.7 -445.6)"/><path class="cls-111" d="M421.3,462.6v.3h.5c-.4-.5-.2-.3-.2-.8s-.4.3-.3-.4S421.2,462,421.3,462.6Z" transform="translate(-343.7 -445.6)"/><path class="cls-67" d="M416.8,466.5l.8.5a1.1,1.1,0,0,0-.7-1C416.6,466.3,416.6,465.9,416.8,466.5Z" transform="translate(-343.7 -445.6)"/><path class="cls-106" d="M414.7,469.9l.4-.8v-.3h.6c-.2-.3-.1-.2-.5-.3S414.7,469.1,414.7,469.9Z" transform="translate(-343.7 -445.6)"/><path class="cls-55" d="M420.1,467.3v.4h.7c.1-.8,0-.3-.1-.6h-.5Z" transform="translate(-343.7 -445.6)"/><path class="cls-69" d="M416.2,462.2l-.2.5h.4l.7-.5c-.3-.2,0,0-.4-.1Z" transform="translate(-343.7 -445.6)"/><path class="cls-86" d="M400.5,464.5c.2.2,0,.1.4.3s.1.2.5.1,0-.2-.2-.5l-.4-.2h-.2Z" transform="translate(-343.7 -445.6)"/><path class="cls-55" d="M417.6,456.8l.8.2v-.6h-.2c-.3-.3-.2.4-.2-.6Z" transform="translate(-343.7 -445.6)"/><polygon class="cls-112" points="58.6 21.3 58.7 21 58.8 20.3 58 20.3 58.6 21.3"/><polygon class="cls-81" points="75.4 13.7 75.6 13.6 76 13.4 75.8 12.9 75.3 12.7 75.4 13.7"/><path class="cls-30" d="M417.1,458.7c.2.3,0,.2.4.3l.5-.8c-.2-.1,0-.1-.4.1Z" transform="translate(-343.7 -445.6)"/><path class="cls-42" d="M425.4,458.3h-.1l-.2.6.3-.2h.2l.3.2V458Z" transform="translate(-343.7 -445.6)"/><path class="cls-113" d="M420.4,453.2v.2h.6l.3-.4h-.6c.4-.7.1-.1.1-.5Z" transform="translate(-343.7 -445.6)"/><path class="cls-111" d="M421.9,461.9h.6v-.5c-.3-.4-.5-.1-.6.1h.1Z" transform="translate(-343.7 -445.6)"/><path class="cls-2" d="M413.8,451.6l.6.4c0-.9.2.2.5-1s-1,.9-1.1.6Z" transform="translate(-343.7 -445.6)"/><path class="cls-114" d="M419,457.8l.5-.2-.2-.2c-1.3.1-.6-.1-.9.4h.6Z" transform="translate(-343.7 -445.6)"/><path class="cls-115" d="M417.3,460.1l.6.5.6.5v-.4l-.4-.9c.2,1.1.2.3-.3.6S417.7,460.3,417.3,460.1Z" transform="translate(-343.7 -445.6)"/><path class="cls-45" d="M422.2,467.6c.7.5.8.4.9-.3l-.5-.3v.7Z" transform="translate(-343.7 -445.6)"/><path class="cls-97" d="M422.2,459.9c-.1,1-.1.3.2.5h.5l-.3-.7-.3.3Z" transform="translate(-343.7 -445.6)"/><path class="cls-85" d="M414.9,456.3l.3-.5c-.3,0-.2.1-.2-.3l-.3.4-.4-.3C414.4,456.2,414.4,456.1,414.9,456.3Z" transform="translate(-343.7 -445.6)"/><polygon class="cls-3" points="57.2 22.6 57.1 23 57.6 23 57.8 22.1 57.4 22.4 57.2 22.6"/><polygon class="cls-106" points="63.2 17.2 63.2 17.3 63.3 17.7 63.7 17.7 63.7 17.5 63.7 17.1 63.2 17.2"/><path class="cls-6" d="M416.5,471.5c.3.5.6-.1.6-.1h-.5c.1-.3.2-.2.6-.3s0-.2-.6-.1S416.4,470.7,416.5,471.5Z" transform="translate(-343.7 -445.6)"/><path class="cls-70" d="M411.4,450.2c1.3.2.3.1.6-.1s0-.3-.7-.3S411.2,449.9,411.4,450.2Z" transform="translate(-343.7 -445.6)"/><path class="cls-111" d="M416.8,466.5c-.2-.6-.2-.2.1-.5s.1-.3-.2-.3-.4,0-.9,0Z" transform="translate(-343.7 -445.6)"/><path class="cls-19" d="M406.7,457.6v.4h.1v.3c.5-.5.1-.3.7-.3l-.5-.6v.3Z" transform="translate(-343.7 -445.6)"/><polygon class="cls-54" points="77.8 21.2 78.3 21.3 78.4 20.7 77.7 20.7 77.8 21.2"/><path class="cls-47" d="M418.8,460.4v-.7c-.7,0-.2-.3-.5.2S418.3,460,418.8,460.4Z" transform="translate(-343.7 -445.6)"/><path class="cls-116" d="M410.2,450.2l.3-.2c.1-.5.2-.4-.3-.3H410v.2c-.1.1-.2.4-.3.4Z" transform="translate(-343.7 -445.6)"/><path class="cls-83" d="M407.7,463.7v.6c.4,0,.4-.2.5-.5s.4,0,0-.2Z" transform="translate(-343.7 -445.6)"/><polygon class="cls-113" points="63.6 15 63.1 15.1 63 15.5 63.9 15.3 63.6 15"/><path class="cls-87" d="M411.1,450.9l.2-.3-.3-.2c-.5.2-.1-.2-.4.3S410.2,451.1,411.1,450.9Z" transform="translate(-343.7 -445.6)"/><path class="cls-104" d="M418,457.3h-.9l.3.4C418.4,457.6,417.7,457.8,418,457.3Z" transform="translate(-343.7 -445.6)"/><path class="cls-103" d="M414.9,452.6h.3l.4-.7C415,452.1,414.8,452.1,414.9,452.6Z" transform="translate(-343.7 -445.6)"/><path class="cls-39" d="M419.1,459.3v.8l.2-.5c.3-.1.4,0,.7.1l-.2-.2-.4-.3Z" transform="translate(-343.7 -445.6)"/><path class="cls-21" d="M421.7,448.5l.2.2c.4-.4.2-.2.4-.7S421.9,448,421.7,448.5Z" transform="translate(-343.7 -445.6)"/><path class="cls-77" d="M398.6,466h-.7l-.2.5A1.3,1.3,0,0,0,398.6,466Z" transform="translate(-343.7 -445.6)"/><path class="cls-99" d="M417.9,454.7h.3v-.4h-.9C418.1,454.7,417.8,454,417.9,454.7Z" transform="translate(-343.7 -445.6)"/><path class="cls-105" d="M413.5,455.1c.6-.2.3-.2.9,0l-.5-.6h0Z" transform="translate(-343.7 -445.6)"/><path class="cls-78" d="M411,448.4h.1v-.9h-.3C410.7,448,410.8,447.7,411,448.4Z" transform="translate(-343.7 -445.6)"/><path class="cls-117" d="M417.9,468.1c-.5.1-.8-.1-.8.3h.5Z" transform="translate(-343.7 -445.6)"/><path class="cls-24" d="M405.8,463.5h.6l-.2-.4c-.2-.1.2-.2-.2-.1Z" transform="translate(-343.7 -445.6)"/><path class="cls-103" d="M410.5,452h-.3v.3c.4.3.1.2.6.2v-.3C410.6,452,410.6,452,410.5,452Z" transform="translate(-343.7 -445.6)"/><polygon class="cls-74" points="69.7 17 70.5 17 70 16.4 69.7 17"/><polygon class="cls-103" points="66 3.8 66.1 4.3 66.3 4.3 66.3 4.2 66.4 3.4 66 3.8"/><path class="cls-1" d="M421.6,448.6c-.3,1-.2.3.3.6v-.5l-.2-.2Z" transform="translate(-343.7 -445.6)"/><path class="cls-29" d="M422.2,462.2l.6.4c-.1-.4.2-.2-.2-.5S422.3,462.2,422.2,462.2Z" transform="translate(-343.7 -445.6)"/><path class="cls-60" d="M413.9,447.5v-.7h-.1c-.3.1-.1-.4-.3.4S413.1,447.5,413.9,447.5Z" transform="translate(-343.7 -445.6)"/><path class="cls-118" d="M406.4,457.9h.3c-.2-.5-.2.5-.2-.6s-.1-.1-.4.4Z" transform="translate(-343.7 -445.6)"/><path class="cls-52" d="M403.3,462.9c.7,0,.2-.1.3.3s.2.1.2-.2l-.3-.5h-.2Z" transform="translate(-343.7 -445.6)"/><path class="cls-119" d="M422.9,460.3h-.5c-.3-.2-.3.5-.2-.5-.3.6-.2,0-.1.7h.5C423.1,460.3,422.6,460.6,422.9,460.3Z" transform="translate(-343.7 -445.6)"/><path class="cls-120" d="M415,463.5c-.9.1-.3-.2-.5.4S414.6,464.7,415,463.5Z" transform="translate(-343.7 -445.6)"/><path class="cls-64" d="M412.5,464.2c-.1.4.3.4-.1.3s.5-.1.7-.6S413.1,463.8,412.5,464.2Z" transform="translate(-343.7 -445.6)"/><path class="cls-40" d="M405.6,455.3c-.5-.5-.3-.4-1-.3l.4.2C405.3,455.4,405.3,455.3,405.6,455.3Z" transform="translate(-343.7 -445.6)"/><path class="cls-94" d="M406.9,468.1h.3c.4-.3,0-.1.2-.5h-.5Z" transform="translate(-343.7 -445.6)"/><path class="cls-70" d="M415,455.4h0c0,.4-.1.3.2.3l.2-.4h.1C415.1,455.3,415.2,455.2,415,455.4Z" transform="translate(-343.7 -445.6)"/><path class="cls-121" d="M403.7,472.4c.7-.2.4.2.5-.5S403.9,471.7,403.7,472.4Z" transform="translate(-343.7 -445.6)"/><path class="cls-103" d="M417,458.2c.1-.3.2,0,0-.3h-.5l-.3.2Z" transform="translate(-343.7 -445.6)"/><path class="cls-86" d="M419.8,454.3c.1.3,0,.2.3.2l.3-.4C420.1,453.8,420.2,453.9,419.8,454.3Z" transform="translate(-343.7 -445.6)"/><polygon class="cls-98" points="82.5 9.9 82.9 9.8 82.7 9.3 82.5 9.3 82.5 9.9"/><path class="cls-40" d="M417.9,462.2h.7l-.3-.3C417.7,462,418.1,461.7,417.9,462.2Z" transform="translate(-343.7 -445.6)"/><path class="cls-122" d="M417.1,471.4V471c-.4.1-.5,0-.6.3Z" transform="translate(-343.7 -445.6)"/><path class="cls-116" d="M420.1,452.6c.2.5,0,.3.3.2s.1-.4,0-.6Z" transform="translate(-343.7 -445.6)"/><path class="cls-94" d="M410,462.1c-.2,1-.2.2.2.5S410.4,462.4,410,462.1Z" transform="translate(-343.7 -445.6)"/><path class="cls-106" d="M397.8,471.6h.2c-.2-.3.4-.1-.4-.3S397.5,471.5,397.8,471.6Z" transform="translate(-343.7 -445.6)"/><path class="cls-123" d="M403.6,468.9v-.4c0-.6.2,0-.1-.3h0l-.2.5Z" transform="translate(-343.7 -445.6)"/><path class="cls-109" d="M407.3,465.1l.6-.3c-.2-.2-.1-.2-.5-.3a.3.3,0,0,0,.1.2v.2C407.4,464.9,407.4,465.1,407.3,465.1Z" transform="translate(-343.7 -445.6)"/><path class="cls-16" d="M407.6,464v-.3h-.5C407.3,464.2,406.9,464.3,407.6,464Z" transform="translate(-343.7 -445.6)"/><path class="cls-19" d="M413,463.4h.7C413,463,413.4,463.2,413,463.4Z" transform="translate(-343.7 -445.6)"/><path class="cls-122" d="M403.6,463.2c-.1.1-.4-.2-.1.3s0,.1.4.3Z" transform="translate(-343.7 -445.6)"/><path class="cls-39" d="M412.5,456.3h.1c-.2-.5.4-.4-.4-.4S412.2,456,412.5,456.3Z" transform="translate(-343.7 -445.6)"/><polygon class="cls-39" points="76.3 22.2 76.3 22.1 76.4 21.7 76.1 21.7 76.1 22.3 76.3 22.2"/><path class="cls-27" d="M421.6,453.2c.2-.2.2.4.2-.4h-.4Z" transform="translate(-343.7 -445.6)"/><path class="cls-64" d="M412.4,448.1h-.3c-.2.7-.1.2.2.4S412.3,448.6,412.4,448.1Z" transform="translate(-343.7 -445.6)"/><path class="cls-124" d="M404.2,453.4l.8.2c0-.2,0-.2-.1-.3l-.3-.4v.6Z" transform="translate(-343.7 -445.6)"/><path class="cls-35" d="M424.3,464.3l.7.2-.3-.6C424.7,464.5,424.9,464.4,424.3,464.3Z" transform="translate(-343.7 -445.6)"/><path class="cls-103" d="M412.6,452.4c-.2-.7-.3-.1-.3.1Z" transform="translate(-343.7 -445.6)"/><path class="cls-125" d="M410.1,464.1h.6c-.3-.2-.1-.1-.3-.6v.4Z" transform="translate(-343.7 -445.6)"/><polygon class="cls-27" points="64.6 13.2 64.3 13.3 64.4 13.6 64.6 13.2"/><polygon class="cls-99" points="75.1 20.2 75.4 20 75.1 19.9 75.1 20.2"/><path class="cls-42" d="M410,462.1c.2-.7,0-.2-.1-.3S409.7,461.9,410,462.1Z" transform="translate(-343.7 -445.6)"/><polygon class="cls-39" points="66.3 5.5 66 5.5 66.1 5.8 66.3 5.5"/><path d="M349.3,497.9a11.5,11.5,0,0,1,.2-4.4v-.3l-.8,1.4-1.3,2.2c-.7,1-1,1.2-1.5,1.2s-.3,0-.4-.2-.4-.5-.3-1.6a8,8,0,0,1,.7-3.1,36.6,36.6,0,0,1,1.8-3.9c.4-.6.8-.7.9-.4s0,.2-.2.8a27.2,27.2,0,0,0-1.3,3.1,11.3,11.3,0,0,0-.9,2.8,4.9,4.9,0,0,0-.2,1.9q.2.2.9-.9l1.8-3c1.7-2.8,1.8-2.9,2.1-2.8l.2.2-.2,1a22.1,22.1,0,0,0-.7,4.6,2.8,2.8,0,0,0,.3,2c.2.2.3.2.7,0s2.6-2.7,4.1-5.8a12.1,12.1,0,0,0,1.2-3.5,4.6,4.6,0,0,0-.1-1.7h-.1c-.3,0-.3-.3,0-.4s.5-.1.6.2a2.3,2.3,0,0,1,.2,1.5,10.5,10.5,0,0,1-1,3.5,34.3,34.3,0,0,1-2.9,5.1c-1.1,1.4-2.2,2.1-2.8,1.8A1.9,1.9,0,0,1,349.3,497.9Z" transform="translate(-343.7 -445.6)"/><path d="M357.5,494.4a3.3,3.3,0,0,0-.3.6c-.1.2-.1.2,0,.3h.6l3.3-.9c.7-.2.9-.3.9,0s-.2.1-.7.3l-3.1.9a3.8,3.8,0,0,1-1.5,0c-.5-.2-.5-.7-.1-1.4s.5-.5.8-.5S357.8,493.9,357.5,494.4Zm1.2-2.2c-.3.4-.5.5-.7.3s.2-.8.6-.8S358.9,491.9,358.7,492.2Z" transform="translate(-343.7 -445.6)"/><path d="M362.1,493.9q.4,0,0,.6c-.3.4-.4.6-.1,1l.2.3.5-.2a29.2,29.2,0,0,1,4.1-1.3c.2,0,.2.2-.2.3l-1.6.6-2,.7-.6.3v.2a1.5,1.5,0,0,1-.7,1.2,2,2,0,0,1-1.4.4c-.2-.1-.4-.2-.4-.4s.1-.3.4-.6l.8-.6.4-.3-.3-.4a.9.9,0,0,1-.2-1.1c.3-.4.6-.7.9-.7Zm-1.6,3.7h.5c.5-.3,1-.9.8-.9h0C361.6,496.6,360.5,497.4,360.5,497.6Z" transform="translate(-343.7 -445.6)"/><path d="M368.5,493.9c.2.4-.3,1-.9,1.2h-.9v.2q-.2.3,0,.3c.2.2.5.2,1.2.1s1.1-.2,3.7-1.2c.7-.3.9-.3.9-.1s-.1.2-1.1.6a18.1,18.1,0,0,1-3.6,1.2c-.7.1-.8.1-1.1,0s-1.1-.7-.6-1.4a2.2,2.2,0,0,1,1.7-1A1.5,1.5,0,0,1,368.5,493.9Zm-1.5.6c0,.2.5.2.7,0s.2-.2.2-.3h-.2C367.5,494.1,367,494.4,367,494.5Z" transform="translate(-343.7 -445.6)"/><path d="M380.7,497.9a14.1,14.1,0,0,1,.2-4.4q.2-.3,0-.3a15.5,15.5,0,0,1-.8,1.4l-1.3,2.2c-.7,1-.9,1.2-1.4,1.2s-.3,0-.5-.2-.3-.5-.3-1.6a14.8,14.8,0,0,1,.7-3.1,35.7,35.7,0,0,1,1.9-3.9c.3-.6.7-.7.9-.4s0,.2-.3.8l-1.3,3.1c-.4,1.2-.6,1.7-.9,2.8a6.8,6.8,0,0,0-.1,1.9c.1.1.4-.2.8-.9a28.7,28.7,0,0,0,1.9-3c1.7-2.8,1.8-2.9,2.1-2.8s.1.1.1.2,0,.5-.2,1a31.7,31.7,0,0,0-.7,4.6,3.3,3.3,0,0,0,.4,2q.2.3.6,0c1.2-.6,2.7-2.7,4.1-5.8a17.1,17.1,0,0,0,1.3-3.5,4.6,4.6,0,0,0-.1-1.7h-.2c-.2,0-.2-.3,0-.4a.4.4,0,0,1,.7.2,5.4,5.4,0,0,1,.2,1.5,11.2,11.2,0,0,1-1.1,3.5,27.3,27.3,0,0,1-2.9,5.1c-1,1.4-2.2,2.1-2.8,1.8A2.3,2.3,0,0,1,380.7,497.9Z" transform="translate(-343.7 -445.6)"/><path d="M390.2,493.9c.2.4-.3,1-.8,1.2h-1v.2c-.1.2-.1.3.1.3s.4.2,1.1.1,1.2-.2,3.7-1.2c.7-.3,1-.3,1-.1s-.2.2-1.2.6a20.3,20.3,0,0,1-3.5,1.2c-.8.1-.9.1-1.2,0s-1.1-.7-.6-1.4a2.4,2.4,0,0,1,1.7-1A1.5,1.5,0,0,1,390.2,493.9Zm-1.5.6c0,.2.5.2.7,0s.2-.2.2-.3,0-.1-.2-.1S388.7,494.4,388.7,494.5Z" transform="translate(-343.7 -445.6)"/><path d="M400.4,489.4c0,.6-.4,1.1-1.4,2.2a15.2,15.2,0,0,1-2.2,2.2l-1,.8a6.2,6.2,0,0,0-.3,2.9c.2.1.2.3,0,.3s-.3.1-.5-.1-.4-.7-.3-1.5.2-.9-.4-.6-1.3.6-1.6.4-.2-.3-.1-.8a2.6,2.6,0,0,1,1.6-1.5.8.8,0,0,1,.8.3l.2.2.3-.6c1-2.3,2.6-4.3,3.8-4.7h.4C400.1,488.8,400.4,489,400.4,489.4Zm-6.5,5.2a2.8,2.8,0,0,0-.5.9c0,.1.5-.2.9-.4l.5-.4v-.2l-.2-.3h0C394.3,494.2,394.1,494.4,393.9,494.6Zm5.7-5.3a2.9,2.9,0,0,0-1.2.9,22.9,22.9,0,0,0-1.6,2.3,12,12,0,0,0-.6,1.2l.8-.7a18.9,18.9,0,0,0,2.4-2.6,1.2,1.2,0,0,0,.4-.8v-.4Z" transform="translate(-343.7 -445.6)"/><path d="M404.3,489.4c0,.6-.3,1.1-1.3,2.2a16.3,16.3,0,0,1-2.3,2.2l-.9.8c-.3.5-.6,2.8-.3,2.9s.2.3,0,.3-.3.1-.5-.1-.4-.7-.3-1.5.1-.9-.4-.6-1.3.6-1.6.4-.2-.3-.1-.8a2.6,2.6,0,0,1,1.6-1.5.8.8,0,0,1,.8.3v.2l.3-.6c1.1-2.3,2.7-4.3,3.9-4.7h.4A.5.5,0,0,1,404.3,489.4Zm-6.4,5.2a3.5,3.5,0,0,0-.6.9c0,.1.6-.2,1-.4l.5-.4-.2-.2a1,1,0,0,0-.1-.3h-.1Zm5.7-5.3a2.9,2.9,0,0,0-1.2.9,13.4,13.4,0,0,0-1.6,2.3,12,12,0,0,0-.6,1.2l.8-.7a18.9,18.9,0,0,0,2.4-2.6,5.9,5.9,0,0,0,.4-.8v-.4Z" transform="translate(-343.7 -445.6)"/><path d="M402.7,494.4l-.4.6c-.1.2-.1.2.1.3h.5l3.4-.9c.7-.2.9-.3.9,0l-.7.3-3.1.9a3.7,3.7,0,0,1-1.5,0c-.5-.2-.6-.7-.1-1.4a.8.8,0,0,1,.7-.5C402.9,493.8,402.9,493.9,402.7,494.4Zm1.2-2.2c-.3.4-.6.5-.8.3s.2-.8.6-.8S404.1,491.9,403.9,492.2Z" transform="translate(-343.7 -445.6)"/><path d="M406.9,493.8a.5.5,0,0,1,.7-.1c.1.1.1.2-.1.6l-.2.3c0,.1.2,0,.4-.2s1.8-.8,2.1-.5a.8.8,0,0,1,.3.7v.2c.2.2,1,.1,2.6-.2s1.9-.4,1.9-.2a.3.3,0,0,0-.1.2l-1.1.2-1.6.4a4.8,4.8,0,0,1-2,.1c-.3-.1-.4-.3-.5-.8s-.1-.4-.7-.2-.7.3-1.4,1-.9.6-1.1.3S406.4,494.3,406.9,493.8Z" transform="translate(-343.7 -445.6)"/><path d="M415.4,493.8h.4c.2.1.2.2.2.2h.5c.6-.2.7-.1.9.2a1.6,1.6,0,0,1,.1,1.2v.2l.6-.3a15.2,15.2,0,0,1,3.2-1.1h.6c.1.1.1.1,0,.2l-.5.2a13.2,13.2,0,0,0-3.9,1.5c-.2.1-.3.2-.5.6a13.7,13.7,0,0,1-3.2,4.2c-.8.6-1.4.7-1.8.5s-.5-.7,0-1.5a16.5,16.5,0,0,1,3.5-3.1l1-.7a9.9,9.9,0,0,0,.3-1.5v-.3h-.2l-1.1.6c-1.3.7-1.5.8-1.9.6s-.1-.2-.1-.4a2.2,2.2,0,0,1,1.8-1.4Zm-1.8,5c-1.1,1-1.6,1.8-1.4,2.1s.1.2.3.1l.6-.3a10.6,10.6,0,0,0,1.4-1.5c.6-.8,1.4-2.1,1.4-2.1h-.1Zm1.2-4.2a.9.9,0,0,0-.4.5l.6-.3c.6-.4.6-.4.5-.5h-.1C415.2,494.2,415.1,494.3,414.8,494.6Z" transform="translate(-343.7 -445.6)"/></svg>